<svg version="1.1" viewBox="0.0 0.0 600.0 371.0" fill="none" stroke="none" stroke-linecap="square" stroke-miterlimit="10" width="600" height="371" xmlns:xlink="http://www.w3.org/1999/xlink" xmlns="http://www.w3.org/2000/svg"><path fill="#ffffff" d="M0 0L600.0 0L600.0 371.0L0 371.0L0 0Z" fill-rule="nonzero"/><path stroke="#333333" stroke-width="1.0" stroke-linecap="butt" d="M59.5 332.5L492.5 332.5" fill-rule="nonzero"/><path stroke="#cccccc" stroke-width="1.0" stroke-linecap="butt" d="M59.5 264.5L492.5 264.5" fill-rule="nonzero"/><path stroke="#cccccc" stroke-width="1.0" stroke-linecap="butt" d="M59.5 197.5L492.5 197.5" fill-rule="nonzero"/><path stroke="#cccccc" stroke-width="1.0" stroke-linecap="butt" d="M59.5 129.5L492.5 129.5" fill-rule="nonzero"/><path stroke="#cccccc" stroke-width="1.0" stroke-linecap="butt" d="M59.5 61.5L492.5 61.5" fill-rule="nonzero"/><clipPath id="id_0"><path d="M59.55 61.916668L492.61444 61.916668L492.61444 332.45L59.55 332.45L59.55 61.916668Z" clip-rule="nonzero"/></clipPath><path stroke="#000000" stroke-width="2.0" stroke-linecap="butt" stroke-opacity="0.0" clip-path="url(#id_0)" d="M118.0 332.0L106.0 332.0L106.0 329.0C106.0 327.89542 106.89543 327.0 108.0 327.0L116.0 327.0C117.10457 327.0 118.0 327.89542 118.0 329.0Z" fill-rule="nonzero"/><path fill="#4285f4" clip-path="url(#id_0)" d="M118.0 332.0L106.0 332.0L106.0 329.0C106.0 327.89542 106.89543 327.0 108.0 327.0L116.0 327.0C117.10457 327.0 118.0 327.89542 118.0 329.0Z" fill-rule="nonzero"/><path stroke="#000000" stroke-width="2.0" stroke-linecap="butt" stroke-opacity="0.0" clip-path="url(#id_0)" d="M247.0 332.0L235.0 332.0L235.0 327.0C235.0 325.89542 235.89543 325.0 237.0 325.0L245.0 325.0C246.10457 325.0 247.0 325.89542 247.0 327.0Z" fill-rule="nonzero"/><path fill="#4285f4" clip-path="url(#id_0)" d="M247.0 332.0L235.0 332.0L235.0 327.0C235.0 325.89542 235.89543 325.0 237.0 325.0L245.0 325.0C246.10457 325.0 247.0 325.89542 247.0 327.0Z" fill-rule="nonzero"/><path stroke="#000000" stroke-width="2.0" stroke-linecap="butt" stroke-opacity="0.0" clip-path="url(#id_0)" d="M376.0 332.0L364.0 332.0L364.0 324.0C364.0 322.89542 364.89542 322.0 366.0 322.0L374.0 322.0C375.10458 322.0 376.0 322.89542 376.0 324.0Z" fill-rule="nonzero"/><path fill="#4285f4" clip-path="url(#id_0)" d="M376.0 332.0L364.0 332.0L364.0 324.0C364.0 322.89542 364.89542 322.0 366.0 322.0L374.0 322.0C375.10458 322.0 376.0 322.89542 376.0 324.0Z" fill-rule="nonzero"/><path stroke="#000000" stroke-width="2.0" stroke-linecap="butt" stroke-opacity="0.0" clip-path="url(#id_0)" d="M132.0 332.0L120.0 332.0L120.0 322.0C120.0 320.89542 120.89543 320.0 122.0 320.0L130.0 320.0C131.10457 320.0 132.0 320.89542 132.0 322.0Z" fill-rule="nonzero"/><path fill="#ea4335" clip-path="url(#id_0)" d="M132.0 332.0L120.0 332.0L120.0 322.0C120.0 320.89542 120.89543 320.0 122.0 320.0L130.0 320.0C131.10457 320.0 132.0 320.89542 132.0 322.0Z" fill-rule="nonzero"/><path stroke="#000000" stroke-width="2.0" stroke-linecap="butt" stroke-opacity="0.0" clip-path="url(#id_0)" d="M261.0 332.0L249.0 332.0L249.0 321.0C249.0 319.89542 249.89543 319.0 251.0 319.0L259.0 319.0C260.10458 319.0 261.0 319.89542 261.0 321.0Z" fill-rule="nonzero"/><path fill="#ea4335" clip-path="url(#id_0)" d="M261.0 332.0L249.0 332.0L249.0 321.0C249.0 319.89542 249.89543 319.0 251.0 319.0L259.0 319.0C260.10458 319.0 261.0 319.89542 261.0 321.0Z" fill-rule="nonzero"/><path stroke="#000000" stroke-width="2.0" stroke-linecap="butt" stroke-opacity="0.0" clip-path="url(#id_0)" d="M390.0 332.0L378.0 332.0L378.0 317.0C378.0 315.89542 378.89542 315.0 380.0 315.0L388.0 315.0C389.10458 315.0 390.0 315.89542 390.0 317.0Z" fill-rule="nonzero"/><path fill="#ea4335" clip-path="url(#id_0)" d="M390.0 332.0L378.0 332.0L378.0 317.0C378.0 315.89542 378.89542 315.0 380.0 315.0L388.0 315.0C389.10458 315.0 390.0 315.89542 390.0 317.0Z" fill-rule="nonzero"/><path stroke="#000000" stroke-width="2.0" stroke-linecap="butt" stroke-opacity="0.0" clip-path="url(#id_0)" d="M146.0 332.0L134.0 332.0L134.0 310.0C134.0 308.89542 134.89543 308.0 136.0 308.0L144.0 308.0C145.10457 308.0 146.0 308.89542 146.0 310.0Z" fill-rule="nonzero"/><path fill="#fbbc04" clip-path="url(#id_0)" d="M146.0 332.0L134.0 332.0L134.0 310.0C134.0 308.89542 134.89543 308.0 136.0 308.0L144.0 308.0C145.10457 308.0 146.0 308.89542 146.0 310.0Z" fill-rule="nonzero"/><path stroke="#000000" stroke-width="2.0" stroke-linecap="butt" stroke-opacity="0.0" clip-path="url(#id_0)" d="M275.0 332.0L263.0 332.0L263.0 261.0C263.0 259.89542 263.89542 259.0 265.0 259.0L273.0 259.0C274.10458 259.0 275.0 259.89542 275.0 261.0Z" fill-rule="nonzero"/><path fill="#fbbc04" clip-path="url(#id_0)" d="M275.0 332.0L263.0 332.0L263.0 261.0C263.0 259.89542 263.89542 259.0 265.0 259.0L273.0 259.0C274.10458 259.0 275.0 259.89542 275.0 261.0Z" fill-rule="nonzero"/><path stroke="#000000" stroke-width="2.0" stroke-linecap="butt" stroke-opacity="0.0" clip-path="url(#id_0)" d="M404.0 332.0L392.0 332.0L392.0 64.0C392.0 62.89543 392.89542 62.0 394.0 62.0L402.0 62.0C403.10458 62.0 404.0 62.89543 404.0 64.0Z" fill-rule="nonzero"/><path fill="#fbbc04" clip-path="url(#id_0)" d="M404.0 332.0L392.0 332.0L392.0 64.0C392.0 62.89543 392.89542 62.0 394.0 62.0L402.0 62.0C403.10458 62.0 404.0 62.89543 404.0 64.0Z" fill-rule="nonzero"/><path stroke="#000000" stroke-width="2.0" stroke-linecap="butt" stroke-opacity="0.0" clip-path="url(#id_0)" d="M160.0 332.0L148.0 332.0L148.0 320.0C148.0 318.89542 148.89543 318.0 150.0 318.0L158.0 318.0C159.10457 318.0 160.0 318.89542 160.0 320.0Z" fill-rule="nonzero"/><path fill="#34a853" clip-path="url(#id_0)" d="M160.0 332.0L148.0 332.0L148.0 320.0C148.0 318.89542 148.89543 318.0 150.0 318.0L158.0 318.0C159.10457 318.0 160.0 318.89542 160.0 320.0Z" fill-rule="nonzero"/><path stroke="#000000" stroke-width="2.0" stroke-linecap="butt" stroke-opacity="0.0" clip-path="url(#id_0)" d="M289.0 332.0L277.0 332.0L277.0 319.0C277.0 317.89542 277.89542 317.0 279.0 317.0L287.0 317.0C288.10458 317.0 289.0 317.89542 289.0 319.0Z" fill-rule="nonzero"/><path fill="#34a853" clip-path="url(#id_0)" d="M289.0 332.0L277.0 332.0L277.0 319.0C277.0 317.89542 277.89542 317.0 279.0 317.0L287.0 317.0C288.10458 317.0 289.0 317.89542 289.0 319.0Z" fill-rule="nonzero"/><path stroke="#000000" stroke-width="2.0" stroke-linecap="butt" stroke-opacity="0.0" clip-path="url(#id_0)" d="M418.0 332.0L406.0 332.0L406.0 313.0C406.0 311.89542 406.89542 311.0 408.0 311.0L416.0 311.0C417.10458 311.0 418.0 311.89542 418.0 313.0Z" fill-rule="nonzero"/><path fill="#34a853" clip-path="url(#id_0)" d="M418.0 332.0L406.0 332.0L406.0 313.0C406.0 311.89542 406.89542 311.0 408.0 311.0L416.0 311.0C417.10458 311.0 418.0 311.89542 418.0 313.0Z" fill-rule="nonzero"/><path stroke="#000000" stroke-width="2.0" stroke-linecap="butt" stroke-opacity="0.0" clip-path="url(#id_0)" d="M174.0 332.0L162.0 332.0L162.0 328.0C162.0 326.89542 162.89543 326.0 164.0 326.0L172.0 326.0C173.10457 326.0 174.0 326.89542 174.0 328.0Z" fill-rule="nonzero"/><path fill="#ff6d01" clip-path="url(#id_0)" d="M174.0 332.0L162.0 332.0L162.0 328.0C162.0 326.89542 162.89543 326.0 164.0 326.0L172.0 326.0C173.10457 326.0 174.0 326.89542 174.0 328.0Z" fill-rule="nonzero"/><path stroke="#000000" stroke-width="2.0" stroke-linecap="butt" stroke-opacity="0.0" clip-path="url(#id_0)" d="M303.0 332.0L291.0 332.0L291.0 325.0C291.0 323.89542 291.89542 323.0 293.0 323.0L301.0 323.0C302.10458 323.0 303.0 323.89542 303.0 325.0Z" fill-rule="nonzero"/><path fill="#ff6d01" clip-path="url(#id_0)" d="M303.0 332.0L291.0 332.0L291.0 325.0C291.0 323.89542 291.89542 323.0 293.0 323.0L301.0 323.0C302.10458 323.0 303.0 323.89542 303.0 325.0Z" fill-rule="nonzero"/><path stroke="#000000" stroke-width="2.0" stroke-linecap="butt" stroke-opacity="0.0" clip-path="url(#id_0)" d="M432.0 332.0L420.0 332.0L420.0 321.0C420.0 319.89542 420.89542 319.0 422.0 319.0L430.0 319.0C431.10458 319.0 432.0 319.89542 432.0 321.0Z" fill-rule="nonzero"/><path fill="#ff6d01" clip-path="url(#id_0)" d="M432.0 332.0L420.0 332.0L420.0 321.0C420.0 319.89542 420.89542 319.0 422.0 319.0L430.0 319.0C431.10458 319.0 432.0 319.89542 432.0 321.0Z" fill-rule="nonzero"/><path stroke="#000000" stroke-width="2.0" stroke-linecap="butt" stroke-opacity="0.0" clip-path="url(#id_0)" d="M188.0 332.0L176.0 332.0L176.0 330.5C176.0 329.67157 176.67157 329.0 177.5 329.0L186.5 329.0C187.32843 329.0 188.0 329.67157 188.0 330.5Z" fill-rule="nonzero"/><path fill="#46bdc6" clip-path="url(#id_0)" d="M188.0 332.0L176.0 332.0L176.0 330.5C176.0 329.67157 176.67157 329.0 177.5 329.0L186.5 329.0C187.32843 329.0 188.0 329.67157 188.0 330.5Z" fill-rule="nonzero"/><path stroke="#000000" stroke-width="2.0" stroke-linecap="butt" stroke-opacity="0.0" clip-path="url(#id_0)" d="M317.0 332.0L305.0 332.0L305.0 329.0C305.0 327.89542 305.89542 327.0 307.0 327.0L315.0 327.0C316.10458 327.0 317.0 327.89542 317.0 329.0Z" fill-rule="nonzero"/><path fill="#46bdc6" clip-path="url(#id_0)" d="M317.0 332.0L305.0 332.0L305.0 329.0C305.0 327.89542 305.89542 327.0 307.0 327.0L315.0 327.0C316.10458 327.0 317.0 327.89542 317.0 329.0Z" fill-rule="nonzero"/><path stroke="#000000" stroke-width="2.0" stroke-linecap="butt" stroke-opacity="0.0" clip-path="url(#id_0)" d="M446.0 332.0L434.0 332.0L434.0 327.0C434.0 325.89542 434.89542 325.0 436.0 325.0L444.0 325.0C445.10458 325.0 446.0 325.89542 446.0 327.0Z" fill-rule="nonzero"/><path fill="#46bdc6" clip-path="url(#id_0)" d="M446.0 332.0L434.0 332.0L434.0 327.0C434.0 325.89542 434.89542 325.0 436.0 325.0L444.0 325.0C445.10458 325.0 446.0 325.89542 446.0 327.0Z" fill-rule="nonzero"/><path fill="#000000" d="M47.05 332.21564Q47.05 330.6844 47.3625 329.7625Q47.675 328.825 48.284374 328.325Q48.909374 327.825 49.846874 327.825Q50.534374 327.825 51.05 328.10626Q51.58125 328.3875 51.925 328.91876Q52.26875 329.4344 52.45625 330.1844Q52.64375 330.9344 52.64375 332.21564Q52.64375 333.73126 52.33125 334.65314Q52.034374 335.575 51.409374 336.09064Q50.8 336.59064 49.846874 336.59064Q48.6125 336.59064 47.89375 335.7Q47.05 334.6375 47.05 332.21564ZM48.128124 332.21564Q48.128124 334.325 48.628124 335.02814Q49.128124 335.73126 49.846874 335.73126Q50.58125 335.73126 51.065624 335.02814Q51.565624 334.325 51.565624 332.21564Q51.565624 330.09064 51.065624 329.40314Q50.58125 328.7 49.83125 328.7Q49.1125 328.7 48.675 329.3094Q48.128124 330.09064 48.128124 332.21564Z" fill-rule="nonzero"/><path fill="#000000" d="M23.01875 268.81668L21.971874 268.81668L21.971874 262.09793Q21.58125 262.4573 20.95625 262.8323Q20.346874 263.19168 19.8625 263.36356L19.8625 262.34793Q20.7375 261.92606 21.39375 261.34793Q22.065624 260.75418 22.346874 260.19168L23.01875 260.19168L23.01875 268.81668ZM26.05 264.5823Q26.05 263.05106 26.3625 262.12918Q26.675 261.19168 27.284374 260.69168Q27.909374 260.19168 28.846874 260.19168Q29.534374 260.19168 30.05 260.47293Q30.58125 260.75418 30.925 261.28543Q31.26875 261.80106 31.45625 262.55106Q31.64375 263.30106 31.64375 264.5823Q31.64375 266.09793 31.33125 267.0198Q31.034374 267.94168 30.409374 268.4573Q29.8 268.9573 28.846874 268.9573Q27.6125 268.9573 26.89375 268.06668Q26.05 267.00418 26.05 264.5823ZM27.128124 264.5823Q27.128124 266.69168 27.628124 267.3948Q28.128124 268.09793 28.846874 268.09793Q29.58125 268.09793 30.065624 267.3948Q30.565624 266.69168 30.565624 264.5823Q30.565624 262.4573 30.065624 261.7698Q29.58125 261.06668 28.83125 261.06668Q28.1125 261.06668 27.675 261.67606Q27.128124 262.4573 27.128124 264.5823ZM33.05 264.5823Q33.05 263.05106 33.3625 262.12918Q33.675 261.19168 34.284374 260.69168Q34.909374 260.19168 35.846874 260.19168Q36.534374 260.19168 37.05 260.47293Q37.58125 260.75418 37.925 261.28543Q38.26875 261.80106 38.45625 262.55106Q38.64375 263.30106 38.64375 264.5823Q38.64375 266.09793 38.33125 267.0198Q38.034374 267.94168 37.409374 268.4573Q36.8 268.9573 35.846874 268.9573Q34.6125 268.9573 33.89375 268.06668Q33.05 267.00418 33.05 264.5823ZM34.128124 264.5823Q34.128124 266.69168 34.628124 267.3948Q35.128124 268.09793 35.846874 268.09793Q36.58125 268.09793 37.065624 267.3948Q37.565624 266.69168 37.565624 264.5823Q37.565624 262.4573 37.065624 261.7698Q36.58125 261.06668 35.83125 261.06668Q35.1125 261.06668 34.675 261.67606Q34.128124 262.4573 34.128124 264.5823ZM40.05 264.5823Q40.05 263.05106 40.3625 262.12918Q40.675 261.19168 41.284374 260.69168Q41.909374 260.19168 42.846874 260.19168Q43.534374 260.19168 44.05 260.47293Q44.58125 260.75418 44.925 261.28543Q45.26875 261.80106 45.45625 262.55106Q45.64375 263.30106 45.64375 264.5823Q45.64375 266.09793 45.33125 267.0198Q45.034374 267.94168 44.409374 268.4573Q43.8 268.9573 42.846874 268.9573Q41.6125 268.9573 40.89375 268.06668Q40.05 267.00418 40.05 264.5823ZM41.128124 264.5823Q41.128124 266.69168 41.628124 267.3948Q42.128124 268.09793 42.846874 268.09793Q43.58125 268.09793 44.065624 267.3948Q44.565624 266.69168 44.565624 264.5823Q44.565624 262.4573 44.065624 261.7698Q43.58125 261.06668 42.83125 261.06668Q42.1125 261.06668 41.675 261.67606Q41.128124 262.4573 41.128124 264.5823ZM47.05 264.5823Q47.05 263.05106 47.3625 262.12918Q47.675 261.19168 48.284374 260.69168Q48.909374 260.19168 49.846874 260.19168Q50.534374 260.19168 51.05 260.47293Q51.58125 260.75418 51.925 261.28543Q52.26875 261.80106 52.45625 262.55106Q52.64375 263.30106 52.64375 264.5823Q52.64375 266.09793 52.33125 267.0198Q52.034374 267.94168 51.409374 268.4573Q50.8 268.9573 49.846874 268.9573Q48.6125 268.9573 47.89375 268.06668Q47.05 267.00418 47.05 264.5823ZM48.128124 264.5823Q48.128124 266.69168 48.628124 267.3948Q49.128124 268.09793 49.846874 268.09793Q50.58125 268.09793 51.065624 267.3948Q51.565624 266.69168 51.565624 264.5823Q51.565624 262.4573 51.065624 261.7698Q50.58125 261.06668 49.83125 261.06668Q49.1125 261.06668 48.675 261.67606Q48.128124 262.4573 48.128124 264.5823Z" fill-rule="nonzero"/><path fill="#000000" d="M24.596874 200.16771L24.596874 201.18333L18.909374 201.18333Q18.909374 200.80833 19.034374 200.44896Q19.253124 199.87083 19.721874 199.30833Q20.20625 198.74583 21.1125 198.01146Q22.51875 196.85521 23.003124 196.18333Q23.503124 195.51146 23.503124 194.91771Q23.503124 194.29271 23.05 193.87083Q22.596874 193.43333 21.878124 193.43333Q21.1125 193.43333 20.659374 193.88646Q20.20625 194.33958 20.190624 195.15208L19.1125 195.04271Q19.221874 193.82396 19.940624 193.19896Q20.675 192.55833 21.909374 192.55833Q23.14375 192.55833 23.8625 193.24583Q24.58125 193.93333 24.58125 194.94896Q24.58125 195.46458 24.3625 195.96458Q24.159374 196.44896 23.659374 197.01146Q23.175 197.55833 22.05 198.51146Q21.096874 199.30833 20.815624 199.60521Q20.55 199.88646 20.378124 200.16771L24.596874 200.16771ZM26.05 196.94896Q26.05 195.41771 26.3625 194.49583Q26.675 193.55833 27.284374 193.05833Q27.909374 192.55833 28.846874 192.55833Q29.534374 192.55833 30.05 192.83958Q30.58125 193.12083 30.925 193.65208Q31.26875 194.16771 31.45625 194.91771Q31.64375 195.66771 31.64375 196.94896Q31.64375 198.46458 31.33125 199.38646Q31.034374 200.30833 30.409374 200.82396Q29.8 201.32396 28.846874 201.32396Q27.6125 201.32396 26.89375 200.43333Q26.05 199.37083 26.05 196.94896ZM27.128124 196.94896Q27.128124 199.05833 27.628124 199.76146Q28.128124 200.46458 28.846874 200.46458Q29.58125 200.46458 30.065624 199.76146Q30.565624 199.05833 30.565624 196.94896Q30.565624 194.82396 30.065624 194.13646Q29.58125 193.43333 28.83125 193.43333Q28.1125 193.43333 27.675 194.04271Q27.128124 194.82396 27.128124 196.94896ZM33.05 196.94896Q33.05 195.41771 33.3625 194.49583Q33.675 193.55833 34.284374 193.05833Q34.909374 192.55833 35.846874 192.55833Q36.534374 192.55833 37.05 192.83958Q37.58125 193.12083 37.925 193.65208Q38.26875 194.16771 38.45625 194.91771Q38.64375 195.66771 38.64375 196.94896Q38.64375 198.46458 38.33125 199.38646Q38.034374 200.30833 37.409374 200.82396Q36.8 201.32396 35.846874 201.32396Q34.6125 201.32396 33.89375 200.43333Q33.05 199.37083 33.05 196.94896ZM34.128124 196.94896Q34.128124 199.05833 34.628124 199.76146Q35.128124 200.46458 35.846874 200.46458Q36.58125 200.46458 37.065624 199.76146Q37.565624 199.05833 37.565624 196.94896Q37.565624 194.82396 37.065624 194.13646Q36.58125 193.43333 35.83125 193.43333Q35.1125 193.43333 34.675 194.04271Q34.128124 194.82396 34.128124 196.94896ZM40.05 196.94896Q40.05 195.41771 40.3625 194.49583Q40.675 193.55833 41.284374 193.05833Q41.909374 192.55833 42.846874 192.55833Q43.534374 192.55833 44.05 192.83958Q44.58125 193.12083 44.925 193.65208Q45.26875 194.16771 45.45625 194.91771Q45.64375 195.66771 45.64375 196.94896Q45.64375 198.46458 45.33125 199.38646Q45.034374 200.30833 44.409374 200.82396Q43.8 201.32396 42.846874 201.32396Q41.6125 201.32396 40.89375 200.43333Q40.05 199.37083 40.05 196.94896ZM41.128124 196.94896Q41.128124 199.05833 41.628124 199.76146Q42.128124 200.46458 42.846874 200.46458Q43.58125 200.46458 44.065624 199.76146Q44.565624 199.05833 44.565624 196.94896Q44.565624 194.82396 44.065624 194.13646Q43.58125 193.43333 42.83125 193.43333Q42.1125 193.43333 41.675 194.04271Q41.128124 194.82396 41.128124 196.94896ZM47.05 196.94896Q47.05 195.41771 47.3625 194.49583Q47.675 193.55833 48.284374 193.05833Q48.909374 192.55833 49.846874 192.55833Q50.534374 192.55833 51.05 192.83958Q51.58125 193.12083 51.925 193.65208Q52.26875 194.16771 52.45625 194.91771Q52.64375 195.66771 52.64375 196.94896Q52.64375 198.46458 52.33125 199.38646Q52.034374 200.30833 51.409374 200.82396Q50.8 201.32396 49.846874 201.32396Q48.6125 201.32396 47.89375 200.43333Q47.05 199.37083 47.05 196.94896ZM48.128124 196.94896Q48.128124 199.05833 48.628124 199.76146Q49.128124 200.46458 49.846874 200.46458Q50.58125 200.46458 51.065624 199.76146Q51.565624 199.05833 51.565624 196.94896Q51.565624 194.82396 51.065624 194.13646Q50.58125 193.43333 49.83125 193.43333Q49.1125 193.43333 48.675 194.04271Q48.128124 194.82396 48.128124 196.94896Z" fill-rule="nonzero"/><path fill="#000000" d="M19.05 131.28438L20.1125 131.14375Q20.284374 132.03438 20.721874 132.44063Q21.159374 132.83125 21.784374 132.83125Q22.534374 132.83125 23.05 132.31563Q23.565624 131.8 23.565624 131.03438Q23.565624 130.31563 23.08125 129.84688Q22.6125 129.3625 21.878124 129.3625Q21.58125 129.3625 21.128124 129.4875L21.253124 128.55Q21.3625 128.56563 21.425 128.56563Q22.096874 128.56563 22.628124 128.22188Q23.175 127.8625 23.175 127.12813Q23.175 126.55 22.784374 126.175Q22.39375 125.78438 21.76875 125.78438Q21.159374 125.78438 20.7375 126.175Q20.33125 126.56563 20.221874 127.33125L19.159374 127.14375Q19.346874 126.09688 20.034374 125.51875Q20.721874 124.925 21.7375 124.925Q22.440624 124.925 23.034374 125.2375Q23.628124 125.53438 23.940624 126.05Q24.253124 126.56563 24.253124 127.15938Q24.253124 127.70625 23.95625 128.175Q23.659374 128.62813 23.08125 128.89375Q23.83125 129.06563 24.253124 129.62813Q24.675 130.175 24.675 131.01875Q24.675 132.14375 23.846874 132.925Q23.034374 133.70625 21.784374 133.70625Q20.659374 133.70625 19.909374 133.03438Q19.159374 132.34688 19.05 131.28438ZM26.05 129.31563Q26.05 127.78438 26.3625 126.8625Q26.675 125.925 27.284374 125.425Q27.909374 124.925 28.846874 124.925Q29.534374 124.925 30.05 125.20625Q30.58125 125.4875 30.925 126.01875Q31.26875 126.53438 31.45625 127.28438Q31.64375 128.03438 31.64375 129.31563Q31.64375 130.83125 31.33125 131.75313Q31.034374 132.675 30.409374 133.19063Q29.8 133.69063 28.846874 133.69063Q27.6125 133.69063 26.89375 132.8Q26.05 131.7375 26.05 129.31563ZM27.128124 129.31563Q27.128124 131.425 27.628124 132.12813Q28.128124 132.83125 28.846874 132.83125Q29.58125 132.83125 30.065624 132.12813Q30.565624 131.425 30.565624 129.31563Q30.565624 127.19063 30.065624 126.50313Q29.58125 125.8 28.83125 125.8Q28.1125 125.8 27.675 126.40938Q27.128124 127.19063 27.128124 129.31563ZM33.05 129.31563Q33.05 127.78438 33.3625 126.8625Q33.675 125.925 34.284374 125.425Q34.909374 124.925 35.846874 124.925Q36.534374 124.925 37.05 125.20625Q37.58125 125.4875 37.925 126.01875Q38.26875 126.53438 38.45625 127.28438Q38.64375 128.03438 38.64375 129.31563Q38.64375 130.83125 38.33125 131.75313Q38.034374 132.675 37.409374 133.19063Q36.8 133.69063 35.846874 133.69063Q34.6125 133.69063 33.89375 132.8Q33.05 131.7375 33.05 129.31563ZM34.128124 129.31563Q34.128124 131.425 34.628124 132.12813Q35.128124 132.83125 35.846874 132.83125Q36.58125 132.83125 37.065624 132.12813Q37.565624 131.425 37.565624 129.31563Q37.565624 127.19063 37.065624 126.50313Q36.58125 125.8 35.83125 125.8Q35.1125 125.8 34.675 126.40938Q34.128124 127.19063 34.128124 129.31563ZM40.05 129.31563Q40.05 127.78438 40.3625 126.8625Q40.675 125.925 41.284374 125.425Q41.909374 124.925 42.846874 124.925Q43.534374 124.925 44.05 125.20625Q44.58125 125.4875 44.925 126.01875Q45.26875 126.53438 45.45625 127.28438Q45.64375 128.03438 45.64375 129.31563Q45.64375 130.83125 45.33125 131.75313Q45.034374 132.675 44.409374 133.19063Q43.8 133.69063 42.846874 133.69063Q41.6125 133.69063 40.89375 132.8Q40.05 131.7375 40.05 129.31563ZM41.128124 129.31563Q41.128124 131.425 41.628124 132.12813Q42.128124 132.83125 42.846874 132.83125Q43.58125 132.83125 44.065624 132.12813Q44.565624 131.425 44.565624 129.31563Q44.565624 127.19063 44.065624 126.50313Q43.58125 125.8 42.83125 125.8Q42.1125 125.8 41.675 126.40938Q41.128124 127.19063 41.128124 129.31563ZM47.05 129.31563Q47.05 127.78438 47.3625 126.8625Q47.675 125.925 48.284374 125.425Q48.909374 124.925 49.846874 124.925Q50.534374 124.925 51.05 125.20625Q51.58125 125.4875 51.925 126.01875Q52.26875 126.53438 52.45625 127.28438Q52.64375 128.03438 52.64375 129.31563Q52.64375 130.83125 52.33125 131.75313Q52.034374 132.675 51.409374 133.19063Q50.8 133.69063 49.846874 133.69063Q48.6125 133.69063 47.89375 132.8Q47.05 131.7375 47.05 129.31563ZM48.128124 129.31563Q48.128124 131.425 48.628124 132.12813Q49.128124 132.83125 49.846874 132.83125Q50.58125 132.83125 51.065624 132.12813Q51.565624 131.425 51.565624 129.31563Q51.565624 127.19063 51.065624 126.50313Q50.58125 125.8 49.83125 125.8Q49.1125 125.8 48.675 126.40938Q48.128124 127.19063 48.128124 129.31563Z" fill-rule="nonzero"/><path fill="#000000" d="M22.425 65.916664L22.425 63.854164L18.70625 63.854164L18.70625 62.885414L22.628124 57.322914L23.4875 57.322914L23.4875 62.885414L24.64375 62.885414L24.64375 63.854164L23.4875 63.854164L23.4875 65.916664L22.425 65.916664ZM22.425 62.885414L22.425 59.02604L19.7375 62.885414L22.425 62.885414ZM26.05 61.68229Q26.05 60.15104 26.3625 59.229164Q26.675 58.291664 27.284374 57.791664Q27.909374 57.291664 28.846874 57.291664Q29.534374 57.291664 30.05 57.572914Q30.58125 57.854164 30.925 58.385414Q31.26875 58.90104 31.45625 59.65104Q31.64375 60.40104 31.64375 61.68229Q31.64375 63.197914 31.33125 64.11979Q31.034374 65.041664 30.409374 65.55729Q29.8 66.05729 28.846874 66.05729Q27.6125 66.05729 26.89375 65.166664Q26.05 64.104164 26.05 61.68229ZM27.128124 61.68229Q27.128124 63.791664 27.628124 64.49479Q28.128124 65.197914 28.846874 65.197914Q29.58125 65.197914 30.065624 64.49479Q30.565624 63.791664 30.565624 61.68229Q30.565624 59.55729 30.065624 58.86979Q29.58125 58.166664 28.83125 58.166664Q28.1125 58.166664 27.675 58.77604Q27.128124 59.55729 27.128124 61.68229ZM33.05 61.68229Q33.05 60.15104 33.3625 59.229164Q33.675 58.291664 34.284374 57.791664Q34.909374 57.291664 35.846874 57.291664Q36.534374 57.291664 37.05 57.572914Q37.58125 57.854164 37.925 58.385414Q38.26875 58.90104 38.45625 59.65104Q38.64375 60.40104 38.64375 61.68229Q38.64375 63.197914 38.33125 64.11979Q38.034374 65.041664 37.409374 65.55729Q36.8 66.05729 35.846874 66.05729Q34.6125 66.05729 33.89375 65.166664Q33.05 64.104164 33.05 61.68229ZM34.128124 61.68229Q34.128124 63.791664 34.628124 64.49479Q35.128124 65.197914 35.846874 65.197914Q36.58125 65.197914 37.065624 64.49479Q37.565624 63.791664 37.565624 61.68229Q37.565624 59.55729 37.065624 58.86979Q36.58125 58.166664 35.83125 58.166664Q35.1125 58.166664 34.675 58.77604Q34.128124 59.55729 34.128124 61.68229ZM40.05 61.68229Q40.05 60.15104 40.3625 59.229164Q40.675 58.291664 41.284374 57.791664Q41.909374 57.291664 42.846874 57.291664Q43.534374 57.291664 44.05 57.572914Q44.58125 57.854164 44.925 58.385414Q45.26875 58.90104 45.45625 59.65104Q45.64375 60.40104 45.64375 61.68229Q45.64375 63.197914 45.33125 64.11979Q45.034374 65.041664 44.409374 65.55729Q43.8 66.05729 42.846874 66.05729Q41.6125 66.05729 40.89375 65.166664Q40.05 64.104164 40.05 61.68229ZM41.128124 61.68229Q41.128124 63.791664 41.628124 64.49479Q42.128124 65.197914 42.846874 65.197914Q43.58125 65.197914 44.065624 64.49479Q44.565624 63.791664 44.565624 61.68229Q44.565624 59.55729 44.065624 58.86979Q43.58125 58.166664 42.83125 58.166664Q42.1125 58.166664 41.675 58.77604Q41.128124 59.55729 41.128124 61.68229ZM47.05 61.68229Q47.05 60.15104 47.3625 59.229164Q47.675 58.291664 48.284374 57.791664Q48.909374 57.291664 49.846874 57.291664Q50.534374 57.291664 51.05 57.572914Q51.58125 57.854164 51.925 58.385414Q52.26875 58.90104 52.45625 59.65104Q52.64375 60.40104 52.64375 61.68229Q52.64375 63.197914 52.33125 64.11979Q52.034374 65.041664 51.409374 65.55729Q50.8 66.05729 49.846874 66.05729Q48.6125 66.05729 47.89375 65.166664Q47.05 64.104164 47.05 61.68229ZM48.128124 61.68229Q48.128124 63.791664 48.628124 64.49479Q49.128124 65.197914 49.846874 65.197914Q50.58125 65.197914 51.065624 64.49479Q51.565624 63.791664 51.565624 61.68229Q51.565624 59.55729 51.065624 58.86979Q50.58125 58.166664 49.83125 58.166664Q49.1125 58.166664 48.675 58.77604Q48.128124 59.55729 48.128124 61.68229Z" fill-rule="nonzero"/><path fill="#000000" d="M122.23113 349.45L122.23113 340.85626L123.38738 340.85626L127.90301 347.60626L127.90301 340.85626L128.99677 340.85626L128.99677 349.45L127.82488 349.45L123.30926 342.7L123.30926 349.45L122.23113 349.45ZM136.65302 344.40314L130.98114 344.40314L130.98114 343.41876L136.65302 343.41876L136.65302 344.40314ZM136.65302 347.0125L130.98114 347.0125L130.98114 346.02814L136.65302 346.02814L136.65302 347.0125ZM137.80927 347.2L138.91864 347.10626Q139.04364 347.91876 139.48114 348.325Q139.93427 348.73126 140.57489 348.73126Q141.32489 348.73126 141.85614 348.15314Q142.38739 347.575 142.38739 346.6375Q142.38739 345.73126 141.87177 345.21564Q141.37177 344.6844 140.54364 344.6844Q140.04364 344.6844 139.62177 344.91876Q139.21552 345.15314 138.98114 345.5125L137.99677 345.3875L138.82489 340.98126L143.10614 340.98126L143.10614 341.98126L139.66864 341.98126L139.21552 344.29376Q139.98114 343.7469 140.82489 343.7469Q141.94989 343.7469 142.71552 344.52814Q143.49677 345.3094 143.49677 346.54376Q143.49677 347.7 142.82489 348.5594Q141.99677 349.59064 140.57489 349.59064Q139.40302 349.59064 138.65302 348.9344Q137.91864 348.27814 137.80927 347.2ZM144.80927 345.21564Q144.80927 343.6844 145.12177 342.7625Q145.43427 341.825 146.04364 341.325Q146.66864 340.825 147.60614 340.825Q148.29364 340.825 148.80927 341.10626Q149.34052 341.3875 149.68427 341.91876Q150.02802 342.4344 150.21552 343.1844Q150.40302 343.9344 150.40302 345.21564Q150.40302 346.73126 150.09052 347.65314Q149.79364 348.575 149.16864 349.09064Q148.55927 349.59064 147.60614 349.59064Q146.37177 349.59064 145.65302 348.7Q144.80927 347.6375 144.80927 345.21564ZM145.88739 345.21564Q145.88739 347.325 146.38739 348.02814Q146.88739 348.73126 147.60614 348.73126Q148.34052 348.73126 148.82489 348.02814Q149.32489 347.325 149.32489 345.21564Q149.32489 343.09064 148.82489 342.40314Q148.34052 341.7 147.59052 341.7Q146.87177 341.7 146.43427 342.3094Q145.88739 343.09064 145.88739 345.21564ZM151.80927 345.21564Q151.80927 343.6844 152.12177 342.7625Q152.43427 341.825 153.04364 341.325Q153.66864 340.825 154.60614 340.825Q155.29364 340.825 155.80927 341.10626Q156.34052 341.3875 156.68427 341.91876Q157.02802 342.4344 157.21552 343.1844Q157.40302 343.9344 157.40302 345.21564Q157.40302 346.73126 157.09052 347.65314Q156.79364 348.575 156.16864 349.09064Q155.55927 349.59064 154.60614 349.59064Q153.37177 349.59064 152.65302 348.7Q151.80927 347.6375 151.80927 345.21564ZM152.88739 345.21564Q152.88739 347.325 153.38739 348.02814Q153.88739 348.73126 154.60614 348.73126Q155.34052 348.73126 155.82489 348.02814Q156.32489 347.325 156.32489 345.21564Q156.32489 343.09064 155.82489 342.40314Q155.34052 341.7 154.59052 341.7Q153.87177 341.7 153.43427 342.3094Q152.88739 343.09064 152.88739 345.21564ZM158.80927 345.21564Q158.80927 343.6844 159.12177 342.7625Q159.43427 341.825 160.04364 341.325Q160.66864 340.825 161.60614 340.825Q162.29364 340.825 162.80927 341.10626Q163.34052 341.3875 163.68427 341.91876Q164.02802 342.4344 164.21552 343.1844Q164.40302 343.9344 164.40302 345.21564Q164.40302 346.73126 164.09052 347.65314Q163.79364 348.575 163.16864 349.09064Q162.55927 349.59064 161.60614 349.59064Q160.37177 349.59064 159.65302 348.7Q158.80927 347.6375 158.80927 345.21564ZM159.88739 345.21564Q159.88739 347.325 160.38739 348.02814Q160.88739 348.73126 161.60614 348.73126Q162.34052 348.73126 162.82489 348.02814Q163.32489 347.325 163.32489 345.21564Q163.32489 343.09064 162.82489 342.40314Q162.34052 341.7 161.59052 341.7Q160.87177 341.7 160.43427 342.3094Q159.88739 343.09064 159.88739 345.21564ZM165.80927 345.21564Q165.80927 343.6844 166.12177 342.7625Q166.43427 341.825 167.04364 341.325Q167.66864 340.825 168.60614 340.825Q169.29364 340.825 169.80927 341.10626Q170.34052 341.3875 170.68427 341.91876Q171.02802 342.4344 171.21552 343.1844Q171.40302 343.9344 171.40302 345.21564Q171.40302 346.73126 171.09052 347.65314Q170.79364 348.575 170.16864 349.09064Q169.55927 349.59064 168.60614 349.59064Q167.37177 349.59064 166.65302 348.7Q165.80927 347.6375 165.80927 345.21564ZM166.88739 345.21564Q166.88739 347.325 167.38739 348.02814Q167.88739 348.73126 168.60614 348.73126Q169.34052 348.73126 169.82489 348.02814Q170.32489 347.325 170.32489 345.21564Q170.32489 343.09064 169.82489 342.40314Q169.34052 341.7 168.59052 341.7Q167.87177 341.7 167.43427 342.3094Q166.88739 343.09064 166.88739 345.21564Z" fill-rule="nonzero"/><path fill="#000000" d="M248.0041 349.45L248.0041 340.85626L249.16035 340.85626L253.67598 347.60626L253.67598 340.85626L254.76973 340.85626L254.76973 349.45L253.59785 349.45L249.08223 342.7L249.08223 349.45L248.0041 349.45ZM262.42596 344.40314L256.7541 344.40314L256.7541 343.41876L262.42596 343.41876L262.42596 344.40314ZM262.42596 347.0125L256.7541 347.0125L256.7541 346.02814L262.42596 346.02814L262.42596 347.0125ZM267.55096 349.45L266.5041 349.45L266.5041 342.73126Q266.11346 343.09064 265.48846 343.46564Q264.8791 343.825 264.3947 343.9969L264.3947 342.98126Q265.2697 342.5594 265.92596 341.98126Q266.59784 341.3875 266.8791 340.825L267.55096 340.825L267.55096 349.45ZM270.5822 345.21564Q270.5822 343.6844 270.8947 342.7625Q271.2072 341.825 271.8166 341.325Q272.4416 340.825 273.3791 340.825Q274.0666 340.825 274.5822 341.10626Q275.11346 341.3875 275.4572 341.91876Q275.80096 342.4344 275.98846 343.1844Q276.17596 343.9344 276.17596 345.21564Q276.17596 346.73126 275.86346 347.65314Q275.5666 348.575 274.9416 349.09064Q274.3322 349.59064 273.3791 349.59064Q272.1447 349.59064 271.42596 348.7Q270.5822 347.6375 270.5822 345.21564ZM271.66034 345.21564Q271.66034 347.325 272.16034 348.02814Q272.66034 348.73126 273.3791 348.73126Q274.11346 348.73126 274.59784 348.02814Q275.09784 347.325 275.09784 345.21564Q275.09784 343.09064 274.59784 342.40314Q274.11346 341.7 273.36346 341.7Q272.6447 341.7 272.2072 342.3094Q271.66034 343.09064 271.66034 345.21564ZM277.5822 345.21564Q277.5822 343.6844 277.8947 342.7625Q278.2072 341.825 278.8166 341.325Q279.4416 340.825 280.3791 340.825Q281.0666 340.825 281.5822 341.10626Q282.11346 341.3875 282.4572 341.91876Q282.80096 342.4344 282.98846 343.1844Q283.17596 343.9344 283.17596 345.21564Q283.17596 346.73126 282.86346 347.65314Q282.5666 348.575 281.9416 349.09064Q281.3322 349.59064 280.3791 349.59064Q279.1447 349.59064 278.42596 348.7Q277.5822 347.6375 277.5822 345.21564ZM278.66034 345.21564Q278.66034 347.325 279.16034 348.02814Q279.66034 348.73126 280.3791 348.73126Q281.11346 348.73126 281.59784 348.02814Q282.09784 347.325 282.09784 345.21564Q282.09784 343.09064 281.59784 342.40314Q281.11346 341.7 280.36346 341.7Q279.6447 341.7 279.2072 342.3094Q278.66034 343.09064 278.66034 345.21564ZM284.5822 345.21564Q284.5822 343.6844 284.8947 342.7625Q285.2072 341.825 285.8166 341.325Q286.4416 340.825 287.3791 340.825Q288.0666 340.825 288.5822 341.10626Q289.11346 341.3875 289.4572 341.91876Q289.80096 342.4344 289.98846 343.1844Q290.17596 343.9344 290.17596 345.21564Q290.17596 346.73126 289.86346 347.65314Q289.5666 348.575 288.9416 349.09064Q288.3322 349.59064 287.3791 349.59064Q286.1447 349.59064 285.42596 348.7Q284.5822 347.6375 284.5822 345.21564ZM285.66034 345.21564Q285.66034 347.325 286.16034 348.02814Q286.66034 348.73126 287.3791 348.73126Q288.11346 348.73126 288.59784 348.02814Q289.09784 347.325 289.09784 345.21564Q289.09784 343.09064 288.59784 342.40314Q288.11346 341.7 287.36346 341.7Q286.6447 341.7 286.2072 342.3094Q285.66034 343.09064 285.66034 345.21564ZM291.5822 345.21564Q291.5822 343.6844 291.8947 342.7625Q292.2072 341.825 292.8166 341.325Q293.4416 340.825 294.3791 340.825Q295.0666 340.825 295.5822 341.10626Q296.11346 341.3875 296.4572 341.91876Q296.80096 342.4344 296.98846 343.1844Q297.17596 343.9344 297.17596 345.21564Q297.17596 346.73126 296.86346 347.65314Q296.5666 348.575 295.9416 349.09064Q295.3322 349.59064 294.3791 349.59064Q293.1447 349.59064 292.42596 348.7Q291.5822 347.6375 291.5822 345.21564ZM292.66034 345.21564Q292.66034 347.325 293.16034 348.02814Q293.66034 348.73126 294.3791 348.73126Q295.11346 348.73126 295.59784 348.02814Q296.09784 347.325 296.09784 345.21564Q296.09784 343.09064 295.59784 342.40314Q295.11346 341.7 294.36346 341.7Q293.6447 341.7 293.2072 342.3094Q292.66034 343.09064 292.66034 345.21564ZM298.5822 345.21564Q298.5822 343.6844 298.8947 342.7625Q299.2072 341.825 299.8166 341.325Q300.4416 340.825 301.3791 340.825Q302.0666 340.825 302.5822 341.10626Q303.11346 341.3875 303.4572 341.91876Q303.80096 342.4344 303.98846 343.1844Q304.17596 343.9344 304.17596 345.21564Q304.17596 346.73126 303.86346 347.65314Q303.5666 348.575 302.9416 349.09064Q302.3322 349.59064 301.3791 349.59064Q300.1447 349.59064 299.42596 348.7Q298.5822 347.6375 298.5822 345.21564ZM299.66034 345.21564Q299.66034 347.325 300.16034 348.02814Q300.66034 348.73126 301.3791 348.73126Q302.11346 348.73126 302.59784 348.02814Q303.09784 347.325 303.09784 345.21564Q303.09784 343.09064 302.59784 342.40314Q302.11346 341.7 301.36346 341.7Q300.6447 341.7 300.2072 342.3094Q299.66034 343.09064 299.66034 345.21564Z" fill-rule="nonzero"/><path fill="#000000" d="M377.27707 349.45L377.27707 340.85626L378.43332 340.85626L382.94894 347.60626L382.94894 340.85626L384.0427 340.85626L384.0427 349.45L382.87082 349.45L378.3552 342.7L378.3552 349.45L377.27707 349.45ZM391.69894 344.40314L386.02707 344.40314L386.02707 343.41876L391.69894 343.41876L391.69894 344.40314ZM391.69894 347.0125L386.02707 347.0125L386.02707 346.02814L391.69894 346.02814L391.69894 347.0125ZM398.40207 348.4344L398.40207 349.45L392.71457 349.45Q392.71457 349.075 392.83957 348.71564Q393.05832 348.1375 393.52707 347.575Q394.01144 347.0125 394.9177 346.27814Q396.32394 345.1219 396.80832 344.45Q397.30832 343.77814 397.30832 343.1844Q397.30832 342.5594 396.8552 342.1375Q396.40207 341.7 395.68332 341.7Q394.9177 341.7 394.46457 342.15314Q394.01144 342.60626 393.99582 343.41876L392.9177 343.3094Q393.02707 342.09064 393.74582 341.46564Q394.4802 340.825 395.71457 340.825Q396.94894 340.825 397.6677 341.5125Q398.38644 342.2 398.38644 343.21564Q398.38644 343.73126 398.1677 344.23126Q397.96457 344.71564 397.46457 345.27814Q396.9802 345.825 395.8552 346.77814Q394.90207 347.575 394.62082 347.8719Q394.3552 348.15314 394.18332 348.4344L398.40207 348.4344ZM399.8552 345.21564Q399.8552 343.6844 400.1677 342.7625Q400.4802 341.825 401.08957 341.325Q401.71457 340.825 402.65207 340.825Q403.33957 340.825 403.8552 341.10626Q404.38644 341.3875 404.7302 341.91876Q405.07394 342.4344 405.26144 343.1844Q405.44894 343.9344 405.44894 345.21564Q405.44894 346.73126 405.13644 347.65314Q404.83957 348.575 404.21457 349.09064Q403.6052 349.59064 402.65207 349.59064Q401.4177 349.59064 400.69894 348.7Q399.8552 347.6375 399.8552 345.21564ZM400.93332 345.21564Q400.93332 347.325 401.43332 348.02814Q401.93332 348.73126 402.65207 348.73126Q403.38644 348.73126 403.87082 348.02814Q404.37082 347.325 404.37082 345.21564Q404.37082 343.09064 403.87082 342.40314Q403.38644 341.7 402.63644 341.7Q401.9177 341.7 401.4802 342.3094Q400.93332 343.09064 400.93332 345.21564ZM406.8552 345.21564Q406.8552 343.6844 407.1677 342.7625Q407.4802 341.825 408.08957 341.325Q408.71457 340.825 409.65207 340.825Q410.33957 340.825 410.8552 341.10626Q411.38644 341.3875 411.7302 341.91876Q412.07394 342.4344 412.26144 343.1844Q412.44894 343.9344 412.44894 345.21564Q412.44894 346.73126 412.13644 347.65314Q411.83957 348.575 411.21457 349.09064Q410.6052 349.59064 409.65207 349.59064Q408.4177 349.59064 407.69894 348.7Q406.8552 347.6375 406.8552 345.21564ZM407.93332 345.21564Q407.93332 347.325 408.43332 348.02814Q408.93332 348.73126 409.65207 348.73126Q410.38644 348.73126 410.87082 348.02814Q411.37082 347.325 411.37082 345.21564Q411.37082 343.09064 410.87082 342.40314Q410.38644 341.7 409.63644 341.7Q408.9177 341.7 408.4802 342.3094Q407.93332 343.09064 407.93332 345.21564ZM413.8552 345.21564Q413.8552 343.6844 414.1677 342.7625Q414.4802 341.825 415.08957 341.325Q415.71457 340.825 416.65207 340.825Q417.33957 340.825 417.8552 341.10626Q418.38644 341.3875 418.7302 341.91876Q419.07394 342.4344 419.26144 343.1844Q419.44894 343.9344 419.44894 345.21564Q419.44894 346.73126 419.13644 347.65314Q418.83957 348.575 418.21457 349.09064Q417.6052 349.59064 416.65207 349.59064Q415.4177 349.59064 414.69894 348.7Q413.8552 347.6375 413.8552 345.21564ZM414.93332 345.21564Q414.93332 347.325 415.43332 348.02814Q415.93332 348.73126 416.65207 348.73126Q417.38644 348.73126 417.87082 348.02814Q418.37082 347.325 418.37082 345.21564Q418.37082 343.09064 417.87082 342.40314Q417.38644 341.7 416.63644 341.7Q415.9177 341.7 415.4802 342.3094Q414.93332 343.09064 414.93332 345.21564ZM420.8552 345.21564Q420.8552 343.6844 421.1677 342.7625Q421.4802 341.825 422.08957 341.325Q422.71457 340.825 423.65207 340.825Q424.33957 340.825 424.8552 341.10626Q425.38644 341.3875 425.7302 341.91876Q426.07394 342.4344 426.26144 343.1844Q426.44894 343.9344 426.44894 345.21564Q426.44894 346.73126 426.13644 347.65314Q425.83957 348.575 425.21457 349.09064Q424.6052 349.59064 423.65207 349.59064Q422.4177 349.59064 421.69894 348.7Q420.8552 347.6375 420.8552 345.21564ZM421.93332 345.21564Q421.93332 347.325 422.43332 348.02814Q422.93332 348.73126 423.65207 348.73126Q424.38644 348.73126 424.87082 348.02814Q425.37082 347.325 425.37082 345.21564Q425.37082 343.09064 424.87082 342.40314Q424.38644 341.7 423.63644 341.7Q422.9177 341.7 422.4802 342.3094Q421.93332 343.09064 421.93332 345.21564ZM427.8552 345.21564Q427.8552 343.6844 428.1677 342.7625Q428.4802 341.825 429.08957 341.325Q429.71457 340.825 430.65207 340.825Q431.33957 340.825 431.8552 341.10626Q432.38644 341.3875 432.7302 341.91876Q433.07394 342.4344 433.26144 343.1844Q433.44894 343.9344 433.44894 345.21564Q433.44894 346.73126 433.13644 347.65314Q432.83957 348.575 432.21457 349.09064Q431.6052 349.59064 430.65207 349.59064Q429.4177 349.59064 428.69894 348.7Q427.8552 347.6375 427.8552 345.21564ZM428.93332 345.21564Q428.93332 347.325 429.43332 348.02814Q429.93332 348.73126 430.65207 348.73126Q431.38644 348.73126 431.87082 348.02814Q432.37082 347.325 432.37082 345.21564Q432.37082 343.09064 431.87082 342.40314Q431.38644 341.7 430.63644 341.7Q429.9177 341.7 429.4802 342.3094Q428.93332 343.09064 428.93332 345.21564Z" fill-rule="nonzero"/><path fill="#4285f4" d="M512.45 56.916668C512.45 56.364384 512.8977 55.916668 513.45 55.916668L523.45 55.916668C524.00226 55.916668 524.45 56.364384 524.45 56.916668L524.45 66.916664C524.45 67.46895 524.00226 67.916664 523.45 67.916664L513.45 67.916664C512.8977 67.916664 512.45 67.46895 512.45 66.916664Z" fill-rule="nonzero"/><path fill="#1a1a1a" d="M537.3094 63.635414L538.34064 63.77604Q538.16876 64.83854 537.46564 65.447914Q536.7625 66.05729 535.7469 66.05729Q534.46564 66.05729 533.6844 65.229164Q532.91876 64.385414 532.91876 62.822914Q532.91876 61.822914 533.2469 61.072914Q533.59064 60.30729 534.2625 59.93229Q534.95 59.55729 535.7625 59.55729Q536.7625 59.55729 537.40314 60.072914Q538.0594 60.572914 538.2469 61.52604L537.21564 61.68229Q537.075 61.05729 536.7 60.74479Q536.325 60.416664 535.79376 60.416664Q534.9969 60.416664 534.4969 60.99479Q533.9969 61.55729 533.9969 62.791664Q533.9969 64.05729 534.48126 64.61979Q534.96564 65.18229 535.73126 65.18229Q536.35626 65.18229 536.7625 64.80729Q537.1844 64.43229 537.3094 63.635414ZM539.23126 65.916664L539.23126 59.697914L540.1844 59.697914L540.1844 60.635414Q540.54376 59.979164 540.84064 59.77604Q541.15314 59.55729 541.52814 59.55729Q542.0594 59.55729 542.60626 59.885414L542.2469 60.86979Q541.85626 60.635414 541.48126 60.635414Q541.1219 60.635414 540.84064 60.854164Q540.575 61.05729 540.46564 61.43229Q540.27814 61.99479 540.27814 62.65104L540.27814 65.916664L539.23126 65.916664ZM547.3094 65.15104Q546.71564 65.65104 546.16876 65.854164Q545.6375 66.05729 545.0125 66.05729Q543.98126 66.05729 543.4344 65.55729Q542.8875 65.05729 542.8875 64.27604Q542.8875 63.822914 543.09064 63.447914Q543.29376 63.05729 543.6375 62.83854Q543.98126 62.604164 544.40314 62.49479Q544.7 62.40104 545.34064 62.322914Q546.60626 62.18229 547.21564 61.96354Q547.21564 61.74479 547.21564 61.697914Q547.21564 61.041664 546.91876 60.77604Q546.5125 60.43229 545.71564 60.43229Q544.98126 60.43229 544.6219 60.697914Q544.2625 60.947914 544.09064 61.604164L543.0594 61.46354Q543.2 60.80729 543.52814 60.40104Q543.85626 59.99479 544.46564 59.77604Q545.075 59.55729 545.8719 59.55729Q546.66876 59.55729 547.16876 59.74479Q547.66876 59.93229 547.90314 60.21354Q548.1375 60.49479 548.23126 60.93229Q548.27814 61.197914 548.27814 61.90104L548.27814 63.30729Q548.27814 64.77604 548.34064 65.166664Q548.41876 65.55729 548.6219 65.916664L547.5125 65.916664Q547.35626 65.58854 547.3094 65.15104ZM547.21564 62.791664Q546.6375 63.02604 545.4969 63.197914Q544.84064 63.291664 544.575 63.416664Q544.3094 63.52604 544.15314 63.74479Q544.0125 63.96354 544.0125 64.24479Q544.0125 64.666664 544.325 64.947914Q544.65314 65.229164 545.2625 65.229164Q545.8719 65.229164 546.34064 64.96354Q546.825 64.697914 547.04376 64.229164Q547.21564 63.86979 547.21564 63.18229L547.21564 62.791664ZM551.3875 65.916664L549.48126 59.697914L550.575 59.697914L551.5594 63.291664L551.9344 64.61979Q551.96564 64.52604 552.2625 63.33854L553.2469 59.697914L554.325 59.697914L555.2625 63.30729L555.575 64.49479L555.9344 63.291664L556.9969 59.697914L558.02814 59.697914L556.075 65.916664L554.98126 65.916664L553.9969 62.18229L553.7469 61.135414L552.4969 65.916664L551.3875 65.916664Z" fill-rule="nonzero"/><path fill="#ea4335" d="M512.45 80.916664C512.45 80.36438 512.8977 79.916664 513.45 79.916664L523.45 79.916664C524.00226 79.916664 524.45 80.36438 524.45 80.916664L524.45 90.916664C524.45 91.46895 524.00226 91.916664 523.45 91.916664L513.45 91.916664C512.8977 91.916664 512.45 91.46895 512.45 90.916664Z" fill-rule="nonzero"/><path fill="#1a1a1a" d="M533.2469 89.916664L533.2469 83.697914L534.1844 83.697914L534.1844 84.572914Q534.48126 84.104164 534.96564 83.83854Q535.45 83.55729 536.075 83.55729Q536.7625 83.55729 537.2 83.83854Q537.65314 84.11979 537.825 84.635414Q538.575 83.55729 539.7469 83.55729Q540.6844 83.55729 541.16876 84.072914Q541.66876 84.572914 541.66876 85.65104L541.66876 89.916664L540.6219 89.916664L540.6219 85.99479Q540.6219 85.36979 540.5125 85.08854Q540.41876 84.80729 540.15314 84.635414Q539.8875 84.46354 539.5125 84.46354Q538.85626 84.46354 538.41876 84.90104Q537.9969 85.33854 537.9969 86.30729L537.9969 89.916664L536.9344 89.916664L536.9344 85.86979Q536.9344 85.166664 536.66876 84.822914Q536.41876 84.46354 535.84064 84.46354Q535.3875 84.46354 535.0125 84.697914Q534.6375 84.93229 534.46564 85.385414Q534.29376 85.83854 534.29376 86.68229L534.29376 89.916664L533.2469 89.916664ZM548.3094 89.15104Q547.71564 89.65104 547.16876 89.854164Q546.6375 90.05729 546.0125 90.05729Q544.98126 90.05729 544.4344 89.55729Q543.8875 89.05729 543.8875 88.27604Q543.8875 87.822914 544.09064 87.447914Q544.29376 87.05729 544.6375 86.83854Q544.98126 86.604164 545.40314 86.49479Q545.7 86.40104 546.34064 86.322914Q547.60626 86.18229 548.21564 85.96354Q548.21564 85.74479 548.21564 85.697914Q548.21564 85.041664 547.91876 84.77604Q547.5125 84.43229 546.71564 84.43229Q545.98126 84.43229 545.6219 84.697914Q545.2625 84.947914 545.09064 85.604164L544.0594 85.46354Q544.2 84.80729 544.52814 84.40104Q544.85626 83.99479 545.46564 83.77604Q546.075 83.55729 546.8719 83.55729Q547.66876 83.55729 548.16876 83.74479Q548.66876 83.93229 548.90314 84.21354Q549.1375 84.49479 549.23126 84.93229Q549.27814 85.197914 549.27814 85.90104L549.27814 87.30729Q549.27814 88.77604 549.34064 89.166664Q549.41876 89.55729 549.6219 89.916664L548.5125 89.916664Q548.35626 89.58854 548.3094 89.15104ZM548.21564 86.791664Q547.6375 87.02604 546.4969 87.197914Q545.84064 87.291664 545.575 87.416664Q545.3094 87.52604 545.15314 87.74479Q545.0125 87.96354 545.0125 88.24479Q545.0125 88.666664 545.325 88.947914Q545.65314 89.229164 546.2625 89.229164Q546.8719 89.229164 547.34064 88.96354Q547.825 88.697914 548.04376 88.229164Q548.21564 87.86979 548.21564 87.18229L548.21564 86.791664ZM553.54376 88.979164L553.7 89.90104Q553.2469 89.99479 552.90314 89.99479Q552.325 89.99479 552.0125 89.822914Q551.7 89.635414 551.5594 89.33854Q551.4344 89.041664 551.4344 88.08854L551.4344 84.510414L550.66876 84.510414L550.66876 83.697914L551.4344 83.697914L551.4344 82.15104L552.48126 81.52604L552.48126 83.697914L553.54376 83.697914L553.54376 84.510414L552.48126 84.510414L552.48126 88.15104Q552.48126 88.604164 552.52814 88.729164Q552.59064 88.854164 552.71564 88.93229Q552.84064 89.010414 553.075 89.010414Q553.2625 89.010414 553.54376 88.979164ZM556.54376 88.979164L556.7 89.90104Q556.2469 89.99479 555.90314 89.99479Q555.325 89.99479 555.0125 89.822914Q554.7 89.635414 554.5594 89.33854Q554.4344 89.041664 554.4344 88.08854L554.4344 84.510414L553.66876 84.510414L553.66876 83.697914L554.4344 83.697914L554.4344 82.15104L555.48126 81.52604L555.48126 83.697914L556.54376 83.697914L556.54376 84.510414L555.48126 84.510414L555.48126 88.15104Q555.48126 88.604164 555.52814 88.729164Q555.59064 88.854164 555.71564 88.93229Q555.84064 89.010414 556.075 89.010414Q556.2625 89.010414 556.54376 88.979164ZM557.2469 89.916664L557.2469 83.697914L558.1844 83.697914L558.1844 84.572914Q558.8719 83.55729 560.16876 83.55729Q560.73126 83.55729 561.2 83.760414Q561.6844 83.96354 561.91876 84.291664Q562.15314 84.61979 562.2469 85.05729Q562.29376 85.354164 562.29376 86.08854L562.29376 89.916664L561.2469 89.916664L561.2469 86.135414Q561.2469 85.479164 561.1219 85.166664Q560.9969 84.854164 560.6844 84.666664Q560.3719 84.46354 559.95 84.46354Q559.27814 84.46354 558.77814 84.90104Q558.29376 85.322914 558.29376 86.510414L558.29376 89.916664L557.2469 89.916664Z" fill-rule="nonzero"/><path fill="#fbbc04" d="M512.45 104.916664C512.45 104.36438 512.8977 103.916664 513.45 103.916664L523.45 103.916664C524.00226 103.916664 524.45 104.36438 524.45 104.916664L524.45 114.916664C524.45 115.46895 524.00226 115.916664 523.45 115.916664L513.45 115.916664C512.8977 115.916664 512.45 115.46895 512.45 114.916664Z" fill-rule="nonzero"/><path fill="#1a1a1a" d="M533.2469 113.916664L533.2469 107.697914L534.1844 107.697914L534.1844 108.572914Q534.48126 108.104164 534.96564 107.83854Q535.45 107.55729 536.075 107.55729Q536.7625 107.55729 537.2 107.83854Q537.65314 108.11979 537.825 108.635414Q538.575 107.55729 539.7469 107.55729Q540.6844 107.55729 541.16876 108.072914Q541.66876 108.572914 541.66876 109.65104L541.66876 113.916664L540.6219 113.916664L540.6219 109.99479Q540.6219 109.36979 540.5125 109.08854Q540.41876 108.80729 540.15314 108.635414Q539.8875 108.46354 539.5125 108.46354Q538.85626 108.46354 538.41876 108.90104Q537.9969 109.33854 537.9969 110.30729L537.9969 113.916664L536.9344 113.916664L536.9344 109.86979Q536.9344 109.166664 536.66876 108.822914Q536.41876 108.46354 535.84064 108.46354Q535.3875 108.46354 535.0125 108.697914Q534.6375 108.93229 534.46564 109.385414Q534.29376 109.83854 534.29376 110.68229L534.29376 113.916664L533.2469 113.916664ZM543.85626 110.80729Q543.85626 109.072914 544.8094 108.24479Q545.60626 107.55729 546.7625 107.55729Q548.04376 107.55729 548.85626 108.40104Q549.6844 109.229164 549.6844 110.71354Q549.6844 111.916664 549.325 112.604164Q548.96564 113.291664 548.2625 113.68229Q547.575 114.05729 546.7625 114.05729Q545.46564 114.05729 544.65314 113.229164Q543.85626 112.385414 543.85626 110.80729ZM544.9344 110.80729Q544.9344 111.99479 545.45 112.58854Q545.98126 113.18229 546.7625 113.18229Q547.5594 113.18229 548.075 112.58854Q548.59064 111.99479 548.59064 110.77604Q548.59064 109.61979 548.0594 109.02604Q547.54376 108.43229 546.7625 108.43229Q545.98126 108.43229 545.45 109.02604Q544.9344 109.604164 544.9344 110.80729ZM555.27814 113.916664L555.27814 113.135414Q554.6844 114.05729 553.54376 114.05729Q552.79376 114.05729 552.16876 113.65104Q551.54376 113.229164 551.2 112.49479Q550.85626 111.760414 550.85626 110.80729Q550.85626 109.885414 551.16876 109.11979Q551.48126 108.354164 552.10626 107.96354Q552.73126 107.55729 553.4969 107.55729Q554.0594 107.55729 554.4969 107.791664Q554.9344 108.02604 555.21564 108.40104L555.21564 105.322914L556.2625 105.322914L556.2625 113.916664L555.27814 113.916664ZM551.95 110.80729Q551.95 112.010414 552.45 112.604164Q552.95 113.18229 553.6375 113.18229Q554.325 113.18229 554.8094 112.61979Q555.29376 112.05729 555.29376 110.90104Q555.29376 109.61979 554.79376 109.02604Q554.3094 108.43229 553.59064 108.43229Q552.8875 108.43229 552.41876 109.010414Q551.95 109.572914 551.95 110.80729ZM562.4969 111.916664L563.59064 112.041664Q563.34064 112.99479 562.6375 113.52604Q561.9344 114.05729 560.85626 114.05729Q559.4969 114.05729 558.6844 113.21354Q557.8875 112.36979 557.8875 110.854164Q557.8875 109.291664 558.7 108.43229Q559.5125 107.55729 560.79376 107.55729Q562.04376 107.55729 562.825 108.40104Q563.6219 109.24479 563.6219 110.791664Q563.6219 110.885414 563.6219 111.072914L558.98126 111.072914Q559.04376 112.104164 559.5594 112.65104Q560.075 113.18229 560.85626 113.18229Q561.4344 113.18229 561.84064 112.885414Q562.2625 112.572914 562.4969 111.916664ZM559.04376 110.21354L562.5125 110.21354Q562.45 109.416664 562.1219 109.02604Q561.60626 108.416664 560.8094 108.416664Q560.075 108.416664 559.575 108.90104Q559.09064 109.385414 559.04376 110.21354ZM565.23126 113.916664L565.23126 107.697914L566.1844 107.697914L566.1844 108.635414Q566.54376 107.979164 566.84064 107.77604Q567.15314 107.55729 567.52814 107.55729Q568.0594 107.55729 568.60626 107.885414L568.2469 108.86979Q567.85626 108.635414 567.48126 108.635414Q567.1219 108.635414 566.84064 108.854164Q566.575 109.05729 566.46564 109.43229Q566.27814 109.99479 566.27814 110.65104L566.27814 113.916664L565.23126 113.916664ZM569.2469 113.916664L569.2469 107.697914L570.1844 107.697914L570.1844 108.572914Q570.8719 107.55729 572.16876 107.55729Q572.73126 107.55729 573.2 107.760414Q573.6844 107.96354 573.91876 108.291664Q574.15314 108.61979 574.2469 109.05729Q574.29376 109.354164 574.29376 110.08854L574.29376 113.916664L573.2469 113.916664L573.2469 110.135414Q573.2469 109.479164 573.1219 109.166664Q572.9969 108.854164 572.6844 108.666664Q572.3719 108.46354 571.95 108.46354Q571.27814 108.46354 570.77814 108.90104Q570.29376 109.322914 570.29376 110.510414L570.29376 113.916664L569.2469 113.916664ZM580.3094 111.635414L581.34064 111.77604Q581.16876 112.83854 580.46564 113.447914Q579.7625 114.05729 578.7469 114.05729Q577.46564 114.05729 576.6844 113.229164Q575.91876 112.385414 575.91876 110.822914Q575.91876 109.822914 576.2469 109.072914Q576.59064 108.30729 577.2625 107.93229Q577.95 107.55729 578.7625 107.55729Q579.7625 107.55729 580.40314 108.072914Q581.0594 108.572914 581.2469 109.52604L580.21564 109.68229Q580.075 109.05729 579.7 108.74479Q579.325 108.416664 578.79376 108.416664Q577.9969 108.416664 577.4969 108.99479Q576.9969 109.55729 576.9969 110.791664Q576.9969 112.05729 577.48126 112.61979Q577.96564 113.18229 578.73126 113.18229Q579.35626 113.18229 579.7625 112.80729Q580.1844 112.43229 580.3094 111.635414Z" fill-rule="nonzero"/><path fill="#34a853" d="M512.45 128.91667C512.45 128.36438 512.8977 127.916664 513.45 127.916664L523.45 127.916664C524.00226 127.916664 524.45 128.36438 524.45 128.91667L524.45 138.91667C524.45 139.46895 524.00226 139.91667 523.45 139.91667L513.45 139.91667C512.8977 139.91667 512.45 139.46895 512.45 138.91667Z" fill-rule="nonzero"/><path fill="#1a1a1a" d="M533.2469 137.91667L533.2469 131.69792L534.1844 131.69792L534.1844 132.57292Q534.8719 131.5573 536.16876 131.5573Q536.73126 131.5573 537.2 131.76042Q537.6844 131.96355 537.91876 132.29167Q538.15314 132.6198 538.2469 133.0573Q538.29376 133.35417 538.29376 134.08855L538.29376 137.91667L537.2469 137.91667L537.2469 134.13542Q537.2469 133.47917 537.1219 133.16667Q536.9969 132.85417 536.6844 132.66667Q536.3719 132.46355 535.95 132.46355Q535.27814 132.46355 534.77814 132.90105Q534.29376 133.32292 534.29376 134.51042L534.29376 137.91667L533.2469 137.91667ZM544.3094 135.63542L545.34064 135.77605Q545.16876 136.83855 544.46564 137.44792Q543.7625 138.0573 542.7469 138.0573Q541.46564 138.0573 540.6844 137.22917Q539.91876 136.38542 539.91876 134.82292Q539.91876 133.82292 540.2469 133.07292Q540.59064 132.3073 541.2625 131.9323Q541.95 131.5573 542.7625 131.5573Q543.7625 131.5573 544.40314 132.07292Q545.0594 132.57292 545.2469 133.52605L544.21564 133.6823Q544.075 133.0573 543.7 132.7448Q543.325 132.41667 542.79376 132.41667Q541.9969 132.41667 541.4969 132.9948Q540.9969 133.5573 540.9969 134.79167Q540.9969 136.0573 541.48126 136.6198Q541.96564 137.1823 542.73126 137.1823Q543.35626 137.1823 543.7625 136.8073Q544.1844 136.4323 544.3094 135.63542ZM546.23126 137.91667L546.23126 131.69792L547.1844 131.69792L547.1844 132.63542Q547.54376 131.97917 547.84064 131.77605Q548.15314 131.5573 548.52814 131.5573Q549.0594 131.5573 549.60626 131.88542L549.2469 132.8698Q548.85626 132.63542 548.48126 132.63542Q548.1219 132.63542 547.84064 132.85417Q547.575 133.0573 547.46564 133.4323Q547.27814 133.9948 547.27814 134.65105L547.27814 137.91667L546.23126 137.91667ZM554.325 137.91667L554.325 136.9948Q553.59064 138.0573 552.34064 138.0573Q551.79376 138.0573 551.3094 137.85417Q550.84064 137.63542 550.60626 137.32292Q550.3719 136.9948 550.27814 136.52605Q550.21564 136.22917 550.21564 135.54167L550.21564 131.69792L551.27814 131.69792L551.27814 135.15105Q551.27814 135.96355 551.34064 136.26042Q551.4344 136.66667 551.7469 136.91667Q552.075 137.15105 552.5594 137.15105Q553.02814 137.15105 553.4344 136.91667Q553.85626 136.66667 554.02814 136.2448Q554.21564 135.82292 554.21564 135.02605L554.21564 131.69792L555.2625 131.69792L555.2625 137.91667L554.325 137.91667ZM561.3094 135.63542L562.34064 135.77605Q562.16876 136.83855 561.46564 137.44792Q560.7625 138.0573 559.7469 138.0573Q558.46564 138.0573 557.6844 137.22917Q556.91876 136.38542 556.91876 134.82292Q556.91876 133.82292 557.2469 133.07292Q557.59064 132.3073 558.2625 131.9323Q558.95 131.5573 559.7625 131.5573Q560.7625 131.5573 561.40314 132.07292Q562.0594 132.57292 562.2469 133.52605L561.21564 133.6823Q561.075 133.0573 560.7 132.7448Q560.325 132.41667 559.79376 132.41667Q558.9969 132.41667 558.4969 132.9948Q557.9969 133.5573 557.9969 134.79167Q557.9969 136.0573 558.48126 136.6198Q558.96564 137.1823 559.73126 137.1823Q560.35626 137.1823 560.7625 136.8073Q561.1844 136.4323 561.3094 135.63542ZM567.4969 135.91667L568.59064 136.04167Q568.34064 136.9948 567.6375 137.52605Q566.9344 138.0573 565.85626 138.0573Q564.4969 138.0573 563.6844 137.21355Q562.8875 136.3698 562.8875 134.85417Q562.8875 133.29167 563.7 132.4323Q564.5125 131.5573 565.79376 131.5573Q567.04376 131.5573 567.825 132.40105Q568.6219 133.2448 568.6219 134.79167Q568.6219 134.88542 568.6219 135.07292L563.98126 135.07292Q564.04376 136.10417 564.5594 136.65105Q565.075 137.1823 565.85626 137.1823Q566.4344 137.1823 566.84064 136.88542Q567.2625 136.57292 567.4969 135.91667ZM564.04376 134.21355L567.5125 134.21355Q567.45 133.41667 567.1219 133.02605Q566.60626 132.41667 565.8094 132.41667Q565.075 132.41667 564.575 132.90105Q564.09064 133.38542 564.04376 134.21355ZM569.825 136.0573L570.85626 135.90105Q570.95 136.52605 571.34064 136.85417Q571.7469 137.1823 572.48126 137.1823Q573.2 137.1823 573.54376 136.90105Q573.90314 136.60417 573.90314 136.19792Q573.90314 135.83855 573.59064 135.63542Q573.3719 135.4948 572.5125 135.27605Q571.35626 134.97917 570.90314 134.77605Q570.46564 134.5573 570.23126 134.1823Q569.9969 133.8073 569.9969 133.33855Q569.9969 132.9323 570.1844 132.57292Q570.3719 132.21355 570.7 131.97917Q570.95 131.8073 571.3719 131.6823Q571.79376 131.5573 572.29376 131.5573Q573.0125 131.5573 573.5594 131.77605Q574.1219 131.97917 574.3875 132.33855Q574.65314 132.69792 574.7469 133.29167L573.71564 133.4323Q573.65314 132.96355 573.3094 132.69792Q572.98126 132.41667 572.35626 132.41667Q571.6375 132.41667 571.325 132.66667Q571.0125 132.90105 571.0125 133.22917Q571.0125 133.4323 571.1375 133.58855Q571.27814 133.76042 571.54376 133.8698Q571.7 133.9323 572.48126 134.13542Q573.60626 134.44792 574.04376 134.63542Q574.48126 134.82292 574.73126 135.1823Q574.98126 135.54167 574.98126 136.08855Q574.98126 136.6198 574.66876 137.08855Q574.3719 137.54167 573.79376 137.8073Q573.21564 138.0573 572.48126 138.0573Q571.2625 138.0573 570.6219 137.5573Q569.9969 137.04167 569.825 136.0573Z" fill-rule="nonzero"/><path fill="#ff6d01" d="M512.45 152.91667C512.45 152.36438 512.8977 151.91667 513.45 151.91667L523.45 151.91667C524.00226 151.91667 524.45 152.36438 524.45 152.91667L524.45 162.91667C524.45 163.46895 524.00226 163.91667 523.45 163.91667L513.45 163.91667C512.8977 163.91667 512.45 163.46895 512.45 162.91667Z" fill-rule="nonzero"/><path fill="#1a1a1a" d="M532.825 160.0573L533.85626 159.90105Q533.95 160.52605 534.34064 160.85417Q534.7469 161.1823 535.48126 161.1823Q536.2 161.1823 536.54376 160.90105Q536.90314 160.60417 536.90314 160.19792Q536.90314 159.83855 536.59064 159.63542Q536.3719 159.4948 535.5125 159.27605Q534.35626 158.97917 533.90314 158.77605Q533.46564 158.5573 533.23126 158.1823Q532.9969 157.8073 532.9969 157.33855Q532.9969 156.9323 533.1844 156.57292Q533.3719 156.21355 533.7 155.97917Q533.95 155.8073 534.3719 155.6823Q534.79376 155.5573 535.29376 155.5573Q536.0125 155.5573 536.5594 155.77605Q537.1219 155.97917 537.3875 156.33855Q537.65314 156.69792 537.7469 157.29167L536.71564 157.4323Q536.65314 156.96355 536.3094 156.69792Q535.98126 156.41667 535.35626 156.41667Q534.6375 156.41667 534.325 156.66667Q534.0125 156.90105 534.0125 157.22917Q534.0125 157.4323 534.1375 157.58855Q534.27814 157.76042 534.54376 157.8698Q534.7 157.9323 535.48126 158.13542Q536.60626 158.44792 537.04376 158.63542Q537.48126 158.82292 537.73126 159.1823Q537.98126 159.54167 537.98126 160.08855Q537.98126 160.6198 537.66876 161.08855Q537.3719 161.54167 536.79376 161.8073Q536.21564 162.0573 535.48126 162.0573Q534.2625 162.0573 533.6219 161.5573Q532.9969 161.04167 532.825 160.0573ZM544.21564 164.3073L544.21564 161.26042Q543.96564 161.60417 543.5125 161.83855Q543.075 162.0573 542.575 162.0573Q541.46564 162.0573 540.66876 161.1823Q539.8719 160.29167 539.8719 158.7448Q539.8719 157.8073 540.2 157.07292Q540.52814 156.32292 541.1375 155.94792Q541.7625 155.5573 542.4969 155.5573Q543.65314 155.5573 544.3094 156.52605L544.3094 155.69792L545.2625 155.69792L545.2625 164.3073L544.21564 164.3073ZM540.95 158.79167Q540.95 159.9948 541.45 160.58855Q541.96564 161.1823 542.66876 161.1823Q543.34064 161.1823 543.825 160.6198Q544.3094 160.04167 544.3094 158.88542Q544.3094 157.63542 543.79376 157.01042Q543.29376 156.38542 542.59064 156.38542Q541.91876 156.38542 541.4344 156.97917Q540.95 157.5573 540.95 158.79167ZM547.2469 154.54167L547.2469 153.32292L548.3094 153.32292L548.3094 154.54167L547.2469 154.54167ZM547.2469 161.91667L547.2469 155.69792L548.3094 155.69792L548.3094 161.91667L547.2469 161.91667ZM550.2469 161.91667L550.2469 155.69792L551.1844 155.69792L551.1844 156.57292Q551.8719 155.5573 553.16876 155.5573Q553.73126 155.5573 554.2 155.76042Q554.6844 155.96355 554.91876 156.29167Q555.15314 156.6198 555.2469 157.0573Q555.29376 157.35417 555.29376 158.08855L555.29376 161.91667L554.2469 161.91667L554.2469 158.13542Q554.2469 157.47917 554.1219 157.16667Q553.9969 156.85417 553.6844 156.66667Q553.3719 156.46355 552.95 156.46355Q552.27814 156.46355 551.77814 156.90105Q551.29376 157.32292 551.29376 158.51042L551.29376 161.91667L550.2469 161.91667ZM557.2469 161.91667L557.2469 155.69792L558.1844 155.69792L558.1844 156.57292Q558.8719 155.5573 560.16876 155.5573Q560.73126 155.5573 561.2 155.76042Q561.6844 155.96355 561.91876 156.29167Q562.15314 156.6198 562.2469 157.0573Q562.29376 157.35417 562.29376 158.08855L562.29376 161.91667L561.2469 161.91667L561.2469 158.13542Q561.2469 157.47917 561.1219 157.16667Q560.9969 156.85417 560.6844 156.66667Q560.3719 156.46355 559.95 156.46355Q559.27814 156.46355 558.77814 156.90105Q558.29376 157.32292 558.29376 158.51042L558.29376 161.91667L557.2469 161.91667Z" fill-rule="nonzero"/><path fill="#46bdc6" d="M512.45 176.91667C512.45 176.36438 512.8977 175.91667 513.45 175.91667L523.45 175.91667C524.00226 175.91667 524.45 176.36438 524.45 176.91667L524.45 186.91667C524.45 187.46895 524.00226 187.91667 523.45 187.91667L513.45 187.91667C512.8977 187.91667 512.45 187.46895 512.45 186.91667Z" fill-rule="nonzero"/><path fill="#1a1a1a" d="M532.6844 185.91667L532.6844 185.0573L536.65314 180.51042Q535.96564 180.54167 535.45 180.54167L532.91876 180.54167L532.91876 179.69792L538.0125 179.69792L538.0125 180.38542L534.6375 184.33855L533.98126 185.0573Q534.7 185.01042 535.3094 185.01042L538.2 185.01042L538.2 185.91667L532.6844 185.91667ZM537.85626 182.8073Q537.85626 181.07292 538.8094 180.2448Q539.60626 179.5573 540.7625 179.5573Q542.04376 179.5573 542.85626 180.40105Q543.6844 181.22917 543.6844 182.71355Q543.6844 183.91667 543.325 184.60417Q542.96564 185.29167 542.2625 185.6823Q541.575 186.0573 540.7625 186.0573Q539.46564 186.0573 538.65314 185.22917Q537.85626 184.38542 537.85626 182.8073ZM538.9344 182.8073Q538.9344 183.9948 539.45 184.58855Q539.98126 185.1823 540.7625 185.1823Q541.5594 185.1823 542.075 184.58855Q542.59064 183.9948 542.59064 182.77605Q542.59064 181.6198 542.0594 181.02605Q541.54376 180.4323 540.7625 180.4323Q539.98126 180.4323 539.45 181.02605Q538.9344 181.60417 538.9344 182.8073ZM545.2469 185.91667L545.2469 179.69792L546.1844 179.69792L546.1844 180.57292Q546.48126 180.10417 546.96564 179.83855Q547.45 179.5573 548.075 179.5573Q548.7625 179.5573 549.2 179.83855Q549.65314 180.1198 549.825 180.63542Q550.575 179.5573 551.7469 179.5573Q552.6844 179.5573 553.16876 180.07292Q553.66876 180.57292 553.66876 181.65105L553.66876 185.91667L552.6219 185.91667L552.6219 181.9948Q552.6219 181.3698 552.5125 181.08855Q552.41876 180.8073 552.15314 180.63542Q551.8875 180.46355 551.5125 180.46355Q550.85626 180.46355 550.41876 180.90105Q549.9969 181.33855 549.9969 182.3073L549.9969 185.91667L548.9344 185.91667L548.9344 181.8698Q548.9344 181.16667 548.66876 180.82292Q548.41876 180.46355 547.84064 180.46355Q547.3875 180.46355 547.0125 180.69792Q546.6375 180.9323 546.46564 181.38542Q546.29376 181.83855 546.29376 182.6823L546.29376 185.91667L545.2469 185.91667ZM557.21564 185.91667L556.23126 185.91667L556.23126 177.32292L557.29376 177.32292L557.29376 180.38542Q557.96564 179.5573 558.9969 179.5573Q559.575 179.5573 560.075 179.79167Q560.59064 180.01042 560.91876 180.4323Q561.2625 180.85417 561.45 181.44792Q561.6375 182.04167 561.6375 182.71355Q561.6375 184.3073 560.84064 185.1823Q560.04376 186.0573 558.95 186.0573Q557.84064 186.0573 557.21564 185.13542L557.21564 185.91667ZM557.2 182.76042Q557.2 183.8698 557.5125 184.3698Q558.0125 185.1823 558.85626 185.1823Q559.54376 185.1823 560.04376 184.58855Q560.5594 183.9948 560.5594 182.79167Q560.5594 181.57292 560.075 180.9948Q559.59064 180.41667 558.90314 180.41667Q558.21564 180.41667 557.7 181.02605Q557.2 181.6198 557.2 182.76042ZM563.2469 178.54167L563.2469 177.32292L564.3094 177.32292L564.3094 178.54167L563.2469 178.54167ZM563.2469 185.91667L563.2469 179.69792L564.3094 179.69792L564.3094 185.91667L563.2469 185.91667ZM570.4969 183.91667L571.59064 184.04167Q571.34064 184.9948 570.6375 185.52605Q569.9344 186.0573 568.85626 186.0573Q567.4969 186.0573 566.6844 185.21355Q565.8875 184.3698 565.8875 182.85417Q565.8875 181.29167 566.7 180.4323Q567.5125 179.5573 568.79376 179.5573Q570.04376 179.5573 570.825 180.40105Q571.6219 181.2448 571.6219 182.79167Q571.6219 182.88542 571.6219 183.07292L566.98126 183.07292Q567.04376 184.10417 567.5594 184.65105Q568.075 185.1823 568.85626 185.1823Q569.4344 185.1823 569.84064 184.88542Q570.2625 184.57292 570.4969 183.91667ZM567.04376 182.21355L570.5125 182.21355Q570.45 181.41667 570.1219 181.02605Q569.60626 180.41667 568.8094 180.41667Q568.075 180.41667 567.575 180.90105Q567.09064 181.38542 567.04376 182.21355Z" fill-rule="nonzero"/><path fill="#757575" d="M263.76562 32.534374L265.65625 33.003124Q265.0625 35.346874 263.51562 36.58125Q261.96875 37.8 259.71875 37.8Q257.40625 37.8 255.95312 36.8625Q254.51562 35.909374 253.75 34.128124Q253.0 32.33125 253.0 30.284374Q253.0 28.05 253.84375 26.39375Q254.70312 24.721874 256.28125 23.8625Q257.85938 22.9875 259.75 22.9875Q261.90625 22.9875 263.35938 24.08125Q264.82812 25.175 265.40625 27.159374L263.54688 27.596874Q263.04688 26.034374 262.09375 25.33125Q261.15625 24.6125 259.71875 24.6125Q258.0625 24.6125 256.95312 25.409374Q255.84375 26.190624 255.39062 27.534374Q254.95312 28.8625 254.95312 30.26875Q254.95312 32.096874 255.48438 33.471874Q256.01562 34.83125 257.14062 35.503124Q258.26562 36.175 259.5625 36.175Q261.15625 36.175 262.26562 35.253124Q263.375 34.33125 263.76562 32.534374ZM266.67188 32.3625Q266.67188 29.4875 268.26562 28.096874Q269.60938 26.940624 271.53125 26.940624Q273.67188 26.940624 275.01562 28.346874Q276.375 29.753124 276.375 32.221874Q276.375 34.221874 275.78125 35.378124Q275.1875 36.51875 274.03125 37.159374Q272.89062 37.784374 271.53125 37.784374Q269.34375 37.784374 268.0 36.39375Q266.67188 34.9875 266.67188 32.3625ZM268.46875 32.3625Q268.46875 34.3625 269.32812 35.346874Q270.20312 36.33125 271.53125 36.33125Q272.84375 36.33125 273.70312 35.346874Q274.57812 34.346874 274.57812 32.3Q274.57812 30.378124 273.70312 29.39375Q272.82812 28.39375 271.53125 28.39375Q270.20312 28.39375 269.32812 29.39375Q268.46875 30.378124 268.46875 32.3625ZM278.3125 37.55L278.3125 27.175L279.90625 27.175L279.90625 28.659374Q281.04688 26.940624 283.20312 26.940624Q284.14062 26.940624 284.92188 27.284374Q285.71875 27.6125 286.10938 28.159374Q286.5 28.70625 286.65625 29.45625Q286.75 29.95625 286.75 31.175L286.75 37.55L284.98438 37.55L284.98438 31.2375Q284.98438 30.159374 284.78125 29.628124Q284.57812 29.096874 284.04688 28.784374Q283.53125 28.471874 282.82812 28.471874Q281.70312 28.471874 280.89062 29.190624Q280.07812 29.89375 280.07812 31.878124L280.07812 37.55L278.3125 37.55ZM295.09375 33.753124L296.8125 33.971874Q296.53125 35.76875 295.35938 36.784374Q294.20312 37.784374 292.5 37.784374Q290.375 37.784374 289.07812 36.39375Q287.78125 35.003124 287.78125 32.409374Q287.78125 30.721874 288.32812 29.471874Q288.89062 28.20625 290.03125 27.58125Q291.17188 26.940624 292.51562 26.940624Q294.20312 26.940624 295.26562 27.8Q296.34375 28.659374 296.65625 30.221874L294.9375 30.4875Q294.70312 29.440624 294.07812 28.925Q293.45312 28.39375 292.57812 28.39375Q291.25 28.39375 290.42188 29.346874Q289.59375 30.3 289.59375 32.346874Q289.59375 34.440624 290.39062 35.39375Q291.1875 36.33125 292.48438 36.33125Q293.51562 36.33125 294.20312 35.70625Q294.90625 35.065624 295.09375 33.753124ZM305.10938 37.55L305.10938 36.01875Q303.90625 37.784374 301.82812 37.784374Q300.90625 37.784374 300.10938 37.440624Q299.3125 37.08125 298.92188 36.55Q298.54688 36.01875 298.39062 35.2375Q298.28125 34.721874 298.28125 33.596874L298.28125 27.175L300.03125 27.175L300.03125 32.925Q300.03125 34.3 300.14062 34.784374Q300.3125 35.471874 300.84375 35.878124Q301.39062 36.26875 302.17188 36.26875Q302.96875 36.26875 303.65625 35.8625Q304.35938 35.45625 304.64062 34.76875Q304.9375 34.065624 304.9375 32.7375L304.9375 27.175L306.6875 27.175L306.6875 37.55L305.10938 37.55ZM308.29688 37.55L308.29688 27.175L309.875 27.175L309.875 28.753124Q310.48438 27.64375 311.0 27.3Q311.51562 26.940624 312.125 26.940624Q313.01562 26.940624 313.9375 27.503124L313.32812 29.14375Q312.6875 28.753124 312.04688 28.753124Q311.46875 28.753124 311.0 29.1125Q310.54688 29.45625 310.34375 30.065624Q310.0625 31.003124 310.0625 32.1125L310.0625 37.55L308.29688 37.55ZM315.29688 37.55L315.29688 27.175L316.875 27.175L316.875 28.753124Q317.48438 27.64375 318.0 27.3Q318.51562 26.940624 319.125 26.940624Q320.01562 26.940624 320.9375 27.503124L320.32812 29.14375Q319.6875 28.753124 319.04688 28.753124Q318.46875 28.753124 318.0 29.1125Q317.54688 29.45625 317.34375 30.065624Q317.0625 31.003124 317.0625 32.1125L317.0625 37.55L315.29688 37.55ZM329.42188 34.20625L331.23438 34.440624Q330.8125 36.01875 329.64062 36.909374Q328.48438 37.784374 326.67188 37.784374Q324.40625 37.784374 323.0625 36.39375Q321.73438 34.9875 321.73438 32.45625Q321.73438 29.83125 323.07812 28.39375Q324.42188 26.940624 326.57812 26.940624Q328.65625 26.940624 329.96875 28.3625Q331.29688 29.76875 331.29688 32.346874Q331.29688 32.503124 331.28125 32.815624L323.54688 32.815624Q323.64062 34.51875 324.51562 35.425Q325.39062 36.33125 326.6875 36.33125Q327.65625 36.33125 328.32812 35.83125Q329.01562 35.315624 329.42188 34.20625ZM323.64062 31.3625L329.4375 31.3625Q329.32812 30.065624 328.78125 29.409374Q327.9375 28.39375 326.59375 28.39375Q325.39062 28.39375 324.5625 29.20625Q323.73438 30.003124 323.64062 31.3625ZM333.3125 37.55L333.3125 27.175L334.90625 27.175L334.90625 28.659374Q336.04688 26.940624 338.20312 26.940624Q339.14062 26.940624 339.92188 27.284374Q340.71875 27.6125 341.10938 28.159374Q341.5 28.70625 341.65625 29.45625Q341.75 29.95625 341.75 31.175L341.75 37.55L339.98438 37.55L339.98438 31.2375Q339.98438 30.159374 339.78125 29.628124Q339.57812 29.096874 339.04688 28.784374Q338.53125 28.471874 337.82812 28.471874Q336.70312 28.471874 335.89062 29.190624Q335.07812 29.89375 335.07812 31.878124L335.07812 37.55L333.3125 37.55ZM347.15625 35.971874L347.40625 37.534374Q346.67188 37.690624 346.07812 37.690624Q345.125 37.690624 344.59375 37.39375Q344.07812 37.08125 343.85938 36.596874Q343.64062 36.096874 343.64062 34.51875L343.64062 28.55L342.35938 28.55L342.35938 27.175L343.64062 27.175L343.64062 24.6125L345.39062 23.55L345.39062 27.175L347.15625 27.175L347.15625 28.55L345.39062 28.55L345.39062 34.6125Q345.39062 35.3625 345.48438 35.58125Q345.57812 35.784374 345.78125 35.925Q346.0 36.05 346.39062 36.05Q346.67188 36.05 347.15625 35.971874Z" fill-rule="nonzero"/></svg>