<svg version="1.1" viewBox="0.0 0.0 600.0 371.0" fill="none" stroke="none" stroke-linecap="square" stroke-miterlimit="10" width="600" height="371" xmlns:xlink="http://www.w3.org/1999/xlink" xmlns="http://www.w3.org/2000/svg"><path fill="#ffffff" d="M0 0L600.0 0L600.0 371.0L0 371.0L0 0Z" fill-rule="nonzero"/><path stroke="#333333" stroke-width="1.0" stroke-linecap="butt" d="M52.5 332.5L490.5 332.5" fill-rule="nonzero"/><path stroke="#cccccc" stroke-width="1.0" stroke-linecap="butt" d="M52.5 278.5L490.5 278.5" fill-rule="nonzero"/><path stroke="#cccccc" stroke-width="1.0" stroke-linecap="butt" d="M52.5 224.5L490.5 224.5" fill-rule="nonzero"/><path stroke="#cccccc" stroke-width="1.0" stroke-linecap="butt" d="M52.5 170.5L490.5 170.5" fill-rule="nonzero"/><path stroke="#cccccc" stroke-width="1.0" stroke-linecap="butt" d="M52.5 116.5L490.5 116.5" fill-rule="nonzero"/><path stroke="#cccccc" stroke-width="1.0" stroke-linecap="butt" d="M52.5 61.5L490.5 61.5" fill-rule="nonzero"/><clipPath id="id_0"><path d="M52.55 61.916668L490.61444 61.916668L490.61444 332.45L52.55 332.45L52.55 61.916668Z" clip-rule="nonzero"/></clipPath><path stroke="#000000" stroke-width="2.0" stroke-linecap="butt" stroke-opacity="0.0" clip-path="url(#id_0)" d="M107.0 332.0L98.0 332.0L98.0 310.0C98.0 308.89542 98.89543 308.0 100.0 308.0L105.0 308.0C106.10457 308.0 107.0 308.89542 107.0 310.0Z" fill-rule="nonzero"/><path fill="#4285f4" clip-path="url(#id_0)" d="M107.0 332.0L98.0 332.0L98.0 310.0C98.0 308.89542 98.89543 308.0 100.0 308.0L105.0 308.0C106.10457 308.0 107.0 308.89542 107.0 310.0Z" fill-rule="nonzero"/><path stroke="#000000" stroke-width="2.0" stroke-linecap="butt" stroke-opacity="0.0" clip-path="url(#id_0)" d="M238.0 332.0L229.0 332.0L229.0 290.0C229.0 288.89542 229.89543 288.0 231.0 288.0L236.0 288.0C237.10457 288.0 238.0 288.89542 238.0 290.0Z" fill-rule="nonzero"/><path fill="#4285f4" clip-path="url(#id_0)" d="M238.0 332.0L229.0 332.0L229.0 290.0C229.0 288.89542 229.89543 288.0 231.0 288.0L236.0 288.0C237.10457 288.0 238.0 288.89542 238.0 290.0Z" fill-rule="nonzero"/><path stroke="#000000" stroke-width="2.0" stroke-linecap="butt" stroke-opacity="0.0" clip-path="url(#id_0)" d="M368.0 332.0L359.0 332.0L359.0 255.0C359.0 253.89543 359.89542 253.0 361.0 253.0L366.0 253.0C367.10458 253.0 368.0 253.89543 368.0 255.0Z" fill-rule="nonzero"/><path fill="#4285f4" clip-path="url(#id_0)" d="M368.0 332.0L359.0 332.0L359.0 255.0C359.0 253.89543 359.89542 253.0 361.0 253.0L366.0 253.0C367.10458 253.0 368.0 253.89543 368.0 255.0Z" fill-rule="nonzero"/><path stroke="#000000" stroke-width="2.0" stroke-linecap="butt" stroke-opacity="0.0" clip-path="url(#id_0)" d="M118.0 332.0L109.0 332.0L109.0 315.0C109.0 313.89542 109.89543 313.0 111.0 313.0L116.0 313.0C117.10457 313.0 118.0 313.89542 118.0 315.0Z" fill-rule="nonzero"/><path fill="#ea4335" clip-path="url(#id_0)" d="M118.0 332.0L109.0 332.0L109.0 315.0C109.0 313.89542 109.89543 313.0 111.0 313.0L116.0 313.0C117.10457 313.0 118.0 313.89542 118.0 315.0Z" fill-rule="nonzero"/><path stroke="#000000" stroke-width="2.0" stroke-linecap="butt" stroke-opacity="0.0" clip-path="url(#id_0)" d="M249.0 332.0L240.0 332.0L240.0 302.0C240.0 300.89542 240.89543 300.0 242.0 300.0L247.0 300.0C248.10457 300.0 249.0 300.89542 249.0 302.0Z" fill-rule="nonzero"/><path fill="#ea4335" clip-path="url(#id_0)" d="M249.0 332.0L240.0 332.0L240.0 302.0C240.0 300.89542 240.89543 300.0 242.0 300.0L247.0 300.0C248.10457 300.0 249.0 300.89542 249.0 302.0Z" fill-rule="nonzero"/><path stroke="#000000" stroke-width="2.0" stroke-linecap="butt" stroke-opacity="0.0" clip-path="url(#id_0)" d="M379.0 332.0L370.0 332.0L370.0 271.0C370.0 269.89542 370.89542 269.0 372.0 269.0L377.0 269.0C378.10458 269.0 379.0 269.89542 379.0 271.0Z" fill-rule="nonzero"/><path fill="#ea4335" clip-path="url(#id_0)" d="M379.0 332.0L370.0 332.0L370.0 271.0C370.0 269.89542 370.89542 269.0 372.0 269.0L377.0 269.0C378.10458 269.0 379.0 269.89542 379.0 271.0Z" fill-rule="nonzero"/><path stroke="#000000" stroke-width="2.0" stroke-linecap="butt" stroke-opacity="0.0" clip-path="url(#id_0)" d="M129.0 332.0L120.0 332.0L120.0 319.0C120.0 317.89542 120.89543 317.0 122.0 317.0L127.0 317.0C128.10457 317.0 129.0 317.89542 129.0 319.0Z" fill-rule="nonzero"/><path fill="#fbbc04" clip-path="url(#id_0)" d="M129.0 332.0L120.0 332.0L120.0 319.0C120.0 317.89542 120.89543 317.0 122.0 317.0L127.0 317.0C128.10457 317.0 129.0 317.89542 129.0 319.0Z" fill-rule="nonzero"/><path stroke="#000000" stroke-width="2.0" stroke-linecap="butt" stroke-opacity="0.0" clip-path="url(#id_0)" d="M260.0 332.0L251.0 332.0L251.0 305.0C251.0 303.89542 251.89543 303.0 253.0 303.0L258.0 303.0C259.10458 303.0 260.0 303.89542 260.0 305.0Z" fill-rule="nonzero"/><path fill="#fbbc04" clip-path="url(#id_0)" d="M260.0 332.0L251.0 332.0L251.0 305.0C251.0 303.89542 251.89543 303.0 253.0 303.0L258.0 303.0C259.10458 303.0 260.0 303.89542 260.0 305.0Z" fill-rule="nonzero"/><path stroke="#000000" stroke-width="2.0" stroke-linecap="butt" stroke-opacity="0.0" clip-path="url(#id_0)" d="M390.0 332.0L381.0 332.0L381.0 278.0C381.0 276.89542 381.89542 276.0 383.0 276.0L388.0 276.0C389.10458 276.0 390.0 276.89542 390.0 278.0Z" fill-rule="nonzero"/><path fill="#fbbc04" clip-path="url(#id_0)" d="M390.0 332.0L381.0 332.0L381.0 278.0C381.0 276.89542 381.89542 276.0 383.0 276.0L388.0 276.0C389.10458 276.0 390.0 276.89542 390.0 278.0Z" fill-rule="nonzero"/><path stroke="#000000" stroke-width="2.0" stroke-linecap="butt" stroke-opacity="0.0" clip-path="url(#id_0)" d="M140.0 332.0L131.0 332.0L131.0 311.0C131.0 309.89542 131.89543 309.0 133.0 309.0L138.0 309.0C139.10457 309.0 140.0 309.89542 140.0 311.0Z" fill-rule="nonzero"/><path fill="#34a853" clip-path="url(#id_0)" d="M140.0 332.0L131.0 332.0L131.0 311.0C131.0 309.89542 131.89543 309.0 133.0 309.0L138.0 309.0C139.10457 309.0 140.0 309.89542 140.0 311.0Z" fill-rule="nonzero"/><path stroke="#000000" stroke-width="2.0" stroke-linecap="butt" stroke-opacity="0.0" clip-path="url(#id_0)" d="M271.0 332.0L262.0 332.0L262.0 266.0C262.0 264.89542 262.89542 264.0 264.0 264.0L269.0 264.0C270.10458 264.0 271.0 264.89542 271.0 266.0Z" fill-rule="nonzero"/><path fill="#34a853" clip-path="url(#id_0)" d="M271.0 332.0L262.0 332.0L262.0 266.0C262.0 264.89542 262.89542 264.0 264.0 264.0L269.0 264.0C270.10458 264.0 271.0 264.89542 271.0 266.0Z" fill-rule="nonzero"/><path stroke="#000000" stroke-width="2.0" stroke-linecap="butt" stroke-opacity="0.0" clip-path="url(#id_0)" d="M401.0 332.0L392.0 332.0L392.0 215.0C392.0 213.89543 392.89542 213.0 394.0 213.0L399.0 213.0C400.10458 213.0 401.0 213.89543 401.0 215.0Z" fill-rule="nonzero"/><path fill="#34a853" clip-path="url(#id_0)" d="M401.0 332.0L392.0 332.0L392.0 215.0C392.0 213.89543 392.89542 213.0 394.0 213.0L399.0 213.0C400.10458 213.0 401.0 213.89543 401.0 215.0Z" fill-rule="nonzero"/><path stroke="#000000" stroke-width="2.0" stroke-linecap="butt" stroke-opacity="0.0" clip-path="url(#id_0)" d="M151.0 332.0L142.0 332.0L142.0 315.0C142.0 313.89542 142.89543 313.0 144.0 313.0L149.0 313.0C150.10457 313.0 151.0 313.89542 151.0 315.0Z" fill-rule="nonzero"/><path fill="#ff6d01" clip-path="url(#id_0)" d="M151.0 332.0L142.0 332.0L142.0 315.0C142.0 313.89542 142.89543 313.0 144.0 313.0L149.0 313.0C150.10457 313.0 151.0 313.89542 151.0 315.0Z" fill-rule="nonzero"/><path stroke="#000000" stroke-width="2.0" stroke-linecap="butt" stroke-opacity="0.0" clip-path="url(#id_0)" d="M282.0 332.0L273.0 332.0L273.0 301.0C273.0 299.89542 273.89542 299.0 275.0 299.0L280.0 299.0C281.10458 299.0 282.0 299.89542 282.0 301.0Z" fill-rule="nonzero"/><path fill="#ff6d01" clip-path="url(#id_0)" d="M282.0 332.0L273.0 332.0L273.0 301.0C273.0 299.89542 273.89542 299.0 275.0 299.0L280.0 299.0C281.10458 299.0 282.0 299.89542 282.0 301.0Z" fill-rule="nonzero"/><path stroke="#000000" stroke-width="2.0" stroke-linecap="butt" stroke-opacity="0.0" clip-path="url(#id_0)" d="M412.0 332.0L403.0 332.0L403.0 265.0C403.0 263.89542 403.89542 263.0 405.0 263.0L410.0 263.0C411.10458 263.0 412.0 263.89542 412.0 265.0Z" fill-rule="nonzero"/><path fill="#ff6d01" clip-path="url(#id_0)" d="M412.0 332.0L403.0 332.0L403.0 265.0C403.0 263.89542 403.89542 263.0 405.0 263.0L410.0 263.0C411.10458 263.0 412.0 263.89542 412.0 265.0Z" fill-rule="nonzero"/><path stroke="#000000" stroke-width="2.0" stroke-linecap="butt" stroke-opacity="0.0" clip-path="url(#id_0)" d="M162.0 332.0L153.0 332.0L153.0 314.0C153.0 312.89542 153.89543 312.0 155.0 312.0L160.0 312.0C161.10457 312.0 162.0 312.89542 162.0 314.0Z" fill-rule="nonzero"/><path fill="#46bdc6" clip-path="url(#id_0)" d="M162.0 332.0L153.0 332.0L153.0 314.0C153.0 312.89542 153.89543 312.0 155.0 312.0L160.0 312.0C161.10457 312.0 162.0 312.89542 162.0 314.0Z" fill-rule="nonzero"/><path stroke="#000000" stroke-width="2.0" stroke-linecap="butt" stroke-opacity="0.0" clip-path="url(#id_0)" d="M293.0 332.0L284.0 332.0L284.0 300.0C284.0 298.89542 284.89542 298.0 286.0 298.0L291.0 298.0C292.10458 298.0 293.0 298.89542 293.0 300.0Z" fill-rule="nonzero"/><path fill="#46bdc6" clip-path="url(#id_0)" d="M293.0 332.0L284.0 332.0L284.0 300.0C284.0 298.89542 284.89542 298.0 286.0 298.0L291.0 298.0C292.10458 298.0 293.0 298.89542 293.0 300.0Z" fill-rule="nonzero"/><path stroke="#000000" stroke-width="2.0" stroke-linecap="butt" stroke-opacity="0.0" clip-path="url(#id_0)" d="M423.0 332.0L414.0 332.0L414.0 269.0C414.0 267.89542 414.89542 267.0 416.0 267.0L421.0 267.0C422.10458 267.0 423.0 267.89542 423.0 269.0Z" fill-rule="nonzero"/><path fill="#46bdc6" clip-path="url(#id_0)" d="M423.0 332.0L414.0 332.0L414.0 269.0C414.0 267.89542 414.89542 267.0 416.0 267.0L421.0 267.0C422.10458 267.0 423.0 267.89542 423.0 269.0Z" fill-rule="nonzero"/><path stroke="#000000" stroke-width="2.0" stroke-linecap="butt" stroke-opacity="0.0" clip-path="url(#id_0)" d="M173.0 332.0L164.0 332.0L164.0 271.0C164.0 269.89542 164.89543 269.0 166.0 269.0L171.0 269.0C172.10457 269.0 173.0 269.89542 173.0 271.0Z" fill-rule="nonzero"/><path fill="#7baaf7" clip-path="url(#id_0)" d="M173.0 332.0L164.0 332.0L164.0 271.0C164.0 269.89542 164.89543 269.0 166.0 269.0L171.0 269.0C172.10457 269.0 173.0 269.89542 173.0 271.0Z" fill-rule="nonzero"/><path stroke="#000000" stroke-width="2.0" stroke-linecap="butt" stroke-opacity="0.0" clip-path="url(#id_0)" d="M304.0 332.0L295.0 332.0L295.0 221.0C295.0 219.89543 295.89542 219.0 297.0 219.0L302.0 219.0C303.10458 219.0 304.0 219.89543 304.0 221.0Z" fill-rule="nonzero"/><path fill="#7baaf7" clip-path="url(#id_0)" d="M304.0 332.0L295.0 332.0L295.0 221.0C295.0 219.89543 295.89542 219.0 297.0 219.0L302.0 219.0C303.10458 219.0 304.0 219.89543 304.0 221.0Z" fill-rule="nonzero"/><path stroke="#000000" stroke-width="2.0" stroke-linecap="butt" stroke-opacity="0.0" clip-path="url(#id_0)" d="M434.0 332.0L425.0 332.0L425.0 76.0C425.0 74.89543 425.89542 74.0 427.0 74.0L432.0 74.0C433.10458 74.0 434.0 74.89543 434.0 76.0Z" fill-rule="nonzero"/><path fill="#7baaf7" clip-path="url(#id_0)" d="M434.0 332.0L425.0 332.0L425.0 76.0C425.0 74.89543 425.89542 74.0 427.0 74.0L432.0 74.0C433.10458 74.0 434.0 74.89543 434.0 76.0Z" fill-rule="nonzero"/><path stroke="#000000" stroke-width="2.0" stroke-linecap="butt" stroke-opacity="0.0" clip-path="url(#id_0)" d="M184.0 332.0L175.0 332.0L175.0 316.0C175.0 314.89542 175.89543 314.0 177.0 314.0L182.0 314.0C183.10457 314.0 184.0 314.89542 184.0 316.0Z" fill-rule="nonzero"/><path fill="#f07b72" clip-path="url(#id_0)" d="M184.0 332.0L175.0 332.0L175.0 316.0C175.0 314.89542 175.89543 314.0 177.0 314.0L182.0 314.0C183.10457 314.0 184.0 314.89542 184.0 316.0Z" fill-rule="nonzero"/><path stroke="#000000" stroke-width="2.0" stroke-linecap="butt" stroke-opacity="0.0" clip-path="url(#id_0)" d="M315.0 332.0L306.0 332.0L306.0 274.0C306.0 272.89542 306.89542 272.0 308.0 272.0L313.0 272.0C314.10458 272.0 315.0 272.89542 315.0 274.0Z" fill-rule="nonzero"/><path fill="#f07b72" clip-path="url(#id_0)" d="M315.0 332.0L306.0 332.0L306.0 274.0C306.0 272.89542 306.89542 272.0 308.0 272.0L313.0 272.0C314.10458 272.0 315.0 272.89542 315.0 274.0Z" fill-rule="nonzero"/><path stroke="#000000" stroke-width="2.0" stroke-linecap="butt" stroke-opacity="0.0" clip-path="url(#id_0)" d="M445.0 332.0L436.0 332.0L436.0 229.0C436.0 227.89543 436.89542 227.0 438.0 227.0L443.0 227.0C444.10458 227.0 445.0 227.89543 445.0 229.0Z" fill-rule="nonzero"/><path fill="#f07b72" clip-path="url(#id_0)" d="M445.0 332.0L436.0 332.0L436.0 229.0C436.0 227.89543 436.89542 227.0 438.0 227.0L443.0 227.0C444.10458 227.0 445.0 227.89543 445.0 229.0Z" fill-rule="nonzero"/><path fill="#000000" d="M40.05 332.21564Q40.05 330.6844 40.3625 329.7625Q40.675 328.825 41.284374 328.325Q41.909374 327.825 42.846874 327.825Q43.534374 327.825 44.05 328.10626Q44.58125 328.3875 44.925 328.91876Q45.26875 329.4344 45.45625 330.1844Q45.64375 330.9344 45.64375 332.21564Q45.64375 333.73126 45.33125 334.65314Q45.034374 335.575 44.409374 336.09064Q43.8 336.59064 42.846874 336.59064Q41.6125 336.59064 40.89375 335.7Q40.05 334.6375 40.05 332.21564ZM41.128124 332.21564Q41.128124 334.325 41.628124 335.02814Q42.128124 335.73126 42.846874 335.73126Q43.58125 335.73126 44.065624 335.02814Q44.565624 334.325 44.565624 332.21564Q44.565624 330.09064 44.065624 329.40314Q43.58125 328.7 42.83125 328.7Q42.1125 328.7 41.675 329.3094Q41.128124 330.09064 41.128124 332.21564Z" fill-rule="nonzero"/><path fill="#000000" d="M23.01875 282.34332L21.971874 282.34332L21.971874 275.62457Q21.58125 275.98395 20.95625 276.35895Q20.346874 276.71832 19.8625 276.8902L19.8625 275.87457Q20.7375 275.4527 21.39375 274.87457Q22.065624 274.28082 22.346874 273.71832L23.01875 273.71832L23.01875 282.34332ZM26.05 278.10895Q26.05 276.5777 26.3625 275.65582Q26.675 274.71832 27.284374 274.21832Q27.909374 273.71832 28.846874 273.71832Q29.534374 273.71832 30.05 273.99957Q30.58125 274.28082 30.925 274.81207Q31.26875 275.3277 31.45625 276.0777Q31.64375 276.8277 31.64375 278.10895Q31.64375 279.62457 31.33125 280.54645Q31.034374 281.46832 30.409374 281.98395Q29.8 282.48395 28.846874 282.48395Q27.6125 282.48395 26.89375 281.59332Q26.05 280.53082 26.05 278.10895ZM27.128124 278.10895Q27.128124 280.21832 27.628124 280.92145Q28.128124 281.62457 28.846874 281.62457Q29.58125 281.62457 30.065624 280.92145Q30.565624 280.21832 30.565624 278.10895Q30.565624 275.98395 30.065624 275.29645Q29.58125 274.59332 28.83125 274.59332Q28.1125 274.59332 27.675 275.2027Q27.128124 275.98395 27.128124 278.10895ZM33.05 278.10895Q33.05 276.5777 33.3625 275.65582Q33.675 274.71832 34.284374 274.21832Q34.909374 273.71832 35.846874 273.71832Q36.534374 273.71832 37.05 273.99957Q37.58125 274.28082 37.925 274.81207Q38.26875 275.3277 38.45625 276.0777Q38.64375 276.8277 38.64375 278.10895Q38.64375 279.62457 38.33125 280.54645Q38.034374 281.46832 37.409374 281.98395Q36.8 282.48395 35.846874 282.48395Q34.6125 282.48395 33.89375 281.59332Q33.05 280.53082 33.05 278.10895ZM34.128124 278.10895Q34.128124 280.21832 34.628124 280.92145Q35.128124 281.62457 35.846874 281.62457Q36.58125 281.62457 37.065624 280.92145Q37.565624 280.21832 37.565624 278.10895Q37.565624 275.98395 37.065624 275.29645Q36.58125 274.59332 35.83125 274.59332Q35.1125 274.59332 34.675 275.2027Q34.128124 275.98395 34.128124 278.10895ZM40.05 278.10895Q40.05 276.5777 40.3625 275.65582Q40.675 274.71832 41.284374 274.21832Q41.909374 273.71832 42.846874 273.71832Q43.534374 273.71832 44.05 273.99957Q44.58125 274.28082 44.925 274.81207Q45.26875 275.3277 45.45625 276.0777Q45.64375 276.8277 45.64375 278.10895Q45.64375 279.62457 45.33125 280.54645Q45.034374 281.46832 44.409374 281.98395Q43.8 282.48395 42.846874 282.48395Q41.6125 282.48395 40.89375 281.59332Q40.05 280.53082 40.05 278.10895ZM41.128124 278.10895Q41.128124 280.21832 41.628124 280.92145Q42.128124 281.62457 42.846874 281.62457Q43.58125 281.62457 44.065624 280.92145Q44.565624 280.21832 44.565624 278.10895Q44.565624 275.98395 44.065624 275.29645Q43.58125 274.59332 42.83125 274.59332Q42.1125 274.59332 41.675 275.2027Q41.128124 275.98395 41.128124 278.10895Z" fill-rule="nonzero"/><path fill="#000000" d="M24.596874 227.22104L24.596874 228.23666L18.909374 228.23666Q18.909374 227.86166 19.034374 227.50229Q19.253124 226.92416 19.721874 226.36166Q20.20625 225.79916 21.1125 225.06479Q22.51875 223.90854 23.003124 223.23666Q23.503124 222.56479 23.503124 221.97104Q23.503124 221.34604 23.05 220.92416Q22.596874 220.48666 21.878124 220.48666Q21.1125 220.48666 20.659374 220.93979Q20.20625 221.39291 20.190624 222.20541L19.1125 222.09604Q19.221874 220.87729 19.940624 220.25229Q20.675 219.61166 21.909374 219.61166Q23.14375 219.61166 23.8625 220.29916Q24.58125 220.98666 24.58125 222.00229Q24.58125 222.51791 24.3625 223.01791Q24.159374 223.50229 23.659374 224.06479Q23.175 224.61166 22.05 225.56479Q21.096874 226.36166 20.815624 226.65854Q20.55 226.93979 20.378124 227.22104L24.596874 227.22104ZM26.05 224.00229Q26.05 222.47104 26.3625 221.54916Q26.675 220.61166 27.284374 220.11166Q27.909374 219.61166 28.846874 219.61166Q29.534374 219.61166 30.05 219.89291Q30.58125 220.17416 30.925 220.70541Q31.26875 221.22104 31.45625 221.97104Q31.64375 222.72104 31.64375 224.00229Q31.64375 225.51791 31.33125 226.43979Q31.034374 227.36166 30.409374 227.87729Q29.8 228.37729 28.846874 228.37729Q27.6125 228.37729 26.89375 227.48666Q26.05 226.42416 26.05 224.00229ZM27.128124 224.00229Q27.128124 226.11166 27.628124 226.81479Q28.128124 227.51791 28.846874 227.51791Q29.58125 227.51791 30.065624 226.81479Q30.565624 226.11166 30.565624 224.00229Q30.565624 221.87729 30.065624 221.18979Q29.58125 220.48666 28.83125 220.48666Q28.1125 220.48666 27.675 221.09604Q27.128124 221.87729 27.128124 224.00229ZM33.05 224.00229Q33.05 222.47104 33.3625 221.54916Q33.675 220.61166 34.284374 220.11166Q34.909374 219.61166 35.846874 219.61166Q36.534374 219.61166 37.05 219.89291Q37.58125 220.17416 37.925 220.70541Q38.26875 221.22104 38.45625 221.97104Q38.64375 222.72104 38.64375 224.00229Q38.64375 225.51791 38.33125 226.43979Q38.034374 227.36166 37.409374 227.87729Q36.8 228.37729 35.846874 228.37729Q34.6125 228.37729 33.89375 227.48666Q33.05 226.42416 33.05 224.00229ZM34.128124 224.00229Q34.128124 226.11166 34.628124 226.81479Q35.128124 227.51791 35.846874 227.51791Q36.58125 227.51791 37.065624 226.81479Q37.565624 226.11166 37.565624 224.00229Q37.565624 221.87729 37.065624 221.18979Q36.58125 220.48666 35.83125 220.48666Q35.1125 220.48666 34.675 221.09604Q34.128124 221.87729 34.128124 224.00229ZM40.05 224.00229Q40.05 222.47104 40.3625 221.54916Q40.675 220.61166 41.284374 220.11166Q41.909374 219.61166 42.846874 219.61166Q43.534374 219.61166 44.05 219.89291Q44.58125 220.17416 44.925 220.70541Q45.26875 221.22104 45.45625 221.97104Q45.64375 222.72104 45.64375 224.00229Q45.64375 225.51791 45.33125 226.43979Q45.034374 227.36166 44.409374 227.87729Q43.8 228.37729 42.846874 228.37729Q41.6125 228.37729 40.89375 227.48666Q40.05 226.42416 40.05 224.00229ZM41.128124 224.00229Q41.128124 226.11166 41.628124 226.81479Q42.128124 227.51791 42.846874 227.51791Q43.58125 227.51791 44.065624 226.81479Q44.565624 226.11166 44.565624 224.00229Q44.565624 221.87729 44.065624 221.18979Q43.58125 220.48666 42.83125 220.48666Q42.1125 220.48666 41.675 221.09604Q41.128124 221.87729 41.128124 224.00229Z" fill-rule="nonzero"/><path fill="#000000" d="M19.05 171.86438L20.1125 171.72375Q20.284374 172.61438 20.721874 173.02063Q21.159374 173.41125 21.784374 173.41125Q22.534374 173.41125 23.05 172.89563Q23.565624 172.38 23.565624 171.61438Q23.565624 170.89563 23.08125 170.42688Q22.6125 169.9425 21.878124 169.9425Q21.58125 169.9425 21.128124 170.0675L21.253124 169.13Q21.3625 169.14563 21.425 169.14563Q22.096874 169.14563 22.628124 168.80188Q23.175 168.4425 23.175 167.70813Q23.175 167.13 22.784374 166.755Q22.39375 166.36438 21.76875 166.36438Q21.159374 166.36438 20.7375 166.755Q20.33125 167.14563 20.221874 167.91125L19.159374 167.72375Q19.346874 166.67688 20.034374 166.09875Q20.721874 165.505 21.7375 165.505Q22.440624 165.505 23.034374 165.8175Q23.628124 166.11438 23.940624 166.63Q24.253124 167.14563 24.253124 167.73938Q24.253124 168.28625 23.95625 168.755Q23.659374 169.20813 23.08125 169.47375Q23.83125 169.64563 24.253124 170.20813Q24.675 170.755 24.675 171.59875Q24.675 172.72375 23.846874 173.505Q23.034374 174.28625 21.784374 174.28625Q20.659374 174.28625 19.909374 173.61438Q19.159374 172.92688 19.05 171.86438ZM26.05 169.89563Q26.05 168.36438 26.3625 167.4425Q26.675 166.505 27.284374 166.005Q27.909374 165.505 28.846874 165.505Q29.534374 165.505 30.05 165.78625Q30.58125 166.0675 30.925 166.59875Q31.26875 167.11438 31.45625 167.86438Q31.64375 168.61438 31.64375 169.89563Q31.64375 171.41125 31.33125 172.33313Q31.034374 173.255 30.409374 173.77063Q29.8 174.27063 28.846874 174.27063Q27.6125 174.27063 26.89375 173.38Q26.05 172.3175 26.05 169.89563ZM27.128124 169.89563Q27.128124 172.005 27.628124 172.70813Q28.128124 173.41125 28.846874 173.41125Q29.58125 173.41125 30.065624 172.70813Q30.565624 172.005 30.565624 169.89563Q30.565624 167.77063 30.065624 167.08313Q29.58125 166.38 28.83125 166.38Q28.1125 166.38 27.675 166.98938Q27.128124 167.77063 27.128124 169.89563ZM33.05 169.89563Q33.05 168.36438 33.3625 167.4425Q33.675 166.505 34.284374 166.005Q34.909374 165.505 35.846874 165.505Q36.534374 165.505 37.05 165.78625Q37.58125 166.0675 37.925 166.59875Q38.26875 167.11438 38.45625 167.86438Q38.64375 168.61438 38.64375 169.89563Q38.64375 171.41125 38.33125 172.33313Q38.034374 173.255 37.409374 173.77063Q36.8 174.27063 35.846874 174.27063Q34.6125 174.27063 33.89375 173.38Q33.05 172.3175 33.05 169.89563ZM34.128124 169.89563Q34.128124 172.005 34.628124 172.70813Q35.128124 173.41125 35.846874 173.41125Q36.58125 173.41125 37.065624 172.70813Q37.565624 172.005 37.565624 169.89563Q37.565624 167.77063 37.065624 167.08313Q36.58125 166.38 35.83125 166.38Q35.1125 166.38 34.675 166.98938Q34.128124 167.77063 34.128124 169.89563ZM40.05 169.89563Q40.05 168.36438 40.3625 167.4425Q40.675 166.505 41.284374 166.005Q41.909374 165.505 42.846874 165.505Q43.534374 165.505 44.05 165.78625Q44.58125 166.0675 44.925 166.59875Q45.26875 167.11438 45.45625 167.86438Q45.64375 168.61438 45.64375 169.89563Q45.64375 171.41125 45.33125 172.33313Q45.034374 173.255 44.409374 173.77063Q43.8 174.27063 42.846874 174.27063Q41.6125 174.27063 40.89375 173.38Q40.05 172.3175 40.05 169.89563ZM41.128124 169.89563Q41.128124 172.005 41.628124 172.70813Q42.128124 173.41125 42.846874 173.41125Q43.58125 173.41125 44.065624 172.70813Q44.565624 172.005 44.565624 169.89563Q44.565624 167.77063 44.065624 167.08313Q43.58125 166.38 42.83125 166.38Q42.1125 166.38 41.675 166.98938Q41.128124 167.77063 41.128124 169.89563Z" fill-rule="nonzero"/><path fill="#000000" d="M22.425 120.02333L22.425 117.96083L18.70625 117.96083L18.70625 116.99208L22.628124 111.42958L23.4875 111.42958L23.4875 116.99208L24.64375 116.99208L24.64375 117.96083L23.4875 117.96083L23.4875 120.02333L22.425 120.02333ZM22.425 116.99208L22.425 113.132706L19.7375 116.99208L22.425 116.99208ZM26.05 115.788956Q26.05 114.257706 26.3625 113.33583Q26.675 112.39833 27.284374 111.89833Q27.909374 111.39833 28.846874 111.39833Q29.534374 111.39833 30.05 111.67958Q30.58125 111.96083 30.925 112.49208Q31.26875 113.007706 31.45625 113.757706Q31.64375 114.507706 31.64375 115.788956Q31.64375 117.30458 31.33125 118.226456Q31.034374 119.14833 30.409374 119.663956Q29.8 120.163956 28.846874 120.163956Q27.6125 120.163956 26.89375 119.27333Q26.05 118.21083 26.05 115.788956ZM27.128124 115.788956Q27.128124 117.89833 27.628124 118.601456Q28.128124 119.30458 28.846874 119.30458Q29.58125 119.30458 30.065624 118.601456Q30.565624 117.89833 30.565624 115.788956Q30.565624 113.663956 30.065624 112.976456Q29.58125 112.27333 28.83125 112.27333Q28.1125 112.27333 27.675 112.882706Q27.128124 113.663956 27.128124 115.788956ZM33.05 115.788956Q33.05 114.257706 33.3625 113.33583Q33.675 112.39833 34.284374 111.89833Q34.909374 111.39833 35.846874 111.39833Q36.534374 111.39833 37.05 111.67958Q37.58125 111.96083 37.925 112.49208Q38.26875 113.007706 38.45625 113.757706Q38.64375 114.507706 38.64375 115.788956Q38.64375 117.30458 38.33125 118.226456Q38.034374 119.14833 37.409374 119.663956Q36.8 120.163956 35.846874 120.163956Q34.6125 120.163956 33.89375 119.27333Q33.05 118.21083 33.05 115.788956ZM34.128124 115.788956Q34.128124 117.89833 34.628124 118.601456Q35.128124 119.30458 35.846874 119.30458Q36.58125 119.30458 37.065624 118.601456Q37.565624 117.89833 37.565624 115.788956Q37.565624 113.663956 37.065624 112.976456Q36.58125 112.27333 35.83125 112.27333Q35.1125 112.27333 34.675 112.882706Q34.128124 113.663956 34.128124 115.788956ZM40.05 115.788956Q40.05 114.257706 40.3625 113.33583Q40.675 112.39833 41.284374 111.89833Q41.909374 111.39833 42.846874 111.39833Q43.534374 111.39833 44.05 111.67958Q44.58125 111.96083 44.925 112.49208Q45.26875 113.007706 45.45625 113.757706Q45.64375 114.507706 45.64375 115.788956Q45.64375 117.30458 45.33125 118.226456Q45.034374 119.14833 44.409374 119.663956Q43.8 120.163956 42.846874 120.163956Q41.6125 120.163956 40.89375 119.27333Q40.05 118.21083 40.05 115.788956ZM41.128124 115.788956Q41.128124 117.89833 41.628124 118.601456Q42.128124 119.30458 42.846874 119.30458Q43.58125 119.30458 44.065624 118.601456Q44.565624 117.89833 44.565624 115.788956Q44.565624 113.663956 44.065624 112.976456Q43.58125 112.27333 42.83125 112.27333Q42.1125 112.27333 41.675 112.882706Q41.128124 113.663956 41.128124 115.788956Z" fill-rule="nonzero"/><path fill="#000000" d="M19.05 63.666664L20.159374 63.572914Q20.284374 64.385414 20.721874 64.791664Q21.175 65.197914 21.815624 65.197914Q22.565624 65.197914 23.096874 64.61979Q23.628124 64.041664 23.628124 63.104164Q23.628124 62.197914 23.1125 61.68229Q22.6125 61.15104 21.784374 61.15104Q21.284374 61.15104 20.8625 61.385414Q20.45625 61.61979 20.221874 61.979164L19.2375 61.854164L20.065624 57.447914L24.346874 57.447914L24.346874 58.447914L20.909374 58.447914L20.45625 60.760414Q21.221874 60.21354 22.065624 60.21354Q23.190624 60.21354 23.95625 60.99479Q24.7375 61.77604 24.7375 63.010414Q24.7375 64.166664 24.065624 65.02604Q23.2375 66.05729 21.815624 66.05729Q20.64375 66.05729 19.89375 65.40104Q19.159374 64.74479 19.05 63.666664ZM26.05 61.68229Q26.05 60.15104 26.3625 59.229164Q26.675 58.291664 27.284374 57.791664Q27.909374 57.291664 28.846874 57.291664Q29.534374 57.291664 30.05 57.572914Q30.58125 57.854164 30.925 58.385414Q31.26875 58.90104 31.45625 59.65104Q31.64375 60.40104 31.64375 61.68229Q31.64375 63.197914 31.33125 64.11979Q31.034374 65.041664 30.409374 65.55729Q29.8 66.05729 28.846874 66.05729Q27.6125 66.05729 26.89375 65.166664Q26.05 64.104164 26.05 61.68229ZM27.128124 61.68229Q27.128124 63.791664 27.628124 64.49479Q28.128124 65.197914 28.846874 65.197914Q29.58125 65.197914 30.065624 64.49479Q30.565624 63.791664 30.565624 61.68229Q30.565624 59.55729 30.065624 58.86979Q29.58125 58.166664 28.83125 58.166664Q28.1125 58.166664 27.675 58.77604Q27.128124 59.55729 27.128124 61.68229ZM33.05 61.68229Q33.05 60.15104 33.3625 59.229164Q33.675 58.291664 34.284374 57.791664Q34.909374 57.291664 35.846874 57.291664Q36.534374 57.291664 37.05 57.572914Q37.58125 57.854164 37.925 58.385414Q38.26875 58.90104 38.45625 59.65104Q38.64375 60.40104 38.64375 61.68229Q38.64375 63.197914 38.33125 64.11979Q38.034374 65.041664 37.409374 65.55729Q36.8 66.05729 35.846874 66.05729Q34.6125 66.05729 33.89375 65.166664Q33.05 64.104164 33.05 61.68229ZM34.128124 61.68229Q34.128124 63.791664 34.628124 64.49479Q35.128124 65.197914 35.846874 65.197914Q36.58125 65.197914 37.065624 64.49479Q37.565624 63.791664 37.565624 61.68229Q37.565624 59.55729 37.065624 58.86979Q36.58125 58.166664 35.83125 58.166664Q35.1125 58.166664 34.675 58.77604Q34.128124 59.55729 34.128124 61.68229ZM40.05 61.68229Q40.05 60.15104 40.3625 59.229164Q40.675 58.291664 41.284374 57.791664Q41.909374 57.291664 42.846874 57.291664Q43.534374 57.291664 44.05 57.572914Q44.58125 57.854164 44.925 58.385414Q45.26875 58.90104 45.45625 59.65104Q45.64375 60.40104 45.64375 61.68229Q45.64375 63.197914 45.33125 64.11979Q45.034374 65.041664 44.409374 65.55729Q43.8 66.05729 42.846874 66.05729Q41.6125 66.05729 40.89375 65.166664Q40.05 64.104164 40.05 61.68229ZM41.128124 61.68229Q41.128124 63.791664 41.628124 64.49479Q42.128124 65.197914 42.846874 65.197914Q43.58125 65.197914 44.065624 64.49479Q44.565624 63.791664 44.565624 61.68229Q44.565624 59.55729 44.065624 58.86979Q43.58125 58.166664 42.83125 58.166664Q42.1125 58.166664 41.675 58.77604Q41.128124 59.55729 41.128124 61.68229Z" fill-rule="nonzero"/><path fill="#000000" d="M116.238594 349.45L116.238594 340.85626L117.394844 340.85626L121.91047 347.60626L121.91047 340.85626L123.00422 340.85626L123.00422 349.45L121.832344 349.45L117.31672 342.7L117.31672 349.45L116.238594 349.45ZM130.66046 344.40314L124.988594 344.40314L124.988594 343.41876L130.66046 343.41876L130.66046 344.40314ZM130.66046 347.0125L124.988594 347.0125L124.988594 346.02814L130.66046 346.02814L130.66046 347.0125ZM131.81671 347.2L132.92609 347.10626Q133.05109 347.91876 133.48859 348.325Q133.94171 348.73126 134.58234 348.73126Q135.33234 348.73126 135.86359 348.15314Q136.39484 347.575 136.39484 346.6375Q136.39484 345.73126 135.87921 345.21564Q135.37921 344.6844 134.55109 344.6844Q134.05109 344.6844 133.62921 344.91876Q133.22296 345.15314 132.98859 345.5125L132.00421 345.3875L132.83234 340.98126L137.11359 340.98126L137.11359 341.98126L133.67609 341.98126L133.22296 344.29376Q133.98859 343.7469 134.83234 343.7469Q135.95734 343.7469 136.72296 344.52814Q137.50421 345.3094 137.50421 346.54376Q137.50421 347.7 136.83234 348.5594Q136.00421 349.59064 134.58234 349.59064Q133.41046 349.59064 132.66046 348.9344Q131.92609 348.27814 131.81671 347.2ZM138.81671 345.21564Q138.81671 343.6844 139.12921 342.7625Q139.44171 341.825 140.05109 341.325Q140.67609 340.825 141.61359 340.825Q142.30109 340.825 142.81671 341.10626Q143.34796 341.3875 143.69171 341.91876Q144.03546 342.4344 144.22296 343.1844Q144.41046 343.9344 144.41046 345.21564Q144.41046 346.73126 144.09796 347.65314Q143.80109 348.575 143.17609 349.09064Q142.56671 349.59064 141.61359 349.59064Q140.37921 349.59064 139.66046 348.7Q138.81671 347.6375 138.81671 345.21564ZM139.89484 345.21564Q139.89484 347.325 140.39484 348.02814Q140.89484 348.73126 141.61359 348.73126Q142.34796 348.73126 142.83234 348.02814Q143.33234 347.325 143.33234 345.21564Q143.33234 343.09064 142.83234 342.40314Q142.34796 341.7 141.59796 341.7Q140.87921 341.7 140.44171 342.3094Q139.89484 343.09064 139.89484 345.21564ZM145.81671 345.21564Q145.81671 343.6844 146.12921 342.7625Q146.44171 341.825 147.05109 341.325Q147.67609 340.825 148.61359 340.825Q149.30109 340.825 149.81671 341.10626Q150.34796 341.3875 150.69171 341.91876Q151.03546 342.4344 151.22296 343.1844Q151.41046 343.9344 151.41046 345.21564Q151.41046 346.73126 151.09796 347.65314Q150.80109 348.575 150.17609 349.09064Q149.56671 349.59064 148.61359 349.59064Q147.37921 349.59064 146.66046 348.7Q145.81671 347.6375 145.81671 345.21564ZM146.89484 345.21564Q146.89484 347.325 147.39484 348.02814Q147.89484 348.73126 148.61359 348.73126Q149.34796 348.73126 149.83234 348.02814Q150.33234 347.325 150.33234 345.21564Q150.33234 343.09064 149.83234 342.40314Q149.34796 341.7 148.59796 341.7Q147.87921 341.7 147.44171 342.3094Q146.89484 343.09064 146.89484 345.21564ZM152.81671 345.21564Q152.81671 343.6844 153.12921 342.7625Q153.44171 341.825 154.05109 341.325Q154.67609 340.825 155.61359 340.825Q156.30109 340.825 156.81671 341.10626Q157.34796 341.3875 157.69171 341.91876Q158.03546 342.4344 158.22296 343.1844Q158.41046 343.9344 158.41046 345.21564Q158.41046 346.73126 158.09796 347.65314Q157.80109 348.575 157.17609 349.09064Q156.56671 349.59064 155.61359 349.59064Q154.37921 349.59064 153.66046 348.7Q152.81671 347.6375 152.81671 345.21564ZM153.89484 345.21564Q153.89484 347.325 154.39484 348.02814Q154.89484 348.73126 155.61359 348.73126Q156.34796 348.73126 156.83234 348.02814Q157.33234 347.325 157.33234 345.21564Q157.33234 343.09064 156.83234 342.40314Q156.34796 341.7 155.59796 341.7Q154.87921 341.7 154.44171 342.3094Q153.89484 343.09064 153.89484 345.21564ZM159.81671 345.21564Q159.81671 343.6844 160.12921 342.7625Q160.44171 341.825 161.05109 341.325Q161.67609 340.825 162.61359 340.825Q163.30109 340.825 163.81671 341.10626Q164.34796 341.3875 164.69171 341.91876Q165.03546 342.4344 165.22296 343.1844Q165.41046 343.9344 165.41046 345.21564Q165.41046 346.73126 165.09796 347.65314Q164.80109 348.575 164.17609 349.09064Q163.56671 349.59064 162.61359 349.59064Q161.37921 349.59064 160.66046 348.7Q159.81671 347.6375 159.81671 345.21564ZM160.89484 345.21564Q160.89484 347.325 161.39484 348.02814Q161.89484 348.73126 162.61359 348.73126Q163.34796 348.73126 163.83234 348.02814Q164.33234 347.325 164.33234 345.21564Q164.33234 343.09064 163.83234 342.40314Q163.34796 341.7 162.59796 341.7Q161.87921 341.7 161.44171 342.3094Q160.89484 343.09064 160.89484 345.21564Z" fill-rule="nonzero"/><path fill="#000000" d="M243.5041 349.45L243.5041 340.85626L244.66035 340.85626L249.17598 347.60626L249.17598 340.85626L250.26973 340.85626L250.26973 349.45L249.09785 349.45L244.58223 342.7L244.58223 349.45L243.5041 349.45ZM257.92596 344.40314L252.2541 344.40314L252.2541 343.41876L257.92596 343.41876L257.92596 344.40314ZM257.92596 347.0125L252.2541 347.0125L252.2541 346.02814L257.92596 346.02814L257.92596 347.0125ZM263.05096 349.45L262.0041 349.45L262.0041 342.73126Q261.61346 343.09064 260.98846 343.46564Q260.3791 343.825 259.8947 343.9969L259.8947 342.98126Q260.7697 342.5594 261.42596 341.98126Q262.09784 341.3875 262.3791 340.825L263.05096 340.825L263.05096 349.45ZM266.0822 345.21564Q266.0822 343.6844 266.3947 342.7625Q266.7072 341.825 267.3166 341.325Q267.9416 340.825 268.8791 340.825Q269.5666 340.825 270.0822 341.10626Q270.61346 341.3875 270.9572 341.91876Q271.30096 342.4344 271.48846 343.1844Q271.67596 343.9344 271.67596 345.21564Q271.67596 346.73126 271.36346 347.65314Q271.0666 348.575 270.4416 349.09064Q269.8322 349.59064 268.8791 349.59064Q267.6447 349.59064 266.92596 348.7Q266.0822 347.6375 266.0822 345.21564ZM267.16034 345.21564Q267.16034 347.325 267.66034 348.02814Q268.16034 348.73126 268.8791 348.73126Q269.61346 348.73126 270.09784 348.02814Q270.59784 347.325 270.59784 345.21564Q270.59784 343.09064 270.09784 342.40314Q269.61346 341.7 268.86346 341.7Q268.1447 341.7 267.7072 342.3094Q267.16034 343.09064 267.16034 345.21564ZM273.0822 345.21564Q273.0822 343.6844 273.3947 342.7625Q273.7072 341.825 274.3166 341.325Q274.9416 340.825 275.8791 340.825Q276.5666 340.825 277.0822 341.10626Q277.61346 341.3875 277.9572 341.91876Q278.30096 342.4344 278.48846 343.1844Q278.67596 343.9344 278.67596 345.21564Q278.67596 346.73126 278.36346 347.65314Q278.0666 348.575 277.4416 349.09064Q276.8322 349.59064 275.8791 349.59064Q274.6447 349.59064 273.92596 348.7Q273.0822 347.6375 273.0822 345.21564ZM274.16034 345.21564Q274.16034 347.325 274.66034 348.02814Q275.16034 348.73126 275.8791 348.73126Q276.61346 348.73126 277.09784 348.02814Q277.59784 347.325 277.59784 345.21564Q277.59784 343.09064 277.09784 342.40314Q276.61346 341.7 275.86346 341.7Q275.1447 341.7 274.7072 342.3094Q274.16034 343.09064 274.16034 345.21564ZM280.0822 345.21564Q280.0822 343.6844 280.3947 342.7625Q280.7072 341.825 281.3166 341.325Q281.9416 340.825 282.8791 340.825Q283.5666 340.825 284.0822 341.10626Q284.61346 341.3875 284.9572 341.91876Q285.30096 342.4344 285.48846 343.1844Q285.67596 343.9344 285.67596 345.21564Q285.67596 346.73126 285.36346 347.65314Q285.0666 348.575 284.4416 349.09064Q283.8322 349.59064 282.8791 349.59064Q281.6447 349.59064 280.92596 348.7Q280.0822 347.6375 280.0822 345.21564ZM281.16034 345.21564Q281.16034 347.325 281.66034 348.02814Q282.16034 348.73126 282.8791 348.73126Q283.61346 348.73126 284.09784 348.02814Q284.59784 347.325 284.59784 345.21564Q284.59784 343.09064 284.09784 342.40314Q283.61346 341.7 282.86346 341.7Q282.1447 341.7 281.7072 342.3094Q281.16034 343.09064 281.16034 345.21564ZM287.0822 345.21564Q287.0822 343.6844 287.3947 342.7625Q287.7072 341.825 288.3166 341.325Q288.9416 340.825 289.8791 340.825Q290.5666 340.825 291.0822 341.10626Q291.61346 341.3875 291.9572 341.91876Q292.30096 342.4344 292.48846 343.1844Q292.67596 343.9344 292.67596 345.21564Q292.67596 346.73126 292.36346 347.65314Q292.0666 348.575 291.4416 349.09064Q290.8322 349.59064 289.8791 349.59064Q288.6447 349.59064 287.92596 348.7Q287.0822 347.6375 287.0822 345.21564ZM288.16034 345.21564Q288.16034 347.325 288.66034 348.02814Q289.16034 348.73126 289.8791 348.73126Q290.61346 348.73126 291.09784 348.02814Q291.59784 347.325 291.59784 345.21564Q291.59784 343.09064 291.09784 342.40314Q290.61346 341.7 289.86346 341.7Q289.1447 341.7 288.7072 342.3094Q288.16034 343.09064 288.16034 345.21564ZM294.0822 345.21564Q294.0822 343.6844 294.3947 342.7625Q294.7072 341.825 295.3166 341.325Q295.9416 340.825 296.8791 340.825Q297.5666 340.825 298.0822 341.10626Q298.61346 341.3875 298.9572 341.91876Q299.30096 342.4344 299.48846 343.1844Q299.67596 343.9344 299.67596 345.21564Q299.67596 346.73126 299.36346 347.65314Q299.0666 348.575 298.4416 349.09064Q297.8322 349.59064 296.8791 349.59064Q295.6447 349.59064 294.92596 348.7Q294.0822 347.6375 294.0822 345.21564ZM295.16034 345.21564Q295.16034 347.325 295.66034 348.02814Q296.16034 348.73126 296.8791 348.73126Q297.61346 348.73126 298.09784 348.02814Q298.59784 347.325 298.59784 345.21564Q298.59784 343.09064 298.09784 342.40314Q297.61346 341.7 296.86346 341.7Q296.1447 341.7 295.7072 342.3094Q295.16034 343.09064 295.16034 345.21564Z" fill-rule="nonzero"/><path fill="#000000" d="M374.2696 349.45L374.2696 340.85626L375.42584 340.85626L379.94147 347.60626L379.94147 340.85626L381.03522 340.85626L381.03522 349.45L379.86334 349.45L375.34772 342.7L375.34772 349.45L374.2696 349.45ZM388.69147 344.40314L383.0196 344.40314L383.0196 343.41876L388.69147 343.41876L388.69147 344.40314ZM388.69147 347.0125L383.0196 347.0125L383.0196 346.02814L388.69147 346.02814L388.69147 347.0125ZM395.3946 348.4344L395.3946 349.45L389.7071 349.45Q389.7071 349.075 389.8321 348.71564Q390.05084 348.1375 390.5196 347.575Q391.00397 347.0125 391.91022 346.27814Q393.31647 345.1219 393.80084 344.45Q394.30084 343.77814 394.30084 343.1844Q394.30084 342.5594 393.84772 342.1375Q393.3946 341.7 392.67584 341.7Q391.91022 341.7 391.4571 342.15314Q391.00397 342.60626 390.98834 343.41876L389.91022 343.3094Q390.0196 342.09064 390.73834 341.46564Q391.47272 340.825 392.7071 340.825Q393.94147 340.825 394.66022 341.5125Q395.37897 342.2 395.37897 343.21564Q395.37897 343.73126 395.16022 344.23126Q394.9571 344.71564 394.4571 345.27814Q393.97272 345.825 392.84772 346.77814Q391.8946 347.575 391.61334 347.8719Q391.34772 348.15314 391.17584 348.4344L395.3946 348.4344ZM396.84772 345.21564Q396.84772 343.6844 397.16022 342.7625Q397.47272 341.825 398.0821 341.325Q398.7071 340.825 399.6446 340.825Q400.3321 340.825 400.84772 341.10626Q401.37897 341.3875 401.72272 341.91876Q402.06647 342.4344 402.25397 343.1844Q402.44147 343.9344 402.44147 345.21564Q402.44147 346.73126 402.12897 347.65314Q401.8321 348.575 401.2071 349.09064Q400.59772 349.59064 399.6446 349.59064Q398.41022 349.59064 397.69147 348.7Q396.84772 347.6375 396.84772 345.21564ZM397.92584 345.21564Q397.92584 347.325 398.42584 348.02814Q398.92584 348.73126 399.6446 348.73126Q400.37897 348.73126 400.86334 348.02814Q401.36334 347.325 401.36334 345.21564Q401.36334 343.09064 400.86334 342.40314Q400.37897 341.7 399.62897 341.7Q398.91022 341.7 398.47272 342.3094Q397.92584 343.09064 397.92584 345.21564ZM403.84772 345.21564Q403.84772 343.6844 404.16022 342.7625Q404.47272 341.825 405.0821 341.325Q405.7071 340.825 406.6446 340.825Q407.3321 340.825 407.84772 341.10626Q408.37897 341.3875 408.72272 341.91876Q409.06647 342.4344 409.25397 343.1844Q409.44147 343.9344 409.44147 345.21564Q409.44147 346.73126 409.12897 347.65314Q408.8321 348.575 408.2071 349.09064Q407.59772 349.59064 406.6446 349.59064Q405.41022 349.59064 404.69147 348.7Q403.84772 347.6375 403.84772 345.21564ZM404.92584 345.21564Q404.92584 347.325 405.42584 348.02814Q405.92584 348.73126 406.6446 348.73126Q407.37897 348.73126 407.86334 348.02814Q408.36334 347.325 408.36334 345.21564Q408.36334 343.09064 407.86334 342.40314Q407.37897 341.7 406.62897 341.7Q405.91022 341.7 405.47272 342.3094Q404.92584 343.09064 404.92584 345.21564ZM410.84772 345.21564Q410.84772 343.6844 411.16022 342.7625Q411.47272 341.825 412.0821 341.325Q412.7071 340.825 413.6446 340.825Q414.3321 340.825 414.84772 341.10626Q415.37897 341.3875 415.72272 341.91876Q416.06647 342.4344 416.25397 343.1844Q416.44147 343.9344 416.44147 345.21564Q416.44147 346.73126 416.12897 347.65314Q415.8321 348.575 415.2071 349.09064Q414.59772 349.59064 413.6446 349.59064Q412.41022 349.59064 411.69147 348.7Q410.84772 347.6375 410.84772 345.21564ZM411.92584 345.21564Q411.92584 347.325 412.42584 348.02814Q412.92584 348.73126 413.6446 348.73126Q414.37897 348.73126 414.86334 348.02814Q415.36334 347.325 415.36334 345.21564Q415.36334 343.09064 414.86334 342.40314Q414.37897 341.7 413.62897 341.7Q412.91022 341.7 412.47272 342.3094Q411.92584 343.09064 411.92584 345.21564ZM417.84772 345.21564Q417.84772 343.6844 418.16022 342.7625Q418.47272 341.825 419.0821 341.325Q419.7071 340.825 420.6446 340.825Q421.3321 340.825 421.84772 341.10626Q422.37897 341.3875 422.72272 341.91876Q423.06647 342.4344 423.25397 343.1844Q423.44147 343.9344 423.44147 345.21564Q423.44147 346.73126 423.12897 347.65314Q422.8321 348.575 422.2071 349.09064Q421.59772 349.59064 420.6446 349.59064Q419.41022 349.59064 418.69147 348.7Q417.84772 347.6375 417.84772 345.21564ZM418.92584 345.21564Q418.92584 347.325 419.42584 348.02814Q419.92584 348.73126 420.6446 348.73126Q421.37897 348.73126 421.86334 348.02814Q422.36334 347.325 422.36334 345.21564Q422.36334 343.09064 421.86334 342.40314Q421.37897 341.7 420.62897 341.7Q419.91022 341.7 419.47272 342.3094Q418.92584 343.09064 418.92584 345.21564ZM424.84772 345.21564Q424.84772 343.6844 425.16022 342.7625Q425.47272 341.825 426.0821 341.325Q426.7071 340.825 427.6446 340.825Q428.3321 340.825 428.84772 341.10626Q429.37897 341.3875 429.72272 341.91876Q430.06647 342.4344 430.25397 343.1844Q430.44147 343.9344 430.44147 345.21564Q430.44147 346.73126 430.12897 347.65314Q429.8321 348.575 429.2071 349.09064Q428.59772 349.59064 427.6446 349.59064Q426.41022 349.59064 425.69147 348.7Q424.84772 347.6375 424.84772 345.21564ZM425.92584 345.21564Q425.92584 347.325 426.42584 348.02814Q426.92584 348.73126 427.6446 348.73126Q428.37897 348.73126 428.86334 348.02814Q429.36334 347.325 429.36334 345.21564Q429.36334 343.09064 428.86334 342.40314Q428.37897 341.7 427.62897 341.7Q426.91022 341.7 426.47272 342.3094Q425.92584 343.09064 425.92584 345.21564Z" fill-rule="nonzero"/><path fill="#4285f4" d="M510.45 56.916668C510.45 56.364384 510.8977 55.916668 511.45 55.916668L521.45 55.916668C522.00226 55.916668 522.45 56.364384 522.45 56.916668L522.45 66.916664C522.45 67.46895 522.00226 67.916664 521.45 67.916664L511.45 67.916664C510.8977 67.916664 510.45 67.46895 510.45 66.916664Z" fill-rule="nonzero"/><path fill="#1a1a1a" d="M535.3094 63.635414L536.34064 63.77604Q536.16876 64.83854 535.46564 65.447914Q534.7625 66.05729 533.7469 66.05729Q532.46564 66.05729 531.6844 65.229164Q530.91876 64.385414 530.91876 62.822914Q530.91876 61.822914 531.2469 61.072914Q531.59064 60.30729 532.2625 59.93229Q532.95 59.55729 533.7625 59.55729Q534.7625 59.55729 535.40314 60.072914Q536.0594 60.572914 536.2469 61.52604L535.21564 61.68229Q535.075 61.05729 534.7 60.74479Q534.325 60.416664 533.79376 60.416664Q532.9969 60.416664 532.4969 60.99479Q531.9969 61.55729 531.9969 62.791664Q531.9969 64.05729 532.48126 64.61979Q532.96564 65.18229 533.73126 65.18229Q534.35626 65.18229 534.7625 64.80729Q535.1844 64.43229 535.3094 63.635414ZM537.23126 65.916664L537.23126 59.697914L538.1844 59.697914L538.1844 60.635414Q538.54376 59.979164 538.84064 59.77604Q539.15314 59.55729 539.52814 59.55729Q540.0594 59.55729 540.60626 59.885414L540.2469 60.86979Q539.85626 60.635414 539.48126 60.635414Q539.1219 60.635414 538.84064 60.854164Q538.575 61.05729 538.46564 61.43229Q538.27814 61.99479 538.27814 62.65104L538.27814 65.916664L537.23126 65.916664ZM545.3094 65.15104Q544.71564 65.65104 544.16876 65.854164Q543.6375 66.05729 543.0125 66.05729Q541.98126 66.05729 541.4344 65.55729Q540.8875 65.05729 540.8875 64.27604Q540.8875 63.822914 541.09064 63.447914Q541.29376 63.05729 541.6375 62.83854Q541.98126 62.604164 542.40314 62.49479Q542.7 62.40104 543.34064 62.322914Q544.60626 62.18229 545.21564 61.96354Q545.21564 61.74479 545.21564 61.697914Q545.21564 61.041664 544.91876 60.77604Q544.5125 60.43229 543.71564 60.43229Q542.98126 60.43229 542.6219 60.697914Q542.2625 60.947914 542.09064 61.604164L541.0594 61.46354Q541.2 60.80729 541.52814 60.40104Q541.85626 59.99479 542.46564 59.77604Q543.075 59.55729 543.8719 59.55729Q544.66876 59.55729 545.16876 59.74479Q545.66876 59.93229 545.90314 60.21354Q546.1375 60.49479 546.23126 60.93229Q546.27814 61.197914 546.27814 61.90104L546.27814 63.30729Q546.27814 64.77604 546.34064 65.166664Q546.41876 65.55729 546.6219 65.916664L545.5125 65.916664Q545.35626 65.58854 545.3094 65.15104ZM545.21564 62.791664Q544.6375 63.02604 543.4969 63.197914Q542.84064 63.291664 542.575 63.416664Q542.3094 63.52604 542.15314 63.74479Q542.0125 63.96354 542.0125 64.24479Q542.0125 64.666664 542.325 64.947914Q542.65314 65.229164 543.2625 65.229164Q543.8719 65.229164 544.34064 64.96354Q544.825 64.697914 545.04376 64.229164Q545.21564 63.86979 545.21564 63.18229L545.21564 62.791664ZM549.3875 65.916664L547.48126 59.697914L548.575 59.697914L549.5594 63.291664L549.9344 64.61979Q549.96564 64.52604 550.2625 63.33854L551.2469 59.697914L552.325 59.697914L553.2625 63.30729L553.575 64.49479L553.9344 63.291664L554.9969 59.697914L556.02814 59.697914L554.075 65.916664L552.98126 65.916664L551.9969 62.18229L551.7469 61.135414L550.4969 65.916664L549.3875 65.916664Z" fill-rule="nonzero"/><path fill="#ea4335" d="M510.45 80.916664C510.45 80.36438 510.8977 79.916664 511.45 79.916664L521.45 79.916664C522.00226 79.916664 522.45 80.36438 522.45 80.916664L522.45 90.916664C522.45 91.46895 522.00226 91.916664 521.45 91.916664L511.45 91.916664C510.8977 91.916664 510.45 91.46895 510.45 90.916664Z" fill-rule="nonzero"/><path fill="#1a1a1a" d="M535.4969 87.916664L536.59064 88.041664Q536.34064 88.99479 535.6375 89.52604Q534.9344 90.05729 533.85626 90.05729Q532.4969 90.05729 531.6844 89.21354Q530.8875 88.36979 530.8875 86.854164Q530.8875 85.291664 531.7 84.43229Q532.5125 83.55729 533.79376 83.55729Q535.04376 83.55729 535.825 84.40104Q536.6219 85.24479 536.6219 86.791664Q536.6219 86.885414 536.6219 87.072914L531.98126 87.072914Q532.04376 88.104164 532.5594 88.65104Q533.075 89.18229 533.85626 89.18229Q534.4344 89.18229 534.84064 88.885414Q535.2625 88.572914 535.4969 87.916664ZM532.04376 86.21354L535.5125 86.21354Q535.45 85.416664 535.1219 85.02604Q534.60626 84.416664 533.8094 84.416664Q533.075 84.416664 532.575 84.90104Q532.09064 85.385414 532.04376 86.21354ZM542.3094 89.15104Q541.71564 89.65104 541.16876 89.854164Q540.6375 90.05729 540.0125 90.05729Q538.98126 90.05729 538.4344 89.55729Q537.8875 89.05729 537.8875 88.27604Q537.8875 87.822914 538.09064 87.447914Q538.29376 87.05729 538.6375 86.83854Q538.98126 86.604164 539.40314 86.49479Q539.7 86.40104 540.34064 86.322914Q541.60626 86.18229 542.21564 85.96354Q542.21564 85.74479 542.21564 85.697914Q542.21564 85.041664 541.91876 84.77604Q541.5125 84.43229 540.71564 84.43229Q539.98126 84.43229 539.6219 84.697914Q539.2625 84.947914 539.09064 85.604164L538.0594 85.46354Q538.2 84.80729 538.52814 84.40104Q538.85626 83.99479 539.46564 83.77604Q540.075 83.55729 540.8719 83.55729Q541.66876 83.55729 542.16876 83.74479Q542.66876 83.93229 542.90314 84.21354Q543.1375 84.49479 543.23126 84.93229Q543.27814 85.197914 543.27814 85.90104L543.27814 87.30729Q543.27814 88.77604 543.34064 89.166664Q543.41876 89.55729 543.6219 89.916664L542.5125 89.916664Q542.35626 89.58854 542.3094 89.15104ZM542.21564 86.791664Q541.6375 87.02604 540.4969 87.197914Q539.84064 87.291664 539.575 87.416664Q539.3094 87.52604 539.15314 87.74479Q539.0125 87.96354 539.0125 88.24479Q539.0125 88.666664 539.325 88.947914Q539.65314 89.229164 540.2625 89.229164Q540.8719 89.229164 541.34064 88.96354Q541.825 88.697914 542.04376 88.229164Q542.21564 87.86979 542.21564 87.18229L542.21564 86.791664ZM547.54376 88.979164L547.7 89.90104Q547.2469 89.99479 546.90314 89.99479Q546.325 89.99479 546.0125 89.822914Q545.7 89.635414 545.5594 89.33854Q545.4344 89.041664 545.4344 88.08854L545.4344 84.510414L544.66876 84.510414L544.66876 83.697914L545.4344 83.697914L545.4344 82.15104L546.48126 81.52604L546.48126 83.697914L547.54376 83.697914L547.54376 84.510414L546.48126 84.510414L546.48126 88.15104Q546.48126 88.604164 546.52814 88.729164Q546.59064 88.854164 546.71564 88.93229Q546.84064 89.010414 547.075 89.010414Q547.2625 89.010414 547.54376 88.979164ZM547.85626 86.80729Q547.85626 85.072914 548.8094 84.24479Q549.60626 83.55729 550.7625 83.55729Q552.04376 83.55729 552.85626 84.40104Q553.6844 85.229164 553.6844 86.71354Q553.6844 87.916664 553.325 88.604164Q552.96564 89.291664 552.2625 89.68229Q551.575 90.05729 550.7625 90.05729Q549.46564 90.05729 548.65314 89.229164Q547.85626 88.385414 547.85626 86.80729ZM548.9344 86.80729Q548.9344 87.99479 549.45 88.58854Q549.98126 89.18229 550.7625 89.18229Q551.5594 89.18229 552.075 88.58854Q552.59064 87.99479 552.59064 86.77604Q552.59064 85.61979 552.0594 85.02604Q551.54376 84.43229 550.7625 84.43229Q549.98126 84.43229 549.45 85.02604Q548.9344 85.604164 548.9344 86.80729ZM555.2469 89.916664L555.2469 83.697914L556.1844 83.697914L556.1844 84.572914Q556.8719 83.55729 558.16876 83.55729Q558.73126 83.55729 559.2 83.760414Q559.6844 83.96354 559.91876 84.291664Q560.15314 84.61979 560.2469 85.05729Q560.29376 85.354164 560.29376 86.08854L560.29376 89.916664L559.2469 89.916664L559.2469 86.135414Q559.2469 85.479164 559.1219 85.166664Q558.9969 84.854164 558.6844 84.666664Q558.3719 84.46354 557.95 84.46354Q557.27814 84.46354 556.77814 84.90104Q556.29376 85.322914 556.29376 86.510414L556.29376 89.916664L555.2469 89.916664Z" fill-rule="nonzero"/><path fill="#fbbc04" d="M510.45 104.916664C510.45 104.36438 510.8977 103.916664 511.45 103.916664L521.45 103.916664C522.00226 103.916664 522.45 104.36438 522.45 104.916664L522.45 114.916664C522.45 115.46895 522.00226 115.916664 521.45 115.916664L511.45 115.916664C510.8977 115.916664 510.45 115.46895 510.45 114.916664Z" fill-rule="nonzero"/><path fill="#1a1a1a" d="M531.2469 113.916664L531.2469 107.697914L532.1844 107.697914L532.1844 108.572914Q532.48126 108.104164 532.96564 107.83854Q533.45 107.55729 534.075 107.55729Q534.7625 107.55729 535.2 107.83854Q535.65314 108.11979 535.825 108.635414Q536.575 107.55729 537.7469 107.55729Q538.6844 107.55729 539.16876 108.072914Q539.66876 108.572914 539.66876 109.65104L539.66876 113.916664L538.6219 113.916664L538.6219 109.99479Q538.6219 109.36979 538.5125 109.08854Q538.41876 108.80729 538.15314 108.635414Q537.8875 108.46354 537.5125 108.46354Q536.85626 108.46354 536.41876 108.90104Q535.9969 109.33854 535.9969 110.30729L535.9969 113.916664L534.9344 113.916664L534.9344 109.86979Q534.9344 109.166664 534.66876 108.822914Q534.41876 108.46354 533.84064 108.46354Q533.3875 108.46354 533.0125 108.697914Q532.6375 108.93229 532.46564 109.385414Q532.29376 109.83854 532.29376 110.68229L532.29376 113.916664L531.2469 113.916664ZM546.3094 113.15104Q545.71564 113.65104 545.16876 113.854164Q544.6375 114.05729 544.0125 114.05729Q542.98126 114.05729 542.4344 113.55729Q541.8875 113.05729 541.8875 112.27604Q541.8875 111.822914 542.09064 111.447914Q542.29376 111.05729 542.6375 110.83854Q542.98126 110.604164 543.40314 110.49479Q543.7 110.40104 544.34064 110.322914Q545.60626 110.18229 546.21564 109.96354Q546.21564 109.74479 546.21564 109.697914Q546.21564 109.041664 545.91876 108.77604Q545.5125 108.43229 544.71564 108.43229Q543.98126 108.43229 543.6219 108.697914Q543.2625 108.947914 543.09064 109.604164L542.0594 109.46354Q542.2 108.80729 542.52814 108.40104Q542.85626 107.99479 543.46564 107.77604Q544.075 107.55729 544.8719 107.55729Q545.66876 107.55729 546.16876 107.74479Q546.66876 107.93229 546.90314 108.21354Q547.1375 108.49479 547.23126 108.93229Q547.27814 109.197914 547.27814 109.90104L547.27814 111.30729Q547.27814 112.77604 547.34064 113.166664Q547.41876 113.55729 547.6219 113.916664L546.5125 113.916664Q546.35626 113.58854 546.3094 113.15104ZM546.21564 110.791664Q545.6375 111.02604 544.4969 111.197914Q543.84064 111.291664 543.575 111.416664Q543.3094 111.52604 543.15314 111.74479Q543.0125 111.96354 543.0125 112.24479Q543.0125 112.666664 543.325 112.947914Q543.65314 113.229164 544.2625 113.229164Q544.8719 113.229164 545.34064 112.96354Q545.825 112.697914 546.04376 112.229164Q546.21564 111.86979 546.21564 111.18229L546.21564 110.791664ZM551.54376 112.979164L551.7 113.90104Q551.2469 113.99479 550.90314 113.99479Q550.325 113.99479 550.0125 113.822914Q549.7 113.635414 549.5594 113.33854Q549.4344 113.041664 549.4344 112.08854L549.4344 108.510414L548.66876 108.510414L548.66876 107.697914L549.4344 107.697914L549.4344 106.15104L550.48126 105.52604L550.48126 107.697914L551.54376 107.697914L551.54376 108.510414L550.48126 108.510414L550.48126 112.15104Q550.48126 112.604164 550.52814 112.729164Q550.59064 112.854164 550.71564 112.93229Q550.84064 113.010414 551.075 113.010414Q551.2625 113.010414 551.54376 112.979164ZM554.54376 112.979164L554.7 113.90104Q554.2469 113.99479 553.90314 113.99479Q553.325 113.99479 553.0125 113.822914Q552.7 113.635414 552.5594 113.33854Q552.4344 113.041664 552.4344 112.08854L552.4344 108.510414L551.66876 108.510414L551.66876 107.697914L552.4344 107.697914L552.4344 106.15104L553.48126 105.52604L553.48126 107.697914L554.54376 107.697914L554.54376 108.510414L553.48126 108.510414L553.48126 112.15104Q553.48126 112.604164 553.52814 112.729164Q553.59064 112.854164 553.71564 112.93229Q553.84064 113.010414 554.075 113.010414Q554.2625 113.010414 554.54376 112.979164ZM555.2469 113.916664L555.2469 107.697914L556.1844 107.697914L556.1844 108.572914Q556.8719 107.55729 558.16876 107.55729Q558.73126 107.55729 559.2 107.760414Q559.6844 107.96354 559.91876 108.291664Q560.15314 108.61979 560.2469 109.05729Q560.29376 109.354164 560.29376 110.08854L560.29376 113.916664L559.2469 113.916664L559.2469 110.135414Q559.2469 109.479164 559.1219 109.166664Q558.9969 108.854164 558.6844 108.666664Q558.3719 108.46354 557.95 108.46354Q557.27814 108.46354 556.77814 108.90104Q556.29376 109.322914 556.29376 110.510414L556.29376 113.916664L555.2469 113.916664Z" fill-rule="nonzero"/><path fill="#34a853" d="M510.45 128.91667C510.45 128.36438 510.8977 127.916664 511.45 127.916664L521.45 127.916664C522.00226 127.916664 522.45 128.36438 522.45 128.91667L522.45 138.91667C522.45 139.46895 522.00226 139.91667 521.45 139.91667L511.45 139.91667C510.8977 139.91667 510.45 139.46895 510.45 138.91667Z" fill-rule="nonzero"/><path fill="#1a1a1a" d="M531.2469 137.91667L531.2469 131.69792L532.1844 131.69792L532.1844 132.57292Q532.48126 132.10417 532.96564 131.83855Q533.45 131.5573 534.075 131.5573Q534.7625 131.5573 535.2 131.83855Q535.65314 132.1198 535.825 132.63542Q536.575 131.5573 537.7469 131.5573Q538.6844 131.5573 539.16876 132.07292Q539.66876 132.57292 539.66876 133.65105L539.66876 137.91667L538.6219 137.91667L538.6219 133.9948Q538.6219 133.3698 538.5125 133.08855Q538.41876 132.8073 538.15314 132.63542Q537.8875 132.46355 537.5125 132.46355Q536.85626 132.46355 536.41876 132.90105Q535.9969 133.33855 535.9969 134.3073L535.9969 137.91667L534.9344 137.91667L534.9344 133.8698Q534.9344 133.16667 534.66876 132.82292Q534.41876 132.46355 533.84064 132.46355Q533.3875 132.46355 533.0125 132.69792Q532.6375 132.9323 532.46564 133.38542Q532.29376 133.83855 532.29376 134.6823L532.29376 137.91667L531.2469 137.91667ZM541.85626 134.8073Q541.85626 133.07292 542.8094 132.2448Q543.60626 131.5573 544.7625 131.5573Q546.04376 131.5573 546.85626 132.40105Q547.6844 133.22917 547.6844 134.71355Q547.6844 135.91667 547.325 136.60417Q546.96564 137.29167 546.2625 137.6823Q545.575 138.0573 544.7625 138.0573Q543.46564 138.0573 542.65314 137.22917Q541.85626 136.38542 541.85626 134.8073ZM542.9344 134.8073Q542.9344 135.9948 543.45 136.58855Q543.98126 137.1823 544.7625 137.1823Q545.5594 137.1823 546.075 136.58855Q546.59064 135.9948 546.59064 134.77605Q546.59064 133.6198 546.0594 133.02605Q545.54376 132.4323 544.7625 132.4323Q543.98126 132.4323 543.45 133.02605Q542.9344 133.60417 542.9344 134.8073ZM553.27814 137.91667L553.27814 137.13542Q552.6844 138.0573 551.54376 138.0573Q550.79376 138.0573 550.16876 137.65105Q549.54376 137.22917 549.2 136.4948Q548.85626 135.76042 548.85626 134.8073Q548.85626 133.88542 549.16876 133.1198Q549.48126 132.35417 550.10626 131.96355Q550.73126 131.5573 551.4969 131.5573Q552.0594 131.5573 552.4969 131.79167Q552.9344 132.02605 553.21564 132.40105L553.21564 129.32292L554.2625 129.32292L554.2625 137.91667L553.27814 137.91667ZM549.95 134.8073Q549.95 136.01042 550.45 136.60417Q550.95 137.1823 551.6375 137.1823Q552.325 137.1823 552.8094 136.6198Q553.29376 136.0573 553.29376 134.90105Q553.29376 133.6198 552.79376 133.02605Q552.3094 132.4323 551.59064 132.4323Q550.8875 132.4323 550.41876 133.01042Q549.95 133.57292 549.95 134.8073ZM560.4969 135.91667L561.59064 136.04167Q561.34064 136.9948 560.6375 137.52605Q559.9344 138.0573 558.85626 138.0573Q557.4969 138.0573 556.6844 137.21355Q555.8875 136.3698 555.8875 134.85417Q555.8875 133.29167 556.7 132.4323Q557.5125 131.5573 558.79376 131.5573Q560.04376 131.5573 560.825 132.40105Q561.6219 133.2448 561.6219 134.79167Q561.6219 134.88542 561.6219 135.07292L556.98126 135.07292Q557.04376 136.10417 557.5594 136.65105Q558.075 137.1823 558.85626 137.1823Q559.4344 137.1823 559.84064 136.88542Q560.2625 136.57292 560.4969 135.91667ZM557.04376 134.21355L560.5125 134.21355Q560.45 133.41667 560.1219 133.02605Q559.60626 132.41667 558.8094 132.41667Q558.075 132.41667 557.575 132.90105Q557.09064 133.38542 557.04376 134.21355ZM563.23126 137.91667L563.23126 131.69792L564.1844 131.69792L564.1844 132.63542Q564.54376 131.97917 564.84064 131.77605Q565.15314 131.5573 565.52814 131.5573Q566.0594 131.5573 566.60626 131.88542L566.2469 132.8698Q565.85626 132.63542 565.48126 132.63542Q565.1219 132.63542 564.84064 132.85417Q564.575 133.0573 564.46564 133.4323Q564.27814 133.9948 564.27814 134.65105L564.27814 137.91667L563.23126 137.91667ZM567.2469 137.91667L567.2469 131.69792L568.1844 131.69792L568.1844 132.57292Q568.8719 131.5573 570.16876 131.5573Q570.73126 131.5573 571.2 131.76042Q571.6844 131.96355 571.91876 132.29167Q572.15314 132.6198 572.2469 133.0573Q572.29376 133.35417 572.29376 134.08855L572.29376 137.91667L571.2469 137.91667L571.2469 134.13542Q571.2469 133.47917 571.1219 133.16667Q570.9969 132.85417 570.6844 132.66667Q570.3719 132.46355 569.95 132.46355Q569.27814 132.46355 568.77814 132.90105Q568.29376 133.32292 568.29376 134.51042L568.29376 137.91667L567.2469 137.91667ZM578.3094 135.63542L579.34064 135.77605Q579.16876 136.83855 578.46564 137.44792Q577.7625 138.0573 576.7469 138.0573Q575.46564 138.0573 574.6844 137.22917Q573.91876 136.38542 573.91876 134.82292Q573.91876 133.82292 574.2469 133.07292Q574.59064 132.3073 575.2625 131.9323Q575.95 131.5573 576.7625 131.5573Q577.7625 131.5573 578.40314 132.07292Q579.0594 132.57292 579.2469 133.52605L578.21564 133.6823Q578.075 133.0573 577.7 132.7448Q577.325 132.41667 576.79376 132.41667Q575.9969 132.41667 575.4969 132.9948Q574.9969 133.5573 574.9969 134.79167Q574.9969 136.0573 575.48126 136.6198Q575.96564 137.1823 576.73126 137.1823Q577.35626 137.1823 577.7625 136.8073Q578.1844 136.4323 578.3094 135.63542Z" fill-rule="nonzero"/><path fill="#ff6d01" d="M510.45 152.91667C510.45 152.36438 510.8977 151.91667 511.45 151.91667L521.45 151.91667C522.00226 151.91667 522.45 152.36438 522.45 152.91667L522.45 162.91667C522.45 163.46895 522.00226 163.91667 521.45 163.91667L511.45 163.91667C510.8977 163.91667 510.45 163.46895 510.45 162.91667Z" fill-rule="nonzero"/><path fill="#1a1a1a" d="M531.2469 161.91667L531.2469 155.69792L532.1844 155.69792L532.1844 156.57292Q532.8719 155.5573 534.16876 155.5573Q534.73126 155.5573 535.2 155.76042Q535.6844 155.96355 535.91876 156.29167Q536.15314 156.6198 536.2469 157.0573Q536.29376 157.35417 536.29376 158.08855L536.29376 161.91667L535.2469 161.91667L535.2469 158.13542Q535.2469 157.47917 535.1219 157.16667Q534.9969 156.85417 534.6844 156.66667Q534.3719 156.46355 533.95 156.46355Q533.27814 156.46355 532.77814 156.90105Q532.29376 157.32292 532.29376 158.51042L532.29376 161.91667L531.2469 161.91667ZM542.3094 159.63542L543.34064 159.77605Q543.16876 160.83855 542.46564 161.44792Q541.7625 162.0573 540.7469 162.0573Q539.46564 162.0573 538.6844 161.22917Q537.91876 160.38542 537.91876 158.82292Q537.91876 157.82292 538.2469 157.07292Q538.59064 156.3073 539.2625 155.9323Q539.95 155.5573 540.7625 155.5573Q541.7625 155.5573 542.40314 156.07292Q543.0594 156.57292 543.2469 157.52605L542.21564 157.6823Q542.075 157.0573 541.7 156.7448Q541.325 156.41667 540.79376 156.41667Q539.9969 156.41667 539.4969 156.9948Q538.9969 157.5573 538.9969 158.79167Q538.9969 160.0573 539.48126 160.6198Q539.96564 161.1823 540.73126 161.1823Q541.35626 161.1823 541.7625 160.8073Q542.1844 160.4323 542.3094 159.63542ZM544.23126 161.91667L544.23126 155.69792L545.1844 155.69792L545.1844 156.63542Q545.54376 155.97917 545.84064 155.77605Q546.15314 155.5573 546.52814 155.5573Q547.0594 155.5573 547.60626 155.88542L547.2469 156.8698Q546.85626 156.63542 546.48126 156.63542Q546.1219 156.63542 545.84064 156.85417Q545.575 157.0573 545.46564 157.4323Q545.27814 157.9948 545.27814 158.65105L545.27814 161.91667L544.23126 161.91667ZM552.325 161.91667L552.325 160.9948Q551.59064 162.0573 550.34064 162.0573Q549.79376 162.0573 549.3094 161.85417Q548.84064 161.63542 548.60626 161.32292Q548.3719 160.9948 548.27814 160.52605Q548.21564 160.22917 548.21564 159.54167L548.21564 155.69792L549.27814 155.69792L549.27814 159.15105Q549.27814 159.96355 549.34064 160.26042Q549.4344 160.66667 549.7469 160.91667Q550.075 161.15105 550.5594 161.15105Q551.02814 161.15105 551.4344 160.91667Q551.85626 160.66667 552.02814 160.2448Q552.21564 159.82292 552.21564 159.02605L552.21564 155.69792L553.2625 155.69792L553.2625 161.91667L552.325 161.91667ZM559.3094 159.63542L560.34064 159.77605Q560.16876 160.83855 559.46564 161.44792Q558.7625 162.0573 557.7469 162.0573Q556.46564 162.0573 555.6844 161.22917Q554.91876 160.38542 554.91876 158.82292Q554.91876 157.82292 555.2469 157.07292Q555.59064 156.3073 556.2625 155.9323Q556.95 155.5573 557.7625 155.5573Q558.7625 155.5573 559.40314 156.07292Q560.0594 156.57292 560.2469 157.52605L559.21564 157.6823Q559.075 157.0573 558.7 156.7448Q558.325 156.41667 557.79376 156.41667Q556.9969 156.41667 556.4969 156.9948Q555.9969 157.5573 555.9969 158.79167Q555.9969 160.0573 556.48126 160.6198Q556.96564 161.1823 557.73126 161.1823Q558.35626 161.1823 558.7625 160.8073Q559.1844 160.4323 559.3094 159.63542ZM565.4969 159.91667L566.59064 160.04167Q566.34064 160.9948 565.6375 161.52605Q564.9344 162.0573 563.85626 162.0573Q562.4969 162.0573 561.6844 161.21355Q560.8875 160.3698 560.8875 158.85417Q560.8875 157.29167 561.7 156.4323Q562.5125 155.5573 563.79376 155.5573Q565.04376 155.5573 565.825 156.40105Q566.6219 157.2448 566.6219 158.79167Q566.6219 158.88542 566.6219 159.07292L561.98126 159.07292Q562.04376 160.10417 562.5594 160.65105Q563.075 161.1823 563.85626 161.1823Q564.4344 161.1823 564.84064 160.88542Q565.2625 160.57292 565.4969 159.91667ZM562.04376 158.21355L565.5125 158.21355Q565.45 157.41667 565.1219 157.02605Q564.60626 156.41667 563.8094 156.41667Q563.075 156.41667 562.575 156.90105Q562.09064 157.38542 562.04376 158.21355ZM567.825 160.0573L568.85626 159.90105Q568.95 160.52605 569.34064 160.85417Q569.7469 161.1823 570.48126 161.1823Q571.2 161.1823 571.54376 160.90105Q571.90314 160.60417 571.90314 160.19792Q571.90314 159.83855 571.59064 159.63542Q571.3719 159.4948 570.5125 159.27605Q569.35626 158.97917 568.90314 158.77605Q568.46564 158.5573 568.23126 158.1823Q567.9969 157.8073 567.9969 157.33855Q567.9969 156.9323 568.1844 156.57292Q568.3719 156.21355 568.7 155.97917Q568.95 155.8073 569.3719 155.6823Q569.79376 155.5573 570.29376 155.5573Q571.0125 155.5573 571.5594 155.77605Q572.1219 155.97917 572.3875 156.33855Q572.65314 156.69792 572.7469 157.29167L571.71564 157.4323Q571.65314 156.96355 571.3094 156.69792Q570.98126 156.41667 570.35626 156.41667Q569.6375 156.41667 569.325 156.66667Q569.0125 156.90105 569.0125 157.22917Q569.0125 157.4323 569.1375 157.58855Q569.27814 157.76042 569.54376 157.8698Q569.7 157.9323 570.48126 158.13542Q571.60626 158.44792 572.04376 158.63542Q572.48126 158.82292 572.73126 159.1823Q572.98126 159.54167 572.98126 160.08855Q572.98126 160.6198 572.66876 161.08855Q572.3719 161.54167 571.79376 161.8073Q571.21564 162.0573 570.48126 162.0573Q569.2625 162.0573 568.6219 161.5573Q567.9969 161.04167 567.825 160.0573Z" fill-rule="nonzero"/><path fill="#46bdc6" d="M510.45 176.91667C510.45 176.36438 510.8977 175.91667 511.45 175.91667L521.45 175.91667C522.00226 175.91667 522.45 176.36438 522.45 176.91667L522.45 186.91667C522.45 187.46895 522.00226 187.91667 521.45 187.91667L511.45 187.91667C510.8977 187.91667 510.45 187.46895 510.45 186.91667Z" fill-rule="nonzero"/><path fill="#1a1a1a" d="M531.2469 185.91667L531.2469 179.69792L532.1844 179.69792L532.1844 180.57292Q532.8719 179.5573 534.16876 179.5573Q534.73126 179.5573 535.2 179.76042Q535.6844 179.96355 535.91876 180.29167Q536.15314 180.6198 536.2469 181.0573Q536.29376 181.35417 536.29376 182.08855L536.29376 185.91667L535.2469 185.91667L535.2469 182.13542Q535.2469 181.47917 535.1219 181.16667Q534.9969 180.85417 534.6844 180.66667Q534.3719 180.46355 533.95 180.46355Q533.27814 180.46355 532.77814 180.90105Q532.29376 181.32292 532.29376 182.51042L532.29376 185.91667L531.2469 185.91667ZM542.3094 183.63542L543.34064 183.77605Q543.16876 184.83855 542.46564 185.44792Q541.7625 186.0573 540.7469 186.0573Q539.46564 186.0573 538.6844 185.22917Q537.91876 184.38542 537.91876 182.82292Q537.91876 181.82292 538.2469 181.07292Q538.59064 180.3073 539.2625 179.9323Q539.95 179.5573 540.7625 179.5573Q541.7625 179.5573 542.40314 180.07292Q543.0594 180.57292 543.2469 181.52605L542.21564 181.6823Q542.075 181.0573 541.7 180.7448Q541.325 180.41667 540.79376 180.41667Q539.9969 180.41667 539.4969 180.9948Q538.9969 181.5573 538.9969 182.79167Q538.9969 184.0573 539.48126 184.6198Q539.96564 185.1823 540.73126 185.1823Q541.35626 185.1823 541.7625 184.8073Q542.1844 184.4323 542.3094 183.63542ZM544.23126 185.91667L544.23126 179.69792L545.1844 179.69792L545.1844 180.63542Q545.54376 179.97917 545.84064 179.77605Q546.15314 179.5573 546.52814 179.5573Q547.0594 179.5573 547.60626 179.88542L547.2469 180.8698Q546.85626 180.63542 546.48126 180.63542Q546.1219 180.63542 545.84064 180.85417Q545.575 181.0573 545.46564 181.4323Q545.27814 181.9948 545.27814 182.65105L545.27814 185.91667L544.23126 185.91667ZM552.325 185.91667L552.325 184.9948Q551.59064 186.0573 550.34064 186.0573Q549.79376 186.0573 549.3094 185.85417Q548.84064 185.63542 548.60626 185.32292Q548.3719 184.9948 548.27814 184.52605Q548.21564 184.22917 548.21564 183.54167L548.21564 179.69792L549.27814 179.69792L549.27814 183.15105Q549.27814 183.96355 549.34064 184.26042Q549.4344 184.66667 549.7469 184.91667Q550.075 185.15105 550.5594 185.15105Q551.02814 185.15105 551.4344 184.91667Q551.85626 184.66667 552.02814 184.2448Q552.21564 183.82292 552.21564 183.02605L552.21564 179.69792L553.2625 179.69792L553.2625 185.91667L552.325 185.91667ZM559.3094 183.63542L560.34064 183.77605Q560.16876 184.83855 559.46564 185.44792Q558.7625 186.0573 557.7469 186.0573Q556.46564 186.0573 555.6844 185.22917Q554.91876 184.38542 554.91876 182.82292Q554.91876 181.82292 555.2469 181.07292Q555.59064 180.3073 556.2625 179.9323Q556.95 179.5573 557.7625 179.5573Q558.7625 179.5573 559.40314 180.07292Q560.0594 180.57292 560.2469 181.52605L559.21564 181.6823Q559.075 181.0573 558.7 180.7448Q558.325 180.41667 557.79376 180.41667Q556.9969 180.41667 556.4969 180.9948Q555.9969 181.5573 555.9969 182.79167Q555.9969 184.0573 556.48126 184.6198Q556.96564 185.1823 557.73126 185.1823Q558.35626 185.1823 558.7625 184.8073Q559.1844 184.4323 559.3094 183.63542ZM565.4969 183.91667L566.59064 184.04167Q566.34064 184.9948 565.6375 185.52605Q564.9344 186.0573 563.85626 186.0573Q562.4969 186.0573 561.6844 185.21355Q560.8875 184.3698 560.8875 182.85417Q560.8875 181.29167 561.7 180.4323Q562.5125 179.5573 563.79376 179.5573Q565.04376 179.5573 565.825 180.40105Q566.6219 181.2448 566.6219 182.79167Q566.6219 182.88542 566.6219 183.07292L561.98126 183.07292Q562.04376 184.10417 562.5594 184.65105Q563.075 185.1823 563.85626 185.1823Q564.4344 185.1823 564.84064 184.88542Q565.2625 184.57292 565.4969 183.91667ZM562.04376 182.21355L565.5125 182.21355Q565.45 181.41667 565.1219 181.02605Q564.60626 180.41667 563.8094 180.41667Q563.075 180.41667 562.575 180.90105Q562.09064 181.38542 562.04376 182.21355ZM567.825 184.0573L568.85626 183.90105Q568.95 184.52605 569.34064 184.85417Q569.7469 185.1823 570.48126 185.1823Q571.2 185.1823 571.54376 184.90105Q571.90314 184.60417 571.90314 184.19792Q571.90314 183.83855 571.59064 183.63542Q571.3719 183.4948 570.5125 183.27605Q569.35626 182.97917 568.90314 182.77605Q568.46564 182.5573 568.23126 182.1823Q567.9969 181.8073 567.9969 181.33855Q567.9969 180.9323 568.1844 180.57292Q568.3719 180.21355 568.7 179.97917Q568.95 179.8073 569.3719 179.6823Q569.79376 179.5573 570.29376 179.5573Q571.0125 179.5573 571.5594 179.77605Q572.1219 179.97917 572.3875 180.33855Q572.65314 180.69792 572.7469 181.29167L571.71564 181.4323Q571.65314 180.96355 571.3094 180.69792Q570.98126 180.41667 570.35626 180.41667Q569.6375 180.41667 569.325 180.66667Q569.0125 180.90105 569.0125 181.22917Q569.0125 181.4323 569.1375 181.58855Q569.27814 181.76042 569.54376 181.8698Q569.7 181.9323 570.48126 182.13542Q571.60626 182.44792 572.04376 182.63542Q572.48126 182.82292 572.73126 183.1823Q572.98126 183.54167 572.98126 184.08855Q572.98126 184.6198 572.66876 185.08855Q572.3719 185.54167 571.79376 185.8073Q571.21564 186.0573 570.48126 186.0573Q569.2625 186.0573 568.6219 185.5573Q567.9969 185.04167 567.825 184.0573ZM580.4969 184.90105L580.4969 185.91667L574.8094 185.91667Q574.8094 185.54167 574.9344 185.1823Q575.15314 184.60417 575.6219 184.04167Q576.10626 183.47917 577.0125 182.7448Q578.41876 181.58855 578.90314 180.91667Q579.40314 180.2448 579.40314 179.65105Q579.40314 179.02605 578.95 178.60417Q578.4969 178.16667 577.77814 178.16667Q577.0125 178.16667 576.5594 178.6198Q576.10626 179.07292 576.09064 179.88542L575.0125 179.77605Q575.1219 178.5573 575.84064 177.9323Q576.575 177.29167 577.8094 177.29167Q579.04376 177.29167 579.7625 177.97917Q580.48126 178.66667 580.48126 179.6823Q580.48126 180.19792 580.2625 180.69792Q580.0594 181.1823 579.5594 181.7448Q579.075 182.29167 577.95 183.2448Q576.9969 184.04167 576.71564 184.33855Q576.45 184.6198 576.27814 184.90105L580.4969 184.90105Z" fill-rule="nonzero"/><path fill="#7baaf7" d="M510.45 200.91667C510.45 200.36438 510.8977 199.91667 511.45 199.91667L521.45 199.91667C522.00226 199.91667 522.45 200.36438 522.45 200.91667L522.45 210.91667C522.45 211.46895 522.00226 211.91667 521.45 211.91667L511.45 211.91667C510.8977 211.91667 510.45 211.46895 510.45 210.91667Z" fill-rule="nonzero"/><path fill="#1a1a1a" d="M530.825 208.0573L531.85626 207.90105Q531.95 208.52605 532.34064 208.85417Q532.7469 209.1823 533.48126 209.1823Q534.2 209.1823 534.54376 208.90105Q534.90314 208.60417 534.90314 208.19792Q534.90314 207.83855 534.59064 207.63542Q534.3719 207.4948 533.5125 207.27605Q532.35626 206.97917 531.90314 206.77605Q531.46564 206.5573 531.23126 206.1823Q530.9969 205.8073 530.9969 205.33855Q530.9969 204.9323 531.1844 204.57292Q531.3719 204.21355 531.7 203.97917Q531.95 203.8073 532.3719 203.6823Q532.79376 203.5573 533.29376 203.5573Q534.0125 203.5573 534.5594 203.77605Q535.1219 203.97917 535.3875 204.33855Q535.65314 204.69792 535.7469 205.29167L534.71564 205.4323Q534.65314 204.96355 534.3094 204.69792Q533.98126 204.41667 533.35626 204.41667Q532.6375 204.41667 532.325 204.66667Q532.0125 204.90105 532.0125 205.22917Q532.0125 205.4323 532.1375 205.58855Q532.27814 205.76042 532.54376 205.8698Q532.7 205.9323 533.48126 206.13542Q534.60626 206.44792 535.04376 206.63542Q535.48126 206.82292 535.73126 207.1823Q535.98126 207.54167 535.98126 208.08855Q535.98126 208.6198 535.66876 209.08855Q535.3719 209.54167 534.79376 209.8073Q534.21564 210.0573 533.48126 210.0573Q532.2625 210.0573 531.6219 209.5573Q530.9969 209.04167 530.825 208.0573ZM542.21564 212.3073L542.21564 209.26042Q541.96564 209.60417 541.5125 209.83855Q541.075 210.0573 540.575 210.0573Q539.46564 210.0573 538.66876 209.1823Q537.8719 208.29167 537.8719 206.7448Q537.8719 205.8073 538.2 205.07292Q538.52814 204.32292 539.1375 203.94792Q539.7625 203.5573 540.4969 203.5573Q541.65314 203.5573 542.3094 204.52605L542.3094 203.69792L543.2625 203.69792L543.2625 212.3073L542.21564 212.3073ZM538.95 206.79167Q538.95 207.9948 539.45 208.58855Q539.96564 209.1823 540.66876 209.1823Q541.34064 209.1823 541.825 208.6198Q542.3094 208.04167 542.3094 206.88542Q542.3094 205.63542 541.79376 205.01042Q541.29376 204.38542 540.59064 204.38542Q539.91876 204.38542 539.4344 204.97917Q538.95 205.5573 538.95 206.79167ZM545.2469 202.54167L545.2469 201.32292L546.3094 201.32292L546.3094 202.54167L545.2469 202.54167ZM545.2469 209.91667L545.2469 203.69792L546.3094 203.69792L546.3094 209.91667L545.2469 209.91667ZM548.2469 209.91667L548.2469 203.69792L549.1844 203.69792L549.1844 204.57292Q549.8719 203.5573 551.16876 203.5573Q551.73126 203.5573 552.2 203.76042Q552.6844 203.96355 552.91876 204.29167Q553.15314 204.6198 553.2469 205.0573Q553.29376 205.35417 553.29376 206.08855L553.29376 209.91667L552.2469 209.91667L552.2469 206.13542Q552.2469 205.47917 552.1219 205.16667Q551.9969 204.85417 551.6844 204.66667Q551.3719 204.46355 550.95 204.46355Q550.27814 204.46355 549.77814 204.90105Q549.29376 205.32292 549.29376 206.51042L549.29376 209.91667L548.2469 209.91667ZM555.2469 209.91667L555.2469 203.69792L556.1844 203.69792L556.1844 204.57292Q556.8719 203.5573 558.16876 203.5573Q558.73126 203.5573 559.2 203.76042Q559.6844 203.96355 559.91876 204.29167Q560.15314 204.6198 560.2469 205.0573Q560.29376 205.35417 560.29376 206.08855L560.29376 209.91667L559.2469 209.91667L559.2469 206.13542Q559.2469 205.47917 559.1219 205.16667Q558.9969 204.85417 558.6844 204.66667Q558.3719 204.46355 557.95 204.46355Q557.27814 204.46355 556.77814 204.90105Q556.29376 205.32292 556.29376 206.51042L556.29376 209.91667L555.2469 209.91667Z" fill-rule="nonzero"/><path fill="#f07b72" d="M510.45 224.91667C510.45 224.36438 510.8977 223.91667 511.45 223.91667L521.45 223.91667C522.00226 223.91667 522.45 224.36438 522.45 224.91667L522.45 234.91667C522.45 235.46895 522.00226 235.91667 521.45 235.91667L511.45 235.91667C510.8977 235.91667 510.45 235.46895 510.45 234.91667Z" fill-rule="nonzero"/><path fill="#1a1a1a" d="M530.6844 233.91667L530.6844 233.0573L534.65314 228.51042Q533.96564 228.54167 533.45 228.54167L530.91876 228.54167L530.91876 227.69792L536.0125 227.69792L536.0125 228.38542L532.6375 232.33855L531.98126 233.0573Q532.7 233.01042 533.3094 233.01042L536.2 233.01042L536.2 233.91667L530.6844 233.91667ZM535.85626 230.8073Q535.85626 229.07292 536.8094 228.2448Q537.60626 227.5573 538.7625 227.5573Q540.04376 227.5573 540.85626 228.40105Q541.6844 229.22917 541.6844 230.71355Q541.6844 231.91667 541.325 232.60417Q540.96564 233.29167 540.2625 233.6823Q539.575 234.0573 538.7625 234.0573Q537.46564 234.0573 536.65314 233.22917Q535.85626 232.38542 535.85626 230.8073ZM536.9344 230.8073Q536.9344 231.9948 537.45 232.58855Q537.98126 233.1823 538.7625 233.1823Q539.5594 233.1823 540.075 232.58855Q540.59064 231.9948 540.59064 230.77605Q540.59064 229.6198 540.0594 229.02605Q539.54376 228.4323 538.7625 228.4323Q537.98126 228.4323 537.45 229.02605Q536.9344 229.60417 536.9344 230.8073ZM543.2469 233.91667L543.2469 227.69792L544.1844 227.69792L544.1844 228.57292Q544.48126 228.10417 544.96564 227.83855Q545.45 227.5573 546.075 227.5573Q546.7625 227.5573 547.2 227.83855Q547.65314 228.1198 547.825 228.63542Q548.575 227.5573 549.7469 227.5573Q550.6844 227.5573 551.16876 228.07292Q551.66876 228.57292 551.66876 229.65105L551.66876 233.91667L550.6219 233.91667L550.6219 229.9948Q550.6219 229.3698 550.5125 229.08855Q550.41876 228.8073 550.15314 228.63542Q549.8875 228.46355 549.5125 228.46355Q548.85626 228.46355 548.41876 228.90105Q547.9969 229.33855 547.9969 230.3073L547.9969 233.91667L546.9344 233.91667L546.9344 229.8698Q546.9344 229.16667 546.66876 228.82292Q546.41876 228.46355 545.84064 228.46355Q545.3875 228.46355 545.0125 228.69792Q544.6375 228.9323 544.46564 229.38542Q544.29376 229.83855 544.29376 230.6823L544.29376 233.91667L543.2469 233.91667ZM555.21564 233.91667L554.23126 233.91667L554.23126 225.32292L555.29376 225.32292L555.29376 228.38542Q555.96564 227.5573 556.9969 227.5573Q557.575 227.5573 558.075 227.79167Q558.59064 228.01042 558.91876 228.4323Q559.2625 228.85417 559.45 229.44792Q559.6375 230.04167 559.6375 230.71355Q559.6375 232.3073 558.84064 233.1823Q558.04376 234.0573 556.95 234.0573Q555.84064 234.0573 555.21564 233.13542L555.21564 233.91667ZM555.2 230.76042Q555.2 231.8698 555.5125 232.3698Q556.0125 233.1823 556.85626 233.1823Q557.54376 233.1823 558.04376 232.58855Q558.5594 231.9948 558.5594 230.79167Q558.5594 229.57292 558.075 228.9948Q557.59064 228.41667 556.90314 228.41667Q556.21564 228.41667 555.7 229.02605Q555.2 229.6198 555.2 230.76042ZM561.2469 226.54167L561.2469 225.32292L562.3094 225.32292L562.3094 226.54167L561.2469 226.54167ZM561.2469 233.91667L561.2469 227.69792L562.3094 227.69792L562.3094 233.91667L561.2469 233.91667ZM568.4969 231.91667L569.59064 232.04167Q569.34064 232.9948 568.6375 233.52605Q567.9344 234.0573 566.85626 234.0573Q565.4969 234.0573 564.6844 233.21355Q563.8875 232.3698 563.8875 230.85417Q563.8875 229.29167 564.7 228.4323Q565.5125 227.5573 566.79376 227.5573Q568.04376 227.5573 568.825 228.40105Q569.6219 229.2448 569.6219 230.79167Q569.6219 230.88542 569.6219 231.07292L564.98126 231.07292Q565.04376 232.10417 565.5594 232.65105Q566.075 233.1823 566.85626 233.1823Q567.4344 233.1823 567.84064 232.88542Q568.2625 232.57292 568.4969 231.91667ZM565.04376 230.21355L568.5125 230.21355Q568.45 229.41667 568.1219 229.02605Q567.60626 228.41667 566.8094 228.41667Q566.075 228.41667 565.575 228.90105Q565.09064 229.38542 565.04376 230.21355Z" fill-rule="nonzero"/><path fill="#757575" d="M275.96875 37.55L275.96875 23.2375L277.85938 23.2375L277.85938 35.8625L284.90625 35.8625L284.90625 37.55L275.96875 37.55ZM293.59375 36.26875Q292.60938 37.096874 291.70312 37.440624Q290.79688 37.784374 289.76562 37.784374Q288.0625 37.784374 287.14062 36.95625Q286.21875 36.1125 286.21875 34.815624Q286.21875 34.05 286.5625 33.425Q286.92188 32.8 287.48438 32.425Q288.04688 32.034374 288.75 31.83125Q289.26562 31.70625 290.3125 31.565624Q292.4375 31.315624 293.4375 30.971874Q293.45312 30.6125 293.45312 30.503124Q293.45312 29.440624 292.95312 28.9875Q292.28125 28.39375 290.95312 28.39375Q289.70312 28.39375 289.10938 28.83125Q288.53125 29.26875 288.25 30.378124L286.53125 30.14375Q286.76562 29.034374 287.29688 28.3625Q287.82812 27.675 288.84375 27.315624Q289.85938 26.940624 291.20312 26.940624Q292.53125 26.940624 293.35938 27.253124Q294.1875 27.565624 294.57812 28.05Q294.96875 28.51875 295.125 29.2375Q295.21875 29.690624 295.21875 30.8625L295.21875 33.20625Q295.21875 35.659374 295.32812 36.315624Q295.4375 36.95625 295.78125 37.55L293.9375 37.55Q293.67188 37.003124 293.59375 36.26875ZM293.4375 32.346874Q292.48438 32.7375 290.5625 33.003124Q289.48438 33.159374 289.03125 33.3625Q288.59375 33.55 288.34375 33.925Q288.09375 34.3 288.09375 34.76875Q288.09375 35.471874 288.625 35.940624Q289.15625 36.409374 290.1875 36.409374Q291.20312 36.409374 291.98438 35.971874Q292.78125 35.51875 293.15625 34.753124Q293.4375 34.14375 293.4375 32.9875L293.4375 32.346874ZM297.79688 37.55L297.79688 27.175L299.375 27.175L299.375 28.753124Q299.98438 27.64375 300.5 27.3Q301.01562 26.940624 301.625 26.940624Q302.51562 26.940624 303.4375 27.503124L302.82812 29.14375Q302.1875 28.753124 301.54688 28.753124Q300.96875 28.753124 300.5 29.1125Q300.04688 29.45625 299.84375 30.065624Q299.5625 31.003124 299.5625 32.1125L299.5625 37.55L297.79688 37.55ZM304.5 38.409374L306.20312 38.659374Q306.3125 39.45625 306.79688 39.815624Q307.45312 40.3 308.59375 40.3Q309.8125 40.3 310.46875 39.815624Q311.14062 39.33125 311.375 38.45625Q311.51562 37.909374 311.5 36.190624Q310.34375 37.55 308.625 37.55Q306.48438 37.55 305.3125 36.003124Q304.14062 34.45625 304.14062 32.3Q304.14062 30.815624 304.67188 29.565624Q305.21875 28.315624 306.23438 27.628124Q307.26562 26.940624 308.64062 26.940624Q310.46875 26.940624 311.67188 28.425L311.67188 27.175L313.28125 27.175L313.28125 36.14375Q313.28125 38.565624 312.78125 39.565624Q312.29688 40.58125 311.21875 41.159374Q310.15625 41.753124 308.59375 41.753124Q306.75 41.753124 305.59375 40.925Q304.45312 40.096874 304.5 38.409374ZM305.95312 32.175Q305.95312 34.221874 306.76562 35.159374Q307.57812 36.096874 308.79688 36.096874Q310.0 36.096874 310.8125 35.159374Q311.64062 34.221874 311.64062 32.2375Q311.64062 30.33125 310.79688 29.3625Q309.95312 28.39375 308.76562 28.39375Q307.59375 28.39375 306.76562 29.346874Q305.95312 30.3 305.95312 32.175ZM322.92188 34.20625L324.73438 34.440624Q324.3125 36.01875 323.14062 36.909374Q321.98438 37.784374 320.17188 37.784374Q317.90625 37.784374 316.5625 36.39375Q315.23438 34.9875 315.23438 32.45625Q315.23438 29.83125 316.57812 28.39375Q317.92188 26.940624 320.07812 26.940624Q322.15625 26.940624 323.46875 28.3625Q324.79688 29.76875 324.79688 32.346874Q324.79688 32.503124 324.78125 32.815624L317.04688 32.815624Q317.14062 34.51875 318.01562 35.425Q318.89062 36.33125 320.1875 36.33125Q321.15625 36.33125 321.82812 35.83125Q322.51562 35.315624 322.92188 34.20625ZM317.14062 31.3625L322.9375 31.3625Q322.82812 30.065624 322.28125 29.409374Q321.4375 28.39375 320.09375 28.39375Q318.89062 28.39375 318.0625 29.20625Q317.23438 30.003124 317.14062 31.3625Z" fill-rule="nonzero"/></svg>