<svg version="1.1" viewBox="0.0 0.0 600.0 371.0" fill="none" stroke="none" stroke-linecap="square" stroke-miterlimit="10" width="600" height="371" xmlns:xlink="http://www.w3.org/1999/xlink" xmlns="http://www.w3.org/2000/svg"><path fill="#ffffff" d="M0 0L600.0 0L600.0 371.0L0 371.0L0 0Z" fill-rule="nonzero"/><path stroke="#333333" stroke-width="1.0" stroke-linecap="butt" d="M52.5 332.5L492.5 332.5" fill-rule="nonzero"/><path stroke="#cccccc" stroke-width="1.0" stroke-linecap="butt" d="M52.5 242.5L492.5 242.5" fill-rule="nonzero"/><path stroke="#cccccc" stroke-width="1.0" stroke-linecap="butt" d="M52.5 152.5L492.5 152.5" fill-rule="nonzero"/><path stroke="#cccccc" stroke-width="1.0" stroke-linecap="butt" d="M52.5 61.5L492.5 61.5" fill-rule="nonzero"/><clipPath id="id_0"><path d="M52.55 61.916668L492.61444 61.916668L492.61444 332.45L52.55 332.45L52.55 61.916668Z" clip-rule="nonzero"/></clipPath><path stroke="#000000" stroke-width="2.0" stroke-linecap="butt" stroke-opacity="0.0" clip-path="url(#id_0)" d="M112.0 332.0L100.0 332.0L100.0 315.0C100.0 313.89542 100.89543 313.0 102.0 313.0L110.0 313.0C111.10457 313.0 112.0 313.89542 112.0 315.0Z" fill-rule="nonzero"/><path fill="#4285f4" clip-path="url(#id_0)" d="M112.0 332.0L100.0 332.0L100.0 315.0C100.0 313.89542 100.89543 313.0 102.0 313.0L110.0 313.0C111.10457 313.0 112.0 313.89542 112.0 315.0Z" fill-rule="nonzero"/><path stroke="#000000" stroke-width="2.0" stroke-linecap="butt" stroke-opacity="0.0" clip-path="url(#id_0)" d="M244.0 332.0L232.0 332.0L232.0 299.0C232.0 297.89542 232.89543 297.0 234.0 297.0L242.0 297.0C243.10457 297.0 244.0 297.89542 244.0 299.0Z" fill-rule="nonzero"/><path fill="#4285f4" clip-path="url(#id_0)" d="M244.0 332.0L232.0 332.0L232.0 299.0C232.0 297.89542 232.89543 297.0 234.0 297.0L242.0 297.0C243.10457 297.0 244.0 297.89542 244.0 299.0Z" fill-rule="nonzero"/><path stroke="#000000" stroke-width="2.0" stroke-linecap="butt" stroke-opacity="0.0" clip-path="url(#id_0)" d="M375.0 332.0L363.0 332.0L363.0 261.0C363.0 259.89542 363.89542 259.0 365.0 259.0L373.0 259.0C374.10458 259.0 375.0 259.89542 375.0 261.0Z" fill-rule="nonzero"/><path fill="#4285f4" clip-path="url(#id_0)" d="M375.0 332.0L363.0 332.0L363.0 261.0C363.0 259.89542 363.89542 259.0 365.0 259.0L373.0 259.0C374.10458 259.0 375.0 259.89542 375.0 261.0Z" fill-rule="nonzero"/><path stroke="#000000" stroke-width="2.0" stroke-linecap="butt" stroke-opacity="0.0" clip-path="url(#id_0)" d="M126.0 332.0L114.0 332.0L114.0 321.0C114.0 319.89542 114.89543 319.0 116.0 319.0L124.0 319.0C125.10457 319.0 126.0 319.89542 126.0 321.0Z" fill-rule="nonzero"/><path fill="#ea4335" clip-path="url(#id_0)" d="M126.0 332.0L114.0 332.0L114.0 321.0C114.0 319.89542 114.89543 319.0 116.0 319.0L124.0 319.0C125.10457 319.0 126.0 319.89542 126.0 321.0Z" fill-rule="nonzero"/><path stroke="#000000" stroke-width="2.0" stroke-linecap="butt" stroke-opacity="0.0" clip-path="url(#id_0)" d="M258.0 332.0L246.0 332.0L246.0 306.0C246.0 304.89542 246.89543 304.0 248.0 304.0L256.0 304.0C257.10458 304.0 258.0 304.89542 258.0 306.0Z" fill-rule="nonzero"/><path fill="#ea4335" clip-path="url(#id_0)" d="M258.0 332.0L246.0 332.0L246.0 306.0C246.0 304.89542 246.89543 304.0 248.0 304.0L256.0 304.0C257.10458 304.0 258.0 304.89542 258.0 306.0Z" fill-rule="nonzero"/><path stroke="#000000" stroke-width="2.0" stroke-linecap="butt" stroke-opacity="0.0" clip-path="url(#id_0)" d="M389.0 332.0L377.0 332.0L377.0 285.0C377.0 283.89542 377.89542 283.0 379.0 283.0L387.0 283.0C388.10458 283.0 389.0 283.89542 389.0 285.0Z" fill-rule="nonzero"/><path fill="#ea4335" clip-path="url(#id_0)" d="M389.0 332.0L377.0 332.0L377.0 285.0C377.0 283.89542 377.89542 283.0 379.0 283.0L387.0 283.0C388.10458 283.0 389.0 283.89542 389.0 285.0Z" fill-rule="nonzero"/><path stroke="#000000" stroke-width="2.0" stroke-linecap="butt" stroke-opacity="0.0" clip-path="url(#id_0)" d="M140.0 332.0L128.0 332.0L128.0 307.0C128.0 305.89542 128.89543 305.0 130.0 305.0L138.0 305.0C139.10457 305.0 140.0 305.89542 140.0 307.0Z" fill-rule="nonzero"/><path fill="#fbbc04" clip-path="url(#id_0)" d="M140.0 332.0L128.0 332.0L128.0 307.0C128.0 305.89542 128.89543 305.0 130.0 305.0L138.0 305.0C139.10457 305.0 140.0 305.89542 140.0 307.0Z" fill-rule="nonzero"/><path stroke="#000000" stroke-width="2.0" stroke-linecap="butt" stroke-opacity="0.0" clip-path="url(#id_0)" d="M272.0 332.0L260.0 332.0L260.0 287.0C260.0 285.89542 260.89542 285.0 262.0 285.0L270.0 285.0C271.10458 285.0 272.0 285.89542 272.0 287.0Z" fill-rule="nonzero"/><path fill="#fbbc04" clip-path="url(#id_0)" d="M272.0 332.0L260.0 332.0L260.0 287.0C260.0 285.89542 260.89542 285.0 262.0 285.0L270.0 285.0C271.10458 285.0 272.0 285.89542 272.0 287.0Z" fill-rule="nonzero"/><path stroke="#000000" stroke-width="2.0" stroke-linecap="butt" stroke-opacity="0.0" clip-path="url(#id_0)" d="M403.0 332.0L391.0 332.0L391.0 245.0C391.0 243.89543 391.89542 243.0 393.0 243.0L401.0 243.0C402.10458 243.0 403.0 243.89543 403.0 245.0Z" fill-rule="nonzero"/><path fill="#fbbc04" clip-path="url(#id_0)" d="M403.0 332.0L391.0 332.0L391.0 245.0C391.0 243.89543 391.89542 243.0 393.0 243.0L401.0 243.0C402.10458 243.0 403.0 243.89543 403.0 245.0Z" fill-rule="nonzero"/><path stroke="#000000" stroke-width="2.0" stroke-linecap="butt" stroke-opacity="0.0" clip-path="url(#id_0)" d="M154.0 332.0L142.0 332.0L142.0 317.0C142.0 315.89542 142.89543 315.0 144.0 315.0L152.0 315.0C153.10457 315.0 154.0 315.89542 154.0 317.0Z" fill-rule="nonzero"/><path fill="#34a853" clip-path="url(#id_0)" d="M154.0 332.0L142.0 332.0L142.0 317.0C142.0 315.89542 142.89543 315.0 144.0 315.0L152.0 315.0C153.10457 315.0 154.0 315.89542 154.0 317.0Z" fill-rule="nonzero"/><path stroke="#000000" stroke-width="2.0" stroke-linecap="butt" stroke-opacity="0.0" clip-path="url(#id_0)" d="M286.0 332.0L274.0 332.0L274.0 304.0C274.0 302.89542 274.89542 302.0 276.0 302.0L284.0 302.0C285.10458 302.0 286.0 302.89542 286.0 304.0Z" fill-rule="nonzero"/><path fill="#34a853" clip-path="url(#id_0)" d="M286.0 332.0L274.0 332.0L274.0 304.0C274.0 302.89542 274.89542 302.0 276.0 302.0L284.0 302.0C285.10458 302.0 286.0 302.89542 286.0 304.0Z" fill-rule="nonzero"/><path stroke="#000000" stroke-width="2.0" stroke-linecap="butt" stroke-opacity="0.0" clip-path="url(#id_0)" d="M417.0 332.0L405.0 332.0L405.0 277.0C405.0 275.89542 405.89542 275.0 407.0 275.0L415.0 275.0C416.10458 275.0 417.0 275.89542 417.0 277.0Z" fill-rule="nonzero"/><path fill="#34a853" clip-path="url(#id_0)" d="M417.0 332.0L405.0 332.0L405.0 277.0C405.0 275.89542 405.89542 275.0 407.0 275.0L415.0 275.0C416.10458 275.0 417.0 275.89542 417.0 277.0Z" fill-rule="nonzero"/><path stroke="#000000" stroke-width="2.0" stroke-linecap="butt" stroke-opacity="0.0" clip-path="url(#id_0)" d="M168.0 332.0L156.0 332.0L156.0 277.0C156.0 275.89542 156.89543 275.0 158.0 275.0L166.0 275.0C167.10457 275.0 168.0 275.89542 168.0 277.0Z" fill-rule="nonzero"/><path fill="#ff6d01" clip-path="url(#id_0)" d="M168.0 332.0L156.0 332.0L156.0 277.0C156.0 275.89542 156.89543 275.0 158.0 275.0L166.0 275.0C167.10457 275.0 168.0 275.89542 168.0 277.0Z" fill-rule="nonzero"/><path stroke="#000000" stroke-width="2.0" stroke-linecap="butt" stroke-opacity="0.0" clip-path="url(#id_0)" d="M300.0 332.0L288.0 332.0L288.0 219.0C288.0 217.89543 288.89542 217.0 290.0 217.0L298.0 217.0C299.10458 217.0 300.0 217.89543 300.0 219.0Z" fill-rule="nonzero"/><path fill="#ff6d01" clip-path="url(#id_0)" d="M300.0 332.0L288.0 332.0L288.0 219.0C288.0 217.89543 288.89542 217.0 290.0 217.0L298.0 217.0C299.10458 217.0 300.0 217.89543 300.0 219.0Z" fill-rule="nonzero"/><path stroke="#000000" stroke-width="2.0" stroke-linecap="butt" stroke-opacity="0.0" clip-path="url(#id_0)" d="M431.0 332.0L419.0 332.0L419.0 77.0C419.0 75.89543 419.89542 75.0 421.0 75.0L429.0 75.0C430.10458 75.0 431.0 75.89543 431.0 77.0Z" fill-rule="nonzero"/><path fill="#ff6d01" clip-path="url(#id_0)" d="M431.0 332.0L419.0 332.0L419.0 77.0C419.0 75.89543 419.89542 75.0 421.0 75.0L429.0 75.0C430.10458 75.0 431.0 75.89543 431.0 77.0Z" fill-rule="nonzero"/><path stroke="#000000" stroke-width="2.0" stroke-linecap="butt" stroke-opacity="0.0" clip-path="url(#id_0)" d="M182.0 332.0L170.0 332.0L170.0 286.0C170.0 284.89542 170.89543 284.0 172.0 284.0L180.0 284.0C181.10457 284.0 182.0 284.89542 182.0 286.0Z" fill-rule="nonzero"/><path fill="#46bdc6" clip-path="url(#id_0)" d="M182.0 332.0L170.0 332.0L170.0 286.0C170.0 284.89542 170.89543 284.0 172.0 284.0L180.0 284.0C181.10457 284.0 182.0 284.89542 182.0 286.0Z" fill-rule="nonzero"/><path stroke="#000000" stroke-width="2.0" stroke-linecap="butt" stroke-opacity="0.0" clip-path="url(#id_0)" d="M314.0 332.0L302.0 332.0L302.0 242.0C302.0 240.89543 302.89542 240.0 304.0 240.0L312.0 240.0C313.10458 240.0 314.0 240.89543 314.0 242.0Z" fill-rule="nonzero"/><path fill="#46bdc6" clip-path="url(#id_0)" d="M314.0 332.0L302.0 332.0L302.0 242.0C302.0 240.89543 302.89542 240.0 304.0 240.0L312.0 240.0C313.10458 240.0 314.0 240.89543 314.0 242.0Z" fill-rule="nonzero"/><path stroke="#000000" stroke-width="2.0" stroke-linecap="butt" stroke-opacity="0.0" clip-path="url(#id_0)" d="M445.0 332.0L433.0 332.0L433.0 149.0C433.0 147.89543 433.89542 147.0 435.0 147.0L443.0 147.0C444.10458 147.0 445.0 147.89543 445.0 149.0Z" fill-rule="nonzero"/><path fill="#46bdc6" clip-path="url(#id_0)" d="M445.0 332.0L433.0 332.0L433.0 149.0C433.0 147.89543 433.89542 147.0 435.0 147.0L443.0 147.0C444.10458 147.0 445.0 147.89543 445.0 149.0Z" fill-rule="nonzero"/><path fill="#000000" d="M40.05 332.21564Q40.05 330.6844 40.3625 329.7625Q40.675 328.825 41.284374 328.325Q41.909374 327.825 42.846874 327.825Q43.534374 327.825 44.05 328.10626Q44.58125 328.3875 44.925 328.91876Q45.26875 329.4344 45.45625 330.1844Q45.64375 330.9344 45.64375 332.21564Q45.64375 333.73126 45.33125 334.65314Q45.034374 335.575 44.409374 336.09064Q43.8 336.59064 42.846874 336.59064Q41.6125 336.59064 40.89375 335.7Q40.05 334.6375 40.05 332.21564ZM41.128124 332.21564Q41.128124 334.325 41.628124 335.02814Q42.128124 335.73126 42.846874 335.73126Q43.58125 335.73126 44.065624 335.02814Q44.565624 334.325 44.565624 332.21564Q44.565624 330.09064 44.065624 329.40314Q43.58125 328.7 42.83125 328.7Q42.1125 328.7 41.675 329.3094Q41.128124 330.09064 41.128124 332.21564Z" fill-rule="nonzero"/><path fill="#000000" d="M24.596874 245.25659L24.596874 246.27222L18.909374 246.27222Q18.909374 245.89722 19.034374 245.53784Q19.253124 244.95972 19.721874 244.39722Q20.20625 243.83472 21.1125 243.10034Q22.51875 241.94409 23.003124 241.27222Q23.503124 240.60034 23.503124 240.00659Q23.503124 239.38159 23.05 238.95972Q22.596874 238.52222 21.878124 238.52222Q21.1125 238.52222 20.659374 238.97534Q20.20625 239.42847 20.190624 240.24097L19.1125 240.13159Q19.221874 238.91284 19.940624 238.28784Q20.675 237.64722 21.909374 237.64722Q23.14375 237.64722 23.8625 238.33472Q24.58125 239.02222 24.58125 240.03784Q24.58125 240.55347 24.3625 241.05347Q24.159374 241.53784 23.659374 242.10034Q23.175 242.64722 22.05 243.60034Q21.096874 244.39722 20.815624 244.69409Q20.55 244.97534 20.378124 245.25659L24.596874 245.25659ZM26.05 242.03784Q26.05 240.50659 26.3625 239.58472Q26.675 238.64722 27.284374 238.14722Q27.909374 237.64722 28.846874 237.64722Q29.534374 237.64722 30.05 237.92847Q30.58125 238.20972 30.925 238.74097Q31.26875 239.25659 31.45625 240.00659Q31.64375 240.75659 31.64375 242.03784Q31.64375 243.55347 31.33125 244.47534Q31.034374 245.39722 30.409374 245.91284Q29.8 246.41284 28.846874 246.41284Q27.6125 246.41284 26.89375 245.52222Q26.05 244.45972 26.05 242.03784ZM27.128124 242.03784Q27.128124 244.14722 27.628124 244.85034Q28.128124 245.55347 28.846874 245.55347Q29.58125 245.55347 30.065624 244.85034Q30.565624 244.14722 30.565624 242.03784Q30.565624 239.91284 30.065624 239.22534Q29.58125 238.52222 28.83125 238.52222Q28.1125 238.52222 27.675 239.13159Q27.128124 239.91284 27.128124 242.03784ZM33.05 242.03784Q33.05 240.50659 33.3625 239.58472Q33.675 238.64722 34.284374 238.14722Q34.909374 237.64722 35.846874 237.64722Q36.534374 237.64722 37.05 237.92847Q37.58125 238.20972 37.925 238.74097Q38.26875 239.25659 38.45625 240.00659Q38.64375 240.75659 38.64375 242.03784Q38.64375 243.55347 38.33125 244.47534Q38.034374 245.39722 37.409374 245.91284Q36.8 246.41284 35.846874 246.41284Q34.6125 246.41284 33.89375 245.52222Q33.05 244.45972 33.05 242.03784ZM34.128124 242.03784Q34.128124 244.14722 34.628124 244.85034Q35.128124 245.55347 35.846874 245.55347Q36.58125 245.55347 37.065624 244.85034Q37.565624 244.14722 37.565624 242.03784Q37.565624 239.91284 37.065624 239.22534Q36.58125 238.52222 35.83125 238.52222Q35.1125 238.52222 34.675 239.13159Q34.128124 239.91284 34.128124 242.03784ZM40.05 242.03784Q40.05 240.50659 40.3625 239.58472Q40.675 238.64722 41.284374 238.14722Q41.909374 237.64722 42.846874 237.64722Q43.534374 237.64722 44.05 237.92847Q44.58125 238.20972 44.925 238.74097Q45.26875 239.25659 45.45625 240.00659Q45.64375 240.75659 45.64375 242.03784Q45.64375 243.55347 45.33125 244.47534Q45.034374 245.39722 44.409374 245.91284Q43.8 246.41284 42.846874 246.41284Q41.6125 246.41284 40.89375 245.52222Q40.05 244.45972 40.05 242.03784ZM41.128124 242.03784Q41.128124 244.14722 41.628124 244.85034Q42.128124 245.55347 42.846874 245.55347Q43.58125 245.55347 44.065624 244.85034Q44.565624 244.14722 44.565624 242.03784Q44.565624 239.91284 44.065624 239.22534Q43.58125 238.52222 42.83125 238.52222Q42.1125 238.52222 41.675 239.13159Q41.128124 239.91284 41.128124 242.03784Z" fill-rule="nonzero"/><path fill="#000000" d="M22.425 156.09445L22.425 154.03195L18.70625 154.03195L18.70625 153.0632L22.628124 147.5007L23.4875 147.5007L23.4875 153.0632L24.64375 153.0632L24.64375 154.03195L23.4875 154.03195L23.4875 156.09445L22.425 156.09445ZM22.425 153.0632L22.425 149.20383L19.7375 153.0632L22.425 153.0632ZM26.05 151.86008Q26.05 150.32883 26.3625 149.40695Q26.675 148.46945 27.284374 147.96945Q27.909374 147.46945 28.846874 147.46945Q29.534374 147.46945 30.05 147.7507Q30.58125 148.03195 30.925 148.5632Q31.26875 149.07883 31.45625 149.82883Q31.64375 150.57883 31.64375 151.86008Q31.64375 153.3757 31.33125 154.29758Q31.034374 155.21945 30.409374 155.73508Q29.8 156.23508 28.846874 156.23508Q27.6125 156.23508 26.89375 155.34445Q26.05 154.28195 26.05 151.86008ZM27.128124 151.86008Q27.128124 153.96945 27.628124 154.67258Q28.128124 155.3757 28.846874 155.3757Q29.58125 155.3757 30.065624 154.67258Q30.565624 153.96945 30.565624 151.86008Q30.565624 149.73508 30.065624 149.04758Q29.58125 148.34445 28.83125 148.34445Q28.1125 148.34445 27.675 148.95383Q27.128124 149.73508 27.128124 151.86008ZM33.05 151.86008Q33.05 150.32883 33.3625 149.40695Q33.675 148.46945 34.284374 147.96945Q34.909374 147.46945 35.846874 147.46945Q36.534374 147.46945 37.05 147.7507Q37.58125 148.03195 37.925 148.5632Q38.26875 149.07883 38.45625 149.82883Q38.64375 150.57883 38.64375 151.86008Q38.64375 153.3757 38.33125 154.29758Q38.034374 155.21945 37.409374 155.73508Q36.8 156.23508 35.846874 156.23508Q34.6125 156.23508 33.89375 155.34445Q33.05 154.28195 33.05 151.86008ZM34.128124 151.86008Q34.128124 153.96945 34.628124 154.67258Q35.128124 155.3757 35.846874 155.3757Q36.58125 155.3757 37.065624 154.67258Q37.565624 153.96945 37.565624 151.86008Q37.565624 149.73508 37.065624 149.04758Q36.58125 148.34445 35.83125 148.34445Q35.1125 148.34445 34.675 148.95383Q34.128124 149.73508 34.128124 151.86008ZM40.05 151.86008Q40.05 150.32883 40.3625 149.40695Q40.675 148.46945 41.284374 147.96945Q41.909374 147.46945 42.846874 147.46945Q43.534374 147.46945 44.05 147.7507Q44.58125 148.03195 44.925 148.5632Q45.26875 149.07883 45.45625 149.82883Q45.64375 150.57883 45.64375 151.86008Q45.64375 153.3757 45.33125 154.29758Q45.034374 155.21945 44.409374 155.73508Q43.8 156.23508 42.846874 156.23508Q41.6125 156.23508 40.89375 155.34445Q40.05 154.28195 40.05 151.86008ZM41.128124 151.86008Q41.128124 153.96945 41.628124 154.67258Q42.128124 155.3757 42.846874 155.3757Q43.58125 155.3757 44.065624 154.67258Q44.565624 153.96945 44.565624 151.86008Q44.565624 149.73508 44.065624 149.04758Q43.58125 148.34445 42.83125 148.34445Q42.1125 148.34445 41.675 148.95383Q41.128124 149.73508 41.128124 151.86008Z" fill-rule="nonzero"/><path fill="#000000" d="M24.51875 59.43229L23.471874 59.510414Q23.33125 58.885414 23.08125 58.604164Q22.64375 58.15104 22.01875 58.15104Q21.51875 58.15104 21.128124 58.43229Q20.64375 58.80729 20.346874 59.510414Q20.065624 60.197914 20.05 61.479164Q20.425 60.90104 20.971874 60.61979Q21.534374 60.33854 22.14375 60.33854Q23.190624 60.33854 23.925 61.11979Q24.675 61.90104 24.675 63.11979Q24.675 63.93229 24.315624 64.635414Q23.971874 65.322914 23.3625 65.697914Q22.753124 66.05729 21.9875 66.05729Q20.659374 66.05729 19.83125 65.08854Q19.003124 64.11979 19.003124 61.90104Q19.003124 59.40104 19.925 58.27604Q20.721874 57.291664 22.08125 57.291664Q23.096874 57.291664 23.7375 57.86979Q24.39375 58.43229 24.51875 59.43229ZM20.221874 63.135414Q20.221874 63.68229 20.440624 64.18229Q20.675 64.666664 21.08125 64.93229Q21.503124 65.197914 21.971874 65.197914Q22.628124 65.197914 23.1125 64.666664Q23.596874 64.11979 23.596874 63.197914Q23.596874 62.30729 23.1125 61.791664Q22.64375 61.27604 21.925 61.27604Q21.20625 61.27604 20.70625 61.791664Q20.221874 62.30729 20.221874 63.135414ZM26.05 61.68229Q26.05 60.15104 26.3625 59.229164Q26.675 58.291664 27.284374 57.791664Q27.909374 57.291664 28.846874 57.291664Q29.534374 57.291664 30.05 57.572914Q30.58125 57.854164 30.925 58.385414Q31.26875 58.90104 31.45625 59.65104Q31.64375 60.40104 31.64375 61.68229Q31.64375 63.197914 31.33125 64.11979Q31.034374 65.041664 30.409374 65.55729Q29.8 66.05729 28.846874 66.05729Q27.6125 66.05729 26.89375 65.166664Q26.05 64.104164 26.05 61.68229ZM27.128124 61.68229Q27.128124 63.791664 27.628124 64.49479Q28.128124 65.197914 28.846874 65.197914Q29.58125 65.197914 30.065624 64.49479Q30.565624 63.791664 30.565624 61.68229Q30.565624 59.55729 30.065624 58.86979Q29.58125 58.166664 28.83125 58.166664Q28.1125 58.166664 27.675 58.77604Q27.128124 59.55729 27.128124 61.68229ZM33.05 61.68229Q33.05 60.15104 33.3625 59.229164Q33.675 58.291664 34.284374 57.791664Q34.909374 57.291664 35.846874 57.291664Q36.534374 57.291664 37.05 57.572914Q37.58125 57.854164 37.925 58.385414Q38.26875 58.90104 38.45625 59.65104Q38.64375 60.40104 38.64375 61.68229Q38.64375 63.197914 38.33125 64.11979Q38.034374 65.041664 37.409374 65.55729Q36.8 66.05729 35.846874 66.05729Q34.6125 66.05729 33.89375 65.166664Q33.05 64.104164 33.05 61.68229ZM34.128124 61.68229Q34.128124 63.791664 34.628124 64.49479Q35.128124 65.197914 35.846874 65.197914Q36.58125 65.197914 37.065624 64.49479Q37.565624 63.791664 37.565624 61.68229Q37.565624 59.55729 37.065624 58.86979Q36.58125 58.166664 35.83125 58.166664Q35.1125 58.166664 34.675 58.77604Q34.128124 59.55729 34.128124 61.68229ZM40.05 61.68229Q40.05 60.15104 40.3625 59.229164Q40.675 58.291664 41.284374 57.791664Q41.909374 57.291664 42.846874 57.291664Q43.534374 57.291664 44.05 57.572914Q44.58125 57.854164 44.925 58.385414Q45.26875 58.90104 45.45625 59.65104Q45.64375 60.40104 45.64375 61.68229Q45.64375 63.197914 45.33125 64.11979Q45.034374 65.041664 44.409374 65.55729Q43.8 66.05729 42.846874 66.05729Q41.6125 66.05729 40.89375 65.166664Q40.05 64.104164 40.05 61.68229ZM41.128124 61.68229Q41.128124 63.791664 41.628124 64.49479Q42.128124 65.197914 42.846874 65.197914Q43.58125 65.197914 44.065624 64.49479Q44.565624 63.791664 44.565624 61.68229Q44.565624 59.55729 44.065624 58.86979Q43.58125 58.166664 42.83125 58.166664Q42.1125 58.166664 41.675 58.77604Q41.128124 59.55729 41.128124 61.68229Z" fill-rule="nonzero"/><path fill="#000000" d="M116.64158 349.45L116.64158 340.85626L117.79783 340.85626L122.31345 347.60626L122.31345 340.85626L123.4072 340.85626L123.4072 349.45L122.23533 349.45L117.7197 342.7L117.7197 349.45L116.64158 349.45ZM131.06345 344.40314L125.39158 344.40314L125.39158 343.41876L131.06345 343.41876L131.06345 344.40314ZM131.06345 347.0125L125.39158 347.0125L125.39158 346.02814L131.06345 346.02814L131.06345 347.0125ZM132.2197 347.2L133.32907 347.10626Q133.45407 347.91876 133.89157 348.325Q134.3447 348.73126 134.98532 348.73126Q135.73532 348.73126 136.26657 348.15314Q136.79782 347.575 136.79782 346.6375Q136.79782 345.73126 136.2822 345.21564Q135.7822 344.6844 134.95407 344.6844Q134.45407 344.6844 134.0322 344.91876Q133.62595 345.15314 133.39157 345.5125L132.4072 345.3875L133.23532 340.98126L137.51657 340.98126L137.51657 341.98126L134.07907 341.98126L133.62595 344.29376Q134.39157 343.7469 135.23532 343.7469Q136.36032 343.7469 137.12595 344.52814Q137.9072 345.3094 137.9072 346.54376Q137.9072 347.7 137.23532 348.5594Q136.4072 349.59064 134.98532 349.59064Q133.81345 349.59064 133.06345 348.9344Q132.32907 348.27814 132.2197 347.2ZM139.2197 345.21564Q139.2197 343.6844 139.5322 342.7625Q139.8447 341.825 140.45407 341.325Q141.07907 340.825 142.01657 340.825Q142.70407 340.825 143.2197 341.10626Q143.75095 341.3875 144.0947 341.91876Q144.43845 342.4344 144.62595 343.1844Q144.81345 343.9344 144.81345 345.21564Q144.81345 346.73126 144.50095 347.65314Q144.20407 348.575 143.57907 349.09064Q142.9697 349.59064 142.01657 349.59064Q140.7822 349.59064 140.06345 348.7Q139.2197 347.6375 139.2197 345.21564ZM140.29782 345.21564Q140.29782 347.325 140.79782 348.02814Q141.29782 348.73126 142.01657 348.73126Q142.75095 348.73126 143.23532 348.02814Q143.73532 347.325 143.73532 345.21564Q143.73532 343.09064 143.23532 342.40314Q142.75095 341.7 142.00095 341.7Q141.2822 341.7 140.8447 342.3094Q140.29782 343.09064 140.29782 345.21564ZM146.2197 345.21564Q146.2197 343.6844 146.5322 342.7625Q146.8447 341.825 147.45407 341.325Q148.07907 340.825 149.01657 340.825Q149.70407 340.825 150.2197 341.10626Q150.75095 341.3875 151.0947 341.91876Q151.43845 342.4344 151.62595 343.1844Q151.81345 343.9344 151.81345 345.21564Q151.81345 346.73126 151.50095 347.65314Q151.20407 348.575 150.57907 349.09064Q149.9697 349.59064 149.01657 349.59064Q147.7822 349.59064 147.06345 348.7Q146.2197 347.6375 146.2197 345.21564ZM147.29782 345.21564Q147.29782 347.325 147.79782 348.02814Q148.29782 348.73126 149.01657 348.73126Q149.75095 348.73126 150.23532 348.02814Q150.73532 347.325 150.73532 345.21564Q150.73532 343.09064 150.23532 342.40314Q149.75095 341.7 149.00095 341.7Q148.2822 341.7 147.8447 342.3094Q147.29782 343.09064 147.29782 345.21564ZM153.2197 345.21564Q153.2197 343.6844 153.5322 342.7625Q153.8447 341.825 154.45407 341.325Q155.07907 340.825 156.01657 340.825Q156.70407 340.825 157.2197 341.10626Q157.75095 341.3875 158.0947 341.91876Q158.43845 342.4344 158.62595 343.1844Q158.81345 343.9344 158.81345 345.21564Q158.81345 346.73126 158.50095 347.65314Q158.20407 348.575 157.57907 349.09064Q156.9697 349.59064 156.01657 349.59064Q154.7822 349.59064 154.06345 348.7Q153.2197 347.6375 153.2197 345.21564ZM154.29782 345.21564Q154.29782 347.325 154.79782 348.02814Q155.29782 348.73126 156.01657 348.73126Q156.75095 348.73126 157.23532 348.02814Q157.73532 347.325 157.73532 345.21564Q157.73532 343.09064 157.23532 342.40314Q156.75095 341.7 156.00095 341.7Q155.2822 341.7 154.8447 342.3094Q154.29782 343.09064 154.29782 345.21564ZM160.2197 345.21564Q160.2197 343.6844 160.5322 342.7625Q160.8447 341.825 161.45407 341.325Q162.07907 340.825 163.01657 340.825Q163.70407 340.825 164.2197 341.10626Q164.75095 341.3875 165.0947 341.91876Q165.43845 342.4344 165.62595 343.1844Q165.81345 343.9344 165.81345 345.21564Q165.81345 346.73126 165.50095 347.65314Q165.20407 348.575 164.57907 349.09064Q163.9697 349.59064 163.01657 349.59064Q161.7822 349.59064 161.06345 348.7Q160.2197 347.6375 160.2197 345.21564ZM161.29782 345.21564Q161.29782 347.325 161.79782 348.02814Q162.29782 348.73126 163.01657 348.73126Q163.75095 348.73126 164.23532 348.02814Q164.73532 347.325 164.73532 345.21564Q164.73532 343.09064 164.23532 342.40314Q163.75095 341.7 163.00095 341.7Q162.2822 341.7 161.8447 342.3094Q161.29782 343.09064 161.29782 345.21564Z" fill-rule="nonzero"/><path fill="#000000" d="M244.5041 349.45L244.5041 340.85626L245.66035 340.85626L250.17598 347.60626L250.17598 340.85626L251.26973 340.85626L251.26973 349.45L250.09785 349.45L245.58223 342.7L245.58223 349.45L244.5041 349.45ZM258.92596 344.40314L253.2541 344.40314L253.2541 343.41876L258.92596 343.41876L258.92596 344.40314ZM258.92596 347.0125L253.2541 347.0125L253.2541 346.02814L258.92596 346.02814L258.92596 347.0125ZM264.05096 349.45L263.0041 349.45L263.0041 342.73126Q262.61346 343.09064 261.98846 343.46564Q261.3791 343.825 260.8947 343.9969L260.8947 342.98126Q261.7697 342.5594 262.42596 341.98126Q263.09784 341.3875 263.3791 340.825L264.05096 340.825L264.05096 349.45ZM267.0822 345.21564Q267.0822 343.6844 267.3947 342.7625Q267.7072 341.825 268.3166 341.325Q268.9416 340.825 269.8791 340.825Q270.5666 340.825 271.0822 341.10626Q271.61346 341.3875 271.9572 341.91876Q272.30096 342.4344 272.48846 343.1844Q272.67596 343.9344 272.67596 345.21564Q272.67596 346.73126 272.36346 347.65314Q272.0666 348.575 271.4416 349.09064Q270.8322 349.59064 269.8791 349.59064Q268.6447 349.59064 267.92596 348.7Q267.0822 347.6375 267.0822 345.21564ZM268.16034 345.21564Q268.16034 347.325 268.66034 348.02814Q269.16034 348.73126 269.8791 348.73126Q270.61346 348.73126 271.09784 348.02814Q271.59784 347.325 271.59784 345.21564Q271.59784 343.09064 271.09784 342.40314Q270.61346 341.7 269.86346 341.7Q269.1447 341.7 268.7072 342.3094Q268.16034 343.09064 268.16034 345.21564ZM274.0822 345.21564Q274.0822 343.6844 274.3947 342.7625Q274.7072 341.825 275.3166 341.325Q275.9416 340.825 276.8791 340.825Q277.5666 340.825 278.0822 341.10626Q278.61346 341.3875 278.9572 341.91876Q279.30096 342.4344 279.48846 343.1844Q279.67596 343.9344 279.67596 345.21564Q279.67596 346.73126 279.36346 347.65314Q279.0666 348.575 278.4416 349.09064Q277.8322 349.59064 276.8791 349.59064Q275.6447 349.59064 274.92596 348.7Q274.0822 347.6375 274.0822 345.21564ZM275.16034 345.21564Q275.16034 347.325 275.66034 348.02814Q276.16034 348.73126 276.8791 348.73126Q277.61346 348.73126 278.09784 348.02814Q278.59784 347.325 278.59784 345.21564Q278.59784 343.09064 278.09784 342.40314Q277.61346 341.7 276.86346 341.7Q276.1447 341.7 275.7072 342.3094Q275.16034 343.09064 275.16034 345.21564ZM281.0822 345.21564Q281.0822 343.6844 281.3947 342.7625Q281.7072 341.825 282.3166 341.325Q282.9416 340.825 283.8791 340.825Q284.5666 340.825 285.0822 341.10626Q285.61346 341.3875 285.9572 341.91876Q286.30096 342.4344 286.48846 343.1844Q286.67596 343.9344 286.67596 345.21564Q286.67596 346.73126 286.36346 347.65314Q286.0666 348.575 285.4416 349.09064Q284.8322 349.59064 283.8791 349.59064Q282.6447 349.59064 281.92596 348.7Q281.0822 347.6375 281.0822 345.21564ZM282.16034 345.21564Q282.16034 347.325 282.66034 348.02814Q283.16034 348.73126 283.8791 348.73126Q284.61346 348.73126 285.09784 348.02814Q285.59784 347.325 285.59784 345.21564Q285.59784 343.09064 285.09784 342.40314Q284.61346 341.7 283.86346 341.7Q283.1447 341.7 282.7072 342.3094Q282.16034 343.09064 282.16034 345.21564ZM288.0822 345.21564Q288.0822 343.6844 288.3947 342.7625Q288.7072 341.825 289.3166 341.325Q289.9416 340.825 290.8791 340.825Q291.5666 340.825 292.0822 341.10626Q292.61346 341.3875 292.9572 341.91876Q293.30096 342.4344 293.48846 343.1844Q293.67596 343.9344 293.67596 345.21564Q293.67596 346.73126 293.36346 347.65314Q293.0666 348.575 292.4416 349.09064Q291.8322 349.59064 290.8791 349.59064Q289.6447 349.59064 288.92596 348.7Q288.0822 347.6375 288.0822 345.21564ZM289.16034 345.21564Q289.16034 347.325 289.66034 348.02814Q290.16034 348.73126 290.8791 348.73126Q291.61346 348.73126 292.09784 348.02814Q292.59784 347.325 292.59784 345.21564Q292.59784 343.09064 292.09784 342.40314Q291.61346 341.7 290.86346 341.7Q290.1447 341.7 289.7072 342.3094Q289.16034 343.09064 289.16034 345.21564ZM295.0822 345.21564Q295.0822 343.6844 295.3947 342.7625Q295.7072 341.825 296.3166 341.325Q296.9416 340.825 297.8791 340.825Q298.5666 340.825 299.0822 341.10626Q299.61346 341.3875 299.9572 341.91876Q300.30096 342.4344 300.48846 343.1844Q300.67596 343.9344 300.67596 345.21564Q300.67596 346.73126 300.36346 347.65314Q300.0666 348.575 299.4416 349.09064Q298.8322 349.59064 297.8791 349.59064Q296.6447 349.59064 295.92596 348.7Q295.0822 347.6375 295.0822 345.21564ZM296.16034 345.21564Q296.16034 347.325 296.66034 348.02814Q297.16034 348.73126 297.8791 348.73126Q298.61346 348.73126 299.09784 348.02814Q299.59784 347.325 299.59784 345.21564Q299.59784 343.09064 299.09784 342.40314Q298.61346 341.7 297.86346 341.7Q297.1447 341.7 296.7072 342.3094Q296.16034 343.09064 296.16034 345.21564Z" fill-rule="nonzero"/><path fill="#000000" d="M375.8666 349.45L375.8666 340.85626L377.02286 340.85626L381.53848 347.60626L381.53848 340.85626L382.63223 340.85626L382.63223 349.45L381.46036 349.45L376.94473 342.7L376.94473 349.45L375.8666 349.45ZM390.28848 344.40314L384.6166 344.40314L384.6166 343.41876L390.28848 343.41876L390.28848 344.40314ZM390.28848 347.0125L384.6166 347.0125L384.6166 346.02814L390.28848 346.02814L390.28848 347.0125ZM396.9916 348.4344L396.9916 349.45L391.3041 349.45Q391.3041 349.075 391.4291 348.71564Q391.64786 348.1375 392.1166 347.575Q392.60098 347.0125 393.50723 346.27814Q394.91348 345.1219 395.39786 344.45Q395.89786 343.77814 395.89786 343.1844Q395.89786 342.5594 395.44473 342.1375Q394.9916 341.7 394.27286 341.7Q393.50723 341.7 393.0541 342.15314Q392.60098 342.60626 392.58536 343.41876L391.50723 343.3094Q391.6166 342.09064 392.33536 341.46564Q393.06973 340.825 394.3041 340.825Q395.53848 340.825 396.25723 341.5125Q396.97598 342.2 396.97598 343.21564Q396.97598 343.73126 396.75723 344.23126Q396.5541 344.71564 396.0541 345.27814Q395.56973 345.825 394.44473 346.77814Q393.4916 347.575 393.21036 347.8719Q392.94473 348.15314 392.77286 348.4344L396.9916 348.4344ZM398.44473 345.21564Q398.44473 343.6844 398.75723 342.7625Q399.06973 341.825 399.6791 341.325Q400.3041 340.825 401.2416 340.825Q401.9291 340.825 402.44473 341.10626Q402.97598 341.3875 403.31973 341.91876Q403.66348 342.4344 403.85098 343.1844Q404.03848 343.9344 404.03848 345.21564Q404.03848 346.73126 403.72598 347.65314Q403.4291 348.575 402.8041 349.09064Q402.19473 349.59064 401.2416 349.59064Q400.00723 349.59064 399.28848 348.7Q398.44473 347.6375 398.44473 345.21564ZM399.52286 345.21564Q399.52286 347.325 400.02286 348.02814Q400.52286 348.73126 401.2416 348.73126Q401.97598 348.73126 402.46036 348.02814Q402.96036 347.325 402.96036 345.21564Q402.96036 343.09064 402.46036 342.40314Q401.97598 341.7 401.22598 341.7Q400.50723 341.7 400.06973 342.3094Q399.52286 343.09064 399.52286 345.21564ZM405.44473 345.21564Q405.44473 343.6844 405.75723 342.7625Q406.06973 341.825 406.6791 341.325Q407.3041 340.825 408.2416 340.825Q408.9291 340.825 409.44473 341.10626Q409.97598 341.3875 410.31973 341.91876Q410.66348 342.4344 410.85098 343.1844Q411.03848 343.9344 411.03848 345.21564Q411.03848 346.73126 410.72598 347.65314Q410.4291 348.575 409.8041 349.09064Q409.19473 349.59064 408.2416 349.59064Q407.00723 349.59064 406.28848 348.7Q405.44473 347.6375 405.44473 345.21564ZM406.52286 345.21564Q406.52286 347.325 407.02286 348.02814Q407.52286 348.73126 408.2416 348.73126Q408.97598 348.73126 409.46036 348.02814Q409.96036 347.325 409.96036 345.21564Q409.96036 343.09064 409.46036 342.40314Q408.97598 341.7 408.22598 341.7Q407.50723 341.7 407.06973 342.3094Q406.52286 343.09064 406.52286 345.21564ZM412.44473 345.21564Q412.44473 343.6844 412.75723 342.7625Q413.06973 341.825 413.6791 341.325Q414.3041 340.825 415.2416 340.825Q415.9291 340.825 416.44473 341.10626Q416.97598 341.3875 417.31973 341.91876Q417.66348 342.4344 417.85098 343.1844Q418.03848 343.9344 418.03848 345.21564Q418.03848 346.73126 417.72598 347.65314Q417.4291 348.575 416.8041 349.09064Q416.19473 349.59064 415.2416 349.59064Q414.00723 349.59064 413.28848 348.7Q412.44473 347.6375 412.44473 345.21564ZM413.52286 345.21564Q413.52286 347.325 414.02286 348.02814Q414.52286 348.73126 415.2416 348.73126Q415.97598 348.73126 416.46036 348.02814Q416.96036 347.325 416.96036 345.21564Q416.96036 343.09064 416.46036 342.40314Q415.97598 341.7 415.22598 341.7Q414.50723 341.7 414.06973 342.3094Q413.52286 343.09064 413.52286 345.21564ZM419.44473 345.21564Q419.44473 343.6844 419.75723 342.7625Q420.06973 341.825 420.6791 341.325Q421.3041 340.825 422.2416 340.825Q422.9291 340.825 423.44473 341.10626Q423.97598 341.3875 424.31973 341.91876Q424.66348 342.4344 424.85098 343.1844Q425.03848 343.9344 425.03848 345.21564Q425.03848 346.73126 424.72598 347.65314Q424.4291 348.575 423.8041 349.09064Q423.19473 349.59064 422.2416 349.59064Q421.00723 349.59064 420.28848 348.7Q419.44473 347.6375 419.44473 345.21564ZM420.52286 345.21564Q420.52286 347.325 421.02286 348.02814Q421.52286 348.73126 422.2416 348.73126Q422.97598 348.73126 423.46036 348.02814Q423.96036 347.325 423.96036 345.21564Q423.96036 343.09064 423.46036 342.40314Q422.97598 341.7 422.22598 341.7Q421.50723 341.7 421.06973 342.3094Q420.52286 343.09064 420.52286 345.21564ZM426.44473 345.21564Q426.44473 343.6844 426.75723 342.7625Q427.06973 341.825 427.6791 341.325Q428.3041 340.825 429.2416 340.825Q429.9291 340.825 430.44473 341.10626Q430.97598 341.3875 431.31973 341.91876Q431.66348 342.4344 431.85098 343.1844Q432.03848 343.9344 432.03848 345.21564Q432.03848 346.73126 431.72598 347.65314Q431.4291 348.575 430.8041 349.09064Q430.19473 349.59064 429.2416 349.59064Q428.00723 349.59064 427.28848 348.7Q426.44473 347.6375 426.44473 345.21564ZM427.52286 345.21564Q427.52286 347.325 428.02286 348.02814Q428.52286 348.73126 429.2416 348.73126Q429.97598 348.73126 430.46036 348.02814Q430.96036 347.325 430.96036 345.21564Q430.96036 343.09064 430.46036 342.40314Q429.97598 341.7 429.22598 341.7Q428.50723 341.7 428.06973 342.3094Q427.52286 343.09064 427.52286 345.21564Z" fill-rule="nonzero"/><path fill="#4285f4" d="M512.45 56.916668C512.45 56.364384 512.8977 55.916668 513.45 55.916668L523.45 55.916668C524.00226 55.916668 524.45 56.364384 524.45 56.916668L524.45 66.916664C524.45 67.46895 524.00226 67.916664 523.45 67.916664L513.45 67.916664C512.8977 67.916664 512.45 67.46895 512.45 66.916664Z" fill-rule="nonzero"/><path fill="#1a1a1a" d="M537.3094 63.635414L538.34064 63.77604Q538.16876 64.83854 537.46564 65.447914Q536.7625 66.05729 535.7469 66.05729Q534.46564 66.05729 533.6844 65.229164Q532.91876 64.385414 532.91876 62.822914Q532.91876 61.822914 533.2469 61.072914Q533.59064 60.30729 534.2625 59.93229Q534.95 59.55729 535.7625 59.55729Q536.7625 59.55729 537.40314 60.072914Q538.0594 60.572914 538.2469 61.52604L537.21564 61.68229Q537.075 61.05729 536.7 60.74479Q536.325 60.416664 535.79376 60.416664Q534.9969 60.416664 534.4969 60.99479Q533.9969 61.55729 533.9969 62.791664Q533.9969 64.05729 534.48126 64.61979Q534.96564 65.18229 535.73126 65.18229Q536.35626 65.18229 536.7625 64.80729Q537.1844 64.43229 537.3094 63.635414ZM539.23126 65.916664L539.23126 59.697914L540.1844 59.697914L540.1844 60.635414Q540.54376 59.979164 540.84064 59.77604Q541.15314 59.55729 541.52814 59.55729Q542.0594 59.55729 542.60626 59.885414L542.2469 60.86979Q541.85626 60.635414 541.48126 60.635414Q541.1219 60.635414 540.84064 60.854164Q540.575 61.05729 540.46564 61.43229Q540.27814 61.99479 540.27814 62.65104L540.27814 65.916664L539.23126 65.916664ZM547.3094 65.15104Q546.71564 65.65104 546.16876 65.854164Q545.6375 66.05729 545.0125 66.05729Q543.98126 66.05729 543.4344 65.55729Q542.8875 65.05729 542.8875 64.27604Q542.8875 63.822914 543.09064 63.447914Q543.29376 63.05729 543.6375 62.83854Q543.98126 62.604164 544.40314 62.49479Q544.7 62.40104 545.34064 62.322914Q546.60626 62.18229 547.21564 61.96354Q547.21564 61.74479 547.21564 61.697914Q547.21564 61.041664 546.91876 60.77604Q546.5125 60.43229 545.71564 60.43229Q544.98126 60.43229 544.6219 60.697914Q544.2625 60.947914 544.09064 61.604164L543.0594 61.46354Q543.2 60.80729 543.52814 60.40104Q543.85626 59.99479 544.46564 59.77604Q545.075 59.55729 545.8719 59.55729Q546.66876 59.55729 547.16876 59.74479Q547.66876 59.93229 547.90314 60.21354Q548.1375 60.49479 548.23126 60.93229Q548.27814 61.197914 548.27814 61.90104L548.27814 63.30729Q548.27814 64.77604 548.34064 65.166664Q548.41876 65.55729 548.6219 65.916664L547.5125 65.916664Q547.35626 65.58854 547.3094 65.15104ZM547.21564 62.791664Q546.6375 63.02604 545.4969 63.197914Q544.84064 63.291664 544.575 63.416664Q544.3094 63.52604 544.15314 63.74479Q544.0125 63.96354 544.0125 64.24479Q544.0125 64.666664 544.325 64.947914Q544.65314 65.229164 545.2625 65.229164Q545.8719 65.229164 546.34064 64.96354Q546.825 64.697914 547.04376 64.229164Q547.21564 63.86979 547.21564 63.18229L547.21564 62.791664ZM551.3875 65.916664L549.48126 59.697914L550.575 59.697914L551.5594 63.291664L551.9344 64.61979Q551.96564 64.52604 552.2625 63.33854L553.2469 59.697914L554.325 59.697914L555.2625 63.30729L555.575 64.49479L555.9344 63.291664L556.9969 59.697914L558.02814 59.697914L556.075 65.916664L554.98126 65.916664L553.9969 62.18229L553.7469 61.135414L552.4969 65.916664L551.3875 65.916664Z" fill-rule="nonzero"/><path fill="#ea4335" d="M512.45 80.916664C512.45 80.36438 512.8977 79.916664 513.45 79.916664L523.45 79.916664C524.00226 79.916664 524.45 80.36438 524.45 80.916664L524.45 90.916664C524.45 91.46895 524.00226 91.916664 523.45 91.916664L513.45 91.916664C512.8977 91.916664 512.45 91.46895 512.45 90.916664Z" fill-rule="nonzero"/><path fill="#1a1a1a" d="M533.2469 89.916664L533.2469 83.697914L534.1844 83.697914L534.1844 84.572914Q534.48126 84.104164 534.96564 83.83854Q535.45 83.55729 536.075 83.55729Q536.7625 83.55729 537.2 83.83854Q537.65314 84.11979 537.825 84.635414Q538.575 83.55729 539.7469 83.55729Q540.6844 83.55729 541.16876 84.072914Q541.66876 84.572914 541.66876 85.65104L541.66876 89.916664L540.6219 89.916664L540.6219 85.99479Q540.6219 85.36979 540.5125 85.08854Q540.41876 84.80729 540.15314 84.635414Q539.8875 84.46354 539.5125 84.46354Q538.85626 84.46354 538.41876 84.90104Q537.9969 85.33854 537.9969 86.30729L537.9969 89.916664L536.9344 89.916664L536.9344 85.86979Q536.9344 85.166664 536.66876 84.822914Q536.41876 84.46354 535.84064 84.46354Q535.3875 84.46354 535.0125 84.697914Q534.6375 84.93229 534.46564 85.385414Q534.29376 85.83854 534.29376 86.68229L534.29376 89.916664L533.2469 89.916664ZM548.3094 89.15104Q547.71564 89.65104 547.16876 89.854164Q546.6375 90.05729 546.0125 90.05729Q544.98126 90.05729 544.4344 89.55729Q543.8875 89.05729 543.8875 88.27604Q543.8875 87.822914 544.09064 87.447914Q544.29376 87.05729 544.6375 86.83854Q544.98126 86.604164 545.40314 86.49479Q545.7 86.40104 546.34064 86.322914Q547.60626 86.18229 548.21564 85.96354Q548.21564 85.74479 548.21564 85.697914Q548.21564 85.041664 547.91876 84.77604Q547.5125 84.43229 546.71564 84.43229Q545.98126 84.43229 545.6219 84.697914Q545.2625 84.947914 545.09064 85.604164L544.0594 85.46354Q544.2 84.80729 544.52814 84.40104Q544.85626 83.99479 545.46564 83.77604Q546.075 83.55729 546.8719 83.55729Q547.66876 83.55729 548.16876 83.74479Q548.66876 83.93229 548.90314 84.21354Q549.1375 84.49479 549.23126 84.93229Q549.27814 85.197914 549.27814 85.90104L549.27814 87.30729Q549.27814 88.77604 549.34064 89.166664Q549.41876 89.55729 549.6219 89.916664L548.5125 89.916664Q548.35626 89.58854 548.3094 89.15104ZM548.21564 86.791664Q547.6375 87.02604 546.4969 87.197914Q545.84064 87.291664 545.575 87.416664Q545.3094 87.52604 545.15314 87.74479Q545.0125 87.96354 545.0125 88.24479Q545.0125 88.666664 545.325 88.947914Q545.65314 89.229164 546.2625 89.229164Q546.8719 89.229164 547.34064 88.96354Q547.825 88.697914 548.04376 88.229164Q548.21564 87.86979 548.21564 87.18229L548.21564 86.791664ZM553.54376 88.979164L553.7 89.90104Q553.2469 89.99479 552.90314 89.99479Q552.325 89.99479 552.0125 89.822914Q551.7 89.635414 551.5594 89.33854Q551.4344 89.041664 551.4344 88.08854L551.4344 84.510414L550.66876 84.510414L550.66876 83.697914L551.4344 83.697914L551.4344 82.15104L552.48126 81.52604L552.48126 83.697914L553.54376 83.697914L553.54376 84.510414L552.48126 84.510414L552.48126 88.15104Q552.48126 88.604164 552.52814 88.729164Q552.59064 88.854164 552.71564 88.93229Q552.84064 89.010414 553.075 89.010414Q553.2625 89.010414 553.54376 88.979164ZM556.54376 88.979164L556.7 89.90104Q556.2469 89.99479 555.90314 89.99479Q555.325 89.99479 555.0125 89.822914Q554.7 89.635414 554.5594 89.33854Q554.4344 89.041664 554.4344 88.08854L554.4344 84.510414L553.66876 84.510414L553.66876 83.697914L554.4344 83.697914L554.4344 82.15104L555.48126 81.52604L555.48126 83.697914L556.54376 83.697914L556.54376 84.510414L555.48126 84.510414L555.48126 88.15104Q555.48126 88.604164 555.52814 88.729164Q555.59064 88.854164 555.71564 88.93229Q555.84064 89.010414 556.075 89.010414Q556.2625 89.010414 556.54376 88.979164ZM557.2469 89.916664L557.2469 83.697914L558.1844 83.697914L558.1844 84.572914Q558.8719 83.55729 560.16876 83.55729Q560.73126 83.55729 561.2 83.760414Q561.6844 83.96354 561.91876 84.291664Q562.15314 84.61979 562.2469 85.05729Q562.29376 85.354164 562.29376 86.08854L562.29376 89.916664L561.2469 89.916664L561.2469 86.135414Q561.2469 85.479164 561.1219 85.166664Q560.9969 84.854164 560.6844 84.666664Q560.3719 84.46354 559.95 84.46354Q559.27814 84.46354 558.77814 84.90104Q558.29376 85.322914 558.29376 86.510414L558.29376 89.916664L557.2469 89.916664Z" fill-rule="nonzero"/><path fill="#fbbc04" d="M512.45 104.916664C512.45 104.36438 512.8977 103.916664 513.45 103.916664L523.45 103.916664C524.00226 103.916664 524.45 104.36438 524.45 104.916664L524.45 114.916664C524.45 115.46895 524.00226 115.916664 523.45 115.916664L513.45 115.916664C512.8977 115.916664 512.45 115.46895 512.45 114.916664Z" fill-rule="nonzero"/><path fill="#1a1a1a" d="M533.2469 113.916664L533.2469 107.697914L534.1844 107.697914L534.1844 108.572914Q534.48126 108.104164 534.96564 107.83854Q535.45 107.55729 536.075 107.55729Q536.7625 107.55729 537.2 107.83854Q537.65314 108.11979 537.825 108.635414Q538.575 107.55729 539.7469 107.55729Q540.6844 107.55729 541.16876 108.072914Q541.66876 108.572914 541.66876 109.65104L541.66876 113.916664L540.6219 113.916664L540.6219 109.99479Q540.6219 109.36979 540.5125 109.08854Q540.41876 108.80729 540.15314 108.635414Q539.8875 108.46354 539.5125 108.46354Q538.85626 108.46354 538.41876 108.90104Q537.9969 109.33854 537.9969 110.30729L537.9969 113.916664L536.9344 113.916664L536.9344 109.86979Q536.9344 109.166664 536.66876 108.822914Q536.41876 108.46354 535.84064 108.46354Q535.3875 108.46354 535.0125 108.697914Q534.6375 108.93229 534.46564 109.385414Q534.29376 109.83854 534.29376 110.68229L534.29376 113.916664L533.2469 113.916664ZM543.85626 110.80729Q543.85626 109.072914 544.8094 108.24479Q545.60626 107.55729 546.7625 107.55729Q548.04376 107.55729 548.85626 108.40104Q549.6844 109.229164 549.6844 110.71354Q549.6844 111.916664 549.325 112.604164Q548.96564 113.291664 548.2625 113.68229Q547.575 114.05729 546.7625 114.05729Q545.46564 114.05729 544.65314 113.229164Q543.85626 112.385414 543.85626 110.80729ZM544.9344 110.80729Q544.9344 111.99479 545.45 112.58854Q545.98126 113.18229 546.7625 113.18229Q547.5594 113.18229 548.075 112.58854Q548.59064 111.99479 548.59064 110.77604Q548.59064 109.61979 548.0594 109.02604Q547.54376 108.43229 546.7625 108.43229Q545.98126 108.43229 545.45 109.02604Q544.9344 109.604164 544.9344 110.80729ZM555.27814 113.916664L555.27814 113.135414Q554.6844 114.05729 553.54376 114.05729Q552.79376 114.05729 552.16876 113.65104Q551.54376 113.229164 551.2 112.49479Q550.85626 111.760414 550.85626 110.80729Q550.85626 109.885414 551.16876 109.11979Q551.48126 108.354164 552.10626 107.96354Q552.73126 107.55729 553.4969 107.55729Q554.0594 107.55729 554.4969 107.791664Q554.9344 108.02604 555.21564 108.40104L555.21564 105.322914L556.2625 105.322914L556.2625 113.916664L555.27814 113.916664ZM551.95 110.80729Q551.95 112.010414 552.45 112.604164Q552.95 113.18229 553.6375 113.18229Q554.325 113.18229 554.8094 112.61979Q555.29376 112.05729 555.29376 110.90104Q555.29376 109.61979 554.79376 109.02604Q554.3094 108.43229 553.59064 108.43229Q552.8875 108.43229 552.41876 109.010414Q551.95 109.572914 551.95 110.80729ZM562.4969 111.916664L563.59064 112.041664Q563.34064 112.99479 562.6375 113.52604Q561.9344 114.05729 560.85626 114.05729Q559.4969 114.05729 558.6844 113.21354Q557.8875 112.36979 557.8875 110.854164Q557.8875 109.291664 558.7 108.43229Q559.5125 107.55729 560.79376 107.55729Q562.04376 107.55729 562.825 108.40104Q563.6219 109.24479 563.6219 110.791664Q563.6219 110.885414 563.6219 111.072914L558.98126 111.072914Q559.04376 112.104164 559.5594 112.65104Q560.075 113.18229 560.85626 113.18229Q561.4344 113.18229 561.84064 112.885414Q562.2625 112.572914 562.4969 111.916664ZM559.04376 110.21354L562.5125 110.21354Q562.45 109.416664 562.1219 109.02604Q561.60626 108.416664 560.8094 108.416664Q560.075 108.416664 559.575 108.90104Q559.09064 109.385414 559.04376 110.21354ZM565.23126 113.916664L565.23126 107.697914L566.1844 107.697914L566.1844 108.635414Q566.54376 107.979164 566.84064 107.77604Q567.15314 107.55729 567.52814 107.55729Q568.0594 107.55729 568.60626 107.885414L568.2469 108.86979Q567.85626 108.635414 567.48126 108.635414Q567.1219 108.635414 566.84064 108.854164Q566.575 109.05729 566.46564 109.43229Q566.27814 109.99479 566.27814 110.65104L566.27814 113.916664L565.23126 113.916664ZM569.2469 113.916664L569.2469 107.697914L570.1844 107.697914L570.1844 108.572914Q570.8719 107.55729 572.16876 107.55729Q572.73126 107.55729 573.2 107.760414Q573.6844 107.96354 573.91876 108.291664Q574.15314 108.61979 574.2469 109.05729Q574.29376 109.354164 574.29376 110.08854L574.29376 113.916664L573.2469 113.916664L573.2469 110.135414Q573.2469 109.479164 573.1219 109.166664Q572.9969 108.854164 572.6844 108.666664Q572.3719 108.46354 571.95 108.46354Q571.27814 108.46354 570.77814 108.90104Q570.29376 109.322914 570.29376 110.510414L570.29376 113.916664L569.2469 113.916664ZM580.3094 111.635414L581.34064 111.77604Q581.16876 112.83854 580.46564 113.447914Q579.7625 114.05729 578.7469 114.05729Q577.46564 114.05729 576.6844 113.229164Q575.91876 112.385414 575.91876 110.822914Q575.91876 109.822914 576.2469 109.072914Q576.59064 108.30729 577.2625 107.93229Q577.95 107.55729 578.7625 107.55729Q579.7625 107.55729 580.40314 108.072914Q581.0594 108.572914 581.2469 109.52604L580.21564 109.68229Q580.075 109.05729 579.7 108.74479Q579.325 108.416664 578.79376 108.416664Q577.9969 108.416664 577.4969 108.99479Q576.9969 109.55729 576.9969 110.791664Q576.9969 112.05729 577.48126 112.61979Q577.96564 113.18229 578.73126 113.18229Q579.35626 113.18229 579.7625 112.80729Q580.1844 112.43229 580.3094 111.635414Z" fill-rule="nonzero"/><path fill="#34a853" d="M512.45 128.91667C512.45 128.36438 512.8977 127.916664 513.45 127.916664L523.45 127.916664C524.00226 127.916664 524.45 128.36438 524.45 128.91667L524.45 138.91667C524.45 139.46895 524.00226 139.91667 523.45 139.91667L513.45 139.91667C512.8977 139.91667 512.45 139.46895 512.45 138.91667Z" fill-rule="nonzero"/><path fill="#1a1a1a" d="M533.2469 137.91667L533.2469 131.69792L534.1844 131.69792L534.1844 132.57292Q534.8719 131.5573 536.16876 131.5573Q536.73126 131.5573 537.2 131.76042Q537.6844 131.96355 537.91876 132.29167Q538.15314 132.6198 538.2469 133.0573Q538.29376 133.35417 538.29376 134.08855L538.29376 137.91667L537.2469 137.91667L537.2469 134.13542Q537.2469 133.47917 537.1219 133.16667Q536.9969 132.85417 536.6844 132.66667Q536.3719 132.46355 535.95 132.46355Q535.27814 132.46355 534.77814 132.90105Q534.29376 133.32292 534.29376 134.51042L534.29376 137.91667L533.2469 137.91667ZM544.3094 135.63542L545.34064 135.77605Q545.16876 136.83855 544.46564 137.44792Q543.7625 138.0573 542.7469 138.0573Q541.46564 138.0573 540.6844 137.22917Q539.91876 136.38542 539.91876 134.82292Q539.91876 133.82292 540.2469 133.07292Q540.59064 132.3073 541.2625 131.9323Q541.95 131.5573 542.7625 131.5573Q543.7625 131.5573 544.40314 132.07292Q545.0594 132.57292 545.2469 133.52605L544.21564 133.6823Q544.075 133.0573 543.7 132.7448Q543.325 132.41667 542.79376 132.41667Q541.9969 132.41667 541.4969 132.9948Q540.9969 133.5573 540.9969 134.79167Q540.9969 136.0573 541.48126 136.6198Q541.96564 137.1823 542.73126 137.1823Q543.35626 137.1823 543.7625 136.8073Q544.1844 136.4323 544.3094 135.63542ZM546.23126 137.91667L546.23126 131.69792L547.1844 131.69792L547.1844 132.63542Q547.54376 131.97917 547.84064 131.77605Q548.15314 131.5573 548.52814 131.5573Q549.0594 131.5573 549.60626 131.88542L549.2469 132.8698Q548.85626 132.63542 548.48126 132.63542Q548.1219 132.63542 547.84064 132.85417Q547.575 133.0573 547.46564 133.4323Q547.27814 133.9948 547.27814 134.65105L547.27814 137.91667L546.23126 137.91667ZM554.325 137.91667L554.325 136.9948Q553.59064 138.0573 552.34064 138.0573Q551.79376 138.0573 551.3094 137.85417Q550.84064 137.63542 550.60626 137.32292Q550.3719 136.9948 550.27814 136.52605Q550.21564 136.22917 550.21564 135.54167L550.21564 131.69792L551.27814 131.69792L551.27814 135.15105Q551.27814 135.96355 551.34064 136.26042Q551.4344 136.66667 551.7469 136.91667Q552.075 137.15105 552.5594 137.15105Q553.02814 137.15105 553.4344 136.91667Q553.85626 136.66667 554.02814 136.2448Q554.21564 135.82292 554.21564 135.02605L554.21564 131.69792L555.2625 131.69792L555.2625 137.91667L554.325 137.91667ZM561.3094 135.63542L562.34064 135.77605Q562.16876 136.83855 561.46564 137.44792Q560.7625 138.0573 559.7469 138.0573Q558.46564 138.0573 557.6844 137.22917Q556.91876 136.38542 556.91876 134.82292Q556.91876 133.82292 557.2469 133.07292Q557.59064 132.3073 558.2625 131.9323Q558.95 131.5573 559.7625 131.5573Q560.7625 131.5573 561.40314 132.07292Q562.0594 132.57292 562.2469 133.52605L561.21564 133.6823Q561.075 133.0573 560.7 132.7448Q560.325 132.41667 559.79376 132.41667Q558.9969 132.41667 558.4969 132.9948Q557.9969 133.5573 557.9969 134.79167Q557.9969 136.0573 558.48126 136.6198Q558.96564 137.1823 559.73126 137.1823Q560.35626 137.1823 560.7625 136.8073Q561.1844 136.4323 561.3094 135.63542ZM567.4969 135.91667L568.59064 136.04167Q568.34064 136.9948 567.6375 137.52605Q566.9344 138.0573 565.85626 138.0573Q564.4969 138.0573 563.6844 137.21355Q562.8875 136.3698 562.8875 134.85417Q562.8875 133.29167 563.7 132.4323Q564.5125 131.5573 565.79376 131.5573Q567.04376 131.5573 567.825 132.40105Q568.6219 133.2448 568.6219 134.79167Q568.6219 134.88542 568.6219 135.07292L563.98126 135.07292Q564.04376 136.10417 564.5594 136.65105Q565.075 137.1823 565.85626 137.1823Q566.4344 137.1823 566.84064 136.88542Q567.2625 136.57292 567.4969 135.91667ZM564.04376 134.21355L567.5125 134.21355Q567.45 133.41667 567.1219 133.02605Q566.60626 132.41667 565.8094 132.41667Q565.075 132.41667 564.575 132.90105Q564.09064 133.38542 564.04376 134.21355ZM569.825 136.0573L570.85626 135.90105Q570.95 136.52605 571.34064 136.85417Q571.7469 137.1823 572.48126 137.1823Q573.2 137.1823 573.54376 136.90105Q573.90314 136.60417 573.90314 136.19792Q573.90314 135.83855 573.59064 135.63542Q573.3719 135.4948 572.5125 135.27605Q571.35626 134.97917 570.90314 134.77605Q570.46564 134.5573 570.23126 134.1823Q569.9969 133.8073 569.9969 133.33855Q569.9969 132.9323 570.1844 132.57292Q570.3719 132.21355 570.7 131.97917Q570.95 131.8073 571.3719 131.6823Q571.79376 131.5573 572.29376 131.5573Q573.0125 131.5573 573.5594 131.77605Q574.1219 131.97917 574.3875 132.33855Q574.65314 132.69792 574.7469 133.29167L573.71564 133.4323Q573.65314 132.96355 573.3094 132.69792Q572.98126 132.41667 572.35626 132.41667Q571.6375 132.41667 571.325 132.66667Q571.0125 132.90105 571.0125 133.22917Q571.0125 133.4323 571.1375 133.58855Q571.27814 133.76042 571.54376 133.8698Q571.7 133.9323 572.48126 134.13542Q573.60626 134.44792 574.04376 134.63542Q574.48126 134.82292 574.73126 135.1823Q574.98126 135.54167 574.98126 136.08855Q574.98126 136.6198 574.66876 137.08855Q574.3719 137.54167 573.79376 137.8073Q573.21564 138.0573 572.48126 138.0573Q571.2625 138.0573 570.6219 137.5573Q569.9969 137.04167 569.825 136.0573Z" fill-rule="nonzero"/><path fill="#ff6d01" d="M512.45 152.91667C512.45 152.36438 512.8977 151.91667 513.45 151.91667L523.45 151.91667C524.00226 151.91667 524.45 152.36438 524.45 152.91667L524.45 162.91667C524.45 163.46895 524.00226 163.91667 523.45 163.91667L513.45 163.91667C512.8977 163.91667 512.45 163.46895 512.45 162.91667Z" fill-rule="nonzero"/><path fill="#1a1a1a" d="M532.825 160.0573L533.85626 159.90105Q533.95 160.52605 534.34064 160.85417Q534.7469 161.1823 535.48126 161.1823Q536.2 161.1823 536.54376 160.90105Q536.90314 160.60417 536.90314 160.19792Q536.90314 159.83855 536.59064 159.63542Q536.3719 159.4948 535.5125 159.27605Q534.35626 158.97917 533.90314 158.77605Q533.46564 158.5573 533.23126 158.1823Q532.9969 157.8073 532.9969 157.33855Q532.9969 156.9323 533.1844 156.57292Q533.3719 156.21355 533.7 155.97917Q533.95 155.8073 534.3719 155.6823Q534.79376 155.5573 535.29376 155.5573Q536.0125 155.5573 536.5594 155.77605Q537.1219 155.97917 537.3875 156.33855Q537.65314 156.69792 537.7469 157.29167L536.71564 157.4323Q536.65314 156.96355 536.3094 156.69792Q535.98126 156.41667 535.35626 156.41667Q534.6375 156.41667 534.325 156.66667Q534.0125 156.90105 534.0125 157.22917Q534.0125 157.4323 534.1375 157.58855Q534.27814 157.76042 534.54376 157.8698Q534.7 157.9323 535.48126 158.13542Q536.60626 158.44792 537.04376 158.63542Q537.48126 158.82292 537.73126 159.1823Q537.98126 159.54167 537.98126 160.08855Q537.98126 160.6198 537.66876 161.08855Q537.3719 161.54167 536.79376 161.8073Q536.21564 162.0573 535.48126 162.0573Q534.2625 162.0573 533.6219 161.5573Q532.9969 161.04167 532.825 160.0573ZM544.21564 164.3073L544.21564 161.26042Q543.96564 161.60417 543.5125 161.83855Q543.075 162.0573 542.575 162.0573Q541.46564 162.0573 540.66876 161.1823Q539.8719 160.29167 539.8719 158.7448Q539.8719 157.8073 540.2 157.07292Q540.52814 156.32292 541.1375 155.94792Q541.7625 155.5573 542.4969 155.5573Q543.65314 155.5573 544.3094 156.52605L544.3094 155.69792L545.2625 155.69792L545.2625 164.3073L544.21564 164.3073ZM540.95 158.79167Q540.95 159.9948 541.45 160.58855Q541.96564 161.1823 542.66876 161.1823Q543.34064 161.1823 543.825 160.6198Q544.3094 160.04167 544.3094 158.88542Q544.3094 157.63542 543.79376 157.01042Q543.29376 156.38542 542.59064 156.38542Q541.91876 156.38542 541.4344 156.97917Q540.95 157.5573 540.95 158.79167ZM547.2469 154.54167L547.2469 153.32292L548.3094 153.32292L548.3094 154.54167L547.2469 154.54167ZM547.2469 161.91667L547.2469 155.69792L548.3094 155.69792L548.3094 161.91667L547.2469 161.91667ZM550.2469 161.91667L550.2469 155.69792L551.1844 155.69792L551.1844 156.57292Q551.8719 155.5573 553.16876 155.5573Q553.73126 155.5573 554.2 155.76042Q554.6844 155.96355 554.91876 156.29167Q555.15314 156.6198 555.2469 157.0573Q555.29376 157.35417 555.29376 158.08855L555.29376 161.91667L554.2469 161.91667L554.2469 158.13542Q554.2469 157.47917 554.1219 157.16667Q553.9969 156.85417 553.6844 156.66667Q553.3719 156.46355 552.95 156.46355Q552.27814 156.46355 551.77814 156.90105Q551.29376 157.32292 551.29376 158.51042L551.29376 161.91667L550.2469 161.91667ZM557.2469 161.91667L557.2469 155.69792L558.1844 155.69792L558.1844 156.57292Q558.8719 155.5573 560.16876 155.5573Q560.73126 155.5573 561.2 155.76042Q561.6844 155.96355 561.91876 156.29167Q562.15314 156.6198 562.2469 157.0573Q562.29376 157.35417 562.29376 158.08855L562.29376 161.91667L561.2469 161.91667L561.2469 158.13542Q561.2469 157.47917 561.1219 157.16667Q560.9969 156.85417 560.6844 156.66667Q560.3719 156.46355 559.95 156.46355Q559.27814 156.46355 558.77814 156.90105Q558.29376 157.32292 558.29376 158.51042L558.29376 161.91667L557.2469 161.91667Z" fill-rule="nonzero"/><path fill="#46bdc6" d="M512.45 176.91667C512.45 176.36438 512.8977 175.91667 513.45 175.91667L523.45 175.91667C524.00226 175.91667 524.45 176.36438 524.45 176.91667L524.45 186.91667C524.45 187.46895 524.00226 187.91667 523.45 187.91667L513.45 187.91667C512.8977 187.91667 512.45 187.46895 512.45 186.91667Z" fill-rule="nonzero"/><path fill="#1a1a1a" d="M532.6844 185.91667L532.6844 185.0573L536.65314 180.51042Q535.96564 180.54167 535.45 180.54167L532.91876 180.54167L532.91876 179.69792L538.0125 179.69792L538.0125 180.38542L534.6375 184.33855L533.98126 185.0573Q534.7 185.01042 535.3094 185.01042L538.2 185.01042L538.2 185.91667L532.6844 185.91667ZM537.85626 182.8073Q537.85626 181.07292 538.8094 180.2448Q539.60626 179.5573 540.7625 179.5573Q542.04376 179.5573 542.85626 180.40105Q543.6844 181.22917 543.6844 182.71355Q543.6844 183.91667 543.325 184.60417Q542.96564 185.29167 542.2625 185.6823Q541.575 186.0573 540.7625 186.0573Q539.46564 186.0573 538.65314 185.22917Q537.85626 184.38542 537.85626 182.8073ZM538.9344 182.8073Q538.9344 183.9948 539.45 184.58855Q539.98126 185.1823 540.7625 185.1823Q541.5594 185.1823 542.075 184.58855Q542.59064 183.9948 542.59064 182.77605Q542.59064 181.6198 542.0594 181.02605Q541.54376 180.4323 540.7625 180.4323Q539.98126 180.4323 539.45 181.02605Q538.9344 181.60417 538.9344 182.8073ZM545.2469 185.91667L545.2469 179.69792L546.1844 179.69792L546.1844 180.57292Q546.48126 180.10417 546.96564 179.83855Q547.45 179.5573 548.075 179.5573Q548.7625 179.5573 549.2 179.83855Q549.65314 180.1198 549.825 180.63542Q550.575 179.5573 551.7469 179.5573Q552.6844 179.5573 553.16876 180.07292Q553.66876 180.57292 553.66876 181.65105L553.66876 185.91667L552.6219 185.91667L552.6219 181.9948Q552.6219 181.3698 552.5125 181.08855Q552.41876 180.8073 552.15314 180.63542Q551.8875 180.46355 551.5125 180.46355Q550.85626 180.46355 550.41876 180.90105Q549.9969 181.33855 549.9969 182.3073L549.9969 185.91667L548.9344 185.91667L548.9344 181.8698Q548.9344 181.16667 548.66876 180.82292Q548.41876 180.46355 547.84064 180.46355Q547.3875 180.46355 547.0125 180.69792Q546.6375 180.9323 546.46564 181.38542Q546.29376 181.83855 546.29376 182.6823L546.29376 185.91667L545.2469 185.91667ZM557.21564 185.91667L556.23126 185.91667L556.23126 177.32292L557.29376 177.32292L557.29376 180.38542Q557.96564 179.5573 558.9969 179.5573Q559.575 179.5573 560.075 179.79167Q560.59064 180.01042 560.91876 180.4323Q561.2625 180.85417 561.45 181.44792Q561.6375 182.04167 561.6375 182.71355Q561.6375 184.3073 560.84064 185.1823Q560.04376 186.0573 558.95 186.0573Q557.84064 186.0573 557.21564 185.13542L557.21564 185.91667ZM557.2 182.76042Q557.2 183.8698 557.5125 184.3698Q558.0125 185.1823 558.85626 185.1823Q559.54376 185.1823 560.04376 184.58855Q560.5594 183.9948 560.5594 182.79167Q560.5594 181.57292 560.075 180.9948Q559.59064 180.41667 558.90314 180.41667Q558.21564 180.41667 557.7 181.02605Q557.2 181.6198 557.2 182.76042ZM563.2469 178.54167L563.2469 177.32292L564.3094 177.32292L564.3094 178.54167L563.2469 178.54167ZM563.2469 185.91667L563.2469 179.69792L564.3094 179.69792L564.3094 185.91667L563.2469 185.91667ZM570.4969 183.91667L571.59064 184.04167Q571.34064 184.9948 570.6375 185.52605Q569.9344 186.0573 568.85626 186.0573Q567.4969 186.0573 566.6844 185.21355Q565.8875 184.3698 565.8875 182.85417Q565.8875 181.29167 566.7 180.4323Q567.5125 179.5573 568.79376 179.5573Q570.04376 179.5573 570.825 180.40105Q571.6219 181.2448 571.6219 182.79167Q571.6219 182.88542 571.6219 183.07292L566.98126 183.07292Q567.04376 184.10417 567.5594 184.65105Q568.075 185.1823 568.85626 185.1823Q569.4344 185.1823 569.84064 184.88542Q570.2625 184.57292 570.4969 183.91667ZM567.04376 182.21355L570.5125 182.21355Q570.45 181.41667 570.1219 181.02605Q569.60626 180.41667 568.8094 180.41667Q568.075 180.41667 567.575 180.90105Q567.09064 181.38542 567.04376 182.21355Z" fill-rule="nonzero"/><path fill="#757575" d="M275.96875 37.55L275.96875 23.2375L277.85938 23.2375L277.85938 35.8625L284.90625 35.8625L284.90625 37.55L275.96875 37.55ZM293.59375 36.26875Q292.60938 37.096874 291.70312 37.440624Q290.79688 37.784374 289.76562 37.784374Q288.0625 37.784374 287.14062 36.95625Q286.21875 36.1125 286.21875 34.815624Q286.21875 34.05 286.5625 33.425Q286.92188 32.8 287.48438 32.425Q288.04688 32.034374 288.75 31.83125Q289.26562 31.70625 290.3125 31.565624Q292.4375 31.315624 293.4375 30.971874Q293.45312 30.6125 293.45312 30.503124Q293.45312 29.440624 292.95312 28.9875Q292.28125 28.39375 290.95312 28.39375Q289.70312 28.39375 289.10938 28.83125Q288.53125 29.26875 288.25 30.378124L286.53125 30.14375Q286.76562 29.034374 287.29688 28.3625Q287.82812 27.675 288.84375 27.315624Q289.85938 26.940624 291.20312 26.940624Q292.53125 26.940624 293.35938 27.253124Q294.1875 27.565624 294.57812 28.05Q294.96875 28.51875 295.125 29.2375Q295.21875 29.690624 295.21875 30.8625L295.21875 33.20625Q295.21875 35.659374 295.32812 36.315624Q295.4375 36.95625 295.78125 37.55L293.9375 37.55Q293.67188 37.003124 293.59375 36.26875ZM293.4375 32.346874Q292.48438 32.7375 290.5625 33.003124Q289.48438 33.159374 289.03125 33.3625Q288.59375 33.55 288.34375 33.925Q288.09375 34.3 288.09375 34.76875Q288.09375 35.471874 288.625 35.940624Q289.15625 36.409374 290.1875 36.409374Q291.20312 36.409374 291.98438 35.971874Q292.78125 35.51875 293.15625 34.753124Q293.4375 34.14375 293.4375 32.9875L293.4375 32.346874ZM297.79688 37.55L297.79688 27.175L299.375 27.175L299.375 28.753124Q299.98438 27.64375 300.5 27.3Q301.01562 26.940624 301.625 26.940624Q302.51562 26.940624 303.4375 27.503124L302.82812 29.14375Q302.1875 28.753124 301.54688 28.753124Q300.96875 28.753124 300.5 29.1125Q300.04688 29.45625 299.84375 30.065624Q299.5625 31.003124 299.5625 32.1125L299.5625 37.55L297.79688 37.55ZM304.5 38.409374L306.20312 38.659374Q306.3125 39.45625 306.79688 39.815624Q307.45312 40.3 308.59375 40.3Q309.8125 40.3 310.46875 39.815624Q311.14062 39.33125 311.375 38.45625Q311.51562 37.909374 311.5 36.190624Q310.34375 37.55 308.625 37.55Q306.48438 37.55 305.3125 36.003124Q304.14062 34.45625 304.14062 32.3Q304.14062 30.815624 304.67188 29.565624Q305.21875 28.315624 306.23438 27.628124Q307.26562 26.940624 308.64062 26.940624Q310.46875 26.940624 311.67188 28.425L311.67188 27.175L313.28125 27.175L313.28125 36.14375Q313.28125 38.565624 312.78125 39.565624Q312.29688 40.58125 311.21875 41.159374Q310.15625 41.753124 308.59375 41.753124Q306.75 41.753124 305.59375 40.925Q304.45312 40.096874 304.5 38.409374ZM305.95312 32.175Q305.95312 34.221874 306.76562 35.159374Q307.57812 36.096874 308.79688 36.096874Q310.0 36.096874 310.8125 35.159374Q311.64062 34.221874 311.64062 32.2375Q311.64062 30.33125 310.79688 29.3625Q309.95312 28.39375 308.76562 28.39375Q307.59375 28.39375 306.76562 29.346874Q305.95312 30.3 305.95312 32.175ZM322.92188 34.20625L324.73438 34.440624Q324.3125 36.01875 323.14062 36.909374Q321.98438 37.784374 320.17188 37.784374Q317.90625 37.784374 316.5625 36.39375Q315.23438 34.9875 315.23438 32.45625Q315.23438 29.83125 316.57812 28.39375Q317.92188 26.940624 320.07812 26.940624Q322.15625 26.940624 323.46875 28.3625Q324.79688 29.76875 324.79688 32.346874Q324.79688 32.503124 324.78125 32.815624L317.04688 32.815624Q317.14062 34.51875 318.01562 35.425Q318.89062 36.33125 320.1875 36.33125Q321.15625 36.33125 321.82812 35.83125Q322.51562 35.315624 322.92188 34.20625ZM317.14062 31.3625L322.9375 31.3625Q322.82812 30.065624 322.28125 29.409374Q321.4375 28.39375 320.09375 28.39375Q318.89062 28.39375 318.0625 29.20625Q317.23438 30.003124 317.14062 31.3625Z" fill-rule="nonzero"/></svg>