<svg version="1.1" viewBox="0.0 0.0 600.0 371.0" fill="none" stroke="none" stroke-linecap="square" stroke-miterlimit="10" width="600" height="371" xmlns:xlink="http://www.w3.org/1999/xlink" xmlns="http://www.w3.org/2000/svg"><path fill="#ffffff" d="M0 0L600.0 0L600.0 371.0L0 371.0L0 0Z" fill-rule="nonzero"/><path stroke="#333333" stroke-width="1.0" stroke-linecap="butt" d="M52.5 332.5L490.5 332.5" fill-rule="nonzero"/><path stroke="#cccccc" stroke-width="1.0" stroke-linecap="butt" d="M52.5 242.5L490.5 242.5" fill-rule="nonzero"/><path stroke="#cccccc" stroke-width="1.0" stroke-linecap="butt" d="M52.5 152.5L490.5 152.5" fill-rule="nonzero"/><path stroke="#cccccc" stroke-width="1.0" stroke-linecap="butt" d="M52.5 61.5L490.5 61.5" fill-rule="nonzero"/><clipPath id="id_0"><path d="M52.55 61.916668L490.61444 61.916668L490.61444 332.45L52.55 332.45L52.55 61.916668Z" clip-rule="nonzero"/></clipPath><path stroke="#000000" stroke-width="2.0" stroke-linecap="butt" stroke-opacity="0.0" clip-path="url(#id_0)" d="M107.0 332.0L98.0 332.0L98.0 329.0C98.0 327.89542 98.89543 327.0 100.0 327.0L105.0 327.0C106.10457 327.0 107.0 327.89542 107.0 329.0Z" fill-rule="nonzero"/><path fill="#4285f4" clip-path="url(#id_0)" d="M107.0 332.0L98.0 332.0L98.0 329.0C98.0 327.89542 98.89543 327.0 100.0 327.0L105.0 327.0C106.10457 327.0 107.0 327.89542 107.0 329.0Z" fill-rule="nonzero"/><path stroke="#000000" stroke-width="2.0" stroke-linecap="butt" stroke-opacity="0.0" clip-path="url(#id_0)" d="M238.0 332.0L229.0 332.0L229.0 320.0C229.0 318.89542 229.89543 318.0 231.0 318.0L236.0 318.0C237.10457 318.0 238.0 318.89542 238.0 320.0Z" fill-rule="nonzero"/><path fill="#4285f4" clip-path="url(#id_0)" d="M238.0 332.0L229.0 332.0L229.0 320.0C229.0 318.89542 229.89543 318.0 231.0 318.0L236.0 318.0C237.10457 318.0 238.0 318.89542 238.0 320.0Z" fill-rule="nonzero"/><path stroke="#000000" stroke-width="2.0" stroke-linecap="butt" stroke-opacity="0.0" clip-path="url(#id_0)" d="M368.0 332.0L359.0 332.0L359.0 228.0C359.0 226.89543 359.89542 226.0 361.0 226.0L366.0 226.0C367.10458 226.0 368.0 226.89543 368.0 228.0Z" fill-rule="nonzero"/><path fill="#4285f4" clip-path="url(#id_0)" d="M368.0 332.0L359.0 332.0L359.0 228.0C359.0 226.89543 359.89542 226.0 361.0 226.0L366.0 226.0C367.10458 226.0 368.0 226.89543 368.0 228.0Z" fill-rule="nonzero"/><path stroke="#000000" stroke-width="2.0" stroke-linecap="butt" stroke-opacity="0.0" clip-path="url(#id_0)" d="M118.0 332.0L109.0 332.0L109.0 330.5C109.0 329.67157 109.67157 329.0 110.5 329.0L116.5 329.0C117.32843 329.0 118.0 329.67157 118.0 330.5Z" fill-rule="nonzero"/><path fill="#ea4335" clip-path="url(#id_0)" d="M118.0 332.0L109.0 332.0L109.0 330.5C109.0 329.67157 109.67157 329.0 110.5 329.0L116.5 329.0C117.32843 329.0 118.0 329.67157 118.0 330.5Z" fill-rule="nonzero"/><path stroke="#000000" stroke-width="2.0" stroke-linecap="butt" stroke-opacity="0.0" clip-path="url(#id_0)" d="M249.0 332.0L240.0 332.0L240.0 321.0C240.0 319.89542 240.89543 319.0 242.0 319.0L247.0 319.0C248.10457 319.0 249.0 319.89542 249.0 321.0Z" fill-rule="nonzero"/><path fill="#ea4335" clip-path="url(#id_0)" d="M249.0 332.0L240.0 332.0L240.0 321.0C240.0 319.89542 240.89543 319.0 242.0 319.0L247.0 319.0C248.10457 319.0 249.0 319.89542 249.0 321.0Z" fill-rule="nonzero"/><path stroke="#000000" stroke-width="2.0" stroke-linecap="butt" stroke-opacity="0.0" clip-path="url(#id_0)" d="M379.0 332.0L370.0 332.0L370.0 205.0C370.0 203.89543 370.89542 203.0 372.0 203.0L377.0 203.0C378.10458 203.0 379.0 203.89543 379.0 205.0Z" fill-rule="nonzero"/><path fill="#ea4335" clip-path="url(#id_0)" d="M379.0 332.0L370.0 332.0L370.0 205.0C370.0 203.89543 370.89542 203.0 372.0 203.0L377.0 203.0C378.10458 203.0 379.0 203.89543 379.0 205.0Z" fill-rule="nonzero"/><path stroke="#000000" stroke-width="2.0" stroke-linecap="butt" stroke-opacity="0.0" clip-path="url(#id_0)" d="M129.0 332.0L120.0 332.0L120.0 330.0C120.0 328.89542 120.89543 328.0 122.0 328.0L127.0 328.0C128.10457 328.0 129.0 328.89542 129.0 330.0Z" fill-rule="nonzero"/><path fill="#fbbc04" clip-path="url(#id_0)" d="M129.0 332.0L120.0 332.0L120.0 330.0C120.0 328.89542 120.89543 328.0 122.0 328.0L127.0 328.0C128.10457 328.0 129.0 328.89542 129.0 330.0Z" fill-rule="nonzero"/><path stroke="#000000" stroke-width="2.0" stroke-linecap="butt" stroke-opacity="0.0" clip-path="url(#id_0)" d="M260.0 332.0L251.0 332.0L251.0 319.0C251.0 317.89542 251.89543 317.0 253.0 317.0L258.0 317.0C259.10458 317.0 260.0 317.89542 260.0 319.0Z" fill-rule="nonzero"/><path fill="#fbbc04" clip-path="url(#id_0)" d="M260.0 332.0L251.0 332.0L251.0 319.0C251.0 317.89542 251.89543 317.0 253.0 317.0L258.0 317.0C259.10458 317.0 260.0 317.89542 260.0 319.0Z" fill-rule="nonzero"/><path stroke="#000000" stroke-width="2.0" stroke-linecap="butt" stroke-opacity="0.0" clip-path="url(#id_0)" d="M390.0 332.0L381.0 332.0L381.0 174.0C381.0 172.89543 381.89542 172.0 383.0 172.0L388.0 172.0C389.10458 172.0 390.0 172.89543 390.0 174.0Z" fill-rule="nonzero"/><path fill="#fbbc04" clip-path="url(#id_0)" d="M390.0 332.0L381.0 332.0L381.0 174.0C381.0 172.89543 381.89542 172.0 383.0 172.0L388.0 172.0C389.10458 172.0 390.0 172.89543 390.0 174.0Z" fill-rule="nonzero"/><path stroke="#000000" stroke-width="2.0" stroke-linecap="butt" stroke-opacity="0.0" clip-path="url(#id_0)" d="M140.0 332.0L131.0 332.0L131.0 329.0C131.0 327.89542 131.89543 327.0 133.0 327.0L138.0 327.0C139.10457 327.0 140.0 327.89542 140.0 329.0Z" fill-rule="nonzero"/><path fill="#34a853" clip-path="url(#id_0)" d="M140.0 332.0L131.0 332.0L131.0 329.0C131.0 327.89542 131.89543 327.0 133.0 327.0L138.0 327.0C139.10457 327.0 140.0 327.89542 140.0 329.0Z" fill-rule="nonzero"/><path stroke="#000000" stroke-width="2.0" stroke-linecap="butt" stroke-opacity="0.0" clip-path="url(#id_0)" d="M271.0 332.0L262.0 332.0L262.0 319.0C262.0 317.89542 262.89542 317.0 264.0 317.0L269.0 317.0C270.10458 317.0 271.0 317.89542 271.0 319.0Z" fill-rule="nonzero"/><path fill="#34a853" clip-path="url(#id_0)" d="M271.0 332.0L262.0 332.0L262.0 319.0C262.0 317.89542 262.89542 317.0 264.0 317.0L269.0 317.0C270.10458 317.0 271.0 317.89542 271.0 319.0Z" fill-rule="nonzero"/><path stroke="#000000" stroke-width="2.0" stroke-linecap="butt" stroke-opacity="0.0" clip-path="url(#id_0)" d="M401.0 332.0L392.0 332.0L392.0 145.0C392.0 143.89543 392.89542 143.0 394.0 143.0L399.0 143.0C400.10458 143.0 401.0 143.89543 401.0 145.0Z" fill-rule="nonzero"/><path fill="#34a853" clip-path="url(#id_0)" d="M401.0 332.0L392.0 332.0L392.0 145.0C392.0 143.89543 392.89542 143.0 394.0 143.0L399.0 143.0C400.10458 143.0 401.0 143.89543 401.0 145.0Z" fill-rule="nonzero"/><path stroke="#000000" stroke-width="2.0" stroke-linecap="butt" stroke-opacity="0.0" clip-path="url(#id_0)" d="M151.0 332.0L142.0 332.0L142.0 328.0C142.0 326.89542 142.89543 326.0 144.0 326.0L149.0 326.0C150.10457 326.0 151.0 326.89542 151.0 328.0Z" fill-rule="nonzero"/><path fill="#ff6d01" clip-path="url(#id_0)" d="M151.0 332.0L142.0 332.0L142.0 328.0C142.0 326.89542 142.89543 326.0 144.0 326.0L149.0 326.0C150.10457 326.0 151.0 326.89542 151.0 328.0Z" fill-rule="nonzero"/><path stroke="#000000" stroke-width="2.0" stroke-linecap="butt" stroke-opacity="0.0" clip-path="url(#id_0)" d="M282.0 332.0L273.0 332.0L273.0 318.0C273.0 316.89542 273.89542 316.0 275.0 316.0L280.0 316.0C281.10458 316.0 282.0 316.89542 282.0 318.0Z" fill-rule="nonzero"/><path fill="#ff6d01" clip-path="url(#id_0)" d="M282.0 332.0L273.0 332.0L273.0 318.0C273.0 316.89542 273.89542 316.0 275.0 316.0L280.0 316.0C281.10458 316.0 282.0 316.89542 282.0 318.0Z" fill-rule="nonzero"/><path stroke="#000000" stroke-width="2.0" stroke-linecap="butt" stroke-opacity="0.0" clip-path="url(#id_0)" d="M412.0 332.0L403.0 332.0L403.0 130.0C403.0 128.89543 403.89542 128.0 405.0 128.0L410.0 128.0C411.10458 128.0 412.0 128.89543 412.0 130.0Z" fill-rule="nonzero"/><path fill="#ff6d01" clip-path="url(#id_0)" d="M412.0 332.0L403.0 332.0L403.0 130.0C403.0 128.89543 403.89542 128.0 405.0 128.0L410.0 128.0C411.10458 128.0 412.0 128.89543 412.0 130.0Z" fill-rule="nonzero"/><path stroke="#000000" stroke-width="2.0" stroke-linecap="butt" stroke-opacity="0.0" clip-path="url(#id_0)" d="M162.0 332.0L153.0 332.0L153.0 330.0C153.0 328.89542 153.89543 328.0 155.0 328.0L160.0 328.0C161.10457 328.0 162.0 328.89542 162.0 330.0Z" fill-rule="nonzero"/><path fill="#46bdc6" clip-path="url(#id_0)" d="M162.0 332.0L153.0 332.0L153.0 330.0C153.0 328.89542 153.89543 328.0 155.0 328.0L160.0 328.0C161.10457 328.0 162.0 328.89542 162.0 330.0Z" fill-rule="nonzero"/><path stroke="#000000" stroke-width="2.0" stroke-linecap="butt" stroke-opacity="0.0" clip-path="url(#id_0)" d="M293.0 332.0L284.0 332.0L284.0 321.0C284.0 319.89542 284.89542 319.0 286.0 319.0L291.0 319.0C292.10458 319.0 293.0 319.89542 293.0 321.0Z" fill-rule="nonzero"/><path fill="#46bdc6" clip-path="url(#id_0)" d="M293.0 332.0L284.0 332.0L284.0 321.0C284.0 319.89542 284.89542 319.0 286.0 319.0L291.0 319.0C292.10458 319.0 293.0 319.89542 293.0 321.0Z" fill-rule="nonzero"/><path stroke="#000000" stroke-width="2.0" stroke-linecap="butt" stroke-opacity="0.0" clip-path="url(#id_0)" d="M423.0 332.0L414.0 332.0L414.0 180.0C414.0 178.89543 414.89542 178.0 416.0 178.0L421.0 178.0C422.10458 178.0 423.0 178.89543 423.0 180.0Z" fill-rule="nonzero"/><path fill="#46bdc6" clip-path="url(#id_0)" d="M423.0 332.0L414.0 332.0L414.0 180.0C414.0 178.89543 414.89542 178.0 416.0 178.0L421.0 178.0C422.10458 178.0 423.0 178.89543 423.0 180.0Z" fill-rule="nonzero"/><path stroke="#000000" stroke-width="2.0" stroke-linecap="butt" stroke-opacity="0.0" clip-path="url(#id_0)" d="M173.0 332.0L164.0 332.0L164.0 324.0C164.0 322.89542 164.89543 322.0 166.0 322.0L171.0 322.0C172.10457 322.0 173.0 322.89542 173.0 324.0Z" fill-rule="nonzero"/><path fill="#7baaf7" clip-path="url(#id_0)" d="M173.0 332.0L164.0 332.0L164.0 324.0C164.0 322.89542 164.89543 322.0 166.0 322.0L171.0 322.0C172.10457 322.0 173.0 322.89542 173.0 324.0Z" fill-rule="nonzero"/><path stroke="#000000" stroke-width="2.0" stroke-linecap="butt" stroke-opacity="0.0" clip-path="url(#id_0)" d="M304.0 332.0L295.0 332.0L295.0 309.0C295.0 307.89542 295.89542 307.0 297.0 307.0L302.0 307.0C303.10458 307.0 304.0 307.89542 304.0 309.0Z" fill-rule="nonzero"/><path fill="#7baaf7" clip-path="url(#id_0)" d="M304.0 332.0L295.0 332.0L295.0 309.0C295.0 307.89542 295.89542 307.0 297.0 307.0L302.0 307.0C303.10458 307.0 304.0 307.89542 304.0 309.0Z" fill-rule="nonzero"/><path stroke="#000000" stroke-width="2.0" stroke-linecap="butt" stroke-opacity="0.0" clip-path="url(#id_0)" d="M434.0 332.0L425.0 332.0L425.0 92.0C425.0 90.89543 425.89542 90.0 427.0 90.0L432.0 90.0C433.10458 90.0 434.0 90.89543 434.0 92.0Z" fill-rule="nonzero"/><path fill="#7baaf7" clip-path="url(#id_0)" d="M434.0 332.0L425.0 332.0L425.0 92.0C425.0 90.89543 425.89542 90.0 427.0 90.0L432.0 90.0C433.10458 90.0 434.0 90.89543 434.0 92.0Z" fill-rule="nonzero"/><path stroke="#000000" stroke-width="2.0" stroke-linecap="butt" stroke-opacity="0.0" clip-path="url(#id_0)" d="M184.0 332.0L175.0 332.0L175.0 330.5C175.0 329.67157 175.67157 329.0 176.5 329.0L182.5 329.0C183.32843 329.0 184.0 329.67157 184.0 330.5Z" fill-rule="nonzero"/><path fill="#f07b72" clip-path="url(#id_0)" d="M184.0 332.0L175.0 332.0L175.0 330.5C175.0 329.67157 175.67157 329.0 176.5 329.0L182.5 329.0C183.32843 329.0 184.0 329.67157 184.0 330.5Z" fill-rule="nonzero"/><path stroke="#000000" stroke-width="2.0" stroke-linecap="butt" stroke-opacity="0.0" clip-path="url(#id_0)" d="M315.0 332.0L306.0 332.0L306.0 329.0C306.0 327.89542 306.89542 327.0 308.0 327.0L313.0 327.0C314.10458 327.0 315.0 327.89542 315.0 329.0Z" fill-rule="nonzero"/><path fill="#f07b72" clip-path="url(#id_0)" d="M315.0 332.0L306.0 332.0L306.0 329.0C306.0 327.89542 306.89542 327.0 308.0 327.0L313.0 327.0C314.10458 327.0 315.0 327.89542 315.0 329.0Z" fill-rule="nonzero"/><path stroke="#000000" stroke-width="2.0" stroke-linecap="butt" stroke-opacity="0.0" clip-path="url(#id_0)" d="M445.0 332.0L436.0 332.0L436.0 277.0C436.0 275.89542 436.89542 275.0 438.0 275.0L443.0 275.0C444.10458 275.0 445.0 275.89542 445.0 277.0Z" fill-rule="nonzero"/><path fill="#f07b72" clip-path="url(#id_0)" d="M445.0 332.0L436.0 332.0L436.0 277.0C436.0 275.89542 436.89542 275.0 438.0 275.0L443.0 275.0C444.10458 275.0 445.0 275.89542 445.0 277.0Z" fill-rule="nonzero"/><path fill="#000000" d="M40.05 332.21564Q40.05 330.6844 40.3625 329.7625Q40.675 328.825 41.284374 328.325Q41.909374 327.825 42.846874 327.825Q43.534374 327.825 44.05 328.10626Q44.58125 328.3875 44.925 328.91876Q45.26875 329.4344 45.45625 330.1844Q45.64375 330.9344 45.64375 332.21564Q45.64375 333.73126 45.33125 334.65314Q45.034374 335.575 44.409374 336.09064Q43.8 336.59064 42.846874 336.59064Q41.6125 336.59064 40.89375 335.7Q40.05 334.6375 40.05 332.21564ZM41.128124 332.21564Q41.128124 334.325 41.628124 335.02814Q42.128124 335.73126 42.846874 335.73126Q43.58125 335.73126 44.065624 335.02814Q44.565624 334.325 44.565624 332.21564Q44.565624 330.09064 44.065624 329.40314Q43.58125 328.7 42.83125 328.7Q42.1125 328.7 41.675 329.3094Q41.128124 330.09064 41.128124 332.21564Z" fill-rule="nonzero"/><path fill="#000000" d="M23.01875 246.27222L21.971874 246.27222L21.971874 239.55347Q21.58125 239.91284 20.95625 240.28784Q20.346874 240.64722 19.8625 240.81909L19.8625 239.80347Q20.7375 239.38159 21.39375 238.80347Q22.065624 238.20972 22.346874 237.64722L23.01875 237.64722L23.01875 246.27222ZM26.05 242.03784Q26.05 240.50659 26.3625 239.58472Q26.675 238.64722 27.284374 238.14722Q27.909374 237.64722 28.846874 237.64722Q29.534374 237.64722 30.05 237.92847Q30.58125 238.20972 30.925 238.74097Q31.26875 239.25659 31.45625 240.00659Q31.64375 240.75659 31.64375 242.03784Q31.64375 243.55347 31.33125 244.47534Q31.034374 245.39722 30.409374 245.91284Q29.8 246.41284 28.846874 246.41284Q27.6125 246.41284 26.89375 245.52222Q26.05 244.45972 26.05 242.03784ZM27.128124 242.03784Q27.128124 244.14722 27.628124 244.85034Q28.128124 245.55347 28.846874 245.55347Q29.58125 245.55347 30.065624 244.85034Q30.565624 244.14722 30.565624 242.03784Q30.565624 239.91284 30.065624 239.22534Q29.58125 238.52222 28.83125 238.52222Q28.1125 238.52222 27.675 239.13159Q27.128124 239.91284 27.128124 242.03784ZM33.05 242.03784Q33.05 240.50659 33.3625 239.58472Q33.675 238.64722 34.284374 238.14722Q34.909374 237.64722 35.846874 237.64722Q36.534374 237.64722 37.05 237.92847Q37.58125 238.20972 37.925 238.74097Q38.26875 239.25659 38.45625 240.00659Q38.64375 240.75659 38.64375 242.03784Q38.64375 243.55347 38.33125 244.47534Q38.034374 245.39722 37.409374 245.91284Q36.8 246.41284 35.846874 246.41284Q34.6125 246.41284 33.89375 245.52222Q33.05 244.45972 33.05 242.03784ZM34.128124 242.03784Q34.128124 244.14722 34.628124 244.85034Q35.128124 245.55347 35.846874 245.55347Q36.58125 245.55347 37.065624 244.85034Q37.565624 244.14722 37.565624 242.03784Q37.565624 239.91284 37.065624 239.22534Q36.58125 238.52222 35.83125 238.52222Q35.1125 238.52222 34.675 239.13159Q34.128124 239.91284 34.128124 242.03784ZM40.05 242.03784Q40.05 240.50659 40.3625 239.58472Q40.675 238.64722 41.284374 238.14722Q41.909374 237.64722 42.846874 237.64722Q43.534374 237.64722 44.05 237.92847Q44.58125 238.20972 44.925 238.74097Q45.26875 239.25659 45.45625 240.00659Q45.64375 240.75659 45.64375 242.03784Q45.64375 243.55347 45.33125 244.47534Q45.034374 245.39722 44.409374 245.91284Q43.8 246.41284 42.846874 246.41284Q41.6125 246.41284 40.89375 245.52222Q40.05 244.45972 40.05 242.03784ZM41.128124 242.03784Q41.128124 244.14722 41.628124 244.85034Q42.128124 245.55347 42.846874 245.55347Q43.58125 245.55347 44.065624 244.85034Q44.565624 244.14722 44.565624 242.03784Q44.565624 239.91284 44.065624 239.22534Q43.58125 238.52222 42.83125 238.52222Q42.1125 238.52222 41.675 239.13159Q41.128124 239.91284 41.128124 242.03784Z" fill-rule="nonzero"/><path fill="#000000" d="M24.596874 155.07883L24.596874 156.09445L18.909374 156.09445Q18.909374 155.71945 19.034374 155.36008Q19.253124 154.78195 19.721874 154.21945Q20.20625 153.65695 21.1125 152.92258Q22.51875 151.76633 23.003124 151.09445Q23.503124 150.42258 23.503124 149.82883Q23.503124 149.20383 23.05 148.78195Q22.596874 148.34445 21.878124 148.34445Q21.1125 148.34445 20.659374 148.79758Q20.20625 149.2507 20.190624 150.0632L19.1125 149.95383Q19.221874 148.73508 19.940624 148.11008Q20.675 147.46945 21.909374 147.46945Q23.14375 147.46945 23.8625 148.15695Q24.58125 148.84445 24.58125 149.86008Q24.58125 150.3757 24.3625 150.8757Q24.159374 151.36008 23.659374 151.92258Q23.175 152.46945 22.05 153.42258Q21.096874 154.21945 20.815624 154.51633Q20.55 154.79758 20.378124 155.07883L24.596874 155.07883ZM26.05 151.86008Q26.05 150.32883 26.3625 149.40695Q26.675 148.46945 27.284374 147.96945Q27.909374 147.46945 28.846874 147.46945Q29.534374 147.46945 30.05 147.7507Q30.58125 148.03195 30.925 148.5632Q31.26875 149.07883 31.45625 149.82883Q31.64375 150.57883 31.64375 151.86008Q31.64375 153.3757 31.33125 154.29758Q31.034374 155.21945 30.409374 155.73508Q29.8 156.23508 28.846874 156.23508Q27.6125 156.23508 26.89375 155.34445Q26.05 154.28195 26.05 151.86008ZM27.128124 151.86008Q27.128124 153.96945 27.628124 154.67258Q28.128124 155.3757 28.846874 155.3757Q29.58125 155.3757 30.065624 154.67258Q30.565624 153.96945 30.565624 151.86008Q30.565624 149.73508 30.065624 149.04758Q29.58125 148.34445 28.83125 148.34445Q28.1125 148.34445 27.675 148.95383Q27.128124 149.73508 27.128124 151.86008ZM33.05 151.86008Q33.05 150.32883 33.3625 149.40695Q33.675 148.46945 34.284374 147.96945Q34.909374 147.46945 35.846874 147.46945Q36.534374 147.46945 37.05 147.7507Q37.58125 148.03195 37.925 148.5632Q38.26875 149.07883 38.45625 149.82883Q38.64375 150.57883 38.64375 151.86008Q38.64375 153.3757 38.33125 154.29758Q38.034374 155.21945 37.409374 155.73508Q36.8 156.23508 35.846874 156.23508Q34.6125 156.23508 33.89375 155.34445Q33.05 154.28195 33.05 151.86008ZM34.128124 151.86008Q34.128124 153.96945 34.628124 154.67258Q35.128124 155.3757 35.846874 155.3757Q36.58125 155.3757 37.065624 154.67258Q37.565624 153.96945 37.565624 151.86008Q37.565624 149.73508 37.065624 149.04758Q36.58125 148.34445 35.83125 148.34445Q35.1125 148.34445 34.675 148.95383Q34.128124 149.73508 34.128124 151.86008ZM40.05 151.86008Q40.05 150.32883 40.3625 149.40695Q40.675 148.46945 41.284374 147.96945Q41.909374 147.46945 42.846874 147.46945Q43.534374 147.46945 44.05 147.7507Q44.58125 148.03195 44.925 148.5632Q45.26875 149.07883 45.45625 149.82883Q45.64375 150.57883 45.64375 151.86008Q45.64375 153.3757 45.33125 154.29758Q45.034374 155.21945 44.409374 155.73508Q43.8 156.23508 42.846874 156.23508Q41.6125 156.23508 40.89375 155.34445Q40.05 154.28195 40.05 151.86008ZM41.128124 151.86008Q41.128124 153.96945 41.628124 154.67258Q42.128124 155.3757 42.846874 155.3757Q43.58125 155.3757 44.065624 154.67258Q44.565624 153.96945 44.565624 151.86008Q44.565624 149.73508 44.065624 149.04758Q43.58125 148.34445 42.83125 148.34445Q42.1125 148.34445 41.675 148.95383Q41.128124 149.73508 41.128124 151.86008Z" fill-rule="nonzero"/><path fill="#000000" d="M19.05 63.65104L20.1125 63.510414Q20.284374 64.40104 20.721874 64.80729Q21.159374 65.197914 21.784374 65.197914Q22.534374 65.197914 23.05 64.68229Q23.565624 64.166664 23.565624 63.40104Q23.565624 62.68229 23.08125 62.21354Q22.6125 61.729164 21.878124 61.729164Q21.58125 61.729164 21.128124 61.854164L21.253124 60.916664Q21.3625 60.93229 21.425 60.93229Q22.096874 60.93229 22.628124 60.58854Q23.175 60.229164 23.175 59.49479Q23.175 58.916664 22.784374 58.541664Q22.39375 58.15104 21.76875 58.15104Q21.159374 58.15104 20.7375 58.541664Q20.33125 58.93229 20.221874 59.697914L19.159374 59.510414Q19.346874 58.46354 20.034374 57.885414Q20.721874 57.291664 21.7375 57.291664Q22.440624 57.291664 23.034374 57.604164Q23.628124 57.90104 23.940624 58.416664Q24.253124 58.93229 24.253124 59.52604Q24.253124 60.072914 23.95625 60.541664Q23.659374 60.99479 23.08125 61.260414Q23.83125 61.43229 24.253124 61.99479Q24.675 62.541664 24.675 63.385414Q24.675 64.510414 23.846874 65.291664Q23.034374 66.072914 21.784374 66.072914Q20.659374 66.072914 19.909374 65.40104Q19.159374 64.71354 19.05 63.65104ZM26.05 61.68229Q26.05 60.15104 26.3625 59.229164Q26.675 58.291664 27.284374 57.791664Q27.909374 57.291664 28.846874 57.291664Q29.534374 57.291664 30.05 57.572914Q30.58125 57.854164 30.925 58.385414Q31.26875 58.90104 31.45625 59.65104Q31.64375 60.40104 31.64375 61.68229Q31.64375 63.197914 31.33125 64.11979Q31.034374 65.041664 30.409374 65.55729Q29.8 66.05729 28.846874 66.05729Q27.6125 66.05729 26.89375 65.166664Q26.05 64.104164 26.05 61.68229ZM27.128124 61.68229Q27.128124 63.791664 27.628124 64.49479Q28.128124 65.197914 28.846874 65.197914Q29.58125 65.197914 30.065624 64.49479Q30.565624 63.791664 30.565624 61.68229Q30.565624 59.55729 30.065624 58.86979Q29.58125 58.166664 28.83125 58.166664Q28.1125 58.166664 27.675 58.77604Q27.128124 59.55729 27.128124 61.68229ZM33.05 61.68229Q33.05 60.15104 33.3625 59.229164Q33.675 58.291664 34.284374 57.791664Q34.909374 57.291664 35.846874 57.291664Q36.534374 57.291664 37.05 57.572914Q37.58125 57.854164 37.925 58.385414Q38.26875 58.90104 38.45625 59.65104Q38.64375 60.40104 38.64375 61.68229Q38.64375 63.197914 38.33125 64.11979Q38.034374 65.041664 37.409374 65.55729Q36.8 66.05729 35.846874 66.05729Q34.6125 66.05729 33.89375 65.166664Q33.05 64.104164 33.05 61.68229ZM34.128124 61.68229Q34.128124 63.791664 34.628124 64.49479Q35.128124 65.197914 35.846874 65.197914Q36.58125 65.197914 37.065624 64.49479Q37.565624 63.791664 37.565624 61.68229Q37.565624 59.55729 37.065624 58.86979Q36.58125 58.166664 35.83125 58.166664Q35.1125 58.166664 34.675 58.77604Q34.128124 59.55729 34.128124 61.68229ZM40.05 61.68229Q40.05 60.15104 40.3625 59.229164Q40.675 58.291664 41.284374 57.791664Q41.909374 57.291664 42.846874 57.291664Q43.534374 57.291664 44.05 57.572914Q44.58125 57.854164 44.925 58.385414Q45.26875 58.90104 45.45625 59.65104Q45.64375 60.40104 45.64375 61.68229Q45.64375 63.197914 45.33125 64.11979Q45.034374 65.041664 44.409374 65.55729Q43.8 66.05729 42.846874 66.05729Q41.6125 66.05729 40.89375 65.166664Q40.05 64.104164 40.05 61.68229ZM41.128124 61.68229Q41.128124 63.791664 41.628124 64.49479Q42.128124 65.197914 42.846874 65.197914Q43.58125 65.197914 44.065624 64.49479Q44.565624 63.791664 44.565624 61.68229Q44.565624 59.55729 44.065624 58.86979Q43.58125 58.166664 42.83125 58.166664Q42.1125 58.166664 41.675 58.77604Q41.128124 59.55729 41.128124 61.68229Z" fill-rule="nonzero"/><path fill="#000000" d="M126.738594 349.45L126.738594 340.85626L127.894844 340.85626L132.41046 347.60626L132.41046 340.85626L133.50421 340.85626L133.50421 349.45L132.33234 349.45L127.81672 342.7L127.81672 349.45L126.738594 349.45ZM141.16046 344.40314L135.48859 344.40314L135.48859 343.41876L141.16046 343.41876L141.16046 344.40314ZM141.16046 347.0125L135.48859 347.0125L135.48859 346.02814L141.16046 346.02814L141.16046 347.0125ZM146.28546 349.45L145.23859 349.45L145.23859 342.73126Q144.84796 343.09064 144.22296 343.46564Q143.61359 343.825 143.12921 343.9969L143.12921 342.98126Q144.00421 342.5594 144.66046 341.98126Q145.33234 341.3875 145.61359 340.825L146.28546 340.825L146.28546 349.45ZM149.31671 345.21564Q149.31671 343.6844 149.62921 342.7625Q149.94171 341.825 150.55109 341.325Q151.17609 340.825 152.11359 340.825Q152.80109 340.825 153.31671 341.10626Q153.84796 341.3875 154.19171 341.91876Q154.53546 342.4344 154.72296 343.1844Q154.91046 343.9344 154.91046 345.21564Q154.91046 346.73126 154.59796 347.65314Q154.30109 348.575 153.67609 349.09064Q153.06671 349.59064 152.11359 349.59064Q150.87921 349.59064 150.16046 348.7Q149.31671 347.6375 149.31671 345.21564ZM150.39484 345.21564Q150.39484 347.325 150.89484 348.02814Q151.39484 348.73126 152.11359 348.73126Q152.84796 348.73126 153.33234 348.02814Q153.83234 347.325 153.83234 345.21564Q153.83234 343.09064 153.33234 342.40314Q152.84796 341.7 152.09796 341.7Q151.37921 341.7 150.94171 342.3094Q150.39484 343.09064 150.39484 345.21564Z" fill-rule="nonzero"/><path fill="#000000" d="M254.0041 349.45L254.0041 340.85626L255.16035 340.85626L259.67596 347.60626L259.67596 340.85626L260.7697 340.85626L260.7697 349.45L259.59784 349.45L255.08223 342.7L255.08223 349.45L254.0041 349.45ZM268.42596 344.40314L262.7541 344.40314L262.7541 343.41876L268.42596 343.41876L268.42596 344.40314ZM268.42596 347.0125L262.7541 347.0125L262.7541 346.02814L268.42596 346.02814L268.42596 347.0125ZM273.55096 349.45L272.5041 349.45L272.5041 342.73126Q272.11346 343.09064 271.48846 343.46564Q270.8791 343.825 270.3947 343.9969L270.3947 342.98126Q271.2697 342.5594 271.92596 341.98126Q272.59784 341.3875 272.8791 340.825L273.55096 340.825L273.55096 349.45ZM276.5822 345.21564Q276.5822 343.6844 276.8947 342.7625Q277.2072 341.825 277.8166 341.325Q278.4416 340.825 279.3791 340.825Q280.0666 340.825 280.5822 341.10626Q281.11346 341.3875 281.4572 341.91876Q281.80096 342.4344 281.98846 343.1844Q282.17596 343.9344 282.17596 345.21564Q282.17596 346.73126 281.86346 347.65314Q281.5666 348.575 280.9416 349.09064Q280.3322 349.59064 279.3791 349.59064Q278.1447 349.59064 277.42596 348.7Q276.5822 347.6375 276.5822 345.21564ZM277.66034 345.21564Q277.66034 347.325 278.16034 348.02814Q278.66034 348.73126 279.3791 348.73126Q280.11346 348.73126 280.59784 348.02814Q281.09784 347.325 281.09784 345.21564Q281.09784 343.09064 280.59784 342.40314Q280.11346 341.7 279.36346 341.7Q278.6447 341.7 278.2072 342.3094Q277.66034 343.09064 277.66034 345.21564ZM283.5822 345.21564Q283.5822 343.6844 283.8947 342.7625Q284.2072 341.825 284.8166 341.325Q285.4416 340.825 286.3791 340.825Q287.0666 340.825 287.5822 341.10626Q288.11346 341.3875 288.4572 341.91876Q288.80096 342.4344 288.98846 343.1844Q289.17596 343.9344 289.17596 345.21564Q289.17596 346.73126 288.86346 347.65314Q288.5666 348.575 287.9416 349.09064Q287.3322 349.59064 286.3791 349.59064Q285.1447 349.59064 284.42596 348.7Q283.5822 347.6375 283.5822 345.21564ZM284.66034 345.21564Q284.66034 347.325 285.16034 348.02814Q285.66034 348.73126 286.3791 348.73126Q287.11346 348.73126 287.59784 348.02814Q288.09784 347.325 288.09784 345.21564Q288.09784 343.09064 287.59784 342.40314Q287.11346 341.7 286.36346 341.7Q285.6447 341.7 285.2072 342.3094Q284.66034 343.09064 284.66034 345.21564Z" fill-rule="nonzero"/><path fill="#000000" d="M381.2696 349.45L381.2696 340.85626L382.42584 340.85626L386.94147 347.60626L386.94147 340.85626L388.03522 340.85626L388.03522 349.45L386.86334 349.45L382.34772 342.7L382.34772 349.45L381.2696 349.45ZM395.69147 344.40314L390.0196 344.40314L390.0196 343.41876L395.69147 343.41876L395.69147 344.40314ZM395.69147 347.0125L390.0196 347.0125L390.0196 346.02814L395.69147 346.02814L395.69147 347.0125ZM400.81647 349.45L399.7696 349.45L399.7696 342.73126Q399.37897 343.09064 398.75397 343.46564Q398.1446 343.825 397.66022 343.9969L397.66022 342.98126Q398.53522 342.5594 399.19147 341.98126Q399.86334 341.3875 400.1446 340.825L400.81647 340.825L400.81647 349.45ZM403.84772 345.21564Q403.84772 343.6844 404.16022 342.7625Q404.47272 341.825 405.0821 341.325Q405.7071 340.825 406.6446 340.825Q407.3321 340.825 407.84772 341.10626Q408.37897 341.3875 408.72272 341.91876Q409.06647 342.4344 409.25397 343.1844Q409.44147 343.9344 409.44147 345.21564Q409.44147 346.73126 409.12897 347.65314Q408.8321 348.575 408.2071 349.09064Q407.59772 349.59064 406.6446 349.59064Q405.41022 349.59064 404.69147 348.7Q403.84772 347.6375 403.84772 345.21564ZM404.92584 345.21564Q404.92584 347.325 405.42584 348.02814Q405.92584 348.73126 406.6446 348.73126Q407.37897 348.73126 407.86334 348.02814Q408.36334 347.325 408.36334 345.21564Q408.36334 343.09064 407.86334 342.40314Q407.37897 341.7 406.62897 341.7Q405.91022 341.7 405.47272 342.3094Q404.92584 343.09064 404.92584 345.21564ZM410.84772 345.21564Q410.84772 343.6844 411.16022 342.7625Q411.47272 341.825 412.0821 341.325Q412.7071 340.825 413.6446 340.825Q414.3321 340.825 414.84772 341.10626Q415.37897 341.3875 415.72272 341.91876Q416.06647 342.4344 416.25397 343.1844Q416.44147 343.9344 416.44147 345.21564Q416.44147 346.73126 416.12897 347.65314Q415.8321 348.575 415.2071 349.09064Q414.59772 349.59064 413.6446 349.59064Q412.41022 349.59064 411.69147 348.7Q410.84772 347.6375 410.84772 345.21564ZM411.92584 345.21564Q411.92584 347.325 412.42584 348.02814Q412.92584 348.73126 413.6446 348.73126Q414.37897 348.73126 414.86334 348.02814Q415.36334 347.325 415.36334 345.21564Q415.36334 343.09064 414.86334 342.40314Q414.37897 341.7 413.62897 341.7Q412.91022 341.7 412.47272 342.3094Q411.92584 343.09064 411.92584 345.21564ZM417.84772 345.21564Q417.84772 343.6844 418.16022 342.7625Q418.47272 341.825 419.0821 341.325Q419.7071 340.825 420.6446 340.825Q421.3321 340.825 421.84772 341.10626Q422.37897 341.3875 422.72272 341.91876Q423.06647 342.4344 423.25397 343.1844Q423.44147 343.9344 423.44147 345.21564Q423.44147 346.73126 423.12897 347.65314Q422.8321 348.575 422.2071 349.09064Q421.59772 349.59064 420.6446 349.59064Q419.41022 349.59064 418.69147 348.7Q417.84772 347.6375 417.84772 345.21564ZM418.92584 345.21564Q418.92584 347.325 419.42584 348.02814Q419.92584 348.73126 420.6446 348.73126Q421.37897 348.73126 421.86334 348.02814Q422.36334 347.325 422.36334 345.21564Q422.36334 343.09064 421.86334 342.40314Q421.37897 341.7 420.62897 341.7Q419.91022 341.7 419.47272 342.3094Q418.92584 343.09064 418.92584 345.21564Z" fill-rule="nonzero"/><path fill="#4285f4" d="M510.45 56.916668C510.45 56.364384 510.8977 55.916668 511.45 55.916668L521.45 55.916668C522.00226 55.916668 522.45 56.364384 522.45 56.916668L522.45 66.916664C522.45 67.46895 522.00226 67.916664 521.45 67.916664L511.45 67.916664C510.8977 67.916664 510.45 67.46895 510.45 66.916664Z" fill-rule="nonzero"/><path fill="#1a1a1a" d="M535.3094 63.635414L536.34064 63.77604Q536.16876 64.83854 535.46564 65.447914Q534.7625 66.05729 533.7469 66.05729Q532.46564 66.05729 531.6844 65.229164Q530.91876 64.385414 530.91876 62.822914Q530.91876 61.822914 531.2469 61.072914Q531.59064 60.30729 532.2625 59.93229Q532.95 59.55729 533.7625 59.55729Q534.7625 59.55729 535.40314 60.072914Q536.0594 60.572914 536.2469 61.52604L535.21564 61.68229Q535.075 61.05729 534.7 60.74479Q534.325 60.416664 533.79376 60.416664Q532.9969 60.416664 532.4969 60.99479Q531.9969 61.55729 531.9969 62.791664Q531.9969 64.05729 532.48126 64.61979Q532.96564 65.18229 533.73126 65.18229Q534.35626 65.18229 534.7625 64.80729Q535.1844 64.43229 535.3094 63.635414ZM537.23126 65.916664L537.23126 59.697914L538.1844 59.697914L538.1844 60.635414Q538.54376 59.979164 538.84064 59.77604Q539.15314 59.55729 539.52814 59.55729Q540.0594 59.55729 540.60626 59.885414L540.2469 60.86979Q539.85626 60.635414 539.48126 60.635414Q539.1219 60.635414 538.84064 60.854164Q538.575 61.05729 538.46564 61.43229Q538.27814 61.99479 538.27814 62.65104L538.27814 65.916664L537.23126 65.916664ZM545.3094 65.15104Q544.71564 65.65104 544.16876 65.854164Q543.6375 66.05729 543.0125 66.05729Q541.98126 66.05729 541.4344 65.55729Q540.8875 65.05729 540.8875 64.27604Q540.8875 63.822914 541.09064 63.447914Q541.29376 63.05729 541.6375 62.83854Q541.98126 62.604164 542.40314 62.49479Q542.7 62.40104 543.34064 62.322914Q544.60626 62.18229 545.21564 61.96354Q545.21564 61.74479 545.21564 61.697914Q545.21564 61.041664 544.91876 60.77604Q544.5125 60.43229 543.71564 60.43229Q542.98126 60.43229 542.6219 60.697914Q542.2625 60.947914 542.09064 61.604164L541.0594 61.46354Q541.2 60.80729 541.52814 60.40104Q541.85626 59.99479 542.46564 59.77604Q543.075 59.55729 543.8719 59.55729Q544.66876 59.55729 545.16876 59.74479Q545.66876 59.93229 545.90314 60.21354Q546.1375 60.49479 546.23126 60.93229Q546.27814 61.197914 546.27814 61.90104L546.27814 63.30729Q546.27814 64.77604 546.34064 65.166664Q546.41876 65.55729 546.6219 65.916664L545.5125 65.916664Q545.35626 65.58854 545.3094 65.15104ZM545.21564 62.791664Q544.6375 63.02604 543.4969 63.197914Q542.84064 63.291664 542.575 63.416664Q542.3094 63.52604 542.15314 63.74479Q542.0125 63.96354 542.0125 64.24479Q542.0125 64.666664 542.325 64.947914Q542.65314 65.229164 543.2625 65.229164Q543.8719 65.229164 544.34064 64.96354Q544.825 64.697914 545.04376 64.229164Q545.21564 63.86979 545.21564 63.18229L545.21564 62.791664ZM549.3875 65.916664L547.48126 59.697914L548.575 59.697914L549.5594 63.291664L549.9344 64.61979Q549.96564 64.52604 550.2625 63.33854L551.2469 59.697914L552.325 59.697914L553.2625 63.30729L553.575 64.49479L553.9344 63.291664L554.9969 59.697914L556.02814 59.697914L554.075 65.916664L552.98126 65.916664L551.9969 62.18229L551.7469 61.135414L550.4969 65.916664L549.3875 65.916664Z" fill-rule="nonzero"/><path fill="#ea4335" d="M510.45 80.916664C510.45 80.36438 510.8977 79.916664 511.45 79.916664L521.45 79.916664C522.00226 79.916664 522.45 80.36438 522.45 80.916664L522.45 90.916664C522.45 91.46895 522.00226 91.916664 521.45 91.916664L511.45 91.916664C510.8977 91.916664 510.45 91.46895 510.45 90.916664Z" fill-rule="nonzero"/><path fill="#1a1a1a" d="M535.4969 87.916664L536.59064 88.041664Q536.34064 88.99479 535.6375 89.52604Q534.9344 90.05729 533.85626 90.05729Q532.4969 90.05729 531.6844 89.21354Q530.8875 88.36979 530.8875 86.854164Q530.8875 85.291664 531.7 84.43229Q532.5125 83.55729 533.79376 83.55729Q535.04376 83.55729 535.825 84.40104Q536.6219 85.24479 536.6219 86.791664Q536.6219 86.885414 536.6219 87.072914L531.98126 87.072914Q532.04376 88.104164 532.5594 88.65104Q533.075 89.18229 533.85626 89.18229Q534.4344 89.18229 534.84064 88.885414Q535.2625 88.572914 535.4969 87.916664ZM532.04376 86.21354L535.5125 86.21354Q535.45 85.416664 535.1219 85.02604Q534.60626 84.416664 533.8094 84.416664Q533.075 84.416664 532.575 84.90104Q532.09064 85.385414 532.04376 86.21354ZM542.3094 89.15104Q541.71564 89.65104 541.16876 89.854164Q540.6375 90.05729 540.0125 90.05729Q538.98126 90.05729 538.4344 89.55729Q537.8875 89.05729 537.8875 88.27604Q537.8875 87.822914 538.09064 87.447914Q538.29376 87.05729 538.6375 86.83854Q538.98126 86.604164 539.40314 86.49479Q539.7 86.40104 540.34064 86.322914Q541.60626 86.18229 542.21564 85.96354Q542.21564 85.74479 542.21564 85.697914Q542.21564 85.041664 541.91876 84.77604Q541.5125 84.43229 540.71564 84.43229Q539.98126 84.43229 539.6219 84.697914Q539.2625 84.947914 539.09064 85.604164L538.0594 85.46354Q538.2 84.80729 538.52814 84.40104Q538.85626 83.99479 539.46564 83.77604Q540.075 83.55729 540.8719 83.55729Q541.66876 83.55729 542.16876 83.74479Q542.66876 83.93229 542.90314 84.21354Q543.1375 84.49479 543.23126 84.93229Q543.27814 85.197914 543.27814 85.90104L543.27814 87.30729Q543.27814 88.77604 543.34064 89.166664Q543.41876 89.55729 543.6219 89.916664L542.5125 89.916664Q542.35626 89.58854 542.3094 89.15104ZM542.21564 86.791664Q541.6375 87.02604 540.4969 87.197914Q539.84064 87.291664 539.575 87.416664Q539.3094 87.52604 539.15314 87.74479Q539.0125 87.96354 539.0125 88.24479Q539.0125 88.666664 539.325 88.947914Q539.65314 89.229164 540.2625 89.229164Q540.8719 89.229164 541.34064 88.96354Q541.825 88.697914 542.04376 88.229164Q542.21564 87.86979 542.21564 87.18229L542.21564 86.791664ZM547.54376 88.979164L547.7 89.90104Q547.2469 89.99479 546.90314 89.99479Q546.325 89.99479 546.0125 89.822914Q545.7 89.635414 545.5594 89.33854Q545.4344 89.041664 545.4344 88.08854L545.4344 84.510414L544.66876 84.510414L544.66876 83.697914L545.4344 83.697914L545.4344 82.15104L546.48126 81.52604L546.48126 83.697914L547.54376 83.697914L547.54376 84.510414L546.48126 84.510414L546.48126 88.15104Q546.48126 88.604164 546.52814 88.729164Q546.59064 88.854164 546.71564 88.93229Q546.84064 89.010414 547.075 89.010414Q547.2625 89.010414 547.54376 88.979164ZM547.85626 86.80729Q547.85626 85.072914 548.8094 84.24479Q549.60626 83.55729 550.7625 83.55729Q552.04376 83.55729 552.85626 84.40104Q553.6844 85.229164 553.6844 86.71354Q553.6844 87.916664 553.325 88.604164Q552.96564 89.291664 552.2625 89.68229Q551.575 90.05729 550.7625 90.05729Q549.46564 90.05729 548.65314 89.229164Q547.85626 88.385414 547.85626 86.80729ZM548.9344 86.80729Q548.9344 87.99479 549.45 88.58854Q549.98126 89.18229 550.7625 89.18229Q551.5594 89.18229 552.075 88.58854Q552.59064 87.99479 552.59064 86.77604Q552.59064 85.61979 552.0594 85.02604Q551.54376 84.43229 550.7625 84.43229Q549.98126 84.43229 549.45 85.02604Q548.9344 85.604164 548.9344 86.80729ZM555.2469 89.916664L555.2469 83.697914L556.1844 83.697914L556.1844 84.572914Q556.8719 83.55729 558.16876 83.55729Q558.73126 83.55729 559.2 83.760414Q559.6844 83.96354 559.91876 84.291664Q560.15314 84.61979 560.2469 85.05729Q560.29376 85.354164 560.29376 86.08854L560.29376 89.916664L559.2469 89.916664L559.2469 86.135414Q559.2469 85.479164 559.1219 85.166664Q558.9969 84.854164 558.6844 84.666664Q558.3719 84.46354 557.95 84.46354Q557.27814 84.46354 556.77814 84.90104Q556.29376 85.322914 556.29376 86.510414L556.29376 89.916664L555.2469 89.916664Z" fill-rule="nonzero"/><path fill="#fbbc04" d="M510.45 104.916664C510.45 104.36438 510.8977 103.916664 511.45 103.916664L521.45 103.916664C522.00226 103.916664 522.45 104.36438 522.45 104.916664L522.45 114.916664C522.45 115.46895 522.00226 115.916664 521.45 115.916664L511.45 115.916664C510.8977 115.916664 510.45 115.46895 510.45 114.916664Z" fill-rule="nonzero"/><path fill="#1a1a1a" d="M531.2469 113.916664L531.2469 107.697914L532.1844 107.697914L532.1844 108.572914Q532.48126 108.104164 532.96564 107.83854Q533.45 107.55729 534.075 107.55729Q534.7625 107.55729 535.2 107.83854Q535.65314 108.11979 535.825 108.635414Q536.575 107.55729 537.7469 107.55729Q538.6844 107.55729 539.16876 108.072914Q539.66876 108.572914 539.66876 109.65104L539.66876 113.916664L538.6219 113.916664L538.6219 109.99479Q538.6219 109.36979 538.5125 109.08854Q538.41876 108.80729 538.15314 108.635414Q537.8875 108.46354 537.5125 108.46354Q536.85626 108.46354 536.41876 108.90104Q535.9969 109.33854 535.9969 110.30729L535.9969 113.916664L534.9344 113.916664L534.9344 109.86979Q534.9344 109.166664 534.66876 108.822914Q534.41876 108.46354 533.84064 108.46354Q533.3875 108.46354 533.0125 108.697914Q532.6375 108.93229 532.46564 109.385414Q532.29376 109.83854 532.29376 110.68229L532.29376 113.916664L531.2469 113.916664ZM546.3094 113.15104Q545.71564 113.65104 545.16876 113.854164Q544.6375 114.05729 544.0125 114.05729Q542.98126 114.05729 542.4344 113.55729Q541.8875 113.05729 541.8875 112.27604Q541.8875 111.822914 542.09064 111.447914Q542.29376 111.05729 542.6375 110.83854Q542.98126 110.604164 543.40314 110.49479Q543.7 110.40104 544.34064 110.322914Q545.60626 110.18229 546.21564 109.96354Q546.21564 109.74479 546.21564 109.697914Q546.21564 109.041664 545.91876 108.77604Q545.5125 108.43229 544.71564 108.43229Q543.98126 108.43229 543.6219 108.697914Q543.2625 108.947914 543.09064 109.604164L542.0594 109.46354Q542.2 108.80729 542.52814 108.40104Q542.85626 107.99479 543.46564 107.77604Q544.075 107.55729 544.8719 107.55729Q545.66876 107.55729 546.16876 107.74479Q546.66876 107.93229 546.90314 108.21354Q547.1375 108.49479 547.23126 108.93229Q547.27814 109.197914 547.27814 109.90104L547.27814 111.30729Q547.27814 112.77604 547.34064 113.166664Q547.41876 113.55729 547.6219 113.916664L546.5125 113.916664Q546.35626 113.58854 546.3094 113.15104ZM546.21564 110.791664Q545.6375 111.02604 544.4969 111.197914Q543.84064 111.291664 543.575 111.416664Q543.3094 111.52604 543.15314 111.74479Q543.0125 111.96354 543.0125 112.24479Q543.0125 112.666664 543.325 112.947914Q543.65314 113.229164 544.2625 113.229164Q544.8719 113.229164 545.34064 112.96354Q545.825 112.697914 546.04376 112.229164Q546.21564 111.86979 546.21564 111.18229L546.21564 110.791664ZM551.54376 112.979164L551.7 113.90104Q551.2469 113.99479 550.90314 113.99479Q550.325 113.99479 550.0125 113.822914Q549.7 113.635414 549.5594 113.33854Q549.4344 113.041664 549.4344 112.08854L549.4344 108.510414L548.66876 108.510414L548.66876 107.697914L549.4344 107.697914L549.4344 106.15104L550.48126 105.52604L550.48126 107.697914L551.54376 107.697914L551.54376 108.510414L550.48126 108.510414L550.48126 112.15104Q550.48126 112.604164 550.52814 112.729164Q550.59064 112.854164 550.71564 112.93229Q550.84064 113.010414 551.075 113.010414Q551.2625 113.010414 551.54376 112.979164ZM554.54376 112.979164L554.7 113.90104Q554.2469 113.99479 553.90314 113.99479Q553.325 113.99479 553.0125 113.822914Q552.7 113.635414 552.5594 113.33854Q552.4344 113.041664 552.4344 112.08854L552.4344 108.510414L551.66876 108.510414L551.66876 107.697914L552.4344 107.697914L552.4344 106.15104L553.48126 105.52604L553.48126 107.697914L554.54376 107.697914L554.54376 108.510414L553.48126 108.510414L553.48126 112.15104Q553.48126 112.604164 553.52814 112.729164Q553.59064 112.854164 553.71564 112.93229Q553.84064 113.010414 554.075 113.010414Q554.2625 113.010414 554.54376 112.979164ZM555.2469 113.916664L555.2469 107.697914L556.1844 107.697914L556.1844 108.572914Q556.8719 107.55729 558.16876 107.55729Q558.73126 107.55729 559.2 107.760414Q559.6844 107.96354 559.91876 108.291664Q560.15314 108.61979 560.2469 109.05729Q560.29376 109.354164 560.29376 110.08854L560.29376 113.916664L559.2469 113.916664L559.2469 110.135414Q559.2469 109.479164 559.1219 109.166664Q558.9969 108.854164 558.6844 108.666664Q558.3719 108.46354 557.95 108.46354Q557.27814 108.46354 556.77814 108.90104Q556.29376 109.322914 556.29376 110.510414L556.29376 113.916664L555.2469 113.916664Z" fill-rule="nonzero"/><path fill="#34a853" d="M510.45 128.91667C510.45 128.36438 510.8977 127.916664 511.45 127.916664L521.45 127.916664C522.00226 127.916664 522.45 128.36438 522.45 128.91667L522.45 138.91667C522.45 139.46895 522.00226 139.91667 521.45 139.91667L511.45 139.91667C510.8977 139.91667 510.45 139.46895 510.45 138.91667Z" fill-rule="nonzero"/><path fill="#1a1a1a" d="M531.2469 137.91667L531.2469 131.69792L532.1844 131.69792L532.1844 132.57292Q532.48126 132.10417 532.96564 131.83855Q533.45 131.5573 534.075 131.5573Q534.7625 131.5573 535.2 131.83855Q535.65314 132.1198 535.825 132.63542Q536.575 131.5573 537.7469 131.5573Q538.6844 131.5573 539.16876 132.07292Q539.66876 132.57292 539.66876 133.65105L539.66876 137.91667L538.6219 137.91667L538.6219 133.9948Q538.6219 133.3698 538.5125 133.08855Q538.41876 132.8073 538.15314 132.63542Q537.8875 132.46355 537.5125 132.46355Q536.85626 132.46355 536.41876 132.90105Q535.9969 133.33855 535.9969 134.3073L535.9969 137.91667L534.9344 137.91667L534.9344 133.8698Q534.9344 133.16667 534.66876 132.82292Q534.41876 132.46355 533.84064 132.46355Q533.3875 132.46355 533.0125 132.69792Q532.6375 132.9323 532.46564 133.38542Q532.29376 133.83855 532.29376 134.6823L532.29376 137.91667L531.2469 137.91667ZM541.85626 134.8073Q541.85626 133.07292 542.8094 132.2448Q543.60626 131.5573 544.7625 131.5573Q546.04376 131.5573 546.85626 132.40105Q547.6844 133.22917 547.6844 134.71355Q547.6844 135.91667 547.325 136.60417Q546.96564 137.29167 546.2625 137.6823Q545.575 138.0573 544.7625 138.0573Q543.46564 138.0573 542.65314 137.22917Q541.85626 136.38542 541.85626 134.8073ZM542.9344 134.8073Q542.9344 135.9948 543.45 136.58855Q543.98126 137.1823 544.7625 137.1823Q545.5594 137.1823 546.075 136.58855Q546.59064 135.9948 546.59064 134.77605Q546.59064 133.6198 546.0594 133.02605Q545.54376 132.4323 544.7625 132.4323Q543.98126 132.4323 543.45 133.02605Q542.9344 133.60417 542.9344 134.8073ZM553.27814 137.91667L553.27814 137.13542Q552.6844 138.0573 551.54376 138.0573Q550.79376 138.0573 550.16876 137.65105Q549.54376 137.22917 549.2 136.4948Q548.85626 135.76042 548.85626 134.8073Q548.85626 133.88542 549.16876 133.1198Q549.48126 132.35417 550.10626 131.96355Q550.73126 131.5573 551.4969 131.5573Q552.0594 131.5573 552.4969 131.79167Q552.9344 132.02605 553.21564 132.40105L553.21564 129.32292L554.2625 129.32292L554.2625 137.91667L553.27814 137.91667ZM549.95 134.8073Q549.95 136.01042 550.45 136.60417Q550.95 137.1823 551.6375 137.1823Q552.325 137.1823 552.8094 136.6198Q553.29376 136.0573 553.29376 134.90105Q553.29376 133.6198 552.79376 133.02605Q552.3094 132.4323 551.59064 132.4323Q550.8875 132.4323 550.41876 133.01042Q549.95 133.57292 549.95 134.8073ZM560.4969 135.91667L561.59064 136.04167Q561.34064 136.9948 560.6375 137.52605Q559.9344 138.0573 558.85626 138.0573Q557.4969 138.0573 556.6844 137.21355Q555.8875 136.3698 555.8875 134.85417Q555.8875 133.29167 556.7 132.4323Q557.5125 131.5573 558.79376 131.5573Q560.04376 131.5573 560.825 132.40105Q561.6219 133.2448 561.6219 134.79167Q561.6219 134.88542 561.6219 135.07292L556.98126 135.07292Q557.04376 136.10417 557.5594 136.65105Q558.075 137.1823 558.85626 137.1823Q559.4344 137.1823 559.84064 136.88542Q560.2625 136.57292 560.4969 135.91667ZM557.04376 134.21355L560.5125 134.21355Q560.45 133.41667 560.1219 133.02605Q559.60626 132.41667 558.8094 132.41667Q558.075 132.41667 557.575 132.90105Q557.09064 133.38542 557.04376 134.21355ZM563.23126 137.91667L563.23126 131.69792L564.1844 131.69792L564.1844 132.63542Q564.54376 131.97917 564.84064 131.77605Q565.15314 131.5573 565.52814 131.5573Q566.0594 131.5573 566.60626 131.88542L566.2469 132.8698Q565.85626 132.63542 565.48126 132.63542Q565.1219 132.63542 564.84064 132.85417Q564.575 133.0573 564.46564 133.4323Q564.27814 133.9948 564.27814 134.65105L564.27814 137.91667L563.23126 137.91667ZM567.2469 137.91667L567.2469 131.69792L568.1844 131.69792L568.1844 132.57292Q568.8719 131.5573 570.16876 131.5573Q570.73126 131.5573 571.2 131.76042Q571.6844 131.96355 571.91876 132.29167Q572.15314 132.6198 572.2469 133.0573Q572.29376 133.35417 572.29376 134.08855L572.29376 137.91667L571.2469 137.91667L571.2469 134.13542Q571.2469 133.47917 571.1219 133.16667Q570.9969 132.85417 570.6844 132.66667Q570.3719 132.46355 569.95 132.46355Q569.27814 132.46355 568.77814 132.90105Q568.29376 133.32292 568.29376 134.51042L568.29376 137.91667L567.2469 137.91667ZM578.3094 135.63542L579.34064 135.77605Q579.16876 136.83855 578.46564 137.44792Q577.7625 138.0573 576.7469 138.0573Q575.46564 138.0573 574.6844 137.22917Q573.91876 136.38542 573.91876 134.82292Q573.91876 133.82292 574.2469 133.07292Q574.59064 132.3073 575.2625 131.9323Q575.95 131.5573 576.7625 131.5573Q577.7625 131.5573 578.40314 132.07292Q579.0594 132.57292 579.2469 133.52605L578.21564 133.6823Q578.075 133.0573 577.7 132.7448Q577.325 132.41667 576.79376 132.41667Q575.9969 132.41667 575.4969 132.9948Q574.9969 133.5573 574.9969 134.79167Q574.9969 136.0573 575.48126 136.6198Q575.96564 137.1823 576.73126 137.1823Q577.35626 137.1823 577.7625 136.8073Q578.1844 136.4323 578.3094 135.63542Z" fill-rule="nonzero"/><path fill="#ff6d01" d="M510.45 152.91667C510.45 152.36438 510.8977 151.91667 511.45 151.91667L521.45 151.91667C522.00226 151.91667 522.45 152.36438 522.45 152.91667L522.45 162.91667C522.45 163.46895 522.00226 163.91667 521.45 163.91667L511.45 163.91667C510.8977 163.91667 510.45 163.46895 510.45 162.91667Z" fill-rule="nonzero"/><path fill="#1a1a1a" d="M531.2469 161.91667L531.2469 155.69792L532.1844 155.69792L532.1844 156.57292Q532.8719 155.5573 534.16876 155.5573Q534.73126 155.5573 535.2 155.76042Q535.6844 155.96355 535.91876 156.29167Q536.15314 156.6198 536.2469 157.0573Q536.29376 157.35417 536.29376 158.08855L536.29376 161.91667L535.2469 161.91667L535.2469 158.13542Q535.2469 157.47917 535.1219 157.16667Q534.9969 156.85417 534.6844 156.66667Q534.3719 156.46355 533.95 156.46355Q533.27814 156.46355 532.77814 156.90105Q532.29376 157.32292 532.29376 158.51042L532.29376 161.91667L531.2469 161.91667ZM542.3094 159.63542L543.34064 159.77605Q543.16876 160.83855 542.46564 161.44792Q541.7625 162.0573 540.7469 162.0573Q539.46564 162.0573 538.6844 161.22917Q537.91876 160.38542 537.91876 158.82292Q537.91876 157.82292 538.2469 157.07292Q538.59064 156.3073 539.2625 155.9323Q539.95 155.5573 540.7625 155.5573Q541.7625 155.5573 542.40314 156.07292Q543.0594 156.57292 543.2469 157.52605L542.21564 157.6823Q542.075 157.0573 541.7 156.7448Q541.325 156.41667 540.79376 156.41667Q539.9969 156.41667 539.4969 156.9948Q538.9969 157.5573 538.9969 158.79167Q538.9969 160.0573 539.48126 160.6198Q539.96564 161.1823 540.73126 161.1823Q541.35626 161.1823 541.7625 160.8073Q542.1844 160.4323 542.3094 159.63542ZM544.23126 161.91667L544.23126 155.69792L545.1844 155.69792L545.1844 156.63542Q545.54376 155.97917 545.84064 155.77605Q546.15314 155.5573 546.52814 155.5573Q547.0594 155.5573 547.60626 155.88542L547.2469 156.8698Q546.85626 156.63542 546.48126 156.63542Q546.1219 156.63542 545.84064 156.85417Q545.575 157.0573 545.46564 157.4323Q545.27814 157.9948 545.27814 158.65105L545.27814 161.91667L544.23126 161.91667ZM552.325 161.91667L552.325 160.9948Q551.59064 162.0573 550.34064 162.0573Q549.79376 162.0573 549.3094 161.85417Q548.84064 161.63542 548.60626 161.32292Q548.3719 160.9948 548.27814 160.52605Q548.21564 160.22917 548.21564 159.54167L548.21564 155.69792L549.27814 155.69792L549.27814 159.15105Q549.27814 159.96355 549.34064 160.26042Q549.4344 160.66667 549.7469 160.91667Q550.075 161.15105 550.5594 161.15105Q551.02814 161.15105 551.4344 160.91667Q551.85626 160.66667 552.02814 160.2448Q552.21564 159.82292 552.21564 159.02605L552.21564 155.69792L553.2625 155.69792L553.2625 161.91667L552.325 161.91667ZM559.3094 159.63542L560.34064 159.77605Q560.16876 160.83855 559.46564 161.44792Q558.7625 162.0573 557.7469 162.0573Q556.46564 162.0573 555.6844 161.22917Q554.91876 160.38542 554.91876 158.82292Q554.91876 157.82292 555.2469 157.07292Q555.59064 156.3073 556.2625 155.9323Q556.95 155.5573 557.7625 155.5573Q558.7625 155.5573 559.40314 156.07292Q560.0594 156.57292 560.2469 157.52605L559.21564 157.6823Q559.075 157.0573 558.7 156.7448Q558.325 156.41667 557.79376 156.41667Q556.9969 156.41667 556.4969 156.9948Q555.9969 157.5573 555.9969 158.79167Q555.9969 160.0573 556.48126 160.6198Q556.96564 161.1823 557.73126 161.1823Q558.35626 161.1823 558.7625 160.8073Q559.1844 160.4323 559.3094 159.63542ZM565.4969 159.91667L566.59064 160.04167Q566.34064 160.9948 565.6375 161.52605Q564.9344 162.0573 563.85626 162.0573Q562.4969 162.0573 561.6844 161.21355Q560.8875 160.3698 560.8875 158.85417Q560.8875 157.29167 561.7 156.4323Q562.5125 155.5573 563.79376 155.5573Q565.04376 155.5573 565.825 156.40105Q566.6219 157.2448 566.6219 158.79167Q566.6219 158.88542 566.6219 159.07292L561.98126 159.07292Q562.04376 160.10417 562.5594 160.65105Q563.075 161.1823 563.85626 161.1823Q564.4344 161.1823 564.84064 160.88542Q565.2625 160.57292 565.4969 159.91667ZM562.04376 158.21355L565.5125 158.21355Q565.45 157.41667 565.1219 157.02605Q564.60626 156.41667 563.8094 156.41667Q563.075 156.41667 562.575 156.90105Q562.09064 157.38542 562.04376 158.21355ZM567.825 160.0573L568.85626 159.90105Q568.95 160.52605 569.34064 160.85417Q569.7469 161.1823 570.48126 161.1823Q571.2 161.1823 571.54376 160.90105Q571.90314 160.60417 571.90314 160.19792Q571.90314 159.83855 571.59064 159.63542Q571.3719 159.4948 570.5125 159.27605Q569.35626 158.97917 568.90314 158.77605Q568.46564 158.5573 568.23126 158.1823Q567.9969 157.8073 567.9969 157.33855Q567.9969 156.9323 568.1844 156.57292Q568.3719 156.21355 568.7 155.97917Q568.95 155.8073 569.3719 155.6823Q569.79376 155.5573 570.29376 155.5573Q571.0125 155.5573 571.5594 155.77605Q572.1219 155.97917 572.3875 156.33855Q572.65314 156.69792 572.7469 157.29167L571.71564 157.4323Q571.65314 156.96355 571.3094 156.69792Q570.98126 156.41667 570.35626 156.41667Q569.6375 156.41667 569.325 156.66667Q569.0125 156.90105 569.0125 157.22917Q569.0125 157.4323 569.1375 157.58855Q569.27814 157.76042 569.54376 157.8698Q569.7 157.9323 570.48126 158.13542Q571.60626 158.44792 572.04376 158.63542Q572.48126 158.82292 572.73126 159.1823Q572.98126 159.54167 572.98126 160.08855Q572.98126 160.6198 572.66876 161.08855Q572.3719 161.54167 571.79376 161.8073Q571.21564 162.0573 570.48126 162.0573Q569.2625 162.0573 568.6219 161.5573Q567.9969 161.04167 567.825 160.0573Z" fill-rule="nonzero"/><path fill="#46bdc6" d="M510.45 176.91667C510.45 176.36438 510.8977 175.91667 511.45 175.91667L521.45 175.91667C522.00226 175.91667 522.45 176.36438 522.45 176.91667L522.45 186.91667C522.45 187.46895 522.00226 187.91667 521.45 187.91667L511.45 187.91667C510.8977 187.91667 510.45 187.46895 510.45 186.91667Z" fill-rule="nonzero"/><path fill="#1a1a1a" d="M531.2469 185.91667L531.2469 179.69792L532.1844 179.69792L532.1844 180.57292Q532.8719 179.5573 534.16876 179.5573Q534.73126 179.5573 535.2 179.76042Q535.6844 179.96355 535.91876 180.29167Q536.15314 180.6198 536.2469 181.0573Q536.29376 181.35417 536.29376 182.08855L536.29376 185.91667L535.2469 185.91667L535.2469 182.13542Q535.2469 181.47917 535.1219 181.16667Q534.9969 180.85417 534.6844 180.66667Q534.3719 180.46355 533.95 180.46355Q533.27814 180.46355 532.77814 180.90105Q532.29376 181.32292 532.29376 182.51042L532.29376 185.91667L531.2469 185.91667ZM542.3094 183.63542L543.34064 183.77605Q543.16876 184.83855 542.46564 185.44792Q541.7625 186.0573 540.7469 186.0573Q539.46564 186.0573 538.6844 185.22917Q537.91876 184.38542 537.91876 182.82292Q537.91876 181.82292 538.2469 181.07292Q538.59064 180.3073 539.2625 179.9323Q539.95 179.5573 540.7625 179.5573Q541.7625 179.5573 542.40314 180.07292Q543.0594 180.57292 543.2469 181.52605L542.21564 181.6823Q542.075 181.0573 541.7 180.7448Q541.325 180.41667 540.79376 180.41667Q539.9969 180.41667 539.4969 180.9948Q538.9969 181.5573 538.9969 182.79167Q538.9969 184.0573 539.48126 184.6198Q539.96564 185.1823 540.73126 185.1823Q541.35626 185.1823 541.7625 184.8073Q542.1844 184.4323 542.3094 183.63542ZM544.23126 185.91667L544.23126 179.69792L545.1844 179.69792L545.1844 180.63542Q545.54376 179.97917 545.84064 179.77605Q546.15314 179.5573 546.52814 179.5573Q547.0594 179.5573 547.60626 179.88542L547.2469 180.8698Q546.85626 180.63542 546.48126 180.63542Q546.1219 180.63542 545.84064 180.85417Q545.575 181.0573 545.46564 181.4323Q545.27814 181.9948 545.27814 182.65105L545.27814 185.91667L544.23126 185.91667ZM552.325 185.91667L552.325 184.9948Q551.59064 186.0573 550.34064 186.0573Q549.79376 186.0573 549.3094 185.85417Q548.84064 185.63542 548.60626 185.32292Q548.3719 184.9948 548.27814 184.52605Q548.21564 184.22917 548.21564 183.54167L548.21564 179.69792L549.27814 179.69792L549.27814 183.15105Q549.27814 183.96355 549.34064 184.26042Q549.4344 184.66667 549.7469 184.91667Q550.075 185.15105 550.5594 185.15105Q551.02814 185.15105 551.4344 184.91667Q551.85626 184.66667 552.02814 184.2448Q552.21564 183.82292 552.21564 183.02605L552.21564 179.69792L553.2625 179.69792L553.2625 185.91667L552.325 185.91667ZM559.3094 183.63542L560.34064 183.77605Q560.16876 184.83855 559.46564 185.44792Q558.7625 186.0573 557.7469 186.0573Q556.46564 186.0573 555.6844 185.22917Q554.91876 184.38542 554.91876 182.82292Q554.91876 181.82292 555.2469 181.07292Q555.59064 180.3073 556.2625 179.9323Q556.95 179.5573 557.7625 179.5573Q558.7625 179.5573 559.40314 180.07292Q560.0594 180.57292 560.2469 181.52605L559.21564 181.6823Q559.075 181.0573 558.7 180.7448Q558.325 180.41667 557.79376 180.41667Q556.9969 180.41667 556.4969 180.9948Q555.9969 181.5573 555.9969 182.79167Q555.9969 184.0573 556.48126 184.6198Q556.96564 185.1823 557.73126 185.1823Q558.35626 185.1823 558.7625 184.8073Q559.1844 184.4323 559.3094 183.63542ZM565.4969 183.91667L566.59064 184.04167Q566.34064 184.9948 565.6375 185.52605Q564.9344 186.0573 563.85626 186.0573Q562.4969 186.0573 561.6844 185.21355Q560.8875 184.3698 560.8875 182.85417Q560.8875 181.29167 561.7 180.4323Q562.5125 179.5573 563.79376 179.5573Q565.04376 179.5573 565.825 180.40105Q566.6219 181.2448 566.6219 182.79167Q566.6219 182.88542 566.6219 183.07292L561.98126 183.07292Q562.04376 184.10417 562.5594 184.65105Q563.075 185.1823 563.85626 185.1823Q564.4344 185.1823 564.84064 184.88542Q565.2625 184.57292 565.4969 183.91667ZM562.04376 182.21355L565.5125 182.21355Q565.45 181.41667 565.1219 181.02605Q564.60626 180.41667 563.8094 180.41667Q563.075 180.41667 562.575 180.90105Q562.09064 181.38542 562.04376 182.21355ZM567.825 184.0573L568.85626 183.90105Q568.95 184.52605 569.34064 184.85417Q569.7469 185.1823 570.48126 185.1823Q571.2 185.1823 571.54376 184.90105Q571.90314 184.60417 571.90314 184.19792Q571.90314 183.83855 571.59064 183.63542Q571.3719 183.4948 570.5125 183.27605Q569.35626 182.97917 568.90314 182.77605Q568.46564 182.5573 568.23126 182.1823Q567.9969 181.8073 567.9969 181.33855Q567.9969 180.9323 568.1844 180.57292Q568.3719 180.21355 568.7 179.97917Q568.95 179.8073 569.3719 179.6823Q569.79376 179.5573 570.29376 179.5573Q571.0125 179.5573 571.5594 179.77605Q572.1219 179.97917 572.3875 180.33855Q572.65314 180.69792 572.7469 181.29167L571.71564 181.4323Q571.65314 180.96355 571.3094 180.69792Q570.98126 180.41667 570.35626 180.41667Q569.6375 180.41667 569.325 180.66667Q569.0125 180.90105 569.0125 181.22917Q569.0125 181.4323 569.1375 181.58855Q569.27814 181.76042 569.54376 181.8698Q569.7 181.9323 570.48126 182.13542Q571.60626 182.44792 572.04376 182.63542Q572.48126 182.82292 572.73126 183.1823Q572.98126 183.54167 572.98126 184.08855Q572.98126 184.6198 572.66876 185.08855Q572.3719 185.54167 571.79376 185.8073Q571.21564 186.0573 570.48126 186.0573Q569.2625 186.0573 568.6219 185.5573Q567.9969 185.04167 567.825 184.0573ZM580.4969 184.90105L580.4969 185.91667L574.8094 185.91667Q574.8094 185.54167 574.9344 185.1823Q575.15314 184.60417 575.6219 184.04167Q576.10626 183.47917 577.0125 182.7448Q578.41876 181.58855 578.90314 180.91667Q579.40314 180.2448 579.40314 179.65105Q579.40314 179.02605 578.95 178.60417Q578.4969 178.16667 577.77814 178.16667Q577.0125 178.16667 576.5594 178.6198Q576.10626 179.07292 576.09064 179.88542L575.0125 179.77605Q575.1219 178.5573 575.84064 177.9323Q576.575 177.29167 577.8094 177.29167Q579.04376 177.29167 579.7625 177.97917Q580.48126 178.66667 580.48126 179.6823Q580.48126 180.19792 580.2625 180.69792Q580.0594 181.1823 579.5594 181.7448Q579.075 182.29167 577.95 183.2448Q576.9969 184.04167 576.71564 184.33855Q576.45 184.6198 576.27814 184.90105L580.4969 184.90105Z" fill-rule="nonzero"/><path fill="#7baaf7" d="M510.45 200.91667C510.45 200.36438 510.8977 199.91667 511.45 199.91667L521.45 199.91667C522.00226 199.91667 522.45 200.36438 522.45 200.91667L522.45 210.91667C522.45 211.46895 522.00226 211.91667 521.45 211.91667L511.45 211.91667C510.8977 211.91667 510.45 211.46895 510.45 210.91667Z" fill-rule="nonzero"/><path fill="#1a1a1a" d="M530.825 208.0573L531.85626 207.90105Q531.95 208.52605 532.34064 208.85417Q532.7469 209.1823 533.48126 209.1823Q534.2 209.1823 534.54376 208.90105Q534.90314 208.60417 534.90314 208.19792Q534.90314 207.83855 534.59064 207.63542Q534.3719 207.4948 533.5125 207.27605Q532.35626 206.97917 531.90314 206.77605Q531.46564 206.5573 531.23126 206.1823Q530.9969 205.8073 530.9969 205.33855Q530.9969 204.9323 531.1844 204.57292Q531.3719 204.21355 531.7 203.97917Q531.95 203.8073 532.3719 203.6823Q532.79376 203.5573 533.29376 203.5573Q534.0125 203.5573 534.5594 203.77605Q535.1219 203.97917 535.3875 204.33855Q535.65314 204.69792 535.7469 205.29167L534.71564 205.4323Q534.65314 204.96355 534.3094 204.69792Q533.98126 204.41667 533.35626 204.41667Q532.6375 204.41667 532.325 204.66667Q532.0125 204.90105 532.0125 205.22917Q532.0125 205.4323 532.1375 205.58855Q532.27814 205.76042 532.54376 205.8698Q532.7 205.9323 533.48126 206.13542Q534.60626 206.44792 535.04376 206.63542Q535.48126 206.82292 535.73126 207.1823Q535.98126 207.54167 535.98126 208.08855Q535.98126 208.6198 535.66876 209.08855Q535.3719 209.54167 534.79376 209.8073Q534.21564 210.0573 533.48126 210.0573Q532.2625 210.0573 531.6219 209.5573Q530.9969 209.04167 530.825 208.0573ZM542.21564 212.3073L542.21564 209.26042Q541.96564 209.60417 541.5125 209.83855Q541.075 210.0573 540.575 210.0573Q539.46564 210.0573 538.66876 209.1823Q537.8719 208.29167 537.8719 206.7448Q537.8719 205.8073 538.2 205.07292Q538.52814 204.32292 539.1375 203.94792Q539.7625 203.5573 540.4969 203.5573Q541.65314 203.5573 542.3094 204.52605L542.3094 203.69792L543.2625 203.69792L543.2625 212.3073L542.21564 212.3073ZM538.95 206.79167Q538.95 207.9948 539.45 208.58855Q539.96564 209.1823 540.66876 209.1823Q541.34064 209.1823 541.825 208.6198Q542.3094 208.04167 542.3094 206.88542Q542.3094 205.63542 541.79376 205.01042Q541.29376 204.38542 540.59064 204.38542Q539.91876 204.38542 539.4344 204.97917Q538.95 205.5573 538.95 206.79167ZM545.2469 202.54167L545.2469 201.32292L546.3094 201.32292L546.3094 202.54167L545.2469 202.54167ZM545.2469 209.91667L545.2469 203.69792L546.3094 203.69792L546.3094 209.91667L545.2469 209.91667ZM548.2469 209.91667L548.2469 203.69792L549.1844 203.69792L549.1844 204.57292Q549.8719 203.5573 551.16876 203.5573Q551.73126 203.5573 552.2 203.76042Q552.6844 203.96355 552.91876 204.29167Q553.15314 204.6198 553.2469 205.0573Q553.29376 205.35417 553.29376 206.08855L553.29376 209.91667L552.2469 209.91667L552.2469 206.13542Q552.2469 205.47917 552.1219 205.16667Q551.9969 204.85417 551.6844 204.66667Q551.3719 204.46355 550.95 204.46355Q550.27814 204.46355 549.77814 204.90105Q549.29376 205.32292 549.29376 206.51042L549.29376 209.91667L548.2469 209.91667ZM555.2469 209.91667L555.2469 203.69792L556.1844 203.69792L556.1844 204.57292Q556.8719 203.5573 558.16876 203.5573Q558.73126 203.5573 559.2 203.76042Q559.6844 203.96355 559.91876 204.29167Q560.15314 204.6198 560.2469 205.0573Q560.29376 205.35417 560.29376 206.08855L560.29376 209.91667L559.2469 209.91667L559.2469 206.13542Q559.2469 205.47917 559.1219 205.16667Q558.9969 204.85417 558.6844 204.66667Q558.3719 204.46355 557.95 204.46355Q557.27814 204.46355 556.77814 204.90105Q556.29376 205.32292 556.29376 206.51042L556.29376 209.91667L555.2469 209.91667Z" fill-rule="nonzero"/><path fill="#f07b72" d="M510.45 224.91667C510.45 224.36438 510.8977 223.91667 511.45 223.91667L521.45 223.91667C522.00226 223.91667 522.45 224.36438 522.45 224.91667L522.45 234.91667C522.45 235.46895 522.00226 235.91667 521.45 235.91667L511.45 235.91667C510.8977 235.91667 510.45 235.46895 510.45 234.91667Z" fill-rule="nonzero"/><path fill="#1a1a1a" d="M530.6844 233.91667L530.6844 233.0573L534.65314 228.51042Q533.96564 228.54167 533.45 228.54167L530.91876 228.54167L530.91876 227.69792L536.0125 227.69792L536.0125 228.38542L532.6375 232.33855L531.98126 233.0573Q532.7 233.01042 533.3094 233.01042L536.2 233.01042L536.2 233.91667L530.6844 233.91667ZM535.85626 230.8073Q535.85626 229.07292 536.8094 228.2448Q537.60626 227.5573 538.7625 227.5573Q540.04376 227.5573 540.85626 228.40105Q541.6844 229.22917 541.6844 230.71355Q541.6844 231.91667 541.325 232.60417Q540.96564 233.29167 540.2625 233.6823Q539.575 234.0573 538.7625 234.0573Q537.46564 234.0573 536.65314 233.22917Q535.85626 232.38542 535.85626 230.8073ZM536.9344 230.8073Q536.9344 231.9948 537.45 232.58855Q537.98126 233.1823 538.7625 233.1823Q539.5594 233.1823 540.075 232.58855Q540.59064 231.9948 540.59064 230.77605Q540.59064 229.6198 540.0594 229.02605Q539.54376 228.4323 538.7625 228.4323Q537.98126 228.4323 537.45 229.02605Q536.9344 229.60417 536.9344 230.8073ZM543.2469 233.91667L543.2469 227.69792L544.1844 227.69792L544.1844 228.57292Q544.48126 228.10417 544.96564 227.83855Q545.45 227.5573 546.075 227.5573Q546.7625 227.5573 547.2 227.83855Q547.65314 228.1198 547.825 228.63542Q548.575 227.5573 549.7469 227.5573Q550.6844 227.5573 551.16876 228.07292Q551.66876 228.57292 551.66876 229.65105L551.66876 233.91667L550.6219 233.91667L550.6219 229.9948Q550.6219 229.3698 550.5125 229.08855Q550.41876 228.8073 550.15314 228.63542Q549.8875 228.46355 549.5125 228.46355Q548.85626 228.46355 548.41876 228.90105Q547.9969 229.33855 547.9969 230.3073L547.9969 233.91667L546.9344 233.91667L546.9344 229.8698Q546.9344 229.16667 546.66876 228.82292Q546.41876 228.46355 545.84064 228.46355Q545.3875 228.46355 545.0125 228.69792Q544.6375 228.9323 544.46564 229.38542Q544.29376 229.83855 544.29376 230.6823L544.29376 233.91667L543.2469 233.91667ZM555.21564 233.91667L554.23126 233.91667L554.23126 225.32292L555.29376 225.32292L555.29376 228.38542Q555.96564 227.5573 556.9969 227.5573Q557.575 227.5573 558.075 227.79167Q558.59064 228.01042 558.91876 228.4323Q559.2625 228.85417 559.45 229.44792Q559.6375 230.04167 559.6375 230.71355Q559.6375 232.3073 558.84064 233.1823Q558.04376 234.0573 556.95 234.0573Q555.84064 234.0573 555.21564 233.13542L555.21564 233.91667ZM555.2 230.76042Q555.2 231.8698 555.5125 232.3698Q556.0125 233.1823 556.85626 233.1823Q557.54376 233.1823 558.04376 232.58855Q558.5594 231.9948 558.5594 230.79167Q558.5594 229.57292 558.075 228.9948Q557.59064 228.41667 556.90314 228.41667Q556.21564 228.41667 555.7 229.02605Q555.2 229.6198 555.2 230.76042ZM561.2469 226.54167L561.2469 225.32292L562.3094 225.32292L562.3094 226.54167L561.2469 226.54167ZM561.2469 233.91667L561.2469 227.69792L562.3094 227.69792L562.3094 233.91667L561.2469 233.91667ZM568.4969 231.91667L569.59064 232.04167Q569.34064 232.9948 568.6375 233.52605Q567.9344 234.0573 566.85626 234.0573Q565.4969 234.0573 564.6844 233.21355Q563.8875 232.3698 563.8875 230.85417Q563.8875 229.29167 564.7 228.4323Q565.5125 227.5573 566.79376 227.5573Q568.04376 227.5573 568.825 228.40105Q569.6219 229.2448 569.6219 230.79167Q569.6219 230.88542 569.6219 231.07292L564.98126 231.07292Q565.04376 232.10417 565.5594 232.65105Q566.075 233.1823 566.85626 233.1823Q567.4344 233.1823 567.84064 232.88542Q568.2625 232.57292 568.4969 231.91667ZM565.04376 230.21355L568.5125 230.21355Q568.45 229.41667 568.1219 229.02605Q567.60626 228.41667 566.8094 228.41667Q566.075 228.41667 565.575 228.90105Q565.09064 229.38542 565.04376 230.21355Z" fill-rule="nonzero"/><path fill="#757575" d="M277.48438 37.55L277.48438 23.2375L280.34375 23.2375L283.71875 33.3625Q284.1875 34.784374 284.40625 35.4875Q284.65625 34.70625 285.17188 33.190624L288.59375 23.2375L291.14062 23.2375L291.14062 37.55L289.32812 37.55L289.32812 25.565624L285.15625 37.55L283.45312 37.55L279.3125 25.3625L279.3125 37.55L277.48438 37.55ZM301.09375 36.26875Q300.10938 37.096874 299.20312 37.440624Q298.29688 37.784374 297.26562 37.784374Q295.5625 37.784374 294.64062 36.95625Q293.71875 36.1125 293.71875 34.815624Q293.71875 34.05 294.0625 33.425Q294.42188 32.8 294.98438 32.425Q295.54688 32.034374 296.25 31.83125Q296.76562 31.70625 297.8125 31.565624Q299.9375 31.315624 300.9375 30.971874Q300.95312 30.6125 300.95312 30.503124Q300.95312 29.440624 300.45312 28.9875Q299.78125 28.39375 298.45312 28.39375Q297.20312 28.39375 296.60938 28.83125Q296.03125 29.26875 295.75 30.378124L294.03125 30.14375Q294.26562 29.034374 294.79688 28.3625Q295.32812 27.675 296.34375 27.315624Q297.35938 26.940624 298.70312 26.940624Q300.03125 26.940624 300.85938 27.253124Q301.6875 27.565624 302.07812 28.05Q302.46875 28.51875 302.625 29.2375Q302.71875 29.690624 302.71875 30.8625L302.71875 33.20625Q302.71875 35.659374 302.82812 36.315624Q302.9375 36.95625 303.28125 37.55L301.4375 37.55Q301.17188 37.003124 301.09375 36.26875ZM300.9375 32.346874Q299.98438 32.7375 298.0625 33.003124Q296.98438 33.159374 296.53125 33.3625Q296.09375 33.55 295.84375 33.925Q295.59375 34.3 295.59375 34.76875Q295.59375 35.471874 296.125 35.940624Q296.65625 36.409374 297.6875 36.409374Q298.70312 36.409374 299.48438 35.971874Q300.28125 35.51875 300.65625 34.753124Q300.9375 34.14375 300.9375 32.9875L300.9375 32.346874ZM305.3125 37.55L305.3125 27.175L306.90625 27.175L306.90625 28.659374Q308.04688 26.940624 310.20312 26.940624Q311.14062 26.940624 311.92188 27.284374Q312.71875 27.6125 313.10938 28.159374Q313.5 28.70625 313.65625 29.45625Q313.75 29.95625 313.75 31.175L313.75 37.55L311.98438 37.55L311.98438 31.2375Q311.98438 30.159374 311.78125 29.628124Q311.57812 29.096874 311.04688 28.784374Q310.53125 28.471874 309.82812 28.471874Q308.70312 28.471874 307.89062 29.190624Q307.07812 29.89375 307.07812 31.878124L307.07812 37.55L305.3125 37.55ZM315.23438 41.55L315.04688 39.89375Q315.625 40.05 316.04688 40.05Q316.64062 40.05 316.98438 39.846874Q317.34375 39.659374 317.5625 39.315624Q317.73438 39.05 318.10938 38.003124Q318.15625 37.846874 318.26562 37.565624L314.32812 27.175L316.21875 27.175L318.375 33.190624Q318.79688 34.33125 319.125 35.58125Q319.4375 34.378124 319.84375 33.221874L322.0625 27.175L323.82812 27.175L319.875 37.721874Q319.25 39.440624 318.89062 40.08125Q318.42188 40.95625 317.8125 41.346874Q317.21875 41.753124 316.375 41.753124Q315.85938 41.753124 315.23438 41.55Z" fill-rule="nonzero"/></svg>