<svg version="1.1" viewBox="0.0 0.0 600.0 371.0" fill="none" stroke="none" stroke-linecap="square" stroke-miterlimit="10" width="600" height="371" xmlns:xlink="http://www.w3.org/1999/xlink" xmlns="http://www.w3.org/2000/svg"><path fill="#ffffff" d="M0 0L600.0 0L600.0 371.0L0 371.0L0 0Z" fill-rule="nonzero"/><path stroke="#333333" stroke-width="1.0" stroke-linecap="butt" d="M52.5 332.5L492.5 332.5" fill-rule="nonzero"/><path stroke="#cccccc" stroke-width="1.0" stroke-linecap="butt" d="M52.5 264.5L492.5 264.5" fill-rule="nonzero"/><path stroke="#cccccc" stroke-width="1.0" stroke-linecap="butt" d="M52.5 197.5L492.5 197.5" fill-rule="nonzero"/><path stroke="#cccccc" stroke-width="1.0" stroke-linecap="butt" d="M52.5 129.5L492.5 129.5" fill-rule="nonzero"/><path stroke="#cccccc" stroke-width="1.0" stroke-linecap="butt" d="M52.5 61.5L492.5 61.5" fill-rule="nonzero"/><clipPath id="id_0"><path d="M52.55 61.916668L492.61444 61.916668L492.61444 332.45L52.55 332.45L52.55 61.916668Z" clip-rule="nonzero"/></clipPath><path stroke="#000000" stroke-width="2.0" stroke-linecap="butt" stroke-opacity="0.0" clip-path="url(#id_0)" d="M138.0 332.0L120.0 332.0L120.0 280.0C120.0 278.89542 120.89543 278.0 122.0 278.0L136.0 278.0C137.10457 278.0 138.0 278.89542 138.0 280.0Z" fill-rule="nonzero"/><path fill="#4285f4" clip-path="url(#id_0)" d="M138.0 332.0L120.0 332.0L120.0 280.0C120.0 278.89542 120.89543 278.0 122.0 278.0L136.0 278.0C137.10457 278.0 138.0 278.89542 138.0 280.0Z" fill-rule="nonzero"/><path stroke="#000000" stroke-width="2.0" stroke-linecap="butt" stroke-opacity="0.0" clip-path="url(#id_0)" d="M325.0 332.0L307.0 332.0L307.0 304.0C307.0 302.89542 307.89542 302.0 309.0 302.0L323.0 302.0C324.10458 302.0 325.0 302.89542 325.0 304.0Z" fill-rule="nonzero"/><path fill="#4285f4" clip-path="url(#id_0)" d="M325.0 332.0L307.0 332.0L307.0 304.0C307.0 302.89542 307.89542 302.0 309.0 302.0L323.0 302.0C324.10458 302.0 325.0 302.89542 325.0 304.0Z" fill-rule="nonzero"/><path stroke="#000000" stroke-width="2.0" stroke-linecap="butt" stroke-opacity="0.0" clip-path="url(#id_0)" d="M158.0 332.0L140.0 332.0L140.0 266.0C140.0 264.89542 140.89543 264.0 142.0 264.0L156.0 264.0C157.10457 264.0 158.0 264.89542 158.0 266.0Z" fill-rule="nonzero"/><path fill="#ea4335" clip-path="url(#id_0)" d="M158.0 332.0L140.0 332.0L140.0 266.0C140.0 264.89542 140.89543 264.0 142.0 264.0L156.0 264.0C157.10457 264.0 158.0 264.89542 158.0 266.0Z" fill-rule="nonzero"/><path stroke="#000000" stroke-width="2.0" stroke-linecap="butt" stroke-opacity="0.0" clip-path="url(#id_0)" d="M345.0 332.0L327.0 332.0L327.0 272.0C327.0 270.89542 327.89542 270.0 329.0 270.0L343.0 270.0C344.10458 270.0 345.0 270.89542 345.0 272.0Z" fill-rule="nonzero"/><path fill="#ea4335" clip-path="url(#id_0)" d="M345.0 332.0L327.0 332.0L327.0 272.0C327.0 270.89542 327.89542 270.0 329.0 270.0L343.0 270.0C344.10458 270.0 345.0 270.89542 345.0 272.0Z" fill-rule="nonzero"/><path stroke="#000000" stroke-width="2.0" stroke-linecap="butt" stroke-opacity="0.0" clip-path="url(#id_0)" d="M178.0 332.0L160.0 332.0L160.0 90.0C160.0 88.89543 160.89543 88.0 162.0 88.0L176.0 88.0C177.10457 88.0 178.0 88.89543 178.0 90.0Z" fill-rule="nonzero"/><path fill="#fbbc04" clip-path="url(#id_0)" d="M178.0 332.0L160.0 332.0L160.0 90.0C160.0 88.89543 160.89543 88.0 162.0 88.0L176.0 88.0C177.10457 88.0 178.0 88.89543 178.0 90.0Z" fill-rule="nonzero"/><path stroke="#000000" stroke-width="2.0" stroke-linecap="butt" stroke-opacity="0.0" clip-path="url(#id_0)" d="M365.0 332.0L347.0 332.0L347.0 272.0C347.0 270.89542 347.89542 270.0 349.0 270.0L363.0 270.0C364.10458 270.0 365.0 270.89542 365.0 272.0Z" fill-rule="nonzero"/><path fill="#fbbc04" clip-path="url(#id_0)" d="M365.0 332.0L347.0 332.0L347.0 272.0C347.0 270.89542 347.89542 270.0 349.0 270.0L363.0 270.0C364.10458 270.0 365.0 270.89542 365.0 272.0Z" fill-rule="nonzero"/><path stroke="#000000" stroke-width="2.0" stroke-linecap="butt" stroke-opacity="0.0" clip-path="url(#id_0)" d="M198.0 332.0L180.0 332.0L180.0 175.0C180.0 173.89543 180.89543 173.0 182.0 173.0L196.0 173.0C197.10457 173.0 198.0 173.89543 198.0 175.0Z" fill-rule="nonzero"/><path fill="#34a853" clip-path="url(#id_0)" d="M198.0 332.0L180.0 332.0L180.0 175.0C180.0 173.89543 180.89543 173.0 182.0 173.0L196.0 173.0C197.10457 173.0 198.0 173.89543 198.0 175.0Z" fill-rule="nonzero"/><path stroke="#000000" stroke-width="2.0" stroke-linecap="butt" stroke-opacity="0.0" clip-path="url(#id_0)" d="M385.0 332.0L367.0 332.0L367.0 268.0C367.0 266.89542 367.89542 266.0 369.0 266.0L383.0 266.0C384.10458 266.0 385.0 266.89542 385.0 268.0Z" fill-rule="nonzero"/><path fill="#34a853" clip-path="url(#id_0)" d="M385.0 332.0L367.0 332.0L367.0 268.0C367.0 266.89542 367.89542 266.0 369.0 266.0L383.0 266.0C384.10458 266.0 385.0 266.89542 385.0 268.0Z" fill-rule="nonzero"/><path stroke="#000000" stroke-width="2.0" stroke-linecap="butt" stroke-opacity="0.0" clip-path="url(#id_0)" d="M218.0 332.0L200.0 332.0L200.0 289.0C200.0 287.89542 200.89543 287.0 202.0 287.0L216.0 287.0C217.10457 287.0 218.0 287.89542 218.0 289.0Z" fill-rule="nonzero"/><path fill="#ff6d01" clip-path="url(#id_0)" d="M218.0 332.0L200.0 332.0L200.0 289.0C200.0 287.89542 200.89543 287.0 202.0 287.0L216.0 287.0C217.10457 287.0 218.0 287.89542 218.0 289.0Z" fill-rule="nonzero"/><path stroke="#000000" stroke-width="2.0" stroke-linecap="butt" stroke-opacity="0.0" clip-path="url(#id_0)" d="M405.0 332.0L387.0 332.0L387.0 303.0C387.0 301.89542 387.89542 301.0 389.0 301.0L403.0 301.0C404.10458 301.0 405.0 301.89542 405.0 303.0Z" fill-rule="nonzero"/><path fill="#ff6d01" clip-path="url(#id_0)" d="M405.0 332.0L387.0 332.0L387.0 303.0C387.0 301.89542 387.89542 301.0 389.0 301.0L403.0 301.0C404.10458 301.0 405.0 301.89542 405.0 303.0Z" fill-rule="nonzero"/><path stroke="#000000" stroke-width="2.0" stroke-linecap="butt" stroke-opacity="0.0" clip-path="url(#id_0)" d="M238.0 332.0L220.0 332.0L220.0 246.0C220.0 244.89543 220.89543 244.0 222.0 244.0L236.0 244.0C237.10457 244.0 238.0 244.89543 238.0 246.0Z" fill-rule="nonzero"/><path fill="#46bdc6" clip-path="url(#id_0)" d="M238.0 332.0L220.0 332.0L220.0 246.0C220.0 244.89543 220.89543 244.0 222.0 244.0L236.0 244.0C237.10457 244.0 238.0 244.89543 238.0 246.0Z" fill-rule="nonzero"/><path stroke="#000000" stroke-width="2.0" stroke-linecap="butt" stroke-opacity="0.0" clip-path="url(#id_0)" d="M425.0 332.0L407.0 332.0L407.0 315.0C407.0 313.89542 407.89542 313.0 409.0 313.0L423.0 313.0C424.10458 313.0 425.0 313.89542 425.0 315.0Z" fill-rule="nonzero"/><path fill="#46bdc6" clip-path="url(#id_0)" d="M425.0 332.0L407.0 332.0L407.0 315.0C407.0 313.89542 407.89542 313.0 409.0 313.0L423.0 313.0C424.10458 313.0 425.0 313.89542 425.0 315.0Z" fill-rule="nonzero"/><path fill="#000000" d="M40.05 332.21564Q40.05 330.6844 40.3625 329.7625Q40.675 328.825 41.284374 328.325Q41.909374 327.825 42.846874 327.825Q43.534374 327.825 44.05 328.10626Q44.58125 328.3875 44.925 328.91876Q45.26875 329.4344 45.45625 330.1844Q45.64375 330.9344 45.64375 332.21564Q45.64375 333.73126 45.33125 334.65314Q45.034374 335.575 44.409374 336.09064Q43.8 336.59064 42.846874 336.59064Q41.6125 336.59064 40.89375 335.7Q40.05 334.6375 40.05 332.21564ZM41.128124 332.21564Q41.128124 334.325 41.628124 335.02814Q42.128124 335.73126 42.846874 335.73126Q43.58125 335.73126 44.065624 335.02814Q44.565624 334.325 44.565624 332.21564Q44.565624 330.09064 44.065624 329.40314Q43.58125 328.7 42.83125 328.7Q42.1125 328.7 41.675 329.3094Q41.128124 330.09064 41.128124 332.21564Z" fill-rule="nonzero"/><path fill="#000000" d="M24.596874 267.80106L24.596874 268.81668L18.909374 268.81668Q18.909374 268.44168 19.034374 268.0823Q19.253124 267.50418 19.721874 266.94168Q20.20625 266.37918 21.1125 265.6448Q22.51875 264.48856 23.003124 263.81668Q23.503124 263.1448 23.503124 262.55106Q23.503124 261.92606 23.05 261.50418Q22.596874 261.06668 21.878124 261.06668Q21.1125 261.06668 20.659374 261.5198Q20.20625 261.97293 20.190624 262.78543L19.1125 262.67606Q19.221874 261.4573 19.940624 260.8323Q20.675 260.19168 21.909374 260.19168Q23.14375 260.19168 23.8625 260.87918Q24.58125 261.56668 24.58125 262.5823Q24.58125 263.09793 24.3625 263.59793Q24.159374 264.0823 23.659374 264.6448Q23.175 265.19168 22.05 266.1448Q21.096874 266.94168 20.815624 267.23856Q20.55 267.5198 20.378124 267.80106L24.596874 267.80106ZM26.05 264.5823Q26.05 263.05106 26.3625 262.12918Q26.675 261.19168 27.284374 260.69168Q27.909374 260.19168 28.846874 260.19168Q29.534374 260.19168 30.05 260.47293Q30.58125 260.75418 30.925 261.28543Q31.26875 261.80106 31.45625 262.55106Q31.64375 263.30106 31.64375 264.5823Q31.64375 266.09793 31.33125 267.0198Q31.034374 267.94168 30.409374 268.4573Q29.8 268.9573 28.846874 268.9573Q27.6125 268.9573 26.89375 268.06668Q26.05 267.00418 26.05 264.5823ZM27.128124 264.5823Q27.128124 266.69168 27.628124 267.3948Q28.128124 268.09793 28.846874 268.09793Q29.58125 268.09793 30.065624 267.3948Q30.565624 266.69168 30.565624 264.5823Q30.565624 262.4573 30.065624 261.7698Q29.58125 261.06668 28.83125 261.06668Q28.1125 261.06668 27.675 261.67606Q27.128124 262.4573 27.128124 264.5823ZM33.05 264.5823Q33.05 263.05106 33.3625 262.12918Q33.675 261.19168 34.284374 260.69168Q34.909374 260.19168 35.846874 260.19168Q36.534374 260.19168 37.05 260.47293Q37.58125 260.75418 37.925 261.28543Q38.26875 261.80106 38.45625 262.55106Q38.64375 263.30106 38.64375 264.5823Q38.64375 266.09793 38.33125 267.0198Q38.034374 267.94168 37.409374 268.4573Q36.8 268.9573 35.846874 268.9573Q34.6125 268.9573 33.89375 268.06668Q33.05 267.00418 33.05 264.5823ZM34.128124 264.5823Q34.128124 266.69168 34.628124 267.3948Q35.128124 268.09793 35.846874 268.09793Q36.58125 268.09793 37.065624 267.3948Q37.565624 266.69168 37.565624 264.5823Q37.565624 262.4573 37.065624 261.7698Q36.58125 261.06668 35.83125 261.06668Q35.1125 261.06668 34.675 261.67606Q34.128124 262.4573 34.128124 264.5823ZM40.05 264.5823Q40.05 263.05106 40.3625 262.12918Q40.675 261.19168 41.284374 260.69168Q41.909374 260.19168 42.846874 260.19168Q43.534374 260.19168 44.05 260.47293Q44.58125 260.75418 44.925 261.28543Q45.26875 261.80106 45.45625 262.55106Q45.64375 263.30106 45.64375 264.5823Q45.64375 266.09793 45.33125 267.0198Q45.034374 267.94168 44.409374 268.4573Q43.8 268.9573 42.846874 268.9573Q41.6125 268.9573 40.89375 268.06668Q40.05 267.00418 40.05 264.5823ZM41.128124 264.5823Q41.128124 266.69168 41.628124 267.3948Q42.128124 268.09793 42.846874 268.09793Q43.58125 268.09793 44.065624 267.3948Q44.565624 266.69168 44.565624 264.5823Q44.565624 262.4573 44.065624 261.7698Q43.58125 261.06668 42.83125 261.06668Q42.1125 261.06668 41.675 261.67606Q41.128124 262.4573 41.128124 264.5823Z" fill-rule="nonzero"/><path fill="#000000" d="M22.425 201.18333L22.425 199.12083L18.70625 199.12083L18.70625 198.15208L22.628124 192.58958L23.4875 192.58958L23.4875 198.15208L24.64375 198.15208L24.64375 199.12083L23.4875 199.12083L23.4875 201.18333L22.425 201.18333ZM22.425 198.15208L22.425 194.29271L19.7375 198.15208L22.425 198.15208ZM26.05 196.94896Q26.05 195.41771 26.3625 194.49583Q26.675 193.55833 27.284374 193.05833Q27.909374 192.55833 28.846874 192.55833Q29.534374 192.55833 30.05 192.83958Q30.58125 193.12083 30.925 193.65208Q31.26875 194.16771 31.45625 194.91771Q31.64375 195.66771 31.64375 196.94896Q31.64375 198.46458 31.33125 199.38646Q31.034374 200.30833 30.409374 200.82396Q29.8 201.32396 28.846874 201.32396Q27.6125 201.32396 26.89375 200.43333Q26.05 199.37083 26.05 196.94896ZM27.128124 196.94896Q27.128124 199.05833 27.628124 199.76146Q28.128124 200.46458 28.846874 200.46458Q29.58125 200.46458 30.065624 199.76146Q30.565624 199.05833 30.565624 196.94896Q30.565624 194.82396 30.065624 194.13646Q29.58125 193.43333 28.83125 193.43333Q28.1125 193.43333 27.675 194.04271Q27.128124 194.82396 27.128124 196.94896ZM33.05 196.94896Q33.05 195.41771 33.3625 194.49583Q33.675 193.55833 34.284374 193.05833Q34.909374 192.55833 35.846874 192.55833Q36.534374 192.55833 37.05 192.83958Q37.58125 193.12083 37.925 193.65208Q38.26875 194.16771 38.45625 194.91771Q38.64375 195.66771 38.64375 196.94896Q38.64375 198.46458 38.33125 199.38646Q38.034374 200.30833 37.409374 200.82396Q36.8 201.32396 35.846874 201.32396Q34.6125 201.32396 33.89375 200.43333Q33.05 199.37083 33.05 196.94896ZM34.128124 196.94896Q34.128124 199.05833 34.628124 199.76146Q35.128124 200.46458 35.846874 200.46458Q36.58125 200.46458 37.065624 199.76146Q37.565624 199.05833 37.565624 196.94896Q37.565624 194.82396 37.065624 194.13646Q36.58125 193.43333 35.83125 193.43333Q35.1125 193.43333 34.675 194.04271Q34.128124 194.82396 34.128124 196.94896ZM40.05 196.94896Q40.05 195.41771 40.3625 194.49583Q40.675 193.55833 41.284374 193.05833Q41.909374 192.55833 42.846874 192.55833Q43.534374 192.55833 44.05 192.83958Q44.58125 193.12083 44.925 193.65208Q45.26875 194.16771 45.45625 194.91771Q45.64375 195.66771 45.64375 196.94896Q45.64375 198.46458 45.33125 199.38646Q45.034374 200.30833 44.409374 200.82396Q43.8 201.32396 42.846874 201.32396Q41.6125 201.32396 40.89375 200.43333Q40.05 199.37083 40.05 196.94896ZM41.128124 196.94896Q41.128124 199.05833 41.628124 199.76146Q42.128124 200.46458 42.846874 200.46458Q43.58125 200.46458 44.065624 199.76146Q44.565624 199.05833 44.565624 196.94896Q44.565624 194.82396 44.065624 194.13646Q43.58125 193.43333 42.83125 193.43333Q42.1125 193.43333 41.675 194.04271Q41.128124 194.82396 41.128124 196.94896Z" fill-rule="nonzero"/><path fill="#000000" d="M24.51875 127.06563L23.471874 127.14375Q23.33125 126.51875 23.08125 126.2375Q22.64375 125.78438 22.01875 125.78438Q21.51875 125.78438 21.128124 126.06563Q20.64375 126.44063 20.346874 127.14375Q20.065624 127.83125 20.05 129.1125Q20.425 128.53438 20.971874 128.25313Q21.534374 127.97188 22.14375 127.97188Q23.190624 127.97188 23.925 128.75313Q24.675 129.53438 24.675 130.75313Q24.675 131.56563 24.315624 132.26875Q23.971874 132.95625 23.3625 133.33125Q22.753124 133.69063 21.9875 133.69063Q20.659374 133.69063 19.83125 132.72188Q19.003124 131.75313 19.003124 129.53438Q19.003124 127.03438 19.925 125.90938Q20.721874 124.925 22.08125 124.925Q23.096874 124.925 23.7375 125.50313Q24.39375 126.06563 24.51875 127.06563ZM20.221874 130.76875Q20.221874 131.31563 20.440624 131.81563Q20.675 132.3 21.08125 132.56563Q21.503124 132.83125 21.971874 132.83125Q22.628124 132.83125 23.1125 132.3Q23.596874 131.75313 23.596874 130.83125Q23.596874 129.94063 23.1125 129.425Q22.64375 128.90938 21.925 128.90938Q21.20625 128.90938 20.70625 129.425Q20.221874 129.94063 20.221874 130.76875ZM26.05 129.31563Q26.05 127.78438 26.3625 126.8625Q26.675 125.925 27.284374 125.425Q27.909374 124.925 28.846874 124.925Q29.534374 124.925 30.05 125.20625Q30.58125 125.4875 30.925 126.01875Q31.26875 126.53438 31.45625 127.28438Q31.64375 128.03438 31.64375 129.31563Q31.64375 130.83125 31.33125 131.75313Q31.034374 132.675 30.409374 133.19063Q29.8 133.69063 28.846874 133.69063Q27.6125 133.69063 26.89375 132.8Q26.05 131.7375 26.05 129.31563ZM27.128124 129.31563Q27.128124 131.425 27.628124 132.12813Q28.128124 132.83125 28.846874 132.83125Q29.58125 132.83125 30.065624 132.12813Q30.565624 131.425 30.565624 129.31563Q30.565624 127.19063 30.065624 126.50313Q29.58125 125.8 28.83125 125.8Q28.1125 125.8 27.675 126.40938Q27.128124 127.19063 27.128124 129.31563ZM33.05 129.31563Q33.05 127.78438 33.3625 126.8625Q33.675 125.925 34.284374 125.425Q34.909374 124.925 35.846874 124.925Q36.534374 124.925 37.05 125.20625Q37.58125 125.4875 37.925 126.01875Q38.26875 126.53438 38.45625 127.28438Q38.64375 128.03438 38.64375 129.31563Q38.64375 130.83125 38.33125 131.75313Q38.034374 132.675 37.409374 133.19063Q36.8 133.69063 35.846874 133.69063Q34.6125 133.69063 33.89375 132.8Q33.05 131.7375 33.05 129.31563ZM34.128124 129.31563Q34.128124 131.425 34.628124 132.12813Q35.128124 132.83125 35.846874 132.83125Q36.58125 132.83125 37.065624 132.12813Q37.565624 131.425 37.565624 129.31563Q37.565624 127.19063 37.065624 126.50313Q36.58125 125.8 35.83125 125.8Q35.1125 125.8 34.675 126.40938Q34.128124 127.19063 34.128124 129.31563ZM40.05 129.31563Q40.05 127.78438 40.3625 126.8625Q40.675 125.925 41.284374 125.425Q41.909374 124.925 42.846874 124.925Q43.534374 124.925 44.05 125.20625Q44.58125 125.4875 44.925 126.01875Q45.26875 126.53438 45.45625 127.28438Q45.64375 128.03438 45.64375 129.31563Q45.64375 130.83125 45.33125 131.75313Q45.034374 132.675 44.409374 133.19063Q43.8 133.69063 42.846874 133.69063Q41.6125 133.69063 40.89375 132.8Q40.05 131.7375 40.05 129.31563ZM41.128124 129.31563Q41.128124 131.425 41.628124 132.12813Q42.128124 132.83125 42.846874 132.83125Q43.58125 132.83125 44.065624 132.12813Q44.565624 131.425 44.565624 129.31563Q44.565624 127.19063 44.065624 126.50313Q43.58125 125.8 42.83125 125.8Q42.1125 125.8 41.675 126.40938Q41.128124 127.19063 41.128124 129.31563Z" fill-rule="nonzero"/><path fill="#000000" d="M20.675 61.260414Q20.01875 61.010414 19.690624 60.572914Q19.378124 60.11979 19.378124 59.510414Q19.378124 58.572914 20.05 57.93229Q20.7375 57.291664 21.846874 57.291664Q22.971874 57.291664 23.659374 57.947914Q24.346874 58.604164 24.346874 59.541664Q24.346874 60.135414 24.034374 60.572914Q23.721874 61.010414 23.08125 61.260414Q23.878124 61.510414 24.284374 62.08854Q24.690624 62.666664 24.690624 63.46354Q24.690624 64.55729 23.909374 65.30729Q23.14375 66.05729 21.8625 66.05729Q20.596874 66.05729 19.815624 65.30729Q19.034374 64.55729 19.034374 63.43229Q19.034374 62.58854 19.45625 62.02604Q19.89375 61.46354 20.675 61.260414ZM20.45625 59.46354Q20.45625 60.072914 20.846874 60.46354Q21.253124 60.854164 21.878124 60.854164Q22.4875 60.854164 22.878124 60.479164Q23.26875 60.08854 23.26875 59.52604Q23.26875 58.947914 22.8625 58.55729Q22.45625 58.15104 21.8625 58.15104Q21.253124 58.15104 20.846874 58.541664Q20.45625 58.93229 20.45625 59.46354ZM20.128124 63.43229Q20.128124 63.885414 20.33125 64.30729Q20.55 64.729164 20.971874 64.96354Q21.39375 65.197914 21.878124 65.197914Q22.628124 65.197914 23.1125 64.71354Q23.6125 64.229164 23.6125 63.479164Q23.6125 62.71354 23.1125 62.21354Q22.6125 61.71354 21.846874 61.71354Q21.096874 61.71354 20.6125 62.21354Q20.128124 62.697914 20.128124 63.43229ZM26.05 61.68229Q26.05 60.15104 26.3625 59.229164Q26.675 58.291664 27.284374 57.791664Q27.909374 57.291664 28.846874 57.291664Q29.534374 57.291664 30.05 57.572914Q30.58125 57.854164 30.925 58.385414Q31.26875 58.90104 31.45625 59.65104Q31.64375 60.40104 31.64375 61.68229Q31.64375 63.197914 31.33125 64.11979Q31.034374 65.041664 30.409374 65.55729Q29.8 66.05729 28.846874 66.05729Q27.6125 66.05729 26.89375 65.166664Q26.05 64.104164 26.05 61.68229ZM27.128124 61.68229Q27.128124 63.791664 27.628124 64.49479Q28.128124 65.197914 28.846874 65.197914Q29.58125 65.197914 30.065624 64.49479Q30.565624 63.791664 30.565624 61.68229Q30.565624 59.55729 30.065624 58.86979Q29.58125 58.166664 28.83125 58.166664Q28.1125 58.166664 27.675 58.77604Q27.128124 59.55729 27.128124 61.68229ZM33.05 61.68229Q33.05 60.15104 33.3625 59.229164Q33.675 58.291664 34.284374 57.791664Q34.909374 57.291664 35.846874 57.291664Q36.534374 57.291664 37.05 57.572914Q37.58125 57.854164 37.925 58.385414Q38.26875 58.90104 38.45625 59.65104Q38.64375 60.40104 38.64375 61.68229Q38.64375 63.197914 38.33125 64.11979Q38.034374 65.041664 37.409374 65.55729Q36.8 66.05729 35.846874 66.05729Q34.6125 66.05729 33.89375 65.166664Q33.05 64.104164 33.05 61.68229ZM34.128124 61.68229Q34.128124 63.791664 34.628124 64.49479Q35.128124 65.197914 35.846874 65.197914Q36.58125 65.197914 37.065624 64.49479Q37.565624 63.791664 37.565624 61.68229Q37.565624 59.55729 37.065624 58.86979Q36.58125 58.166664 35.83125 58.166664Q35.1125 58.166664 34.675 58.77604Q34.128124 59.55729 34.128124 61.68229ZM40.05 61.68229Q40.05 60.15104 40.3625 59.229164Q40.675 58.291664 41.284374 57.791664Q41.909374 57.291664 42.846874 57.291664Q43.534374 57.291664 44.05 57.572914Q44.58125 57.854164 44.925 58.385414Q45.26875 58.90104 45.45625 59.65104Q45.64375 60.40104 45.64375 61.68229Q45.64375 63.197914 45.33125 64.11979Q45.034374 65.041664 44.409374 65.55729Q43.8 66.05729 42.846874 66.05729Q41.6125 66.05729 40.89375 65.166664Q40.05 64.104164 40.05 61.68229ZM41.128124 61.68229Q41.128124 63.791664 41.628124 64.49479Q42.128124 65.197914 42.846874 65.197914Q43.58125 65.197914 44.065624 64.49479Q44.565624 63.791664 44.565624 61.68229Q44.565624 59.55729 44.065624 58.86979Q43.58125 58.166664 42.83125 58.166664Q42.1125 58.166664 41.675 58.77604Q41.128124 59.55729 41.128124 61.68229Z" fill-rule="nonzero"/><path fill="#000000" d="M164.24837 342.075L164.24837 340.85626L165.31087 340.85626L165.31087 342.075L164.24837 342.075ZM164.24837 349.45L164.24837 343.23126L165.31087 343.23126L165.31087 349.45L164.24837 349.45ZM167.24837 349.45L167.24837 343.23126L168.18587 343.23126L168.18587 344.10626Q168.87337 343.09064 170.17024 343.09064Q170.73274 343.09064 171.20149 343.29376Q171.68587 343.4969 171.92024 343.825Q172.15462 344.15314 172.24837 344.59064Q172.29524 344.8875 172.29524 345.6219L172.29524 349.45L171.24837 349.45L171.24837 345.66876Q171.24837 345.0125 171.12337 344.7Q170.99837 344.3875 170.68587 344.2Q170.37337 343.9969 169.95149 343.9969Q169.27962 343.9969 168.77962 344.4344Q168.29524 344.85626 168.29524 346.04376L168.29524 349.45L167.24837 349.45ZM173.82649 347.59064L174.85774 347.4344Q174.95149 348.0594 175.34212 348.3875Q175.74837 348.71564 176.48274 348.71564Q177.20149 348.71564 177.54524 348.4344Q177.90462 348.1375 177.90462 347.73126Q177.90462 347.3719 177.59212 347.16876Q177.37337 347.02814 176.51399 346.8094Q175.35774 346.5125 174.90462 346.3094Q174.46712 346.09064 174.23274 345.71564Q173.99837 345.34064 173.99837 344.8719Q173.99837 344.46564 174.18587 344.10626Q174.37337 343.7469 174.70149 343.5125Q174.95149 343.34064 175.37337 343.21564Q175.79524 343.09064 176.29524 343.09064Q177.01399 343.09064 177.56087 343.3094Q178.12337 343.5125 178.38899 343.8719Q178.65462 344.23126 178.74837 344.825L177.71712 344.96564Q177.65462 344.4969 177.31087 344.23126Q176.98274 343.95 176.35774 343.95Q175.63899 343.95 175.32649 344.2Q175.01399 344.4344 175.01399 344.7625Q175.01399 344.96564 175.13899 345.1219Q175.27962 345.29376 175.54524 345.40314Q175.70149 345.46564 176.48274 345.66876Q177.60774 345.98126 178.04524 346.16876Q178.48274 346.35626 178.73274 346.71564Q178.98274 347.075 178.98274 347.6219Q178.98274 348.15314 178.67024 348.6219Q178.37337 349.075 177.79524 349.34064Q177.21712 349.59064 176.48274 349.59064Q175.26399 349.59064 174.62337 349.09064Q173.99837 348.575 173.82649 347.59064ZM185.49837 347.45L186.59212 347.575Q186.34212 348.52814 185.63899 349.0594Q184.93587 349.59064 183.85774 349.59064Q182.49837 349.59064 181.68587 348.7469Q180.88899 347.90314 180.88899 346.3875Q180.88899 344.825 181.70149 343.96564Q182.51399 343.09064 183.79524 343.09064Q185.04524 343.09064 185.82649 343.9344Q186.62337 344.77814 186.62337 346.325Q186.62337 346.41876 186.62337 346.60626L181.98274 346.60626Q182.04524 347.6375 182.56087 348.1844Q183.07649 348.71564 183.85774 348.71564Q184.43587 348.71564 184.84212 348.41876Q185.26399 348.10626 185.49837 347.45ZM182.04524 345.7469L185.51399 345.7469Q185.45149 344.95 185.12337 344.5594Q184.60774 343.95 183.81087 343.95Q183.07649 343.95 182.57649 344.4344Q182.09212 344.91876 182.04524 345.7469ZM188.23274 349.45L188.23274 343.23126L189.18587 343.23126L189.18587 344.16876Q189.54524 343.5125 189.84212 343.3094Q190.15462 343.09064 190.52962 343.09064Q191.06087 343.09064 191.60774 343.41876L191.24837 344.40314Q190.85774 344.16876 190.48274 344.16876Q190.12337 344.16876 189.84212 344.3875Q189.57649 344.59064 189.46712 344.96564Q189.27962 345.52814 189.27962 346.1844L189.27962 349.45L188.23274 349.45ZM194.54524 348.5125L194.70149 349.4344Q194.24837 349.52814 193.90462 349.52814Q193.32649 349.52814 193.01399 349.35626Q192.70149 349.16876 192.56087 348.8719Q192.43587 348.575 192.43587 347.6219L192.43587 344.04376L191.67024 344.04376L191.67024 343.23126L192.43587 343.23126L192.43587 341.6844L193.48274 341.0594L193.48274 343.23126L194.54524 343.23126L194.54524 344.04376L193.48274 344.04376L193.48274 347.6844Q193.48274 348.1375 193.52962 348.2625Q193.59212 348.3875 193.71712 348.46564Q193.84212 348.54376 194.07649 348.54376Q194.26399 348.54376 194.54524 348.5125Z" fill-rule="nonzero"/><path fill="#000000" d="M355.97858 351.84064L355.97858 348.79376Q355.72858 349.1375 355.27545 349.3719Q354.83795 349.59064 354.33795 349.59064Q353.22858 349.59064 352.4317 348.71564Q351.63483 347.825 351.63483 346.27814Q351.63483 345.34064 351.96295 344.60626Q352.29108 343.85626 352.90045 343.48126Q353.52545 343.09064 354.25983 343.09064Q355.41608 343.09064 356.07233 344.0594L356.07233 343.23126L357.02545 343.23126L357.02545 351.84064L355.97858 351.84064ZM352.71295 346.325Q352.71295 347.52814 353.21295 348.1219Q353.72858 348.71564 354.4317 348.71564Q355.10358 348.71564 355.58795 348.15314Q356.07233 347.575 356.07233 346.41876Q356.07233 345.16876 355.5567 344.54376Q355.0567 343.91876 354.35358 343.91876Q353.6817 343.91876 353.19733 344.5125Q352.71295 345.09064 352.71295 346.325ZM363.08795 349.45L363.08795 348.52814Q362.35358 349.59064 361.10358 349.59064Q360.5567 349.59064 360.07233 349.3875Q359.60358 349.16876 359.3692 348.85626Q359.13483 348.52814 359.04108 348.0594Q358.97858 347.7625 358.97858 347.075L358.97858 343.23126L360.04108 343.23126L360.04108 346.6844Q360.04108 347.4969 360.10358 347.79376Q360.19733 348.2 360.50983 348.45Q360.83795 348.6844 361.32233 348.6844Q361.79108 348.6844 362.19733 348.45Q362.6192 348.2 362.79108 347.77814Q362.97858 347.35626 362.97858 346.5594L362.97858 343.23126L364.02545 343.23126L364.02545 349.45L363.08795 349.45ZM370.25983 347.45L371.35358 347.575Q371.10358 348.52814 370.40045 349.0594Q369.69733 349.59064 368.6192 349.59064Q367.25983 349.59064 366.44733 348.7469Q365.65045 347.90314 365.65045 346.3875Q365.65045 344.825 366.46295 343.96564Q367.27545 343.09064 368.5567 343.09064Q369.8067 343.09064 370.58795 343.9344Q371.38483 344.77814 371.38483 346.325Q371.38483 346.41876 371.38483 346.60626L366.7442 346.60626Q366.8067 347.6375 367.32233 348.1844Q367.83795 348.71564 368.6192 348.71564Q369.19733 348.71564 369.60358 348.41876Q370.02545 348.10626 370.25983 347.45ZM366.8067 345.7469L370.27545 345.7469Q370.21295 344.95 369.88483 344.5594Q369.3692 343.95 368.57233 343.95Q367.83795 343.95 367.33795 344.4344Q366.85358 344.91876 366.8067 345.7469ZM372.9942 349.45L372.9942 343.23126L373.94733 343.23126L373.94733 344.16876Q374.3067 343.5125 374.60358 343.3094Q374.91608 343.09064 375.29108 343.09064Q375.82233 343.09064 376.3692 343.41876L376.00983 344.40314Q375.6192 344.16876 375.2442 344.16876Q374.88483 344.16876 374.60358 344.3875Q374.33795 344.59064 374.22858 344.96564Q374.04108 345.52814 374.04108 346.1844L374.04108 349.45L372.9942 349.45ZM376.96295 351.84064L376.83795 350.85626Q377.1817 350.95 377.44733 350.95Q377.79108 350.95 377.9942 350.825Q378.21295 350.71564 378.35358 350.5125Q378.44733 350.34064 378.6817 349.71564Q378.69733 349.6375 378.77545 349.46564L376.40045 343.23126L377.54108 343.23126L378.83795 346.825Q379.08795 347.5125 379.29108 348.27814Q379.47858 347.54376 379.72858 346.85626L381.0567 343.23126L382.10358 343.23126L379.7442 349.5594Q379.35358 350.575 379.15045 350.96564Q378.8692 351.4969 378.4942 351.73126Q378.13483 351.98126 377.63483 351.98126Q377.33795 351.98126 376.96295 351.84064Z" fill-rule="nonzero"/><path fill="#4285f4" d="M512.45 56.916668C512.45 56.364384 512.8977 55.916668 513.45 55.916668L523.45 55.916668C524.00226 55.916668 524.45 56.364384 524.45 56.916668L524.45 66.916664C524.45 67.46895 524.00226 67.916664 523.45 67.916664L513.45 67.916664C512.8977 67.916664 512.45 67.46895 512.45 66.916664Z" fill-rule="nonzero"/><path fill="#1a1a1a" d="M537.3094 63.635414L538.34064 63.77604Q538.16876 64.83854 537.46564 65.447914Q536.7625 66.05729 535.7469 66.05729Q534.46564 66.05729 533.6844 65.229164Q532.91876 64.385414 532.91876 62.822914Q532.91876 61.822914 533.2469 61.072914Q533.59064 60.30729 534.2625 59.93229Q534.95 59.55729 535.7625 59.55729Q536.7625 59.55729 537.40314 60.072914Q538.0594 60.572914 538.2469 61.52604L537.21564 61.68229Q537.075 61.05729 536.7 60.74479Q536.325 60.416664 535.79376 60.416664Q534.9969 60.416664 534.4969 60.99479Q533.9969 61.55729 533.9969 62.791664Q533.9969 64.05729 534.48126 64.61979Q534.96564 65.18229 535.73126 65.18229Q536.35626 65.18229 536.7625 64.80729Q537.1844 64.43229 537.3094 63.635414ZM539.23126 65.916664L539.23126 59.697914L540.1844 59.697914L540.1844 60.635414Q540.54376 59.979164 540.84064 59.77604Q541.15314 59.55729 541.52814 59.55729Q542.0594 59.55729 542.60626 59.885414L542.2469 60.86979Q541.85626 60.635414 541.48126 60.635414Q541.1219 60.635414 540.84064 60.854164Q540.575 61.05729 540.46564 61.43229Q540.27814 61.99479 540.27814 62.65104L540.27814 65.916664L539.23126 65.916664ZM547.3094 65.15104Q546.71564 65.65104 546.16876 65.854164Q545.6375 66.05729 545.0125 66.05729Q543.98126 66.05729 543.4344 65.55729Q542.8875 65.05729 542.8875 64.27604Q542.8875 63.822914 543.09064 63.447914Q543.29376 63.05729 543.6375 62.83854Q543.98126 62.604164 544.40314 62.49479Q544.7 62.40104 545.34064 62.322914Q546.60626 62.18229 547.21564 61.96354Q547.21564 61.74479 547.21564 61.697914Q547.21564 61.041664 546.91876 60.77604Q546.5125 60.43229 545.71564 60.43229Q544.98126 60.43229 544.6219 60.697914Q544.2625 60.947914 544.09064 61.604164L543.0594 61.46354Q543.2 60.80729 543.52814 60.40104Q543.85626 59.99479 544.46564 59.77604Q545.075 59.55729 545.8719 59.55729Q546.66876 59.55729 547.16876 59.74479Q547.66876 59.93229 547.90314 60.21354Q548.1375 60.49479 548.23126 60.93229Q548.27814 61.197914 548.27814 61.90104L548.27814 63.30729Q548.27814 64.77604 548.34064 65.166664Q548.41876 65.55729 548.6219 65.916664L547.5125 65.916664Q547.35626 65.58854 547.3094 65.15104ZM547.21564 62.791664Q546.6375 63.02604 545.4969 63.197914Q544.84064 63.291664 544.575 63.416664Q544.3094 63.52604 544.15314 63.74479Q544.0125 63.96354 544.0125 64.24479Q544.0125 64.666664 544.325 64.947914Q544.65314 65.229164 545.2625 65.229164Q545.8719 65.229164 546.34064 64.96354Q546.825 64.697914 547.04376 64.229164Q547.21564 63.86979 547.21564 63.18229L547.21564 62.791664ZM551.3875 65.916664L549.48126 59.697914L550.575 59.697914L551.5594 63.291664L551.9344 64.61979Q551.96564 64.52604 552.2625 63.33854L553.2469 59.697914L554.325 59.697914L555.2625 63.30729L555.575 64.49479L555.9344 63.291664L556.9969 59.697914L558.02814 59.697914L556.075 65.916664L554.98126 65.916664L553.9969 62.18229L553.7469 61.135414L552.4969 65.916664L551.3875 65.916664Z" fill-rule="nonzero"/><path fill="#ea4335" d="M512.45 80.916664C512.45 80.36438 512.8977 79.916664 513.45 79.916664L523.45 79.916664C524.00226 79.916664 524.45 80.36438 524.45 80.916664L524.45 90.916664C524.45 91.46895 524.00226 91.916664 523.45 91.916664L513.45 91.916664C512.8977 91.916664 512.45 91.46895 512.45 90.916664Z" fill-rule="nonzero"/><path fill="#1a1a1a" d="M533.2469 89.916664L533.2469 83.697914L534.1844 83.697914L534.1844 84.572914Q534.48126 84.104164 534.96564 83.83854Q535.45 83.55729 536.075 83.55729Q536.7625 83.55729 537.2 83.83854Q537.65314 84.11979 537.825 84.635414Q538.575 83.55729 539.7469 83.55729Q540.6844 83.55729 541.16876 84.072914Q541.66876 84.572914 541.66876 85.65104L541.66876 89.916664L540.6219 89.916664L540.6219 85.99479Q540.6219 85.36979 540.5125 85.08854Q540.41876 84.80729 540.15314 84.635414Q539.8875 84.46354 539.5125 84.46354Q538.85626 84.46354 538.41876 84.90104Q537.9969 85.33854 537.9969 86.30729L537.9969 89.916664L536.9344 89.916664L536.9344 85.86979Q536.9344 85.166664 536.66876 84.822914Q536.41876 84.46354 535.84064 84.46354Q535.3875 84.46354 535.0125 84.697914Q534.6375 84.93229 534.46564 85.385414Q534.29376 85.83854 534.29376 86.68229L534.29376 89.916664L533.2469 89.916664ZM548.3094 89.15104Q547.71564 89.65104 547.16876 89.854164Q546.6375 90.05729 546.0125 90.05729Q544.98126 90.05729 544.4344 89.55729Q543.8875 89.05729 543.8875 88.27604Q543.8875 87.822914 544.09064 87.447914Q544.29376 87.05729 544.6375 86.83854Q544.98126 86.604164 545.40314 86.49479Q545.7 86.40104 546.34064 86.322914Q547.60626 86.18229 548.21564 85.96354Q548.21564 85.74479 548.21564 85.697914Q548.21564 85.041664 547.91876 84.77604Q547.5125 84.43229 546.71564 84.43229Q545.98126 84.43229 545.6219 84.697914Q545.2625 84.947914 545.09064 85.604164L544.0594 85.46354Q544.2 84.80729 544.52814 84.40104Q544.85626 83.99479 545.46564 83.77604Q546.075 83.55729 546.8719 83.55729Q547.66876 83.55729 548.16876 83.74479Q548.66876 83.93229 548.90314 84.21354Q549.1375 84.49479 549.23126 84.93229Q549.27814 85.197914 549.27814 85.90104L549.27814 87.30729Q549.27814 88.77604 549.34064 89.166664Q549.41876 89.55729 549.6219 89.916664L548.5125 89.916664Q548.35626 89.58854 548.3094 89.15104ZM548.21564 86.791664Q547.6375 87.02604 546.4969 87.197914Q545.84064 87.291664 545.575 87.416664Q545.3094 87.52604 545.15314 87.74479Q545.0125 87.96354 545.0125 88.24479Q545.0125 88.666664 545.325 88.947914Q545.65314 89.229164 546.2625 89.229164Q546.8719 89.229164 547.34064 88.96354Q547.825 88.697914 548.04376 88.229164Q548.21564 87.86979 548.21564 87.18229L548.21564 86.791664ZM553.54376 88.979164L553.7 89.90104Q553.2469 89.99479 552.90314 89.99479Q552.325 89.99479 552.0125 89.822914Q551.7 89.635414 551.5594 89.33854Q551.4344 89.041664 551.4344 88.08854L551.4344 84.510414L550.66876 84.510414L550.66876 83.697914L551.4344 83.697914L551.4344 82.15104L552.48126 81.52604L552.48126 83.697914L553.54376 83.697914L553.54376 84.510414L552.48126 84.510414L552.48126 88.15104Q552.48126 88.604164 552.52814 88.729164Q552.59064 88.854164 552.71564 88.93229Q552.84064 89.010414 553.075 89.010414Q553.2625 89.010414 553.54376 88.979164ZM556.54376 88.979164L556.7 89.90104Q556.2469 89.99479 555.90314 89.99479Q555.325 89.99479 555.0125 89.822914Q554.7 89.635414 554.5594 89.33854Q554.4344 89.041664 554.4344 88.08854L554.4344 84.510414L553.66876 84.510414L553.66876 83.697914L554.4344 83.697914L554.4344 82.15104L555.48126 81.52604L555.48126 83.697914L556.54376 83.697914L556.54376 84.510414L555.48126 84.510414L555.48126 88.15104Q555.48126 88.604164 555.52814 88.729164Q555.59064 88.854164 555.71564 88.93229Q555.84064 89.010414 556.075 89.010414Q556.2625 89.010414 556.54376 88.979164ZM557.2469 89.916664L557.2469 83.697914L558.1844 83.697914L558.1844 84.572914Q558.8719 83.55729 560.16876 83.55729Q560.73126 83.55729 561.2 83.760414Q561.6844 83.96354 561.91876 84.291664Q562.15314 84.61979 562.2469 85.05729Q562.29376 85.354164 562.29376 86.08854L562.29376 89.916664L561.2469 89.916664L561.2469 86.135414Q561.2469 85.479164 561.1219 85.166664Q560.9969 84.854164 560.6844 84.666664Q560.3719 84.46354 559.95 84.46354Q559.27814 84.46354 558.77814 84.90104Q558.29376 85.322914 558.29376 86.510414L558.29376 89.916664L557.2469 89.916664Z" fill-rule="nonzero"/><path fill="#fbbc04" d="M512.45 104.916664C512.45 104.36438 512.8977 103.916664 513.45 103.916664L523.45 103.916664C524.00226 103.916664 524.45 104.36438 524.45 104.916664L524.45 114.916664C524.45 115.46895 524.00226 115.916664 523.45 115.916664L513.45 115.916664C512.8977 115.916664 512.45 115.46895 512.45 114.916664Z" fill-rule="nonzero"/><path fill="#1a1a1a" d="M533.2469 113.916664L533.2469 107.697914L534.1844 107.697914L534.1844 108.572914Q534.48126 108.104164 534.96564 107.83854Q535.45 107.55729 536.075 107.55729Q536.7625 107.55729 537.2 107.83854Q537.65314 108.11979 537.825 108.635414Q538.575 107.55729 539.7469 107.55729Q540.6844 107.55729 541.16876 108.072914Q541.66876 108.572914 541.66876 109.65104L541.66876 113.916664L540.6219 113.916664L540.6219 109.99479Q540.6219 109.36979 540.5125 109.08854Q540.41876 108.80729 540.15314 108.635414Q539.8875 108.46354 539.5125 108.46354Q538.85626 108.46354 538.41876 108.90104Q537.9969 109.33854 537.9969 110.30729L537.9969 113.916664L536.9344 113.916664L536.9344 109.86979Q536.9344 109.166664 536.66876 108.822914Q536.41876 108.46354 535.84064 108.46354Q535.3875 108.46354 535.0125 108.697914Q534.6375 108.93229 534.46564 109.385414Q534.29376 109.83854 534.29376 110.68229L534.29376 113.916664L533.2469 113.916664ZM543.85626 110.80729Q543.85626 109.072914 544.8094 108.24479Q545.60626 107.55729 546.7625 107.55729Q548.04376 107.55729 548.85626 108.40104Q549.6844 109.229164 549.6844 110.71354Q549.6844 111.916664 549.325 112.604164Q548.96564 113.291664 548.2625 113.68229Q547.575 114.05729 546.7625 114.05729Q545.46564 114.05729 544.65314 113.229164Q543.85626 112.385414 543.85626 110.80729ZM544.9344 110.80729Q544.9344 111.99479 545.45 112.58854Q545.98126 113.18229 546.7625 113.18229Q547.5594 113.18229 548.075 112.58854Q548.59064 111.99479 548.59064 110.77604Q548.59064 109.61979 548.0594 109.02604Q547.54376 108.43229 546.7625 108.43229Q545.98126 108.43229 545.45 109.02604Q544.9344 109.604164 544.9344 110.80729ZM555.27814 113.916664L555.27814 113.135414Q554.6844 114.05729 553.54376 114.05729Q552.79376 114.05729 552.16876 113.65104Q551.54376 113.229164 551.2 112.49479Q550.85626 111.760414 550.85626 110.80729Q550.85626 109.885414 551.16876 109.11979Q551.48126 108.354164 552.10626 107.96354Q552.73126 107.55729 553.4969 107.55729Q554.0594 107.55729 554.4969 107.791664Q554.9344 108.02604 555.21564 108.40104L555.21564 105.322914L556.2625 105.322914L556.2625 113.916664L555.27814 113.916664ZM551.95 110.80729Q551.95 112.010414 552.45 112.604164Q552.95 113.18229 553.6375 113.18229Q554.325 113.18229 554.8094 112.61979Q555.29376 112.05729 555.29376 110.90104Q555.29376 109.61979 554.79376 109.02604Q554.3094 108.43229 553.59064 108.43229Q552.8875 108.43229 552.41876 109.010414Q551.95 109.572914 551.95 110.80729ZM562.4969 111.916664L563.59064 112.041664Q563.34064 112.99479 562.6375 113.52604Q561.9344 114.05729 560.85626 114.05729Q559.4969 114.05729 558.6844 113.21354Q557.8875 112.36979 557.8875 110.854164Q557.8875 109.291664 558.7 108.43229Q559.5125 107.55729 560.79376 107.55729Q562.04376 107.55729 562.825 108.40104Q563.6219 109.24479 563.6219 110.791664Q563.6219 110.885414 563.6219 111.072914L558.98126 111.072914Q559.04376 112.104164 559.5594 112.65104Q560.075 113.18229 560.85626 113.18229Q561.4344 113.18229 561.84064 112.885414Q562.2625 112.572914 562.4969 111.916664ZM559.04376 110.21354L562.5125 110.21354Q562.45 109.416664 562.1219 109.02604Q561.60626 108.416664 560.8094 108.416664Q560.075 108.416664 559.575 108.90104Q559.09064 109.385414 559.04376 110.21354ZM565.23126 113.916664L565.23126 107.697914L566.1844 107.697914L566.1844 108.635414Q566.54376 107.979164 566.84064 107.77604Q567.15314 107.55729 567.52814 107.55729Q568.0594 107.55729 568.60626 107.885414L568.2469 108.86979Q567.85626 108.635414 567.48126 108.635414Q567.1219 108.635414 566.84064 108.854164Q566.575 109.05729 566.46564 109.43229Q566.27814 109.99479 566.27814 110.65104L566.27814 113.916664L565.23126 113.916664ZM569.2469 113.916664L569.2469 107.697914L570.1844 107.697914L570.1844 108.572914Q570.8719 107.55729 572.16876 107.55729Q572.73126 107.55729 573.2 107.760414Q573.6844 107.96354 573.91876 108.291664Q574.15314 108.61979 574.2469 109.05729Q574.29376 109.354164 574.29376 110.08854L574.29376 113.916664L573.2469 113.916664L573.2469 110.135414Q573.2469 109.479164 573.1219 109.166664Q572.9969 108.854164 572.6844 108.666664Q572.3719 108.46354 571.95 108.46354Q571.27814 108.46354 570.77814 108.90104Q570.29376 109.322914 570.29376 110.510414L570.29376 113.916664L569.2469 113.916664ZM580.3094 111.635414L581.34064 111.77604Q581.16876 112.83854 580.46564 113.447914Q579.7625 114.05729 578.7469 114.05729Q577.46564 114.05729 576.6844 113.229164Q575.91876 112.385414 575.91876 110.822914Q575.91876 109.822914 576.2469 109.072914Q576.59064 108.30729 577.2625 107.93229Q577.95 107.55729 578.7625 107.55729Q579.7625 107.55729 580.40314 108.072914Q581.0594 108.572914 581.2469 109.52604L580.21564 109.68229Q580.075 109.05729 579.7 108.74479Q579.325 108.416664 578.79376 108.416664Q577.9969 108.416664 577.4969 108.99479Q576.9969 109.55729 576.9969 110.791664Q576.9969 112.05729 577.48126 112.61979Q577.96564 113.18229 578.73126 113.18229Q579.35626 113.18229 579.7625 112.80729Q580.1844 112.43229 580.3094 111.635414Z" fill-rule="nonzero"/><path fill="#34a853" d="M512.45 128.91667C512.45 128.36438 512.8977 127.916664 513.45 127.916664L523.45 127.916664C524.00226 127.916664 524.45 128.36438 524.45 128.91667L524.45 138.91667C524.45 139.46895 524.00226 139.91667 523.45 139.91667L513.45 139.91667C512.8977 139.91667 512.45 139.46895 512.45 138.91667Z" fill-rule="nonzero"/><path fill="#1a1a1a" d="M533.2469 137.91667L533.2469 131.69792L534.1844 131.69792L534.1844 132.57292Q534.8719 131.5573 536.16876 131.5573Q536.73126 131.5573 537.2 131.76042Q537.6844 131.96355 537.91876 132.29167Q538.15314 132.6198 538.2469 133.0573Q538.29376 133.35417 538.29376 134.08855L538.29376 137.91667L537.2469 137.91667L537.2469 134.13542Q537.2469 133.47917 537.1219 133.16667Q536.9969 132.85417 536.6844 132.66667Q536.3719 132.46355 535.95 132.46355Q535.27814 132.46355 534.77814 132.90105Q534.29376 133.32292 534.29376 134.51042L534.29376 137.91667L533.2469 137.91667ZM544.3094 135.63542L545.34064 135.77605Q545.16876 136.83855 544.46564 137.44792Q543.7625 138.0573 542.7469 138.0573Q541.46564 138.0573 540.6844 137.22917Q539.91876 136.38542 539.91876 134.82292Q539.91876 133.82292 540.2469 133.07292Q540.59064 132.3073 541.2625 131.9323Q541.95 131.5573 542.7625 131.5573Q543.7625 131.5573 544.40314 132.07292Q545.0594 132.57292 545.2469 133.52605L544.21564 133.6823Q544.075 133.0573 543.7 132.7448Q543.325 132.41667 542.79376 132.41667Q541.9969 132.41667 541.4969 132.9948Q540.9969 133.5573 540.9969 134.79167Q540.9969 136.0573 541.48126 136.6198Q541.96564 137.1823 542.73126 137.1823Q543.35626 137.1823 543.7625 136.8073Q544.1844 136.4323 544.3094 135.63542ZM546.23126 137.91667L546.23126 131.69792L547.1844 131.69792L547.1844 132.63542Q547.54376 131.97917 547.84064 131.77605Q548.15314 131.5573 548.52814 131.5573Q549.0594 131.5573 549.60626 131.88542L549.2469 132.8698Q548.85626 132.63542 548.48126 132.63542Q548.1219 132.63542 547.84064 132.85417Q547.575 133.0573 547.46564 133.4323Q547.27814 133.9948 547.27814 134.65105L547.27814 137.91667L546.23126 137.91667ZM554.325 137.91667L554.325 136.9948Q553.59064 138.0573 552.34064 138.0573Q551.79376 138.0573 551.3094 137.85417Q550.84064 137.63542 550.60626 137.32292Q550.3719 136.9948 550.27814 136.52605Q550.21564 136.22917 550.21564 135.54167L550.21564 131.69792L551.27814 131.69792L551.27814 135.15105Q551.27814 135.96355 551.34064 136.26042Q551.4344 136.66667 551.7469 136.91667Q552.075 137.15105 552.5594 137.15105Q553.02814 137.15105 553.4344 136.91667Q553.85626 136.66667 554.02814 136.2448Q554.21564 135.82292 554.21564 135.02605L554.21564 131.69792L555.2625 131.69792L555.2625 137.91667L554.325 137.91667ZM561.3094 135.63542L562.34064 135.77605Q562.16876 136.83855 561.46564 137.44792Q560.7625 138.0573 559.7469 138.0573Q558.46564 138.0573 557.6844 137.22917Q556.91876 136.38542 556.91876 134.82292Q556.91876 133.82292 557.2469 133.07292Q557.59064 132.3073 558.2625 131.9323Q558.95 131.5573 559.7625 131.5573Q560.7625 131.5573 561.40314 132.07292Q562.0594 132.57292 562.2469 133.52605L561.21564 133.6823Q561.075 133.0573 560.7 132.7448Q560.325 132.41667 559.79376 132.41667Q558.9969 132.41667 558.4969 132.9948Q557.9969 133.5573 557.9969 134.79167Q557.9969 136.0573 558.48126 136.6198Q558.96564 137.1823 559.73126 137.1823Q560.35626 137.1823 560.7625 136.8073Q561.1844 136.4323 561.3094 135.63542ZM567.4969 135.91667L568.59064 136.04167Q568.34064 136.9948 567.6375 137.52605Q566.9344 138.0573 565.85626 138.0573Q564.4969 138.0573 563.6844 137.21355Q562.8875 136.3698 562.8875 134.85417Q562.8875 133.29167 563.7 132.4323Q564.5125 131.5573 565.79376 131.5573Q567.04376 131.5573 567.825 132.40105Q568.6219 133.2448 568.6219 134.79167Q568.6219 134.88542 568.6219 135.07292L563.98126 135.07292Q564.04376 136.10417 564.5594 136.65105Q565.075 137.1823 565.85626 137.1823Q566.4344 137.1823 566.84064 136.88542Q567.2625 136.57292 567.4969 135.91667ZM564.04376 134.21355L567.5125 134.21355Q567.45 133.41667 567.1219 133.02605Q566.60626 132.41667 565.8094 132.41667Q565.075 132.41667 564.575 132.90105Q564.09064 133.38542 564.04376 134.21355ZM569.825 136.0573L570.85626 135.90105Q570.95 136.52605 571.34064 136.85417Q571.7469 137.1823 572.48126 137.1823Q573.2 137.1823 573.54376 136.90105Q573.90314 136.60417 573.90314 136.19792Q573.90314 135.83855 573.59064 135.63542Q573.3719 135.4948 572.5125 135.27605Q571.35626 134.97917 570.90314 134.77605Q570.46564 134.5573 570.23126 134.1823Q569.9969 133.8073 569.9969 133.33855Q569.9969 132.9323 570.1844 132.57292Q570.3719 132.21355 570.7 131.97917Q570.95 131.8073 571.3719 131.6823Q571.79376 131.5573 572.29376 131.5573Q573.0125 131.5573 573.5594 131.77605Q574.1219 131.97917 574.3875 132.33855Q574.65314 132.69792 574.7469 133.29167L573.71564 133.4323Q573.65314 132.96355 573.3094 132.69792Q572.98126 132.41667 572.35626 132.41667Q571.6375 132.41667 571.325 132.66667Q571.0125 132.90105 571.0125 133.22917Q571.0125 133.4323 571.1375 133.58855Q571.27814 133.76042 571.54376 133.8698Q571.7 133.9323 572.48126 134.13542Q573.60626 134.44792 574.04376 134.63542Q574.48126 134.82292 574.73126 135.1823Q574.98126 135.54167 574.98126 136.08855Q574.98126 136.6198 574.66876 137.08855Q574.3719 137.54167 573.79376 137.8073Q573.21564 138.0573 572.48126 138.0573Q571.2625 138.0573 570.6219 137.5573Q569.9969 137.04167 569.825 136.0573Z" fill-rule="nonzero"/><path fill="#ff6d01" d="M512.45 152.91667C512.45 152.36438 512.8977 151.91667 513.45 151.91667L523.45 151.91667C524.00226 151.91667 524.45 152.36438 524.45 152.91667L524.45 162.91667C524.45 163.46895 524.00226 163.91667 523.45 163.91667L513.45 163.91667C512.8977 163.91667 512.45 163.46895 512.45 162.91667Z" fill-rule="nonzero"/><path fill="#1a1a1a" d="M532.825 160.0573L533.85626 159.90105Q533.95 160.52605 534.34064 160.85417Q534.7469 161.1823 535.48126 161.1823Q536.2 161.1823 536.54376 160.90105Q536.90314 160.60417 536.90314 160.19792Q536.90314 159.83855 536.59064 159.63542Q536.3719 159.4948 535.5125 159.27605Q534.35626 158.97917 533.90314 158.77605Q533.46564 158.5573 533.23126 158.1823Q532.9969 157.8073 532.9969 157.33855Q532.9969 156.9323 533.1844 156.57292Q533.3719 156.21355 533.7 155.97917Q533.95 155.8073 534.3719 155.6823Q534.79376 155.5573 535.29376 155.5573Q536.0125 155.5573 536.5594 155.77605Q537.1219 155.97917 537.3875 156.33855Q537.65314 156.69792 537.7469 157.29167L536.71564 157.4323Q536.65314 156.96355 536.3094 156.69792Q535.98126 156.41667 535.35626 156.41667Q534.6375 156.41667 534.325 156.66667Q534.0125 156.90105 534.0125 157.22917Q534.0125 157.4323 534.1375 157.58855Q534.27814 157.76042 534.54376 157.8698Q534.7 157.9323 535.48126 158.13542Q536.60626 158.44792 537.04376 158.63542Q537.48126 158.82292 537.73126 159.1823Q537.98126 159.54167 537.98126 160.08855Q537.98126 160.6198 537.66876 161.08855Q537.3719 161.54167 536.79376 161.8073Q536.21564 162.0573 535.48126 162.0573Q534.2625 162.0573 533.6219 161.5573Q532.9969 161.04167 532.825 160.0573ZM544.21564 164.3073L544.21564 161.26042Q543.96564 161.60417 543.5125 161.83855Q543.075 162.0573 542.575 162.0573Q541.46564 162.0573 540.66876 161.1823Q539.8719 160.29167 539.8719 158.7448Q539.8719 157.8073 540.2 157.07292Q540.52814 156.32292 541.1375 155.94792Q541.7625 155.5573 542.4969 155.5573Q543.65314 155.5573 544.3094 156.52605L544.3094 155.69792L545.2625 155.69792L545.2625 164.3073L544.21564 164.3073ZM540.95 158.79167Q540.95 159.9948 541.45 160.58855Q541.96564 161.1823 542.66876 161.1823Q543.34064 161.1823 543.825 160.6198Q544.3094 160.04167 544.3094 158.88542Q544.3094 157.63542 543.79376 157.01042Q543.29376 156.38542 542.59064 156.38542Q541.91876 156.38542 541.4344 156.97917Q540.95 157.5573 540.95 158.79167ZM547.2469 154.54167L547.2469 153.32292L548.3094 153.32292L548.3094 154.54167L547.2469 154.54167ZM547.2469 161.91667L547.2469 155.69792L548.3094 155.69792L548.3094 161.91667L547.2469 161.91667ZM550.2469 161.91667L550.2469 155.69792L551.1844 155.69792L551.1844 156.57292Q551.8719 155.5573 553.16876 155.5573Q553.73126 155.5573 554.2 155.76042Q554.6844 155.96355 554.91876 156.29167Q555.15314 156.6198 555.2469 157.0573Q555.29376 157.35417 555.29376 158.08855L555.29376 161.91667L554.2469 161.91667L554.2469 158.13542Q554.2469 157.47917 554.1219 157.16667Q553.9969 156.85417 553.6844 156.66667Q553.3719 156.46355 552.95 156.46355Q552.27814 156.46355 551.77814 156.90105Q551.29376 157.32292 551.29376 158.51042L551.29376 161.91667L550.2469 161.91667ZM557.2469 161.91667L557.2469 155.69792L558.1844 155.69792L558.1844 156.57292Q558.8719 155.5573 560.16876 155.5573Q560.73126 155.5573 561.2 155.76042Q561.6844 155.96355 561.91876 156.29167Q562.15314 156.6198 562.2469 157.0573Q562.29376 157.35417 562.29376 158.08855L562.29376 161.91667L561.2469 161.91667L561.2469 158.13542Q561.2469 157.47917 561.1219 157.16667Q560.9969 156.85417 560.6844 156.66667Q560.3719 156.46355 559.95 156.46355Q559.27814 156.46355 558.77814 156.90105Q558.29376 157.32292 558.29376 158.51042L558.29376 161.91667L557.2469 161.91667Z" fill-rule="nonzero"/><path fill="#46bdc6" d="M512.45 176.91667C512.45 176.36438 512.8977 175.91667 513.45 175.91667L523.45 175.91667C524.00226 175.91667 524.45 176.36438 524.45 176.91667L524.45 186.91667C524.45 187.46895 524.00226 187.91667 523.45 187.91667L513.45 187.91667C512.8977 187.91667 512.45 187.46895 512.45 186.91667Z" fill-rule="nonzero"/><path fill="#1a1a1a" d="M532.6844 185.91667L532.6844 185.0573L536.65314 180.51042Q535.96564 180.54167 535.45 180.54167L532.91876 180.54167L532.91876 179.69792L538.0125 179.69792L538.0125 180.38542L534.6375 184.33855L533.98126 185.0573Q534.7 185.01042 535.3094 185.01042L538.2 185.01042L538.2 185.91667L532.6844 185.91667ZM537.85626 182.8073Q537.85626 181.07292 538.8094 180.2448Q539.60626 179.5573 540.7625 179.5573Q542.04376 179.5573 542.85626 180.40105Q543.6844 181.22917 543.6844 182.71355Q543.6844 183.91667 543.325 184.60417Q542.96564 185.29167 542.2625 185.6823Q541.575 186.0573 540.7625 186.0573Q539.46564 186.0573 538.65314 185.22917Q537.85626 184.38542 537.85626 182.8073ZM538.9344 182.8073Q538.9344 183.9948 539.45 184.58855Q539.98126 185.1823 540.7625 185.1823Q541.5594 185.1823 542.075 184.58855Q542.59064 183.9948 542.59064 182.77605Q542.59064 181.6198 542.0594 181.02605Q541.54376 180.4323 540.7625 180.4323Q539.98126 180.4323 539.45 181.02605Q538.9344 181.60417 538.9344 182.8073ZM545.2469 185.91667L545.2469 179.69792L546.1844 179.69792L546.1844 180.57292Q546.48126 180.10417 546.96564 179.83855Q547.45 179.5573 548.075 179.5573Q548.7625 179.5573 549.2 179.83855Q549.65314 180.1198 549.825 180.63542Q550.575 179.5573 551.7469 179.5573Q552.6844 179.5573 553.16876 180.07292Q553.66876 180.57292 553.66876 181.65105L553.66876 185.91667L552.6219 185.91667L552.6219 181.9948Q552.6219 181.3698 552.5125 181.08855Q552.41876 180.8073 552.15314 180.63542Q551.8875 180.46355 551.5125 180.46355Q550.85626 180.46355 550.41876 180.90105Q549.9969 181.33855 549.9969 182.3073L549.9969 185.91667L548.9344 185.91667L548.9344 181.8698Q548.9344 181.16667 548.66876 180.82292Q548.41876 180.46355 547.84064 180.46355Q547.3875 180.46355 547.0125 180.69792Q546.6375 180.9323 546.46564 181.38542Q546.29376 181.83855 546.29376 182.6823L546.29376 185.91667L545.2469 185.91667ZM557.21564 185.91667L556.23126 185.91667L556.23126 177.32292L557.29376 177.32292L557.29376 180.38542Q557.96564 179.5573 558.9969 179.5573Q559.575 179.5573 560.075 179.79167Q560.59064 180.01042 560.91876 180.4323Q561.2625 180.85417 561.45 181.44792Q561.6375 182.04167 561.6375 182.71355Q561.6375 184.3073 560.84064 185.1823Q560.04376 186.0573 558.95 186.0573Q557.84064 186.0573 557.21564 185.13542L557.21564 185.91667ZM557.2 182.76042Q557.2 183.8698 557.5125 184.3698Q558.0125 185.1823 558.85626 185.1823Q559.54376 185.1823 560.04376 184.58855Q560.5594 183.9948 560.5594 182.79167Q560.5594 181.57292 560.075 180.9948Q559.59064 180.41667 558.90314 180.41667Q558.21564 180.41667 557.7 181.02605Q557.2 181.6198 557.2 182.76042ZM563.2469 178.54167L563.2469 177.32292L564.3094 177.32292L564.3094 178.54167L563.2469 178.54167ZM563.2469 185.91667L563.2469 179.69792L564.3094 179.69792L564.3094 185.91667L563.2469 185.91667ZM570.4969 183.91667L571.59064 184.04167Q571.34064 184.9948 570.6375 185.52605Q569.9344 186.0573 568.85626 186.0573Q567.4969 186.0573 566.6844 185.21355Q565.8875 184.3698 565.8875 182.85417Q565.8875 181.29167 566.7 180.4323Q567.5125 179.5573 568.79376 179.5573Q570.04376 179.5573 570.825 180.40105Q571.6219 181.2448 571.6219 182.79167Q571.6219 182.88542 571.6219 183.07292L566.98126 183.07292Q567.04376 184.10417 567.5594 184.65105Q568.075 185.1823 568.85626 185.1823Q569.4344 185.1823 569.84064 184.88542Q570.2625 184.57292 570.4969 183.91667ZM567.04376 182.21355L570.5125 182.21355Q570.45 181.41667 570.1219 181.02605Q569.60626 180.41667 568.8094 180.41667Q568.075 180.41667 567.575 180.90105Q567.09064 181.38542 567.04376 182.21355Z" fill-rule="nonzero"/><path fill="#757575" d="M271.40625 32.95625L273.1875 32.8Q273.3125 33.8625 273.76562 34.55Q274.23438 35.2375 275.20312 35.675Q276.1875 36.096874 277.42188 36.096874Q278.5 36.096874 279.32812 35.784374Q280.15625 35.45625 280.5625 34.89375Q280.96875 34.33125 280.96875 33.659374Q280.96875 32.9875 280.57812 32.4875Q280.1875 31.9875 279.29688 31.64375Q278.71875 31.409374 276.73438 30.940624Q274.76562 30.471874 273.98438 30.05Q272.95312 29.51875 272.45312 28.721874Q271.95312 27.925 271.95312 26.940624Q271.95312 25.846874 272.5625 24.909374Q273.17188 23.971874 274.35938 23.4875Q275.54688 22.9875 276.98438 22.9875Q278.57812 22.9875 279.79688 23.503124Q281.01562 24.01875 281.65625 25.01875Q282.3125 26.003124 282.35938 27.26875L280.54688 27.409374Q280.40625 26.05 279.5625 25.3625Q278.71875 24.659374 277.0625 24.659374Q275.34375 24.659374 274.54688 25.3Q273.76562 25.925 273.76562 26.8Q273.76562 27.58125 274.32812 28.08125Q274.875 28.58125 277.1875 29.096874Q279.5 29.6125 280.35938 30.003124Q281.60938 30.58125 282.20312 31.471874Q282.79688 32.346874 282.79688 33.503124Q282.79688 34.64375 282.14062 35.659374Q281.48438 36.675 280.25 37.2375Q279.03125 37.8 277.5 37.8Q275.5625 37.8 274.25 37.2375Q272.9375 36.659374 272.1875 35.51875Q271.4375 34.378124 271.40625 32.95625ZM284.82812 25.253124L284.82812 23.2375L286.59375 23.2375L286.59375 25.253124L284.82812 25.253124ZM284.82812 37.55L284.82812 27.175L286.59375 27.175L286.59375 37.55L284.82812 37.55ZM288.8125 37.55L288.8125 27.175L290.39062 27.175L290.39062 28.628124Q290.875 27.878124 291.6875 27.409374Q292.5 26.940624 293.53125 26.940624Q294.6875 26.940624 295.42188 27.425Q296.15625 27.89375 296.46875 28.753124Q297.70312 26.940624 299.67188 26.940624Q301.21875 26.940624 302.04688 27.8Q302.875 28.659374 302.875 30.425L302.875 37.55L301.125 37.55L301.125 31.01875Q301.125 29.95625 300.95312 29.503124Q300.78125 29.034374 300.32812 28.753124Q299.89062 28.471874 299.28125 28.471874Q298.1875 28.471874 297.45312 29.20625Q296.73438 29.925 296.73438 31.51875L296.73438 37.55L294.98438 37.55L294.98438 30.815624Q294.98438 29.64375 294.54688 29.065624Q294.125 28.471874 293.14062 28.471874Q292.40625 28.471874 291.76562 28.8625Q291.14062 29.253124 290.85938 30.003124Q290.57812 30.753124 290.57812 32.175L290.57812 37.55L288.8125 37.55ZM304.8125 41.51875L304.8125 27.175L306.42188 27.175L306.42188 28.51875Q306.98438 27.7375 307.6875 27.346874Q308.40625 26.940624 309.42188 26.940624Q310.75 26.940624 311.76562 27.628124Q312.78125 28.315624 313.29688 29.565624Q313.82812 30.8 313.82812 32.284374Q313.82812 33.878124 313.25 35.159374Q312.6875 36.425 311.59375 37.1125Q310.5 37.784374 309.29688 37.784374Q308.42188 37.784374 307.71875 37.409374Q307.03125 37.034374 306.57812 36.471874L306.57812 41.51875L304.8125 41.51875ZM306.40625 32.425Q306.40625 34.425 307.21875 35.378124Q308.03125 36.33125 309.1875 36.33125Q310.35938 36.33125 311.1875 35.346874Q312.03125 34.3625 312.03125 32.26875Q312.03125 30.3 311.20312 29.315624Q310.39062 28.315624 309.26562 28.315624Q308.14062 28.315624 307.26562 29.378124Q306.40625 30.425 306.40625 32.425ZM315.78125 37.55L315.78125 23.2375L317.53125 23.2375L317.53125 37.55L315.78125 37.55ZM326.92188 34.20625L328.73438 34.440624Q328.3125 36.01875 327.14062 36.909374Q325.98438 37.784374 324.17188 37.784374Q321.90625 37.784374 320.5625 36.39375Q319.23438 34.9875 319.23438 32.45625Q319.23438 29.83125 320.57812 28.39375Q321.92188 26.940624 324.07812 26.940624Q326.15625 26.940624 327.46875 28.3625Q328.79688 29.76875 328.79688 32.346874Q328.79688 32.503124 328.78125 32.815624L321.04688 32.815624Q321.14062 34.51875 322.01562 35.425Q322.89062 36.33125 324.1875 36.33125Q325.15625 36.33125 325.82812 35.83125Q326.51562 35.315624 326.92188 34.20625ZM321.14062 31.3625L326.9375 31.3625Q326.82812 30.065624 326.28125 29.409374Q325.4375 28.39375 324.09375 28.39375Q322.89062 28.39375 322.0625 29.20625Q321.23438 30.003124 321.14062 31.3625Z" fill-rule="nonzero"/></svg>